<?xml version="1.0" encoding="UTF-8" standalone="no"?>
<!DOCTYPE svg PUBLIC "-//W3C//DTD SVG 1.1//EN"
 "http://www.w3.org/Graphics/SVG/1.1/DTD/svg11.dtd">
<!-- Generated by graphviz version 2.38.0 (20140413.2041)
 -->
<!-- Title: %3 Pages: 1 -->
<svg width="308pt" height="336pt"
 viewBox="0.00 0.00 307.72 336.50" xmlns="http://www.w3.org/2000/svg" xmlns:xlink="http://www.w3.org/1999/xlink">
<g id="graph0" class="graph" transform="scale(1 1) rotate(0) translate(144.369 178.198)">
<title>%3</title>
<polygon fill="white" stroke="none" points="-144.369,158.301 -144.369,-178.198 163.35,-178.198 163.35,158.301 -144.369,158.301"/>
<!-- 1 -->
<g id="node1" class="node"><title>1</title>
<ellipse fill="none" stroke="black" cx="-32.4749" cy="73.8296" rx="3.5" ry="3.5"/>
</g>
<!-- 2 -->
<g id="node2" class="node"><title>2</title>
<ellipse fill="black" stroke="black" cx="-71.4775" cy="150.701" rx="3.6" ry="3.6"/>
</g>
<!-- 1&#45;&gt;2 -->
<g id="edge1" class="edge"><title>1&#45;&gt;2</title>
<path fill="none" stroke="black" d="M-34.1508,77.1327C-39.4154,87.5088 -55.8176,119.837 -65.0308,137.995"/>
<polygon fill="black" stroke="black" points="-62.0286,139.814 -69.6745,147.148 -68.271,136.646 -62.0286,139.814"/>
</g>
<!-- 3 -->
<g id="node3" class="node"><title>3</title>
<ellipse fill="black" stroke="black" cx="-126.512" cy="106.772" rx="3.6" ry="3.6"/>
</g>
<!-- 2&#45;&gt;3 -->
<g id="edge2" class="edge"><title>2&#45;&gt;3</title>
<path fill="none" stroke="black" d="M-74.4364,148.339C-82.0511,142.261 -102.629,125.836 -115.52,115.546"/>
<polygon fill="black" stroke="black" points="-117.906,118.12 -123.538,109.146 -113.539,112.649 -117.906,118.12"/>
</g>
<!-- 4 -->
<g id="node4" class="node"><title>4</title>
<ellipse fill="black" stroke="black" cx="-62.0155" cy="59.2564" rx="3.6" ry="3.6"/>
</g>
<!-- 3&#45;&gt;4 -->
<g id="edge3" class="edge"><title>3&#45;&gt;4</title>
<path fill="none" stroke="black" d="M-123.401,104.48C-114.487,97.9133 -88.5219,78.7842 -73.368,67.62"/>
<polygon fill="black" stroke="black" points="-75.0735,64.5292 -64.9465,61.4157 -70.9215,70.165 -75.0735,64.5292"/>
</g>
<!-- 5 -->
<g id="node5" class="node"><title>5</title>
<ellipse fill="black" stroke="black" cx="-136.769" cy="34.3163" rx="3.6" ry="3.6"/>
</g>
<!-- 3&#45;&gt;5 -->
<g id="edge4" class="edge"><title>3&#45;&gt;5</title>
<path fill="none" stroke="black" d="M-127.063,102.877C-128.51,92.6585 -132.466,64.7107 -134.858,47.8189"/>
<polygon fill="black" stroke="black" points="-138.328,48.2766 -136.264,37.8847 -131.397,47.2954 -138.328,48.2766"/>
</g>
<!-- 7 -->
<g id="node6" class="node"><title>7</title>
<ellipse fill="black" stroke="black" cx="42.3962" cy="25.6574" rx="3.6" ry="3.6"/>
</g>
<!-- 4&#45;&gt;7 -->
<g id="edge5" class="edge"><title>4&#45;&gt;7</title>
<path fill="none" stroke="black" d="M-58.5416,58.1385C-44.9803,53.7746 4.83471,37.7445 29.0306,29.9584"/>
<polygon fill="black" stroke="black" points="28.2107,26.5456 38.8021,26.814 30.355,33.209 28.2107,26.5456"/>
</g>
<!-- 5&#45;&gt;4 -->
<g id="edge6" class="edge"><title>5&#45;&gt;4</title>
<path fill="none" stroke="black" d="M-133.164,35.5192C-122.927,38.9345 -93.2878,48.823 -75.6599,54.7042"/>
<polygon fill="black" stroke="black" points="-74.1392,51.5219 -65.761,58.0068 -76.3547,58.1621 -74.1392,51.5219"/>
</g>
<!-- 6 -->
<g id="node7" class="node"><title>6</title>
<ellipse fill="black" stroke="black" cx="-102.321" cy="-32.4348" rx="3.6" ry="3.6"/>
</g>
<!-- 5&#45;&gt;6 -->
<g id="edge7" class="edge"><title>5&#45;&gt;6</title>
<path fill="none" stroke="black" d="M-135.108,31.0968C-130.436,22.0437 -116.994,-4.0029 -108.845,-19.7941"/>
<polygon fill="black" stroke="black" points="-111.744,-21.809 -104.047,-29.0903 -105.523,-18.5988 -111.744,-21.809"/>
</g>
<!-- 8 -->
<g id="node9" class="node"><title>8</title>
<ellipse fill="black" stroke="black" cx="30.4767" cy="64.3943" rx="3.6" ry="3.6"/>
</g>
<!-- 7&#45;&gt;8 -->
<g id="edge9" class="edge"><title>7&#45;&gt;8</title>
<path fill="none" stroke="black" d="M41.2962,29.2323C39.7783,34.1652 36.9591,43.3274 34.579,51.0624"/>
<polygon fill="black" stroke="black" points="37.8951,52.1867 31.6088,60.7151 31.2046,50.128 37.8951,52.1867"/>
</g>
<!-- 9 -->
<g id="node10" class="node"><title>9</title>
<ellipse fill="black" stroke="black" cx="49.0912" cy="-62.3283" rx="3.6" ry="3.6"/>
</g>
<!-- 7&#45;&gt;9 -->
<g id="edge10" class="edge"><title>7&#45;&gt;9</title>
<path fill="none" stroke="black" d="M42.6839,21.8768C43.6002,9.83503 46.4819,-28.0373 48.05,-48.6446"/>
<polygon fill="black" stroke="black" points="44.5633,-48.954 48.812,-58.6596 51.5431,-48.4229 44.5633,-48.954"/>
</g>
<!-- 10 -->
<g id="node11" class="node"><title>10</title>
<ellipse fill="black" stroke="black" cx="126.338" cy="62.6438" rx="3.6" ry="3.6"/>
</g>
<!-- 7&#45;&gt;10 -->
<g id="edge11" class="edge"><title>7&#45;&gt;10</title>
<path fill="none" stroke="black" d="M46.0031,27.2467C57.5453,32.3324 93.9629,48.3787 113.559,57.0131"/>
<polygon fill="black" stroke="black" points="115.098,53.8665 122.838,61.1016 112.276,60.2723 115.098,53.8665"/>
</g>
<!-- 16 -->
<g id="node8" class="node"><title>16</title>
<ellipse fill="black" stroke="black" cx="-14.5752" cy="-20.4084" rx="3.6" ry="3.6"/>
</g>
<!-- 6&#45;&gt;16 -->
<g id="edge8" class="edge"><title>6&#45;&gt;16</title>
<path fill="none" stroke="black" d="M-98.5509,-31.9181C-86.542,-30.2721 -48.7727,-25.0955 -28.2216,-22.2788"/>
<polygon fill="black" stroke="black" points="-27.6659,-25.7355 -18.2338,-20.9099 -28.6165,-18.8003 -27.6659,-25.7355"/>
</g>
<!-- 16&#45;&gt;1 -->
<g id="edge21" class="edge"><title>16&#45;&gt;1</title>
<path fill="none" stroke="black" d="M-15.255,-16.8293C-17.6363,-4.29249 -25.6828,38.0708 -29.8795,60.1654"/>
<polygon fill="black" stroke="black" points="-26.4897,61.0757 -31.7944,70.2469 -33.3668,59.7694 -26.4897,61.0757"/>
</g>
<!-- 8&#45;&gt;16 -->
<g id="edge12" class="edge"><title>8&#45;&gt;16</title>
<path fill="none" stroke="black" d="M28.7657,61.1735C22.7723,49.8919 2.51984,11.7701 -8.04281,-8.11231"/>
<polygon fill="black" stroke="black" points="-11.2617,-6.7112 -12.8624,-17.1844 -5.07988,-9.99535 -11.2617,-6.7112"/>
</g>
<!-- 12 -->
<g id="node12" class="node"><title>12</title>
<ellipse fill="black" stroke="black" cx="79.4683" cy="-125.528" rx="3.6" ry="3.6"/>
</g>
<!-- 9&#45;&gt;12 -->
<g id="edge13" class="edge"><title>9&#45;&gt;12</title>
<path fill="none" stroke="black" d="M50.7244,-65.7262C54.9275,-74.4707 66.2857,-98.1016 73.4014,-112.906"/>
<polygon fill="black" stroke="black" points="70.3403,-114.617 77.827,-122.113 76.6494,-111.584 70.3403,-114.617"/>
</g>
<!-- 11 -->
<g id="node13" class="node"><title>11</title>
<ellipse fill="black" stroke="black" cx="155.75" cy="-9.08212" rx="3.6" ry="3.6"/>
</g>
<!-- 10&#45;&gt;11 -->
<g id="edge14" class="edge"><title>10&#45;&gt;11</title>
<path fill="none" stroke="black" d="M127.757,59.1843C131.784,49.3621 143.446,20.9236 150.382,4.00965"/>
<polygon fill="black" stroke="black" points="147.244,2.436 154.277,-5.48838 153.721,5.09187 147.244,2.436"/>
</g>
<!-- 13 -->
<g id="node14" class="node"><title>13</title>
<ellipse fill="black" stroke="black" cx="84.1518" cy="-48.1146" rx="3.6" ry="3.6"/>
</g>
<!-- 12&#45;&gt;13 -->
<g id="edge17" class="edge"><title>12&#45;&gt;13</title>
<path fill="none" stroke="black" d="M79.6942,-121.794C80.3386,-111.142 82.2104,-80.2041 83.3129,-61.9821"/>
<polygon fill="black" stroke="black" points="86.8068,-62.1864 83.9172,-51.9933 79.8196,-61.7637 86.8068,-62.1864"/>
</g>
<!-- 14 -->
<g id="node15" class="node"><title>14</title>
<ellipse fill="black" stroke="black" cx="15.1911" cy="-170.598" rx="3.6" ry="3.6"/>
</g>
<!-- 12&#45;&gt;14 -->
<g id="edge16" class="edge"><title>12&#45;&gt;14</title>
<path fill="none" stroke="black" d="M76.3681,-127.702C67.5659,-133.874 42.0807,-151.743 26.9233,-162.371"/>
<polygon fill="black" stroke="black" points="24.59,-159.733 18.4116,-168.34 28.6088,-165.464 24.59,-159.733"/>
</g>
<!-- 11&#45;&gt;13 -->
<g id="edge15" class="edge"><title>11&#45;&gt;13</title>
<path fill="none" stroke="black" d="M152.297,-10.9647C142.306,-16.4112 113.021,-32.3764 96.2724,-41.507"/>
<polygon fill="black" stroke="black" points="94.5103,-38.4812 87.4055,-46.3408 97.8609,-44.6273 94.5103,-38.4812"/>
</g>
<!-- 13&#45;&gt;16 -->
<g id="edge18" class="edge"><title>13&#45;&gt;16</title>
<path fill="none" stroke="black" d="M80.4022,-47.0623C67.146,-43.3422 22.0586,-30.6891 -0.900485,-24.246"/>
<polygon fill="black" stroke="black" points="-0.248036,-20.794 -10.8218,-21.4618 -2.13946,-27.5336 -0.248036,-20.794"/>
</g>
<!-- 15 -->
<g id="node16" class="node"><title>15</title>
<ellipse fill="black" stroke="black" cx="-36.7183" cy="-109.077" rx="3.6" ry="3.6"/>
</g>
<!-- 14&#45;&gt;15 -->
<g id="edge19" class="edge"><title>14&#45;&gt;15</title>
<path fill="none" stroke="black" d="M12.6874,-167.63C5.51309,-159.128 -15.3849,-134.361 -27.5814,-119.906"/>
<polygon fill="black" stroke="black" points="-25.2355,-117.259 -34.3593,-111.873 -30.5855,-121.773 -25.2355,-117.259"/>
</g>
<!-- 15&#45;&gt;16 -->
<g id="edge20" class="edge"><title>15&#45;&gt;16</title>
<path fill="none" stroke="black" d="M-35.7668,-105.267C-32.7221,-93.075 -23.1155,-54.6066 -17.9462,-33.907"/>
<polygon fill="black" stroke="black" points="-14.5257,-34.6556 -15.4985,-24.1055 -21.3171,-32.9596 -14.5257,-34.6556"/>
</g>
</g>
</svg>
