<?xml version="1.0" encoding="UTF-8" standalone="no"?>
<!DOCTYPE svg PUBLIC "-//W3C//DTD SVG 1.1//EN"
 "http://www.w3.org/Graphics/SVG/1.1/DTD/svg11.dtd">
<!-- Generated by graphviz version 2.38.0 (20140413.2041)
 -->
<!-- Title: %3 Pages: 1 -->
<svg width="315pt" height="344pt"
 viewBox="0.00 0.00 314.92 343.70" xmlns="http://www.w3.org/2000/svg" xmlns:xlink="http://www.w3.org/1999/xlink">
<g id="graph0" class="graph" transform="scale(1 1) rotate(0) translate(147.969 181.798)">
<title>%3</title>
<polygon fill="white" stroke="none" points="-147.969,161.901 -147.969,-181.798 166.95,-181.798 166.95,161.901 -147.969,161.901"/>
<!-- 1 -->
<g id="node1" class="node"><title>1</title>
<ellipse fill="none" stroke="black" cx="-32.4749" cy="73.8296" rx="7" ry="7"/>
</g>
<!-- 2 -->
<g id="node2" class="node"><title>2</title>
<ellipse fill="black" stroke="black" cx="-71.4775" cy="150.701" rx="7.2" ry="7.2"/>
</g>
<!-- 1&#45;&gt;2 -->
<g id="edge1" class="edge"><title>1&#45;&gt;2</title>
<path fill="none" stroke="black" d="M-35.6666,80.1204C-41.6932,91.9983 -54.9112,118.05 -63.4927,134.964"/>
<polygon fill="black" stroke="black" points="-60.4851,136.772 -68.131,144.106 -66.7276,133.604 -60.4851,136.772"/>
</g>
<!-- 3 -->
<g id="node3" class="node"><title>3</title>
<ellipse fill="black" stroke="black" cx="-126.512" cy="106.772" rx="7.2" ry="7.2"/>
</g>
<!-- 2&#45;&gt;3 -->
<g id="edge2" class="edge"><title>2&#45;&gt;3</title>
<path fill="none" stroke="black" d="M-77.3671,146C-85.7691,139.294 -101.438,126.786 -112.831,117.693"/>
<polygon fill="black" stroke="black" points="-115.198,120.282 -120.83,111.308 -110.831,114.811 -115.198,120.282"/>
</g>
<!-- 4 -->
<g id="node4" class="node"><title>4</title>
<ellipse fill="black" stroke="black" cx="-62.0155" cy="59.2564" rx="7.2" ry="7.2"/>
</g>
<!-- 3&#45;&gt;4 -->
<g id="edge3" class="edge"><title>3&#45;&gt;4</title>
<path fill="none" stroke="black" d="M-120.56,102.387C-110.628,95.0698 -90.3974,80.1659 -76.525,69.9458"/>
<polygon fill="black" stroke="black" points="-78.2684,66.883 -68.1414,63.7694 -74.1164,72.5187 -78.2684,66.883"/>
</g>
<!-- 5 -->
<g id="node5" class="node"><title>5</title>
<ellipse fill="black" stroke="black" cx="-136.769" cy="34.3163" rx="7.2" ry="7.2"/>
</g>
<!-- 3&#45;&gt;5 -->
<g id="edge4" class="edge"><title>3&#45;&gt;5</title>
<path fill="none" stroke="black" d="M-127.533,99.5599C-129.1,88.4927 -132.142,66.9994 -134.307,51.7083"/>
<polygon fill="black" stroke="black" points="-137.816,51.8913 -135.752,41.4994 -130.885,50.9101 -137.816,51.8913"/>
</g>
<!-- 7 -->
<g id="node6" class="node"><title>7</title>
<ellipse fill="black" stroke="black" cx="42.3962" cy="25.6574" rx="7.2" ry="7.2"/>
</g>
<!-- 4&#45;&gt;7 -->
<g id="edge5" class="edge"><title>4&#45;&gt;7</title>
<path fill="none" stroke="black" d="M-54.8389,56.947C-38.3677,51.6467 2.50796,38.4932 25.6772,31.0375"/>
<polygon fill="black" stroke="black" points="24.8529,27.6261 35.4443,27.8945 26.9972,34.2896 24.8529,27.6261"/>
</g>
<!-- 5&#45;&gt;4 -->
<g id="edge6" class="edge"><title>5&#45;&gt;4</title>
<path fill="none" stroke="black" d="M-129.87,36.6179C-118.358,40.4587 -94.9111,48.2814 -78.8324,53.6458"/>
<polygon fill="black" stroke="black" points="-77.4938,50.4027 -69.1156,56.8877 -79.7093,57.0429 -77.4938,50.4027"/>
</g>
<!-- 6 -->
<g id="node7" class="node"><title>6</title>
<ellipse fill="black" stroke="black" cx="-102.321" cy="-32.4348" rx="7.2" ry="7.2"/>
</g>
<!-- 5&#45;&gt;6 -->
<g id="edge7" class="edge"><title>5&#45;&gt;6</title>
<path fill="none" stroke="black" d="M-133.34,27.6719C-128.027,17.3761 -117.659,-2.71414 -110.377,-16.8249"/>
<polygon fill="black" stroke="black" points="-113.433,-18.536 -105.736,-25.8173 -107.212,-15.3257 -113.433,-18.536"/>
</g>
<!-- 8 -->
<g id="node9" class="node"><title>8</title>
<ellipse fill="black" stroke="black" cx="30.4767" cy="64.3943" rx="7.2" ry="7.2"/>
</g>
<!-- 7&#45;&gt;8 -->
<g id="edge9" class="edge"><title>7&#45;&gt;8</title>
<path fill="none" stroke="black" d="M40.21,32.7624C38.933,36.9123 37.2635,42.3383 35.6685,47.5217"/>
<polygon fill="black" stroke="black" points="38.9353,48.806 32.6491,57.3344 32.2449,46.7473 38.9353,48.806"/>
</g>
<!-- 9 -->
<g id="node10" class="node"><title>9</title>
<ellipse fill="black" stroke="black" cx="49.0912" cy="-62.3283" rx="7.2" ry="7.2"/>
</g>
<!-- 7&#45;&gt;9 -->
<g id="edge10" class="edge"><title>7&#45;&gt;9</title>
<path fill="none" stroke="black" d="M42.9441,18.4572C43.9834,4.79788 46.2689,-25.2381 47.7414,-44.5887"/>
<polygon fill="black" stroke="black" points="44.268,-45.0735 48.5168,-54.7791 51.2479,-44.5423 44.268,-45.0735"/>
</g>
<!-- 10 -->
<g id="node11" class="node"><title>10</title>
<ellipse fill="black" stroke="black" cx="126.338" cy="62.6438" rx="7.2" ry="7.2"/>
</g>
<!-- 7&#45;&gt;10 -->
<g id="edge11" class="edge"><title>7&#45;&gt;10</title>
<path fill="none" stroke="black" d="M49.2655,28.6842C62.4892,34.5108 91.8008,47.426 110.224,55.5434"/>
<polygon fill="black" stroke="black" points="111.869,52.4435 119.608,59.6786 109.046,58.8493 111.869,52.4435"/>
</g>
<!-- 16 -->
<g id="node8" class="node"><title>16</title>
<ellipse fill="black" stroke="black" cx="-14.5752" cy="-20.4084" rx="7.2" ry="7.2"/>
</g>
<!-- 6&#45;&gt;16 -->
<g id="edge8" class="edge"><title>6&#45;&gt;16</title>
<path fill="none" stroke="black" d="M-95.1406,-31.4507C-81.5185,-29.5836 -51.5644,-25.4781 -32.2664,-22.8332"/>
<polygon fill="black" stroke="black" points="-31.5359,-26.2659 -22.1038,-21.4403 -32.4865,-19.3307 -31.5359,-26.2659"/>
</g>
<!-- 16&#45;&gt;1 -->
<g id="edge21" class="edge"><title>16&#45;&gt;1</title>
<path fill="none" stroke="black" d="M-15.9206,-13.3253C-18.7332,1.48257 -25.3024,36.0679 -29.2678,56.945"/>
<polygon fill="black" stroke="black" points="-25.8579,57.7492 -31.1626,66.9204 -32.7349,56.4429 -25.8579,57.7492"/>
</g>
<!-- 8&#45;&gt;16 -->
<g id="edge12" class="edge"><title>8&#45;&gt;16</title>
<path fill="none" stroke="black" d="M27.0905,58.0203C20.0459,44.76 3.63847,13.8757 -6.3567,-4.9385"/>
<polygon fill="black" stroke="black" points="-9.54895,-3.48728 -11.1497,-13.9605 -3.36715,-6.77143 -9.54895,-3.48728"/>
</g>
<!-- 12 -->
<g id="node12" class="node"><title>12</title>
<ellipse fill="black" stroke="black" cx="79.4683" cy="-125.528" rx="7.2" ry="7.2"/>
</g>
<!-- 9&#45;&gt;12 -->
<g id="edge13" class="edge"><title>9&#45;&gt;12</title>
<path fill="none" stroke="black" d="M52.3421,-69.0917C56.9797,-78.7403 65.6285,-96.7342 71.9166,-109.817"/>
<polygon fill="black" stroke="black" points="68.8451,-111.506 76.3318,-119.003 75.1542,-108.473 68.8451,-111.506"/>
</g>
<!-- 11 -->
<g id="node13" class="node"><title>11</title>
<ellipse fill="black" stroke="black" cx="155.75" cy="-9.08212" rx="7.2" ry="7.2"/>
</g>
<!-- 10&#45;&gt;11 -->
<g id="edge14" class="edge"><title>10&#45;&gt;11</title>
<path fill="none" stroke="black" d="M129.158,55.7664C133.694,44.7061 142.734,22.6598 149.007,7.36231"/>
<polygon fill="black" stroke="black" points="145.949,5.59409 152.982,-2.33028 152.426,8.24997 145.949,5.59409"/>
</g>
<!-- 13 -->
<g id="node14" class="node"><title>13</title>
<ellipse fill="black" stroke="black" cx="84.1518" cy="-48.1146" rx="7.2" ry="7.2"/>
</g>
<!-- 12&#45;&gt;13 -->
<g id="edge17" class="edge"><title>12&#45;&gt;13</title>
<path fill="none" stroke="black" d="M79.9174,-118.105C80.6466,-106.052 82.1072,-81.9104 83.107,-65.3842"/>
<polygon fill="black" stroke="black" points="86.6006,-65.595 83.711,-55.4018 79.6134,-65.1722 86.6006,-65.595"/>
</g>
<!-- 14 -->
<g id="node15" class="node"><title>14</title>
<ellipse fill="black" stroke="black" cx="15.1911" cy="-170.598" rx="7.2" ry="7.2"/>
</g>
<!-- 12&#45;&gt;14 -->
<g id="edge16" class="edge"><title>12&#45;&gt;14</title>
<path fill="none" stroke="black" d="M73.5365,-129.687C63.6378,-136.628 43.4765,-150.765 29.6512,-160.459"/>
<polygon fill="black" stroke="black" points="27.4745,-157.71 21.2961,-166.317 31.4933,-163.442 27.4745,-157.71"/>
</g>
<!-- 11&#45;&gt;13 -->
<g id="edge15" class="edge"><title>11&#45;&gt;13</title>
<path fill="none" stroke="black" d="M149.143,-12.6842C137.897,-18.8149 114.76,-31.4284 99.3473,-39.8307"/>
<polygon fill="black" stroke="black" points="97.642,-36.774 90.5372,-44.6336 100.993,-42.92 97.642,-36.774"/>
</g>
<!-- 13&#45;&gt;16 -->
<g id="edge18" class="edge"><title>13&#45;&gt;16</title>
<path fill="none" stroke="black" d="M77.0516,-46.122C61.5397,-41.7689 24.2626,-31.3077 2.33295,-25.1535"/>
<polygon fill="black" stroke="black" points="3.03443,-21.7152 -7.53934,-22.383 1.14301,-28.4548 3.03443,-21.7152"/>
</g>
<!-- 15 -->
<g id="node16" class="node"><title>15</title>
<ellipse fill="black" stroke="black" cx="-36.7183" cy="-109.077" rx="7.2" ry="7.2"/>
</g>
<!-- 14&#45;&gt;15 -->
<g id="edge19" class="edge"><title>14&#45;&gt;15</title>
<path fill="none" stroke="black" d="M10.4006,-164.92C2.40666,-155.446 -13.8754,-136.15 -25.0405,-122.917"/>
<polygon fill="black" stroke="black" points="-22.6641,-120.306 -31.788,-114.92 -28.0141,-124.82 -22.6641,-120.306"/>
</g>
<!-- 15&#45;&gt;16 -->
<g id="edge20" class="edge"><title>15&#45;&gt;16</title>
<path fill="none" stroke="black" d="M-34.9062,-101.821C-31.4179,-87.8528 -23.6858,-56.8905 -18.826,-37.4303"/>
<polygon fill="black" stroke="black" points="-15.3776,-38.0671 -16.3504,-27.517 -22.1691,-36.371 -15.3776,-38.0671"/>
</g>
</g>
</svg>
