<?xml version="1.0" encoding="UTF-8" standalone="no"?>
<!DOCTYPE svg PUBLIC "-//W3C//DTD SVG 1.1//EN"
 "http://www.w3.org/Graphics/SVG/1.1/DTD/svg11.dtd">
<!-- Generated by graphviz version 2.38.0 (20140413.2041)
 -->
<!-- Title: %3 Pages: 1 -->
<svg width="500pt" height="539pt"
 viewBox="0.00 0.00 499.59 538.84" xmlns="http://www.w3.org/2000/svg" xmlns:xlink="http://www.w3.org/1999/xlink">
<g id="graph0" class="graph" transform="scale(1 1) rotate(0) translate(253.195 276.817)">
<title>%3</title>
<polygon fill="white" stroke="none" points="-253.195,262.028 -253.195,-276.817 246.393,-276.817 246.393,262.028 -253.195,262.028"/>
<!-- 1 -->
<g id="node1" class="node"><title>1</title>
<ellipse fill="none" stroke="black" cx="-63.1925" cy="215.91" rx="7" ry="7"/>
</g>
<!-- 2 -->
<g id="node2" class="node"><title>2</title>
<ellipse fill="black" stroke="black" cx="-32.2694" cy="141.505" rx="7.2" ry="7.2"/>
</g>
<!-- 1&#45;&gt;2 -->
<g id="edge1" class="edge"><title>1&#45;&gt;2</title>
<path fill="none" stroke="black" d="M-60.4483,209.307C-55.6924,197.864 -45.7858,174.027 -39.0802,157.893"/>
<polygon fill="black" stroke="black" points="-42.1217,156.091 -35.0519,148.2 -35.6578,158.777 -42.1217,156.091"/>
</g>
<!-- 3 -->
<g id="node3" class="node"><title>3</title>
<ellipse fill="black" stroke="black" cx="-52.7154" cy="59.5507" rx="7.2" ry="7.2"/>
</g>
<!-- 2&#45;&gt;3 -->
<g id="edge2" class="edge"><title>2&#45;&gt;3</title>
<path fill="none" stroke="black" d="M-34.0126,134.517C-37.1795,121.823 -43.9623,94.6359 -48.4298,76.7287"/>
<polygon fill="black" stroke="black" points="-51.8345,77.5407 -50.8593,66.9908 -45.0427,75.8462 -51.8345,77.5407"/>
</g>
<!-- 4 -->
<g id="node4" class="node"><title>4</title>
<ellipse fill="black" stroke="black" cx="-135.278" cy="41.5029" rx="7.2" ry="7.2"/>
</g>
<!-- 3&#45;&gt;4 -->
<g id="edge3" class="edge"><title>3&#45;&gt;4</title>
<path fill="none" stroke="black" d="M-59.7547,58.0119C-72.5429,55.2165 -99.9323,49.2293 -117.972,45.2858"/>
<polygon fill="black" stroke="black" points="-118.761,48.6962 -127.783,43.1414 -117.266,41.8577 -118.761,48.6962"/>
</g>
<!-- 6 -->
<g id="node5" class="node"><title>6</title>
<ellipse fill="black" stroke="black" cx="2.56117" cy="2.9395" rx="7.2" ry="7.2"/>
</g>
<!-- 3&#45;&gt;6 -->
<g id="edge4" class="edge"><title>3&#45;&gt;6</title>
<path fill="none" stroke="black" d="M-47.6142,54.3263C-39.1017,45.6083 -21.7635,27.8515 -9.87412,15.675"/>
<polygon fill="black" stroke="black" points="-12.1794,13.0261 -2.68896,8.31638 -7.17099,17.9165 -12.1794,13.0261"/>
</g>
<!-- 5 -->
<g id="node6" class="node"><title>5</title>
<ellipse fill="black" stroke="black" cx="-208.961" cy="74.2731" rx="7.2" ry="7.2"/>
</g>
<!-- 4&#45;&gt;5 -->
<g id="edge5" class="edge"><title>4&#45;&gt;5</title>
<path fill="none" stroke="black" d="M-142.078,44.5271C-153.425,49.5737 -176.537,59.8524 -192.385,66.9009"/>
<polygon fill="black" stroke="black" points="-191.404,70.2949 -201.963,71.1606 -194.248,63.8989 -191.404,70.2949"/>
</g>
<!-- 10 -->
<g id="node8" class="node"><title>10</title>
<ellipse fill="black" stroke="black" cx="58.7879" cy="-47.1239" rx="7.2" ry="7.2"/>
</g>
<!-- 6&#45;&gt;10 -->
<g id="edge7" class="edge"><title>6&#45;&gt;10</title>
<path fill="none" stroke="black" d="M8.15796,-2.04379C16.8305,-9.76568 33.7531,-24.8333 45.6391,-35.4164"/>
<polygon fill="black" stroke="black" points="43.4177,-38.1248 53.2137,-42.1607 48.0726,-32.8968 43.4177,-38.1248"/>
</g>
<!-- 7 -->
<g id="node7" class="node"><title>7</title>
<ellipse fill="black" stroke="black" cx="-241.995" cy="149.039" rx="7.2" ry="7.2"/>
</g>
<!-- 5&#45;&gt;7 -->
<g id="edge6" class="edge"><title>5&#45;&gt;7</title>
<path fill="none" stroke="black" d="M-211.893,80.9081C-217.022,92.5175 -227.76,116.821 -234.925,133.038"/>
<polygon fill="black" stroke="black" points="-231.779,134.579 -239.022,142.312 -238.182,131.75 -231.779,134.579"/>
</g>
<!-- 8 -->
<g id="node9" class="node"><title>8</title>
<ellipse fill="black" stroke="black" cx="-216.097" cy="227.237" rx="7.2" ry="7.2"/>
</g>
<!-- 7&#45;&gt;8 -->
<g id="edge8" class="edge"><title>7&#45;&gt;8</title>
<path fill="none" stroke="black" d="M-239.696,155.979C-235.675,168.121 -227.257,193.54 -221.64,210.501"/>
<polygon fill="black" stroke="black" points="-218.249,209.607 -218.427,220.201 -224.894,211.808 -218.249,209.607"/>
</g>
<!-- 11 -->
<g id="node11" class="node"><title>11</title>
<ellipse fill="black" stroke="black" cx="106.139" cy="-105.157" rx="7.2" ry="7.2"/>
</g>
<!-- 10&#45;&gt;11 -->
<g id="edge11" class="edge"><title>10&#45;&gt;11</title>
<path fill="none" stroke="black" d="M63.5012,-52.9005C70.8047,-61.8516 85.0561,-79.3179 95.0658,-91.5857"/>
<polygon fill="black" stroke="black" points="92.4109,-93.8683 101.445,-99.4037 97.8346,-89.4429 92.4109,-93.8683"/>
</g>
<!-- 9 -->
<g id="node10" class="node"><title>9</title>
<ellipse fill="black" stroke="black" cx="-137.156" cy="250.828" rx="7.2" ry="7.2"/>
</g>
<!-- 8&#45;&gt;9 -->
<g id="edge9" class="edge"><title>8&#45;&gt;9</title>
<path fill="none" stroke="black" d="M-209.092,229.33C-196.834,232.994 -171.174,240.662 -154.052,245.779"/>
<polygon fill="black" stroke="black" points="-152.839,242.488 -144.26,248.705 -154.843,249.195 -152.839,242.488"/>
</g>
<!-- 9&#45;&gt;1 -->
<g id="edge10" class="edge"><title>9&#45;&gt;1</title>
<path fill="none" stroke="black" d="M-130.593,247.729C-119.108,242.307 -95.065,230.957 -79.0225,223.383"/>
<polygon fill="black" stroke="black" points="-80.3851,220.156 -69.8479,219.052 -77.3967,226.486 -80.3851,220.156"/>
</g>
<!-- 12 -->
<g id="node12" class="node"><title>12</title>
<ellipse fill="black" stroke="black" cx="124.235" cy="-178.253" rx="7.2" ry="7.2"/>
</g>
<!-- 11&#45;&gt;12 -->
<g id="edge12" class="edge"><title>11&#45;&gt;12</title>
<path fill="none" stroke="black" d="M107.874,-112.166C110.636,-123.322 116.113,-145.447 119.967,-161.015"/>
<polygon fill="black" stroke="black" points="116.624,-162.076 122.425,-170.941 123.419,-160.393 116.624,-162.076"/>
</g>
<!-- 13 -->
<g id="node13" class="node"><title>13</title>
<ellipse fill="black" stroke="black" cx="221.143" cy="-192.028" rx="7.2" ry="7.2"/>
</g>
<!-- 12&#45;&gt;13 -->
<g id="edge13" class="edge"><title>12&#45;&gt;13</title>
<path fill="none" stroke="black" d="M131.519,-179.289C146.742,-181.452 182.292,-186.506 203.763,-189.558"/>
<polygon fill="black" stroke="black" points="203.382,-193.039 213.775,-190.981 204.367,-186.108 203.382,-193.039"/>
</g>
<!-- 14 -->
<g id="node14" class="node"><title>14</title>
<ellipse fill="black" stroke="black" cx="235.193" cy="-265.617" rx="7.2" ry="7.2"/>
</g>
<!-- 13&#45;&gt;14 -->
<g id="edge14" class="edge"><title>13&#45;&gt;14</title>
<path fill="none" stroke="black" d="M222.542,-199.353C224.709,-210.704 228.938,-232.852 231.908,-248.408"/>
<polygon fill="black" stroke="black" points="228.487,-249.155 233.8,-258.322 235.363,-247.843 228.487,-249.155"/>
</g>
<!-- 15 -->
<g id="node15" class="node"><title>15</title>
<ellipse fill="black" stroke="black" cx="166.468" cy="-236.374" rx="7.2" ry="7.2"/>
</g>
<!-- 14&#45;&gt;15 -->
<g id="edge15" class="edge"><title>14&#45;&gt;15</title>
<path fill="none" stroke="black" d="M228.352,-262.706C217.752,-258.195 197.068,-249.394 182.54,-243.212"/>
<polygon fill="black" stroke="black" points="183.853,-239.968 173.281,-239.273 181.113,-246.409 183.853,-239.968"/>
</g>
<!-- 16 -->
<g id="node16" class="node"><title>16</title>
<ellipse fill="black" stroke="black" cx="173.138" cy="-138.232" rx="7.2" ry="7.2"/>
</g>
<!-- 15&#45;&gt;16 -->
<g id="edge16" class="edge"><title>15&#45;&gt;16</title>
<path fill="none" stroke="black" d="M166.969,-228.997C168.022,-213.504 170.488,-177.224 171.963,-155.515"/>
<polygon fill="black" stroke="black" points="175.462,-155.641 172.649,-145.427 168.479,-155.167 175.462,-155.641"/>
</g>
<!-- 16&#45;&gt;11 -->
<g id="edge17" class="edge"><title>16&#45;&gt;11</title>
<path fill="none" stroke="black" d="M166.469,-134.939C156.135,-129.838 135.97,-119.883 121.807,-112.892"/>
<polygon fill="black" stroke="black" points="123.297,-109.724 112.781,-108.436 120.199,-116.001 123.297,-109.724"/>
</g>
</g>
</svg>
