<?xml version="1.0" encoding="UTF-8" standalone="no"?>
<!DOCTYPE svg PUBLIC "-//W3C//DTD SVG 1.1//EN"
 "http://www.w3.org/Graphics/SVG/1.1/DTD/svg11.dtd">
<!-- Generated by graphviz version 2.38.0 (20140413.2041)
 -->
<!-- Title: %3 Pages: 1 -->
<svg width="492pt" height="532pt"
 viewBox="0.00 0.00 492.39 531.64" xmlns="http://www.w3.org/2000/svg" xmlns:xlink="http://www.w3.org/1999/xlink">
<g id="graph0" class="graph" transform="scale(1 1) rotate(0) translate(249.595 273.217)">
<title>%3</title>
<polygon fill="white" stroke="none" points="-249.595,258.428 -249.595,-273.217 242.793,-273.217 242.793,258.428 -249.595,258.428"/>
<!-- 1 -->
<g id="node1" class="node"><title>1</title>
<ellipse fill="none" stroke="black" cx="-63.1925" cy="215.91" rx="3.5" ry="3.5"/>
</g>
<!-- 2 -->
<g id="node2" class="node"><title>2</title>
<ellipse fill="black" stroke="black" cx="-32.2694" cy="141.505" rx="3.6" ry="3.6"/>
</g>
<!-- 1&#45;&gt;2 -->
<g id="edge1" class="edge"><title>1&#45;&gt;2</title>
<path fill="none" stroke="black" d="M-61.701,212.321C-57.4272,202.038 -44.978,172.083 -37.7123,154.601"/>
<polygon fill="black" stroke="black" points="-40.7445,152.777 -33.6746,144.886 -34.2805,155.464 -40.7445,152.777"/>
</g>
<!-- 3 -->
<g id="node3" class="node"><title>3</title>
<ellipse fill="black" stroke="black" cx="-52.7154" cy="59.5507" rx="3.6" ry="3.6"/>
</g>
<!-- 2&#45;&gt;3 -->
<g id="edge2" class="edge"><title>2&#45;&gt;3</title>
<path fill="none" stroke="black" d="M-33.1479,137.983C-35.9077,126.921 -44.5062,92.456 -49.336,73.0967"/>
<polygon fill="black" stroke="black" points="-52.7455,73.889 -51.7703,63.3391 -45.9537,72.1945 -52.7455,73.889"/>
</g>
<!-- 4 -->
<g id="node4" class="node"><title>4</title>
<ellipse fill="black" stroke="black" cx="-135.278" cy="41.5029" rx="3.6" ry="3.6"/>
</g>
<!-- 3&#45;&gt;4 -->
<g id="edge3" class="edge"><title>3&#45;&gt;4</title>
<path fill="none" stroke="black" d="M-56.263,58.7752C-67.4073,56.3391 -102.128,48.7492 -121.631,44.486"/>
<polygon fill="black" stroke="black" points="-122.439,47.8921 -131.461,42.3372 -120.945,41.0535 -122.439,47.8921"/>
</g>
<!-- 6 -->
<g id="node5" class="node"><title>6</title>
<ellipse fill="black" stroke="black" cx="2.56117" cy="2.9395" rx="3.6" ry="3.6"/>
</g>
<!-- 3&#45;&gt;6 -->
<g id="edge4" class="edge"><title>3&#45;&gt;6</title>
<path fill="none" stroke="black" d="M-50.0493,56.8202C-42.4797,49.0678 -20.5632,26.6221 -7.52819,13.2725"/>
<polygon fill="black" stroke="black" points="-9.69888,10.4857 -0.208398,5.77594 -4.69043,15.3761 -9.69888,10.4857"/>
</g>
<!-- 5 -->
<g id="node6" class="node"><title>5</title>
<ellipse fill="black" stroke="black" cx="-208.961" cy="74.2731" rx="3.6" ry="3.6"/>
</g>
<!-- 4&#45;&gt;5 -->
<g id="edge5" class="edge"><title>4&#45;&gt;5</title>
<path fill="none" stroke="black" d="M-138.832,43.0835C-149.015,47.6126 -178.679,60.8054 -195.992,68.505"/>
<polygon fill="black" stroke="black" points="-195.054,71.9182 -205.613,72.7839 -197.898,65.5222 -195.054,71.9182"/>
</g>
<!-- 10 -->
<g id="node8" class="node"><title>10</title>
<ellipse fill="black" stroke="black" cx="58.7879" cy="-47.1239" rx="3.6" ry="3.6"/>
</g>
<!-- 6&#45;&gt;10 -->
<g id="edge7" class="edge"><title>6&#45;&gt;10</title>
<path fill="none" stroke="black" d="M5.2731,0.524843C12.8988,-6.26494 34.8387,-25.7999 48.1401,-37.6433"/>
<polygon fill="black" stroke="black" points="46.1747,-40.5796 55.9707,-44.6155 50.8296,-35.3516 46.1747,-40.5796"/>
</g>
<!-- 7 -->
<g id="node7" class="node"><title>7</title>
<ellipse fill="black" stroke="black" cx="-241.995" cy="149.039" rx="3.6" ry="3.6"/>
</g>
<!-- 5&#45;&gt;7 -->
<g id="edge6" class="edge"><title>5&#45;&gt;7</title>
<path fill="none" stroke="black" d="M-210.555,77.8792C-215.164,88.3119 -228.675,118.893 -236.403,136.382"/>
<polygon fill="black" stroke="black" points="-233.251,137.909 -240.494,145.642 -239.654,135.08 -233.251,137.909"/>
</g>
<!-- 8 -->
<g id="node9" class="node"><title>8</title>
<ellipse fill="black" stroke="black" cx="-216.097" cy="227.237" rx="3.6" ry="3.6"/>
</g>
<!-- 7&#45;&gt;8 -->
<g id="edge8" class="edge"><title>7&#45;&gt;8</title>
<path fill="none" stroke="black" d="M-240.746,152.811C-237.132,163.722 -226.539,195.707 -220.481,213.999"/>
<polygon fill="black" stroke="black" points="-217.095,213.09 -217.274,223.683 -223.74,215.291 -217.095,213.09"/>
</g>
<!-- 11 -->
<g id="node11" class="node"><title>11</title>
<ellipse fill="black" stroke="black" cx="106.139" cy="-105.157" rx="3.6" ry="3.6"/>
</g>
<!-- 10&#45;&gt;11 -->
<g id="edge11" class="edge"><title>10&#45;&gt;11</title>
<path fill="none" stroke="black" d="M61.0717,-49.9229C67.4936,-57.7936 85.9703,-80.4384 97.172,-94.1671"/>
<polygon fill="black" stroke="black" points="94.7327,-96.7138 103.767,-102.249 100.156,-92.2884 94.7327,-96.7138"/>
</g>
<!-- 9 -->
<g id="node10" class="node"><title>9</title>
<ellipse fill="black" stroke="black" cx="-137.156" cy="250.828" rx="3.6" ry="3.6"/>
</g>
<!-- 8&#45;&gt;9 -->
<g id="edge9" class="edge"><title>8&#45;&gt;9</title>
<path fill="none" stroke="black" d="M-212.29,228.375C-201.274,231.667 -168.986,241.316 -150.52,246.834"/>
<polygon fill="black" stroke="black" points="-149.323,243.539 -140.744,249.755 -151.327,250.246 -149.323,243.539"/>
</g>
<!-- 9&#45;&gt;1 -->
<g id="edge10" class="edge"><title>9&#45;&gt;1</title>
<path fill="none" stroke="black" d="M-133.589,249.143C-123.268,244.271 -93.0153,229.989 -75.7135,221.821"/>
<polygon fill="black" stroke="black" points="-77.0908,218.601 -66.5537,217.497 -74.1024,224.931 -77.0908,218.601"/>
</g>
<!-- 12 -->
<g id="node12" class="node"><title>12</title>
<ellipse fill="black" stroke="black" cx="124.235" cy="-178.253" rx="3.6" ry="3.6"/>
</g>
<!-- 11&#45;&gt;12 -->
<g id="edge12" class="edge"><title>11&#45;&gt;12</title>
<path fill="none" stroke="black" d="M107.012,-108.683C109.478,-118.644 116.596,-147.396 120.87,-164.662"/>
<polygon fill="black" stroke="black" points="117.527,-165.725 123.328,-174.591 124.322,-164.043 117.527,-165.725"/>
</g>
<!-- 13 -->
<g id="node13" class="node"><title>13</title>
<ellipse fill="black" stroke="black" cx="221.143" cy="-192.028" rx="3.6" ry="3.6"/>
</g>
<!-- 12&#45;&gt;13 -->
<g id="edge13" class="edge"><title>12&#45;&gt;13</title>
<path fill="none" stroke="black" d="M127.915,-178.776C140.867,-180.617 184.777,-186.859 207.407,-190.076"/>
<polygon fill="black" stroke="black" points="207.066,-193.562 217.459,-191.505 208.051,-186.632 207.066,-193.562"/>
</g>
<!-- 14 -->
<g id="node14" class="node"><title>14</title>
<ellipse fill="black" stroke="black" cx="235.193" cy="-265.617" rx="3.6" ry="3.6"/>
</g>
<!-- 13&#45;&gt;14 -->
<g id="edge14" class="edge"><title>13&#45;&gt;14</title>
<path fill="none" stroke="black" d="M221.821,-195.578C223.736,-205.607 229.262,-234.552 232.581,-251.934"/>
<polygon fill="black" stroke="black" points="229.176,-252.764 234.489,-261.93 236.052,-251.451 229.176,-252.764"/>
</g>
<!-- 15 -->
<g id="node15" class="node"><title>15</title>
<ellipse fill="black" stroke="black" cx="166.468" cy="-236.374" rx="3.6" ry="3.6"/>
</g>
<!-- 14&#45;&gt;15 -->
<g id="edge15" class="edge"><title>14&#45;&gt;15</title>
<path fill="none" stroke="black" d="M231.878,-264.206C222.558,-260.24 195.741,-248.83 179.483,-241.912"/>
<polygon fill="black" stroke="black" points="180.484,-238.534 169.911,-237.839 177.743,-244.975 180.484,-238.534"/>
</g>
<!-- 16 -->
<g id="node16" class="node"><title>16</title>
<ellipse fill="black" stroke="black" cx="173.138" cy="-138.232" rx="3.6" ry="3.6"/>
</g>
<!-- 15&#45;&gt;16 -->
<g id="edge16" class="edge"><title>15&#45;&gt;16</title>
<path fill="none" stroke="black" d="M166.721,-232.646C167.613,-219.529 170.635,-175.061 172.192,-152.142"/>
<polygon fill="black" stroke="black" points="175.698,-152.177 172.884,-141.963 168.714,-151.702 175.698,-152.177"/>
</g>
<!-- 16&#45;&gt;11 -->
<g id="edge17" class="edge"><title>16&#45;&gt;11</title>
<path fill="none" stroke="black" d="M169.906,-136.636C160.819,-132.151 134.676,-119.245 118.827,-111.42"/>
<polygon fill="black" stroke="black" points="120.012,-108.102 109.496,-106.814 116.913,-114.379 120.012,-108.102"/>
</g>
</g>
</svg>
