<?xml version="1.0" encoding="UTF-8" standalone="no"?>
<!DOCTYPE svg PUBLIC "-//W3C//DTD SVG 1.1//EN"
 "http://www.w3.org/Graphics/SVG/1.1/DTD/svg11.dtd">
<!-- Generated by graphviz version 2.38.0 (20140413.2041)
 -->
<!-- Title: %3 Pages: 1 -->
<svg width="234pt" height="234pt"
 viewBox="0.00 0.00 233.73 234.03" xmlns="http://www.w3.org/2000/svg" xmlns:xlink="http://www.w3.org/1999/xlink">
<g id="graph0" class="graph" transform="scale(1 1) rotate(0) translate(116.85 117.046)">
<title>%3</title>
<polygon fill="white" stroke="none" points="-116.85,116.985 -116.85,-117.046 116.878,-117.046 116.878,116.985 -116.85,116.985"/>
<!-- 1 -->
<g id="node1" class="node"><title>1</title>
<ellipse fill="none" stroke="black" cx="69.6909" cy="79.3489" rx="7" ry="7"/>
</g>
<!-- 2 -->
<g id="node2" class="node"><title>2</title>
<ellipse fill="black" stroke="black" cx="105.678" cy="6.74707" rx="7.2" ry="7.2"/>
</g>
<!-- 1&#45;&gt;2 -->
<g id="edge1" class="edge"><title>1&#45;&gt;2</title>
<path fill="none" stroke="black" d="M73.012,72.6488C78.6105,61.3541 90.0728,38.2298 97.8181,22.6041"/>
<polygon fill="black" stroke="black" points="94.8916,20.6272 102.469,13.2219 101.163,23.736 94.8916,20.6272"/>
</g>
<!-- 3 -->
<g id="node3" class="node"><title>3</title>
<ellipse fill="black" stroke="black" cx="79.5858" cy="-69.9709" rx="7.2" ry="7.2"/>
</g>
<!-- 2&#45;&gt;3 -->
<g id="edge2" class="edge"><title>2&#45;&gt;3</title>
<path fill="none" stroke="black" d="M103.27,-0.332866C99.211,-12.2679 90.9004,-36.7033 85.2846,-53.2148"/>
<polygon fill="black" stroke="black" points="81.8192,-52.5346 81.9128,-63.129 88.4464,-54.7886 81.8192,-52.5346"/>
</g>
<!-- 4 -->
<g id="node4" class="node"><title>4</title>
<ellipse fill="black" stroke="black" cx="6.91672" cy="-105.846" rx="7.2" ry="7.2"/>
</g>
<!-- 3&#45;&gt;4 -->
<g id="edge3" class="edge"><title>3&#45;&gt;4</title>
<path fill="none" stroke="black" d="M72.8795,-73.2816C61.5744,-78.8627 38.4286,-90.2891 22.7885,-98.0102"/>
<polygon fill="black" stroke="black" points="20.8151,-95.0811 13.3976,-102.646 23.9138,-101.358 20.8151,-95.0811"/>
</g>
<!-- 5 -->
<g id="node5" class="node"><title>5</title>
<ellipse fill="black" stroke="black" cx="-69.6712" cy="-79.3404" rx="7.2" ry="7.2"/>
</g>
<!-- 4&#45;&gt;5 -->
<g id="edge4" class="edge"><title>4&#45;&gt;5</title>
<path fill="none" stroke="black" d="M-0.151207,-103.4C-12.066,-99.2762 -36.4599,-90.834 -52.9435,-85.1295"/>
<polygon fill="black" stroke="black" points="-52.2461,-81.6672 -62.8409,-81.7043 -54.5355,-88.2823 -52.2461,-81.6672"/>
</g>
<!-- 6 -->
<g id="node6" class="node"><title>6</title>
<ellipse fill="black" stroke="black" cx="-105.65" cy="-6.73551" rx="7.2" ry="7.2"/>
</g>
<!-- 5&#45;&gt;6 -->
<g id="edge5" class="edge"><title>5&#45;&gt;6</title>
<path fill="none" stroke="black" d="M-72.9915,-72.6401C-78.5887,-61.3449 -90.0481,-38.2196 -97.7915,-22.5933"/>
<polygon fill="black" stroke="black" points="-94.8647,-20.6168 -102.441,-13.2106 -101.137,-23.7249 -94.8647,-20.6168"/>
</g>
<!-- 7 -->
<g id="node7" class="node"><title>7</title>
<ellipse fill="black" stroke="black" cx="-79.6332" cy="70.0115" rx="7.2" ry="7.2"/>
</g>
<!-- 6&#45;&gt;7 -->
<g id="edge6" class="edge"><title>6&#45;&gt;7</title>
<path fill="none" stroke="black" d="M-103.249,0.347096C-99.2013,12.2867 -90.9148,36.7313 -85.3155,53.2491"/>
<polygon fill="black" stroke="black" points="-81.8492,52.5727 -81.9534,63.167 -88.4786,54.82 -81.8492,52.5727"/>
</g>
<!-- 8 -->
<g id="node8" class="node"><title>8</title>
<ellipse fill="black" stroke="black" cx="-6.91755" cy="105.785" rx="7.2" ry="7.2"/>
</g>
<!-- 7&#45;&gt;8 -->
<g id="edge7" class="edge"><title>7&#45;&gt;8</title>
<path fill="none" stroke="black" d="M-72.9226,73.3129C-61.6102,78.8782 -38.4496,90.2724 -22.7995,97.9717"/>
<polygon fill="black" stroke="black" points="-20.8304,95.0397 -13.4025,102.595 -23.9205,101.321 -20.8304,95.0397"/>
</g>
<!-- 8&#45;&gt;1 -->
<g id="edge8" class="edge"><title>8&#45;&gt;1</title>
<path fill="none" stroke="black" d="M0.152268,103.345C12.0703,99.2327 36.4707,90.8126 52.9587,85.1229"/>
<polygon fill="black" stroke="black" points="52.264,81.6601 62.8587,81.7065 54.5475,88.2772 52.264,81.6601"/>
</g>
</g>
</svg>
