<?xml version="1.0" encoding="UTF-8" standalone="no"?>
<!DOCTYPE svg PUBLIC "-//W3C//DTD SVG 1.1//EN"
 "http://www.w3.org/Graphics/SVG/1.1/DTD/svg11.dtd">
<!-- Generated by graphviz version 2.38.0 (20140413.2041)
 -->
<!-- Title: %3 Pages: 1 -->
<svg width="227pt" height="227pt"
 viewBox="0.00 0.00 226.53 226.83" xmlns="http://www.w3.org/2000/svg" xmlns:xlink="http://www.w3.org/1999/xlink">
<g id="graph0" class="graph" transform="scale(1 1) rotate(0) translate(113.25 113.446)">
<title>%3</title>
<polygon fill="white" stroke="none" points="-113.25,113.385 -113.25,-113.446 113.278,-113.446 113.278,113.385 -113.25,113.385"/>
<!-- 1 -->
<g id="node1" class="node"><title>1</title>
<ellipse fill="none" stroke="black" cx="69.6909" cy="79.3489" rx="3.5" ry="3.5"/>
</g>
<!-- 2 -->
<g id="node2" class="node"><title>2</title>
<ellipse fill="black" stroke="black" cx="105.678" cy="6.74707" rx="3.6" ry="3.6"/>
</g>
<!-- 1&#45;&gt;2 -->
<g id="edge1" class="edge"><title>1&#45;&gt;2</title>
<path fill="none" stroke="black" d="M71.4266,75.8472C76.4482,65.7165 91.1678,36.0207 99.586,19.0375"/>
<polygon fill="black" stroke="black" points="96.4657,17.4516 104.043,10.0463 102.737,20.5605 96.4657,17.4516"/>
</g>
<!-- 3 -->
<g id="node3" class="node"><title>3</title>
<ellipse fill="black" stroke="black" cx="79.5858" cy="-69.9709" rx="3.6" ry="3.6"/>
</g>
<!-- 2&#45;&gt;3 -->
<g id="edge2" class="edge"><title>2&#45;&gt;3</title>
<path fill="none" stroke="black" d="M104.42,3.0468C100.779,-7.65824 90.1064,-39.0377 84.0028,-56.9837"/>
<polygon fill="black" stroke="black" points="80.6779,-55.8902 80.7715,-66.4846 87.3051,-58.1442 80.6779,-55.8902"/>
</g>
<!-- 4 -->
<g id="node4" class="node"><title>4</title>
<ellipse fill="black" stroke="black" cx="6.91672" cy="-105.846" rx="3.6" ry="3.6"/>
</g>
<!-- 3&#45;&gt;4 -->
<g id="edge3" class="edge"><title>3&#45;&gt;4</title>
<path fill="none" stroke="black" d="M76.0808,-71.7012C65.9407,-76.7071 36.2174,-91.3807 19.2185,-99.7726"/>
<polygon fill="black" stroke="black" points="17.6365,-96.6502 10.219,-104.215 20.7353,-102.927 17.6365,-96.6502"/>
</g>
<!-- 5 -->
<g id="node5" class="node"><title>5</title>
<ellipse fill="black" stroke="black" cx="-69.6712" cy="-79.3404" rx="3.6" ry="3.6"/>
</g>
<!-- 4&#45;&gt;5 -->
<g id="edge4" class="edge"><title>4&#45;&gt;5</title>
<path fill="none" stroke="black" d="M3.22273,-104.567C-7.46416,-100.869 -38.7904,-90.0275 -56.706,-83.8274"/>
<polygon fill="black" stroke="black" points="-55.596,-80.5079 -66.1908,-80.5449 -57.8854,-87.123 -55.596,-80.5079"/>
</g>
<!-- 6 -->
<g id="node6" class="node"><title>6</title>
<ellipse fill="black" stroke="black" cx="-105.65" cy="-6.73551" rx="3.6" ry="3.6"/>
</g>
<!-- 5&#45;&gt;6 -->
<g id="edge5" class="edge"><title>5&#45;&gt;6</title>
<path fill="none" stroke="black" d="M-71.4065,-75.8386C-76.4269,-65.7075 -91.1429,-36.0104 -99.559,-19.0265"/>
<polygon fill="black" stroke="black" points="-96.4384,-17.4411 -104.015,-10.0349 -102.711,-20.5492 -96.4384,-17.4411"/>
</g>
<!-- 7 -->
<g id="node7" class="node"><title>7</title>
<ellipse fill="black" stroke="black" cx="-79.6332" cy="70.0115" rx="3.6" ry="3.6"/>
</g>
<!-- 6&#45;&gt;7 -->
<g id="edge6" class="edge"><title>6&#45;&gt;7</title>
<path fill="none" stroke="black" d="M-104.395,-3.03385C-100.765,7.67524 -90.1232,39.0665 -84.0374,57.0193"/>
<polygon fill="black" stroke="black" points="-80.7112,55.9296 -80.8154,66.5239 -87.3407,58.1769 -80.7112,55.9296"/>
</g>
<!-- 8 -->
<g id="node8" class="node"><title>8</title>
<ellipse fill="black" stroke="black" cx="-6.91755" cy="105.785" rx="3.6" ry="3.6"/>
</g>
<!-- 7&#45;&gt;8 -->
<g id="edge7" class="edge"><title>7&#45;&gt;8</title>
<path fill="none" stroke="black" d="M-76.126,71.7369C-65.9794,76.7287 -36.237,91.3609 -19.2273,99.7291"/>
<polygon fill="black" stroke="black" points="-17.6499,96.6044 -10.222,104.159 -20.74,102.885 -17.6499,96.6044"/>
</g>
<!-- 8&#45;&gt;1 -->
<g id="edge8" class="edge"><title>8&#45;&gt;1</title>
<path fill="none" stroke="black" d="M-3.22257,104.51C7.46718,100.821 38.8018,90.0081 56.7222,83.8241"/>
<polygon fill="black" stroke="black" points="55.6148,80.5038 66.2096,80.5502 57.8983,87.1209 55.6148,80.5038"/>
</g>
</g>
</svg>
