<?xml version="1.0" encoding="UTF-8" standalone="no"?>
<!DOCTYPE svg PUBLIC "-//W3C//DTD SVG 1.1//EN"
 "http://www.w3.org/Graphics/SVG/1.1/DTD/svg11.dtd">
<!-- Generated by graphviz version 2.38.0 (20140413.2041)
 -->
<!-- Title: %3 Pages: 1 -->
<svg width="245pt" height="293pt"
 viewBox="0.00 0.00 244.97 292.68" xmlns="http://www.w3.org/2000/svg" xmlns:xlink="http://www.w3.org/1999/xlink">
<g id="graph0" class="graph" transform="scale(1 1) rotate(0) translate(124.773 121.439)">
<title>%3</title>
<polygon fill="white" stroke="none" points="-124.773,171.238 -124.773,-121.439 120.197,-121.439 120.197,171.238 -124.773,171.238"/>
<!-- 1 -->
<g id="node1" class="node"><title>1</title>
<ellipse fill="none" stroke="black" cx="-22.7199" cy="99.1323" rx="7" ry="7"/>
</g>
<!-- 2 -->
<g id="node2" class="node"><title>2</title>
<ellipse fill="black" stroke="black" cx="-20.4508" cy="1.49661" rx="7.2" ry="7.2"/>
</g>
<!-- 1&#45;&gt;2 -->
<g id="edge1" class="edge"><title>1&#45;&gt;2</title>
<path fill="none" stroke="black" d="M-22.5567,92.1106C-22.2036,76.9146 -21.3595,40.5977 -20.8538,18.8347"/>
<polygon fill="black" stroke="black" points="-24.3502,18.6341 -20.6187,8.71813 -17.352,18.7968 -24.3502,18.6341"/>
</g>
<!-- 15 -->
<g id="node3" class="node"><title>15</title>
<ellipse fill="black" stroke="black" cx="35.898" cy="-21.5652" rx="7.2" ry="7.2"/>
</g>
<!-- 2&#45;&gt;15 -->
<g id="edge2" class="edge"><title>2&#45;&gt;15</title>
<path fill="none" stroke="black" d="M-13.5414,-1.33122C-5.34574,-4.68545 8.58929,-10.3886 19.58,-14.8868"/>
<polygon fill="black" stroke="black" points="18.3513,-18.1657 28.932,-18.7143 21.0028,-11.6873 18.3513,-18.1657"/>
</g>
<!-- 3 -->
<g id="node4" class="node"><title>3</title>
<ellipse fill="black" stroke="black" cx="-62.6672" cy="-26.8176" rx="7.2" ry="7.2"/>
</g>
<!-- 2&#45;&gt;3 -->
<g id="edge3" class="edge"><title>2&#45;&gt;3</title>
<path fill="none" stroke="black" d="M-26.68,-2.68125C-32.3566,-6.48853 -40.9544,-12.255 -48.3227,-17.1968"/>
<polygon fill="black" stroke="black" points="-50.3303,-14.329 -56.6858,-22.8059 -46.4312,-20.1425 -50.3303,-14.329"/>
</g>
<!-- 7 -->
<g id="node5" class="node"><title>7</title>
<ellipse fill="black" stroke="black" cx="16.7558" cy="31.2813" rx="7.2" ry="7.2"/>
</g>
<!-- 2&#45;&gt;7 -->
<g id="edge4" class="edge"><title>2&#45;&gt;7</title>
<path fill="none" stroke="black" d="M-14.6373,6.15047C-9.91352,9.93196 -3.05735,15.4205 3.04343,20.3043"/>
<polygon fill="black" stroke="black" points="5.4855,17.7758 11.1049,26.7577 1.11087,23.2405 5.4855,17.7758"/>
</g>
<!-- 11 -->
<g id="node14" class="node"><title>11</title>
<ellipse fill="black" stroke="black" cx="-40.551" cy="-75.7401" rx="7.2" ry="7.2"/>
</g>
<!-- 15&#45;&gt;11 -->
<g id="edge27" class="edge"><title>15&#45;&gt;11</title>
<path fill="none" stroke="black" d="M29.8991,-25.8163C18.0116,-34.2402 -8.84527,-53.2721 -25.7517,-65.2527"/>
<polygon fill="black" stroke="black" points="-28.2323,-62.7208 -34.3677,-71.3584 -24.185,-68.4322 -28.2323,-62.7208"/>
</g>
<!-- 3&#45;&gt;7 -->
<g id="edge5" class="edge"><title>3&#45;&gt;7</title>
<path fill="none" stroke="black" d="M-56.6976,-22.4507C-44.2785,-13.3661 -15.3535,7.79298 2.26723,20.6827"/>
<polygon fill="black" stroke="black" points="4.71226,18.1348 10.7169,26.8638 0.579378,23.7845 4.71226,18.1348"/>
</g>
<!-- 6 -->
<g id="node6" class="node"><title>6</title>
<ellipse fill="black" stroke="black" cx="-96.9629" cy="-110.1" rx="7.2" ry="7.2"/>
</g>
<!-- 3&#45;&gt;6 -->
<g id="edge6" class="edge"><title>3&#45;&gt;6</title>
<path fill="none" stroke="black" d="M-65.4738,-33.633C-70.8765,-46.7527 -82.8522,-75.8342 -90.3791,-94.1122"/>
<polygon fill="black" stroke="black" points="-93.6419,-92.8439 -94.2134,-103.423 -87.1692,-95.5094 -93.6419,-92.8439"/>
</g>
<!-- 7&#45;&gt;15 -->
<g id="edge12" class="edge"><title>7&#45;&gt;15</title>
<path fill="none" stroke="black" d="M19.2583,24.3725C21.9375,16.9759 26.2864,4.96971 29.8663,-4.91354"/>
<polygon fill="black" stroke="black" points="26.6372,-6.27591 33.3337,-14.4861 33.2188,-3.89189 26.6372,-6.27591"/>
</g>
<!-- 16 -->
<g id="node10" class="node"><title>16</title>
<ellipse fill="black" stroke="black" cx="97.0039" cy="50.0658" rx="7.2" ry="7.2"/>
</g>
<!-- 7&#45;&gt;16 -->
<g id="edge11" class="edge"><title>7&#45;&gt;16</title>
<path fill="none" stroke="black" d="M23.8773,32.9483C36.3379,35.8651 62.4234,41.9712 79.8289,46.0455"/>
<polygon fill="black" stroke="black" points="80.844,42.6884 89.783,48.3755 79.2485,49.5041 80.844,42.6884"/>
</g>
<!-- 14 -->
<g id="node11" class="node"><title>14</title>
<ellipse fill="black" stroke="black" cx="-71.3265" cy="69.3156" rx="7.2" ry="7.2"/>
</g>
<!-- 7&#45;&gt;14 -->
<g id="edge13" class="edge"><title>7&#45;&gt;14</title>
<path fill="none" stroke="black" d="M10.1353,34.1401C-3.63774,40.0873 -35.7164,53.939 -55.2583,62.3773"/>
<polygon fill="black" stroke="black" points="-54.061,65.6726 -64.6292,66.4237 -56.836,59.2461 -54.061,65.6726"/>
</g>
<!-- 10 -->
<g id="node9" class="node"><title>10</title>
<ellipse fill="black" stroke="black" cx="-17.512" cy="-110.239" rx="7.2" ry="7.2"/>
</g>
<!-- 6&#45;&gt;10 -->
<g id="edge10" class="edge"><title>6&#45;&gt;10</title>
<path fill="none" stroke="black" d="M-89.6307,-110.113C-77.3954,-110.134 -52.4746,-110.178 -35.3856,-110.208"/>
<polygon fill="black" stroke="black" points="-35.0643,-113.708 -25.0582,-110.226 -35.052,-106.708 -35.0643,-113.708"/>
</g>
<!-- 4 -->
<g id="node7" class="node"><title>4</title>
<ellipse fill="black" stroke="black" cx="15.9865" cy="-58.7312" rx="7.2" ry="7.2"/>
</g>
<!-- 4&#45;&gt;2 -->
<g id="edge8" class="edge"><title>4&#45;&gt;2</title>
<path fill="none" stroke="black" d="M12.0871,-52.2857C6.52426,-43.0909 -3.84998,-25.9432 -11.3927,-13.4758"/>
<polygon fill="black" stroke="black" points="-8.51766,-11.4663 -16.6886,-4.72197 -14.5069,-15.0897 -8.51766,-11.4663"/>
</g>
<!-- 4&#45;&gt;3 -->
<g id="edge7" class="edge"><title>4&#45;&gt;3</title>
<path fill="none" stroke="black" d="M9.28052,-56.0102C-3.02533,-51.0172 -29.5235,-40.2656 -46.699,-33.2967"/>
<polygon fill="black" stroke="black" points="-45.396,-30.0483 -55.9782,-29.5317 -48.0278,-36.5347 -45.396,-30.0483"/>
</g>
<!-- 5 -->
<g id="node8" class="node"><title>5</title>
<ellipse fill="black" stroke="black" cx="51.067" cy="-108.298" rx="7.2" ry="7.2"/>
</g>
<!-- 5&#45;&gt;10 -->
<g id="edge9" class="edge"><title>5&#45;&gt;10</title>
<path fill="none" stroke="black" d="M43.7279,-108.505C33.3671,-108.799 14.1384,-109.343 -0.0181414,-109.744"/>
<polygon fill="black" stroke="black" points="-0.120772,-106.245 -10.0177,-110.027 0.0773706,-113.242 -0.120772,-106.245"/>
</g>
<!-- 10&#45;&gt;2 -->
<g id="edge17" class="edge"><title>10&#45;&gt;2</title>
<path fill="none" stroke="black" d="M-17.7048,-102.908C-18.1656,-85.3878 -19.3409,-40.7032 -19.9947,-15.8472"/>
<polygon fill="black" stroke="black" points="-16.4993,-15.6209 -20.2611,-5.7164 -23.4969,-15.805 -16.4993,-15.6209"/>
</g>
<!-- 10&#45;&gt;4 -->
<g id="edge16" class="edge"><title>10&#45;&gt;4</title>
<path fill="none" stroke="black" d="M-13.4044,-103.923C-8.47928,-96.35 -0.0675884,-83.4161 6.49818,-73.3205"/>
<polygon fill="black" stroke="black" points="9.53557,-75.0698 12.0535,-64.7785 3.66741,-71.2534 9.53557,-75.0698"/>
</g>
<!-- 12 -->
<g id="node15" class="node"><title>12</title>
<ellipse fill="black" stroke="black" cx="87.8316" cy="-26.8602" rx="7.2" ry="7.2"/>
</g>
<!-- 16&#45;&gt;12 -->
<g id="edge29" class="edge"><title>16&#45;&gt;12</title>
<path fill="none" stroke="black" d="M96.1244,42.6898C94.71,30.8277 91.8907,7.18303 89.9345,-9.22352"/>
<polygon fill="black" stroke="black" points="86.4037,-9.27474 88.695,-19.6188 93.3544,-10.1036 86.4037,-9.27474"/>
</g>
<!-- 13 -->
<g id="node16" class="node"><title>13</title>
<ellipse fill="black" stroke="black" cx="108.997" cy="130.102" rx="7.2" ry="7.2"/>
</g>
<!-- 16&#45;&gt;13 -->
<g id="edge28" class="edge"><title>16&#45;&gt;13</title>
<path fill="none" stroke="black" d="M98.1107,57.4519C99.9766,69.9032 103.797,95.3955 106.378,112.621"/>
<polygon fill="black" stroke="black" points="109.907,112.556 107.928,122.964 102.984,113.593 109.907,112.556"/>
</g>
<!-- 14&#45;&gt;1 -->
<g id="edge26" class="edge"><title>14&#45;&gt;1</title>
<path fill="none" stroke="black" d="M-64.972,73.2136C-58.0932,77.4333 -46.88,84.3118 -37.7333,89.9226"/>
<polygon fill="black" stroke="black" points="-35.6161,87.1153 -28.9222,95.3276 -39.2764,93.0821 -35.6161,87.1153"/>
</g>
<!-- 8 -->
<g id="node12" class="node"><title>8</title>
<ellipse fill="black" stroke="black" cx="-113.573" cy="-3.08133" rx="7.2" ry="7.2"/>
</g>
<!-- 14&#45;&gt;8 -->
<g id="edge25" class="edge"><title>14&#45;&gt;8</title>
<path fill="none" stroke="black" d="M-75.2252,62.6344C-81.8607,51.2633 -95.5128,27.868 -104.607,12.2836"/>
<polygon fill="black" stroke="black" points="-107.788,13.7763 -109.805,3.37523 -101.742,10.2482 -107.788,13.7763"/>
</g>
<!-- 8&#45;&gt;3 -->
<g id="edge14" class="edge"><title>8&#45;&gt;3</title>
<path fill="none" stroke="black" d="M-106.918,-6.18444C-99.7929,-9.50668 -88.2277,-14.8993 -78.7074,-19.3384"/>
<polygon fill="black" stroke="black" points="-80.0286,-22.5841 -69.4864,-23.638 -77.0704,-16.2398 -80.0286,-22.5841"/>
</g>
<!-- 9 -->
<g id="node13" class="node"><title>9</title>
<ellipse fill="black" stroke="black" cx="32.2231" cy="160.038" rx="7.2" ry="7.2"/>
</g>
<!-- 9&#45;&gt;1 -->
<g id="edge15" class="edge"><title>9&#45;&gt;1</title>
<path fill="none" stroke="black" d="M27.1526,154.418C18.523,144.851 0.767972,125.169 -11.0592,112.059"/>
<polygon fill="black" stroke="black" points="-13.7205,114.334 -17.8199,104.564 -8.52282,109.645 -13.7205,114.334"/>
</g>
<!-- 11&#45;&gt;5 -->
<g id="edge19" class="edge"><title>11&#45;&gt;5</title>
<path fill="none" stroke="black" d="M-33.6648,-78.1872C-19.2725,-83.3016 14.3369,-95.2451 34.6353,-102.458"/>
<polygon fill="black" stroke="black" points="33.5061,-105.771 44.1009,-105.822 35.8501,-99.1755 33.5061,-105.771"/>
</g>
<!-- 11&#45;&gt;8 -->
<g id="edge18" class="edge"><title>11&#45;&gt;8</title>
<path fill="none" stroke="black" d="M-45.8026,-70.5147C-57.2758,-59.0985 -84.8472,-31.6643 -101.067,-15.525"/>
<polygon fill="black" stroke="black" points="-98.8116,-12.8318 -108.369,-8.25943 -103.749,-17.7939 -98.8116,-12.8318"/>
</g>
<!-- 12&#45;&gt;15 -->
<g id="edge20" class="edge"><title>12&#45;&gt;15</title>
<path fill="none" stroke="black" d="M80.6104,-26.1239C73.6357,-25.4128 62.7974,-24.3078 53.5386,-23.3638"/>
<polygon fill="black" stroke="black" points="53.6975,-19.8619 43.3941,-22.3295 52.9875,-26.8258 53.6975,-19.8619"/>
</g>
<!-- 12&#45;&gt;7 -->
<g id="edge22" class="edge"><title>12&#45;&gt;7</title>
<path fill="none" stroke="black" d="M82.2544,-22.2979C71.2024,-13.2571 46.2331,7.16825 30.515,20.026"/>
<polygon fill="black" stroke="black" points="32.4608,22.9561 22.5045,26.5787 28.0286,17.538 32.4608,22.9561"/>
</g>
<!-- 12&#45;&gt;4 -->
<g id="edge23" class="edge"><title>12&#45;&gt;4</title>
<path fill="none" stroke="black" d="M81.2013,-29.8014C70.1373,-34.7095 47.6022,-44.7062 32.1491,-51.5613"/>
<polygon fill="black" stroke="black" points="30.532,-48.4497 22.8103,-55.7041 33.3705,-54.8484 30.532,-48.4497"/>
</g>
<!-- 12&#45;&gt;5 -->
<g id="edge21" class="edge"><title>12&#45;&gt;5</title>
<path fill="none" stroke="black" d="M84.823,-33.5245C79.0887,-46.2266 66.447,-74.2292 58.3658,-92.1299"/>
<polygon fill="black" stroke="black" points="55.1461,-90.7558 54.2214,-101.31 61.5261,-93.6361 55.1461,-90.7558"/>
</g>
<!-- 13&#45;&gt;9 -->
<g id="edge24" class="edge"><title>13&#45;&gt;9</title>
<path fill="none" stroke="black" d="M102.184,132.759C90.263,137.407 65.3067,147.138 48.6546,153.631"/>
<polygon fill="black" stroke="black" points="49.7197,156.973 39.1314,157.345 47.1766,150.451 49.7197,156.973"/>
</g>
</g>
</svg>
