<?xml version="1.0" encoding="UTF-8" standalone="no"?>
<!DOCTYPE svg PUBLIC "-//W3C//DTD SVG 1.1//EN"
 "http://www.w3.org/Graphics/SVG/1.1/DTD/svg11.dtd">
<!-- Generated by graphviz version 2.38.0 (20140413.2041)
 -->
<!-- Title: %3 Pages: 1 -->
<svg width="238pt" height="285pt"
 viewBox="0.00 0.00 237.77 285.48" xmlns="http://www.w3.org/2000/svg" xmlns:xlink="http://www.w3.org/1999/xlink">
<g id="graph0" class="graph" transform="scale(1 1) rotate(0) translate(121.173 117.839)">
<title>%3</title>
<polygon fill="white" stroke="none" points="-121.173,167.638 -121.173,-117.839 116.597,-117.839 116.597,167.638 -121.173,167.638"/>
<!-- 1 -->
<g id="node1" class="node"><title>1</title>
<ellipse fill="none" stroke="black" cx="-22.7199" cy="99.1323" rx="3.5" ry="3.5"/>
</g>
<!-- 2 -->
<g id="node2" class="node"><title>2</title>
<ellipse fill="black" stroke="black" cx="-20.4508" cy="1.49661" rx="3.6" ry="3.6"/>
</g>
<!-- 1&#45;&gt;2 -->
<g id="edge1" class="edge"><title>1&#45;&gt;2</title>
<path fill="none" stroke="black" d="M-22.6337,95.4241C-22.3304,82.3749 -21.3023,38.1357 -20.7725,15.3355"/>
<polygon fill="black" stroke="black" points="-24.2686,15.1245 -20.5371,5.20853 -17.2705,15.2872 -24.2686,15.1245"/>
</g>
<!-- 15 -->
<g id="node3" class="node"><title>15</title>
<ellipse fill="black" stroke="black" cx="35.898" cy="-21.5652" rx="3.6" ry="3.6"/>
</g>
<!-- 2&#45;&gt;15 -->
<g id="edge2" class="edge"><title>2&#45;&gt;15</title>
<path fill="none" stroke="black" d="M-17.0947,0.123054C-9.39817,-3.02691 9.86374,-10.9102 22.9173,-16.2527"/>
<polygon fill="black" stroke="black" points="21.7631,-19.562 32.3437,-20.1106 24.4146,-13.0836 21.7631,-19.562"/>
</g>
<!-- 3 -->
<g id="node4" class="node"><title>3</title>
<ellipse fill="black" stroke="black" cx="-62.6672" cy="-26.8176" rx="3.6" ry="3.6"/>
</g>
<!-- 2&#45;&gt;3 -->
<g id="edge3" class="edge"><title>2&#45;&gt;3</title>
<path fill="none" stroke="black" d="M-23.4869,-0.539675C-29.1516,-4.33894 -41.6042,-12.6908 -50.96,-18.9657"/>
<polygon fill="black" stroke="black" points="-53.0735,-16.1688 -59.429,-24.6458 -49.1744,-21.9824 -53.0735,-16.1688"/>
</g>
<!-- 7 -->
<g id="node5" class="node"><title>7</title>
<ellipse fill="black" stroke="black" cx="16.7558" cy="31.2813" rx="3.6" ry="3.6"/>
</g>
<!-- 2&#45;&gt;7 -->
<g id="edge4" class="edge"><title>2&#45;&gt;7</title>
<path fill="none" stroke="black" d="M-17.5313,3.83377C-12.6061,7.77649 -2.40113,15.9458 5.60124,22.3519"/>
<polygon fill="black" stroke="black" points="7.91581,19.7214 13.5352,28.7032 3.54118,25.1861 7.91581,19.7214"/>
</g>
<!-- 11 -->
<g id="node14" class="node"><title>11</title>
<ellipse fill="black" stroke="black" cx="-40.551" cy="-75.7401" rx="3.6" ry="3.6"/>
</g>
<!-- 15&#45;&gt;11 -->
<g id="edge27" class="edge"><title>15&#45;&gt;11</title>
<path fill="none" stroke="black" d="M32.613,-23.8931C22.0519,-31.3771 -11.3763,-55.0657 -29.162,-67.6694"/>
<polygon fill="black" stroke="black" points="-31.228,-64.8437 -37.3634,-73.4813 -27.1807,-70.555 -31.228,-64.8437"/>
</g>
<!-- 3&#45;&gt;7 -->
<g id="edge5" class="edge"><title>3&#45;&gt;7</title>
<path fill="none" stroke="black" d="M-59.958,-24.3668C-53.7958,-18.8383 -38.1744,-5.08008 -24.1274,5.17401 -14.7533,12.0169 -3.62403,19.0582 4.65411,24.1012"/>
<polygon fill="black" stroke="black" points="6.48382,21.1173 13.2682,29.255 2.88983,27.1242 6.48382,21.1173"/>
</g>
<!-- 6 -->
<g id="node6" class="node"><title>6</title>
<ellipse fill="black" stroke="black" cx="-96.9629" cy="-110.1" rx="3.6" ry="3.6"/>
</g>
<!-- 3&#45;&gt;6 -->
<g id="edge6" class="edge"><title>3&#45;&gt;6</title>
<path fill="none" stroke="black" d="M-64.1408,-30.3962C-68.8346,-41.7942 -83.5967,-77.6422 -91.6292,-97.1479"/>
<polygon fill="black" stroke="black" points="-94.9614,-96.0482 -95.5329,-106.628 -88.4887,-98.7137 -94.9614,-96.0482"/>
</g>
<!-- 7&#45;&gt;15 -->
<g id="edge12" class="edge"><title>7&#45;&gt;15</title>
<path fill="none" stroke="black" d="M18.0118,27.8139C20.6339,20.5749 26.8079,3.52998 31.1658,-8.50099"/>
<polygon fill="black" stroke="black" points="27.9157,-9.80558 34.6123,-18.0158 34.4973,-7.42156 27.9157,-9.80558"/>
</g>
<!-- 16 -->
<g id="node10" class="node"><title>16</title>
<ellipse fill="black" stroke="black" cx="97.0039" cy="50.0658" rx="3.6" ry="3.6"/>
</g>
<!-- 7&#45;&gt;16 -->
<g id="edge11" class="edge"><title>7&#45;&gt;16</title>
<path fill="none" stroke="black" d="M20.6263,32.1873C31.8239,34.8085 64.6473,42.4918 83.4191,46.8859"/>
<polygon fill="black" stroke="black" points="84.4181,43.525 93.3572,49.2122 82.8226,50.3408 84.4181,43.525"/>
</g>
<!-- 14 -->
<g id="node11" class="node"><title>14</title>
<ellipse fill="black" stroke="black" cx="-71.3265" cy="69.3156" rx="3.6" ry="3.6"/>
</g>
<!-- 7&#45;&gt;14 -->
<g id="edge13" class="edge"><title>7&#45;&gt;14</title>
<path fill="none" stroke="black" d="M13.4104,32.7259C1.69257,37.7857 -37.9035,54.8834 -58.5548,63.8007"/>
<polygon fill="black" stroke="black" points="-57.4096,67.1185 -67.9778,67.8696 -60.1846,60.6921 -57.4096,67.1185"/>
</g>
<!-- 10 -->
<g id="node9" class="node"><title>10</title>
<ellipse fill="black" stroke="black" cx="-17.512" cy="-110.239" rx="3.6" ry="3.6"/>
</g>
<!-- 6&#45;&gt;10 -->
<g id="edge10" class="edge"><title>6&#45;&gt;10</title>
<path fill="none" stroke="black" d="M-93.1308,-110.107C-82.0972,-110.126 -49.8562,-110.182 -31.2283,-110.215"/>
<polygon fill="black" stroke="black" points="-31.1286,-113.715 -21.1225,-110.233 -31.1163,-106.715 -31.1286,-113.715"/>
</g>
<!-- 4 -->
<g id="node7" class="node"><title>4</title>
<ellipse fill="black" stroke="black" cx="15.9865" cy="-58.7312" rx="3.6" ry="3.6"/>
</g>
<!-- 4&#45;&gt;2 -->
<g id="edge8" class="edge"><title>4&#45;&gt;2</title>
<path fill="none" stroke="black" d="M14.0275,-55.4931C8.98586,-47.1597 -4.63832,-24.6401 -13.1736,-10.5321"/>
<polygon fill="black" stroke="black" points="-10.3111,-8.50181 -18.4821,-1.7575 -16.3004,-12.1253 -10.3111,-8.50181"/>
</g>
<!-- 4&#45;&gt;3 -->
<g id="edge7" class="edge"><title>4&#45;&gt;3</title>
<path fill="none" stroke="black" d="M12.6068,-57.3599C1.99019,-53.0522 -31.0871,-39.6312 -49.6667,-32.0925"/>
<polygon fill="black" stroke="black" points="-48.4491,-28.8095 -59.0313,-28.2929 -51.081,-35.2959 -48.4491,-28.8095"/>
</g>
<!-- 5 -->
<g id="node8" class="node"><title>5</title>
<ellipse fill="black" stroke="black" cx="51.067" cy="-108.298" rx="3.6" ry="3.6"/>
</g>
<!-- 5&#45;&gt;10 -->
<g id="edge9" class="edge"><title>5&#45;&gt;10</title>
<path fill="none" stroke="black" d="M47.3799,-108.402C37.9841,-108.668 12.7501,-109.382 -3.34015,-109.838"/>
<polygon fill="black" stroke="black" points="-3.90972,-106.352 -13.8066,-110.134 -3.71158,-113.349 -3.90972,-106.352"/>
</g>
<!-- 10&#45;&gt;2 -->
<g id="edge17" class="edge"><title>10&#45;&gt;2</title>
<path fill="none" stroke="black" d="M-17.6098,-106.521C-17.9932,-91.9425 -19.4064,-38.2119 -20.0839,-12.4535"/>
<polygon fill="black" stroke="black" points="-16.5879,-12.2541 -20.3497,-2.34957 -23.5854,-12.4382 -16.5879,-12.2541"/>
</g>
<!-- 10&#45;&gt;4 -->
<g id="edge16" class="edge"><title>10&#45;&gt;4</title>
<path fill="none" stroke="black" d="M-15.5168,-107.171C-10.9849,-100.203 0.292071,-82.8631 8.04699,-70.939"/>
<polygon fill="black" stroke="black" points="11.1792,-72.5425 13.6972,-62.2512 5.31107,-68.7261 11.1792,-72.5425"/>
</g>
<!-- 12 -->
<g id="node15" class="node"><title>12</title>
<ellipse fill="black" stroke="black" cx="87.8316" cy="-26.8602" rx="3.6" ry="3.6"/>
</g>
<!-- 16&#45;&gt;12 -->
<g id="edge29" class="edge"><title>16&#45;&gt;12</title>
<path fill="none" stroke="black" d="M96.5615,46.3555C95.3054,35.8212 91.6687,5.32093 89.5058,-12.8193"/>
<polygon fill="black" stroke="black" points="85.9998,-12.6618 88.2911,-23.0059 92.9506,-13.4906 85.9998,-12.6618"/>
</g>
<!-- 13 -->
<g id="node16" class="node"><title>13</title>
<ellipse fill="black" stroke="black" cx="108.997" cy="130.102" rx="3.6" ry="3.6"/>
</g>
<!-- 16&#45;&gt;13 -->
<g id="edge28" class="edge"><title>16&#45;&gt;13</title>
<path fill="none" stroke="black" d="M97.5824,53.9261C99.2559,65.0942 104.162,97.8308 106.967,116.553"/>
<polygon fill="black" stroke="black" points="110.432,116.057 108.452,126.465 103.509,117.094 110.432,116.057"/>
</g>
<!-- 14&#45;&gt;1 -->
<g id="edge26" class="edge"><title>14&#45;&gt;1</title>
<path fill="none" stroke="black" d="M-68.1373,71.2719C-61.479,75.3563 -45.8017,84.9733 -34.736,91.7613"/>
<polygon fill="black" stroke="black" points="-32.6785,88.9173 -25.9846,97.1297 -36.3387,94.8842 -32.6785,88.9173"/>
</g>
<!-- 8 -->
<g id="node12" class="node"><title>8</title>
<ellipse fill="black" stroke="black" cx="-113.573" cy="-3.08133" rx="3.6" ry="3.6"/>
</g>
<!-- 14&#45;&gt;8 -->
<g id="edge25" class="edge"><title>14&#45;&gt;8</title>
<path fill="none" stroke="black" d="M-73.1418,66.2048C-78.7904,56.5249 -96.2765,26.5593 -106.306,9.37251"/>
<polygon fill="black" stroke="black" points="-109.603,10.6664 -111.62,0.265323 -103.557,7.13831 -109.603,10.6664"/>
</g>
<!-- 8&#45;&gt;3 -->
<g id="edge14" class="edge"><title>8&#45;&gt;3</title>
<path fill="none" stroke="black" d="M-110.233,-4.63874C-103.26,-7.89017 -86.8408,-15.546 -75.2517,-20.9497"/>
<polygon fill="black" stroke="black" points="-76.6286,-24.1694 -66.0863,-25.2233 -73.6704,-17.8252 -76.6286,-24.1694"/>
</g>
<!-- 9 -->
<g id="node13" class="node"><title>9</title>
<ellipse fill="black" stroke="black" cx="32.2231" cy="160.038" rx="3.6" ry="3.6"/>
</g>
<!-- 9&#45;&gt;1 -->
<g id="edge15" class="edge"><title>9&#45;&gt;1</title>
<path fill="none" stroke="black" d="M29.573,157.101C21.9064,148.602 -0.566489,123.69 -13.4188,109.443"/>
<polygon fill="black" stroke="black" points="-16.1237,111.67 -20.2231,101.9 -10.926,106.981 -16.1237,111.67"/>
</g>
<!-- 11&#45;&gt;5 -->
<g id="edge19" class="edge"><title>11&#45;&gt;5</title>
<path fill="none" stroke="black" d="M-37.0714,-76.9766C-24.8264,-81.328 16.6861,-96.0799 38.0811,-103.683"/>
<polygon fill="black" stroke="black" points="36.9892,-107.009 47.5839,-107.06 39.3331,-100.413 36.9892,-107.009"/>
</g>
<!-- 11&#45;&gt;8 -->
<g id="edge18" class="edge"><title>11&#45;&gt;8</title>
<path fill="none" stroke="black" d="M-43.3244,-72.9805C-53.1743,-63.1796 -86.7852,-29.7359 -103.692,-12.9128"/>
<polygon fill="black" stroke="black" points="-101.239,-10.4161 -110.797,-5.84367 -106.177,-15.3782 -101.239,-10.4161"/>
</g>
<!-- 12&#45;&gt;15 -->
<g id="edge20" class="edge"><title>12&#45;&gt;15</title>
<path fill="none" stroke="black" d="M84.0966,-26.4794C76.9849,-25.7543 61.1762,-24.1425 49.5953,-22.9618"/>
<polygon fill="black" stroke="black" points="49.9025,-19.475 39.599,-21.9426 49.1924,-26.4389 49.9025,-19.475"/>
</g>
<!-- 12&#45;&gt;7 -->
<g id="edge22" class="edge"><title>12&#45;&gt;7</title>
<path fill="none" stroke="black" d="M84.7775,-24.3619C75.0044,-16.3673 44.1686,8.85703 27.576,22.4301"/>
<polygon fill="black" stroke="black" points="29.6756,25.2345 19.7193,28.8571 25.2435,19.8163 29.6756,25.2345"/>
</g>
<!-- 12&#45;&gt;4 -->
<g id="edge23" class="edge"><title>12&#45;&gt;4</title>
<path fill="none" stroke="black" d="M84.3663,-28.3974C74.5278,-32.7618 46.0421,-45.3983 29.1,-52.9139"/>
<polygon fill="black" stroke="black" points="27.3079,-49.8799 19.5862,-57.1343 30.1464,-56.2786 27.3079,-49.8799"/>
</g>
<!-- 12&#45;&gt;5 -->
<g id="edge21" class="edge"><title>12&#45;&gt;5</title>
<path fill="none" stroke="black" d="M86.2518,-30.3594C81.2202,-41.505 65.3954,-76.5587 56.7847,-95.6323"/>
<polygon fill="black" stroke="black" points="53.5246,-94.3475 52.5999,-104.902 59.9046,-97.2278 53.5246,-94.3475"/>
</g>
<!-- 13&#45;&gt;9 -->
<g id="edge24" class="edge"><title>13&#45;&gt;9</title>
<path fill="none" stroke="black" d="M105.294,131.546C94.5816,135.723 63.1791,147.968 45.2198,154.971"/>
<polygon fill="black" stroke="black" points="46.3002,158.306 35.7119,158.678 43.7572,151.784 46.3002,158.306"/>
</g>
</g>
</svg>
