<?xml version="1.0" encoding="UTF-8" standalone="no"?>
<!DOCTYPE svg PUBLIC "-//W3C//DTD SVG 1.1//EN"
 "http://www.w3.org/Graphics/SVG/1.1/DTD/svg11.dtd">
<!-- Generated by graphviz version 2.38.0 (20140413.2041)
 -->
<!-- Title: %3 Pages: 1 -->
<svg width="149pt" height="143pt"
 viewBox="0.00 0.00 148.50 142.58" xmlns="http://www.w3.org/2000/svg" xmlns:xlink="http://www.w3.org/1999/xlink">
<g id="graph0" class="graph" transform="scale(1 1) rotate(0) translate(70.8077 72.8929)">
<title>%3</title>
<polygon fill="white" stroke="none" points="-70.8077,69.6866 -70.8077,-72.8929 77.6954,-72.8929 77.6954,69.6866 -70.8077,69.6866"/>
<!-- 1 -->
<g id="node1" class="node"><title>1</title>
<ellipse fill="none" stroke="black" cx="-31.1036" cy="-29.8267" rx="3.5" ry="3.5"/>
</g>
<!-- 9 -->
<g id="node2" class="node"><title>9</title>
<ellipse fill="black" stroke="black" cx="36.6563" cy="-65.2929" rx="3.6" ry="3.6"/>
</g>
<!-- 1&#45;&gt;9 -->
<g id="edge1" class="edge"><title>1&#45;&gt;9</title>
<path fill="none" stroke="black" d="M-30.0688,-33.337C-23.7443,-41.6964 5.69754,-58.0439 23.3563,-64.1121"/>
<polygon fill="black" stroke="black" points="22.5453,-67.5168 33.0851,-66.4387 24.1735,-60.7088 22.5453,-67.5168"/>
</g>
<!-- 2 -->
<g id="node3" class="node"><title>2</title>
<ellipse fill="black" stroke="black" cx="32.3124" cy="32.2967" rx="3.6" ry="3.6"/>
</g>
<!-- 1&#45;&gt;2 -->
<g id="edge2" class="edge"><title>1&#45;&gt;2</title>
<path fill="none" stroke="black" d="M-27.5501,-29.7944C-16.652,-25.7129 13.3307,2.49981 26.4576,19.6356"/>
<polygon fill="black" stroke="black" points="29.7192,18.2423 32.1313,28.5589 23.8122,21.9982 29.7192,18.2423"/>
</g>
<!-- 6 -->
<g id="node4" class="node"><title>6</title>
<ellipse fill="black" stroke="black" cx="-2.89596" cy="-34.0787" rx="3.6" ry="3.6"/>
</g>
<!-- 1&#45;&gt;6 -->
<g id="edge3" class="edge"><title>1&#45;&gt;6</title>
<path fill="none" stroke="black" d="M-30.0734,-33.2818C-27.6,-36.4189 -21.267,-38.5127 -15.3309,-38.9215"/>
<polygon fill="black" stroke="black" points="-14.3448,-42.3047 -5.06699,-37.1888 -15.5101,-35.4023 -14.3448,-42.3047"/>
</g>
<!-- 7 -->
<g id="node5" class="node"><title>7</title>
<ellipse fill="black" stroke="black" cx="27.5478" cy="0.917316" rx="3.6" ry="3.6"/>
</g>
<!-- 1&#45;&gt;7 -->
<g id="edge4" class="edge"><title>1&#45;&gt;7</title>
<path fill="none" stroke="black" d="M-27.5792,-31.1331C-18.3159,-30.9771 5.80893,-19.3229 18.9378,-9.72458"/>
<polygon fill="black" stroke="black" points="21.5825,-12.0497 26.6154,-2.72662 16.867,-6.87627 21.5825,-12.0497"/>
</g>
<!-- 5 -->
<g id="node6" class="node"><title>5</title>
<ellipse fill="black" stroke="black" cx="-5.25786" cy="8.81283" rx="3.6" ry="3.6"/>
</g>
<!-- 1&#45;&gt;5 -->
<g id="edge5" class="edge"><title>1&#45;&gt;5</title>
<path fill="none" stroke="black" d="M-27.5385,-29.8083C-21.4402,-27.2641 -11.8532,-14.7598 -6.97934,-4.55726"/>
<polygon fill="black" stroke="black" points="-3.5323,-5.25772 -3.91635,5.33016 -10.2188,-3.18627 -3.5323,-5.25772"/>
</g>
<!-- 9&#45;&gt;1 -->
<g id="edge40" class="edge"><title>9&#45;&gt;1</title>
<path fill="none" stroke="black" d="M35.6215,-61.7827C29.297,-53.4232 -0.144876,-37.0758 -17.8037,-31.0075"/>
<polygon fill="black" stroke="black" points="-16.9926,-27.6029 -27.5325,-28.6809 -18.6208,-34.4109 -16.9926,-27.6029"/>
</g>
<!-- 9&#45;&gt;2 -->
<g id="edge37" class="edge"><title>9&#45;&gt;2</title>
<path fill="none" stroke="black" d="M36.4913,-61.5865C35.9107,-48.5434 33.9425,-4.32512 32.9281,18.4644"/>
<polygon fill="black" stroke="black" points="36.4188,18.7521 32.4775,28.5865 29.4258,18.4408 36.4188,18.7521"/>
</g>
<!-- 9&#45;&gt;6 -->
<g id="edge38" class="edge"><title>9&#45;&gt;6</title>
<path fill="none" stroke="black" d="M33.8118,-63.0481C28.5046,-58.8597 16.8379,-49.6524 8.07241,-42.7348"/>
<polygon fill="black" stroke="black" points="10.1561,-39.9206 0.13788,-36.4729 5.81952,-45.4155 10.1561,-39.9206"/>
</g>
<!-- 9&#45;&gt;7 -->
<g id="edge39" class="edge"><title>9&#45;&gt;7</title>
<path fill="none" stroke="black" d="M36.1138,-61.3495C34.8325,-52.0354 31.5681,-28.3066 29.4595,-12.9785"/>
<polygon fill="black" stroke="black" points="32.9064,-12.3522 28.0761,-2.92255 25.9717,-13.3063 32.9064,-12.3522"/>
</g>
<!-- 9&#45;&gt;5 -->
<g id="edge42" class="edge"><title>9&#45;&gt;5</title>
<path fill="none" stroke="black" d="M34.8553,-62.1087C29.1977,-52.1059 11.571,-20.9413 1.67002,-3.43592"/>
<polygon fill="black" stroke="black" points="4.6493,-1.59394 -3.32031,5.38718 -1.44365,-5.04014 4.6493,-1.59394"/>
</g>
<!-- 10 -->
<g id="node10" class="node"><title>10</title>
<ellipse fill="black" stroke="black" cx="70.0954" cy="-25.3325" rx="3.6" ry="3.6"/>
</g>
<!-- 9&#45;&gt;10 -->
<g id="edge41" class="edge"><title>9&#45;&gt;10</title>
<path fill="none" stroke="black" d="M39.0612,-62.4191C43.5958,-57.0001 53.6221,-45.0185 61.0579,-36.1324"/>
<polygon fill="black" stroke="black" points="63.797,-38.3129 67.5304,-28.3977 58.4287,-33.8206 63.797,-38.3129"/>
</g>
<!-- 2&#45;&gt;1 -->
<g id="edge9" class="edge"><title>2&#45;&gt;1</title>
<path fill="none" stroke="black" d="M28.3619,32.1086C17.1136,27.4984 -12.4689,-0.41355 -25.3743,-17.3298"/>
<polygon fill="black" stroke="black" points="-28.5557,-15.8122 -30.9416,-26.1349 -22.6391,-19.5532 -28.5557,-15.8122"/>
</g>
<!-- 2&#45;&gt;6 -->
<g id="edge7" class="edge"><title>2&#45;&gt;6</title>
<path fill="none" stroke="black" d="M28.8174,31.3207C20.5412,25.219 4.42476,-3.36332 -1.65657,-20.7273"/>
<polygon fill="black" stroke="black" points="-5.0812,-19.9982 -4.0438,-30.5421 1.7205,-21.6526 -5.0812,-19.9982"/>
</g>
<!-- 2&#45;&gt;7 -->
<g id="edge8" class="edge"><title>2&#45;&gt;7</title>
<path fill="none" stroke="black" d="M28.8302,31.0994C25.4314,28.1211 23.1427,20.2944 22.8345,13.3517"/>
<polygon fill="black" stroke="black" points="19.4123,12.5896 24.4685,3.27911 26.322,13.7106 19.4123,12.5896"/>
</g>
<!-- 2&#45;&gt;5 -->
<g id="edge10" class="edge"><title>2&#45;&gt;5</title>
<path fill="none" stroke="black" d="M28.852,33.8009C22.4584,33.9036 9.75336,27.1257 1.66601,20.2988"/>
<polygon fill="black" stroke="black" points="-1.06888,22.4891 -5.05182,12.6714 4.18418,17.8624 -1.06888,22.4891"/>
</g>
<!-- 3 -->
<g id="node7" class="node"><title>3</title>
<ellipse fill="black" stroke="black" cx="-63.2077" cy="8.06377" rx="3.6" ry="3.6"/>
</g>
<!-- 2&#45;&gt;3 -->
<g id="edge6" class="edge"><title>2&#45;&gt;3</title>
<path fill="none" stroke="black" d="M28.6845,31.3763C15.9181,28.1375 -27.3625,17.1575 -49.6688,11.4985"/>
<polygon fill="black" stroke="black" points="-50.744,14.8367 -59.5763,8.98505 -49.0226,8.05164 -50.744,14.8367"/>
</g>
<!-- 6&#45;&gt;1 -->
<g id="edge26" class="edge"><title>6&#45;&gt;1</title>
<path fill="none" stroke="black" d="M-3.92618,-30.6236C-6.39964,-27.4864 -12.7326,-25.3927 -18.6687,-24.9839"/>
<polygon fill="black" stroke="black" points="-19.6548,-21.6007 -28.9326,-26.7166 -18.4895,-28.503 -19.6548,-21.6007"/>
</g>
<!-- 6&#45;&gt;2 -->
<g id="edge24" class="edge"><title>6&#45;&gt;2</title>
<path fill="none" stroke="black" d="M0.598967,-33.1027C8.87519,-27.001 24.9916,1.58137 31.073,18.9454"/>
<polygon fill="black" stroke="black" points="34.4976,18.2163 33.4602,28.7602 27.6959,19.8707 34.4976,18.2163"/>
</g>
<!-- 6&#45;&gt;7 -->
<g id="edge25" class="edge"><title>6&#45;&gt;7</title>
<path fill="none" stroke="black" d="M0.918574,-34.4317C7.29757,-32.4524 18.0761,-21.5403 24.106,-12.2113"/>
<polygon fill="black" stroke="black" points="27.386,-13.4573 28.4087,-2.91192 21.033,-10.5178 27.386,-13.4573"/>
</g>
<!-- 6&#45;&gt;5 -->
<g id="edge27" class="edge"><title>6&#45;&gt;5</title>
<path fill="none" stroke="black" d="M0.0950966,-31.8389C3.24499,-26.5105 3.49388,-12.7927 1.50668,-2.76029"/>
<polygon fill="black" stroke="black" points="4.72375,-1.36531 -1.98157,6.8377 -1.85524,-3.75638 4.72375,-1.36531"/>
</g>
<!-- 7&#45;&gt;1 -->
<g id="edge31" class="edge"><title>7&#45;&gt;1</title>
<path fill="none" stroke="black" d="M24.0234,2.22365C14.7601,2.06766 -9.36473,-9.58653 -22.4936,-19.1848"/>
<polygon fill="black" stroke="black" points="-25.1383,-16.8597 -30.1712,-26.1828 -20.4228,-22.0331 -25.1383,-16.8597"/>
</g>
<!-- 7&#45;&gt;2 -->
<g id="edge28" class="edge"><title>7&#45;&gt;2</title>
<path fill="none" stroke="black" d="M31.03,2.11459C34.4288,5.09292 36.7175,12.9196 37.0257,19.8623"/>
<polygon fill="black" stroke="black" points="40.4479,20.6244 35.3917,29.9349 33.5382,19.5035 40.4479,20.6244"/>
</g>
<!-- 7&#45;&gt;6 -->
<g id="edge29" class="edge"><title>7&#45;&gt;6</title>
<path fill="none" stroke="black" d="M23.7333,1.27037C17.3543,-0.70898 6.57581,-11.6211 0.54588,-20.95"/>
<polygon fill="black" stroke="black" points="-2.73408,-19.7041 -3.75681,-30.2494 3.61887,-22.6435 -2.73408,-19.7041"/>
</g>
<!-- 7&#45;&gt;5 -->
<g id="edge32" class="edge"><title>7&#45;&gt;5</title>
<path fill="none" stroke="black" d="M26.5476,4.51417C23.587,8.2971 15.1566,11.4251 7.7043,12.3464"/>
<polygon fill="black" stroke="black" points="7.21303,15.8212 -2.5268,11.6516 7.6874,8.83729 7.21303,15.8212"/>
</g>
<!-- 8 -->
<g id="node9" class="node"><title>8</title>
<ellipse fill="black" stroke="black" cx="-47.2189" cy="42.3536" rx="3.6" ry="3.6"/>
</g>
<!-- 7&#45;&gt;8 -->
<g id="edge30" class="edge"><title>7&#45;&gt;8</title>
<path fill="none" stroke="black" d="M24.3352,2.69778C14.2432,8.29084 -17.1994,25.7166 -34.8609,35.5047"/>
<polygon fill="black" stroke="black" points="-33.3195,38.652 -43.7627,40.4382 -36.7127,32.5294 -33.3195,38.652"/>
</g>
<!-- 5&#45;&gt;1 -->
<g id="edge23" class="edge"><title>5&#45;&gt;1</title>
<path fill="none" stroke="black" d="M-9.08921,8.67809C-15.2311,5.87423 -24.6834,-6.53885 -29.4622,-16.6248"/>
<polygon fill="black" stroke="black" points="-32.8701,-15.8009 -32.4461,-26.3872 -26.1758,-17.8471 -32.8701,-15.8009"/>
</g>
<!-- 5&#45;&gt;2 -->
<g id="edge20" class="edge"><title>5&#45;&gt;2</title>
<path fill="none" stroke="black" d="M-1.79752,7.30858C4.59608,7.20595 17.3012,13.9838 25.3885,20.8107"/>
<polygon fill="black" stroke="black" points="28.1234,18.6205 32.1063,28.4381 22.8703,23.2471 28.1234,18.6205"/>
</g>
<!-- 5&#45;&gt;6 -->
<g id="edge21" class="edge"><title>5&#45;&gt;6</title>
<path fill="none" stroke="black" d="M-8.24892,6.5731C-11.3988,1.24468 -11.6477,-12.4731 -9.6605,-22.5055"/>
<polygon fill="black" stroke="black" points="-12.8776,-23.9005 -6.17225,-32.1035 -6.29858,-21.5094 -12.8776,-23.9005"/>
</g>
<!-- 5&#45;&gt;7 -->
<g id="edge22" class="edge"><title>5&#45;&gt;7</title>
<path fill="none" stroke="black" d="M-4.25759,5.21598C-1.29702,1.43305 7.13337,-1.69499 14.5857,-2.61627"/>
<polygon fill="black" stroke="black" points="15.077,-6.09106 24.8168,-1.92143 14.6026,0.892849 15.077,-6.09106"/>
</g>
<!-- 3&#45;&gt;1 -->
<g id="edge14" class="edge"><title>3&#45;&gt;1</title>
<path fill="none" stroke="black" d="M-60.6886,5.09056C-56.3067,-0.081073 -47.0815,-10.969 -40.0902,-19.2205"/>
<polygon fill="black" stroke="black" points="-42.6581,-21.604 -33.5232,-26.971 -37.3174,-17.0788 -42.6581,-21.604"/>
</g>
<!-- 3&#45;&gt;6 -->
<g id="edge12" class="edge"><title>3&#45;&gt;6</title>
<path fill="none" stroke="black" d="M-59.9651,5.79801C-51.4596,-0.145166 -28.1961,-16.4004 -14.1355,-26.2251"/>
<polygon fill="black" stroke="black" points="-16.0681,-29.1444 -5.86626,-32.0032 -12.0587,-23.4064 -16.0681,-29.1444"/>
</g>
<!-- 3&#45;&gt;7 -->
<g id="edge13" class="edge"><title>3&#45;&gt;7</title>
<path fill="none" stroke="black" d="M-59.3081,7.75669C-46.8289,6.77403 -7.45522,3.67359 13.7316,2.00526"/>
<polygon fill="black" stroke="black" points="13.5198,-1.48881 23.7637,1.21529 14.0694,5.48959 13.5198,-1.48881"/>
</g>
<!-- 3&#45;&gt;5 -->
<g id="edge15" class="edge"><title>3&#45;&gt;5</title>
<path fill="none" stroke="black" d="M-59.4055,8.11292C-51.3856,8.21658 -32.39,8.46212 -19.1775,8.6329"/>
<polygon fill="black" stroke="black" points="-19.104,5.13346 -9.1501,8.76252 -19.1945,12.1329 -19.104,5.13346"/>
</g>
<!-- 4 -->
<g id="node8" class="node"><title>4</title>
<ellipse fill="black" stroke="black" cx="-16.9278" cy="62.0866" rx="3.6" ry="3.6"/>
</g>
<!-- 3&#45;&gt;4 -->
<g id="edge11" class="edge"><title>3&#45;&gt;4</title>
<path fill="none" stroke="black" d="M-60.7195,10.9683C-54.3161,18.4431 -37.0116,38.6426 -26.1708,51.2971"/>
<polygon fill="black" stroke="black" points="-23.2762,49.2963 -19.4283,59.1677 -28.5922,53.8504 -23.2762,49.2963"/>
</g>
<!-- 4&#45;&gt;1 -->
<g id="edge18" class="edge"><title>4&#45;&gt;1</title>
<path fill="none" stroke="black" d="M-17.5369,58.1372C-19.4861,45.4988 -25.6362,5.62285 -28.9456,-15.8343"/>
<polygon fill="black" stroke="black" points="-32.4473,-15.5777 -30.5126,-25.9944 -25.5291,-16.6447 -32.4473,-15.5777"/>
</g>
<!-- 4&#45;&gt;6 -->
<g id="edge16" class="edge"><title>4&#45;&gt;6</title>
<path fill="none" stroke="black" d="M-16.5551,58.4615C-15.6539,49.8395 -13.2259,27.4397 -10.4578,8.83052 -8.99223,-1.02231 -7.03349,-12.0927 -5.47677,-20.5209"/>
<polygon fill="black" stroke="black" points="-8.88187,-21.3516 -3.58793,-30.529 -2.00331,-20.0533 -8.88187,-21.3516"/>
</g>
<!-- 4&#45;&gt;7 -->
<g id="edge17" class="edge"><title>4&#45;&gt;7</title>
<path fill="none" stroke="black" d="M-14.7826,59.1363C-8.6921,50.7597 8.94198,26.5068 19.4299,12.0822"/>
<polygon fill="black" stroke="black" points="16.6078,10.0119 25.3194,3.98213 22.2695,14.1285 16.6078,10.0119"/>
</g>
<!-- 4&#45;&gt;5 -->
<g id="edge19" class="edge"><title>4&#45;&gt;5</title>
<path fill="none" stroke="black" d="M-16.0885,58.2553C-14.4736,50.8832 -10.8631,34.401 -8.25391,22.49"/>
<polygon fill="black" stroke="black" points="-11.6484,21.6288 -6.08953,12.6094 -4.81049,23.1268 -11.6484,21.6288"/>
</g>
<!-- 8&#45;&gt;1 -->
<g id="edge35" class="edge"><title>8&#45;&gt;1</title>
<path fill="none" stroke="black" d="M-46.3525,38.4729C-44.0798,28.2936 -37.8638,0.452106 -34.1068,-16.3755"/>
<polygon fill="black" stroke="black" points="-37.4923,-17.2749 -31.8973,-26.2719 -30.6605,-15.7495 -37.4923,-17.2749"/>
</g>
<!-- 8&#45;&gt;2 -->
<g id="edge33" class="edge"><title>8&#45;&gt;2</title>
<path fill="none" stroke="black" d="M-43.3829,41.8686C-32.3382,40.4719 -0.0645486,36.3908 18.5822,34.0329"/>
<polygon fill="black" stroke="black" points="18.3381,30.536 28.6982,32.7537 19.2163,37.4807 18.3381,30.536"/>
</g>
<!-- 8&#45;&gt;6 -->
<g id="edge34" class="edge"><title>8&#45;&gt;6</title>
<path fill="none" stroke="black" d="M-45.3144,39.0694C-39.2483,28.6089 -20.1701,-4.29047 -9.78911,-22.1918"/>
<polygon fill="black" stroke="black" points="-12.7884,-23.9969 -4.74403,-30.8918 -6.73286,-20.4853 -12.7884,-23.9969"/>
</g>
<!-- 8&#45;&gt;5 -->
<g id="edge36" class="edge"><title>8&#45;&gt;5</title>
<path fill="none" stroke="black" d="M-44.2012,39.9415C-38.4509,35.3451 -25.6638,25.1239 -16.3049,17.6431"/>
<polygon fill="black" stroke="black" points="-18.4731,14.8954 -8.47646,11.3856 -14.1024,20.3633 -18.4731,14.8954"/>
</g>
<!-- 10&#45;&gt;1 -->
<g id="edge46" class="edge"><title>10&#45;&gt;1</title>
<path fill="none" stroke="black" d="M66.2518,-25.5032C52.6638,-26.1066 6.44738,-28.1591 -17.0865,-29.2042"/>
<polygon fill="black" stroke="black" points="-17.4214,-25.7156 -27.2563,-29.6559 -17.1108,-32.7087 -17.4214,-25.7156"/>
</g>
<!-- 10&#45;&gt;2 -->
<g id="edge43" class="edge"><title>10&#45;&gt;2</title>
<path fill="none" stroke="black" d="M68.064,-22.2341C62.8362,-14.2603 48.7089,7.28765 39.8584,20.787"/>
<polygon fill="black" stroke="black" points="42.7637,22.7391 34.3538,29.183 36.9097,18.901 42.7637,22.7391"/>
</g>
<!-- 10&#45;&gt;6 -->
<g id="edge44" class="edge"><title>10&#45;&gt;6</title>
<path fill="none" stroke="black" d="M66.171,-25.8027C55.8774,-27.0362 27.7231,-30.4097 10.7064,-32.4488"/>
<polygon fill="black" stroke="black" points="10.2113,-28.983 0.698794,-33.6479 11.0442,-35.9332 10.2113,-28.983"/>
</g>
<!-- 10&#45;&gt;7 -->
<g id="edge45" class="edge"><title>10&#45;&gt;7</title>
<path fill="none" stroke="black" d="M66.7567,-23.2727C60.9495,-19.6899 48.7233,-12.1469 39.4577,-6.43052"/>
<polygon fill="black" stroke="black" points="41.1029,-3.33304 30.7545,-1.06106 37.4274,-9.29049 41.1029,-3.33304"/>
</g>
<!-- 10&#45;&gt;5 -->
<g id="edge47" class="edge"><title>10&#45;&gt;5</title>
<path fill="none" stroke="black" d="M66.4609,-23.6856C55.9463,-18.9211 25.1251,-4.95482 7.49834,3.03252"/>
<polygon fill="black" stroke="black" points="8.71954,6.32168 -1.83357,7.26116 5.83032,-0.0542715 8.71954,6.32168"/>
</g>
</g>
</svg>
