<?xml version="1.0" encoding="UTF-8" standalone="no"?>
<!DOCTYPE svg PUBLIC "-//W3C//DTD SVG 1.1//EN"
 "http://www.w3.org/Graphics/SVG/1.1/DTD/svg11.dtd">
<!-- Generated by graphviz version 2.38.0 (20140413.2041)
 -->
<!-- Title: %3 Pages: 1 -->
<svg width="156pt" height="150pt"
 viewBox="0.00 0.00 155.70 149.78" xmlns="http://www.w3.org/2000/svg" xmlns:xlink="http://www.w3.org/1999/xlink">
<g id="graph0" class="graph" transform="scale(1 1) rotate(0) translate(74.4077 76.4929)">
<title>%3</title>
<polygon fill="white" stroke="none" points="-74.4077,73.2866 -74.4077,-76.4929 81.2954,-76.4929 81.2954,73.2866 -74.4077,73.2866"/>
<!-- 1 -->
<g id="node1" class="node"><title>1</title>
<ellipse fill="none" stroke="black" cx="-31.1036" cy="-29.8267" rx="7" ry="7"/>
</g>
<!-- 9 -->
<g id="node2" class="node"><title>9</title>
<ellipse fill="black" stroke="black" cx="36.6563" cy="-65.2929" rx="7.2" ry="7.2"/>
</g>
<!-- 1&#45;&gt;9 -->
<g id="edge1" class="edge"><title>1&#45;&gt;9</title>
<path fill="none" stroke="black" d="M-27.5687,-36.0145C-18.7819,-44.153 3.7158,-56.6044 19.6431,-62.7534"/>
<polygon fill="black" stroke="black" points="18.7795,-66.152 29.3707,-65.8731 20.9172,-59.4864 18.7795,-66.152"/>
</g>
<!-- 2 -->
<g id="node3" class="node"><title>2</title>
<ellipse fill="black" stroke="black" cx="32.3124" cy="32.2967" rx="7.2" ry="7.2"/>
</g>
<!-- 1&#45;&gt;2 -->
<g id="edge2" class="edge"><title>1&#45;&gt;2</title>
<path fill="none" stroke="black" d="M-24.2034,-28.151C-12.1474,-21.1785 11.655,1.32203 24.3359,16.9486"/>
<polygon fill="black" stroke="black" points="27.2787,15.044 30.3441,25.1857 21.6233,19.1692 27.2787,15.044"/>
</g>
<!-- 6 -->
<g id="node4" class="node"><title>6</title>
<ellipse fill="black" stroke="black" cx="-2.89596" cy="-34.0787" rx="7.2" ry="7.2"/>
</g>
<!-- 1&#45;&gt;6 -->
<g id="edge3" class="edge"><title>1&#45;&gt;6</title>
<path fill="none" stroke="black" d="M-26.9753,-35.7754C-24.8173,-36.988 -22.0294,-37.9018 -19.119,-38.4405"/>
<polygon fill="black" stroke="black" points="-18.9976,-41.943 -8.93858,-38.6165 -18.8765,-34.9441 -18.9976,-41.943"/>
</g>
<!-- 7 -->
<g id="node5" class="node"><title>7</title>
<ellipse fill="black" stroke="black" cx="27.5478" cy="0.917316" rx="7.2" ry="7.2"/>
</g>
<!-- 1&#45;&gt;7 -->
<g id="edge4" class="edge"><title>1&#45;&gt;7</title>
<path fill="none" stroke="black" d="M-23.7813,-30.6326C-13.7278,-28.4801 4.15113,-19.7774 15.9826,-11.7964"/>
<polygon fill="black" stroke="black" points="18.1239,-14.565 23.9097,-5.68942 13.8518,-9.01973 18.1239,-14.565"/>
</g>
<!-- 5 -->
<g id="node6" class="node"><title>5</title>
<ellipse fill="black" stroke="black" cx="-5.25786" cy="8.81283" rx="7.2" ry="7.2"/>
</g>
<!-- 1&#45;&gt;5 -->
<g id="edge5" class="edge"><title>1&#45;&gt;5</title>
<path fill="none" stroke="black" d="M-24.0991,-27.6542C-19.0071,-23.5967 -12.8392,-15.4632 -8.67208,-7.85321"/>
<polygon fill="black" stroke="black" points="-5.3986,-9.10267 -4.60533,1.46243 -11.8139,-6.30201 -5.3986,-9.10267"/>
</g>
<!-- 9&#45;&gt;1 -->
<g id="edge40" class="edge"><title>9&#45;&gt;1</title>
<path fill="none" stroke="black" d="M32.7247,-58.7431C23.6254,-50.558 1.36551,-38.2941 -14.3422,-32.2693"/>
<polygon fill="black" stroke="black" points="-13.3373,-28.9163 -23.9277,-29.2219 -15.4582,-35.5873 -13.3373,-28.9163"/>
</g>
<!-- 9&#45;&gt;2 -->
<g id="edge37" class="edge"><title>9&#45;&gt;2</title>
<path fill="none" stroke="black" d="M36.3298,-57.9578C35.6474,-42.6275 34.0539,-6.82748 33.0915,14.7939"/>
<polygon fill="black" stroke="black" points="36.584,15.0421 32.6427,24.8765 29.5909,14.7307 36.584,15.0421"/>
</g>
<!-- 9&#45;&gt;6 -->
<g id="edge38" class="edge"><title>9&#45;&gt;6</title>
<path fill="none" stroke="black" d="M30.8202,-60.6872C25.6791,-56.6298 17.9806,-50.5542 11.2374,-45.2326"/>
<polygon fill="black" stroke="black" points="12.9823,-42.151 2.96406,-38.7033 8.64569,-47.6459 12.9823,-42.151"/>
</g>
<!-- 9&#45;&gt;7 -->
<g id="edge39" class="edge"><title>9&#45;&gt;7</title>
<path fill="none" stroke="black" d="M35.6467,-57.9543C34.2717,-47.9587 31.7683,-29.7616 29.9074,-16.2346"/>
<polygon fill="black" stroke="black" points="33.3645,-15.6826 28.5342,-6.25292 26.4298,-16.6367 33.3645,-15.6826"/>
</g>
<!-- 9&#45;&gt;5 -->
<g id="edge42" class="edge"><title>9&#45;&gt;5</title>
<path fill="none" stroke="black" d="M33.0827,-58.9747C26.525,-47.3804 12.4043,-22.4144 3.25151,-6.23206"/>
<polygon fill="black" stroke="black" points="6.27629,-4.47051 -1.69333,2.5106 0.183338,-7.91671 6.27629,-4.47051"/>
</g>
<!-- 10 -->
<g id="node10" class="node"><title>10</title>
<ellipse fill="black" stroke="black" cx="70.0954" cy="-25.3325" rx="7.2" ry="7.2"/>
</g>
<!-- 9&#45;&gt;10 -->
<g id="edge41" class="edge"><title>9&#45;&gt;10</title>
<path fill="none" stroke="black" d="M41.3059,-59.7366C45.7474,-54.4289 52.6222,-46.2133 58.54,-39.1415"/>
<polygon fill="black" stroke="black" points="61.5354,-41.0157 65.2687,-31.1004 56.167,-36.5234 61.5354,-41.0157"/>
</g>
<!-- 2&#45;&gt;1 -->
<g id="edge9" class="edge"><title>2&#45;&gt;1</title>
<path fill="none" stroke="black" d="M25.1604,30.4741C12.9999,23.3213 -10.6414,0.938167 -23.2131,-14.5847"/>
<polygon fill="black" stroke="black" points="-26.1115,-12.6194 -29.1654,-22.7646 -20.4515,-16.7381 -26.1115,-12.6194"/>
</g>
<!-- 2&#45;&gt;6 -->
<g id="edge7" class="edge"><title>2&#45;&gt;6</title>
<path fill="none" stroke="black" d="M25.7947,28.5025C17.8154,19.8049 5.95203,-1.32281 -0.137866,-16.6741"/>
<polygon fill="black" stroke="black" points="-3.59404,-15.9776 -3.41378,-26.5709 3.05138,-18.1773 -3.59404,-15.9776"/>
</g>
<!-- 2&#45;&gt;7 -->
<g id="edge8" class="edge"><title>2&#45;&gt;7</title>
<path fill="none" stroke="black" d="M26.4178,27.8906C24.8308,24.9527 23.685,20.9067 23.1456,16.8398"/>
<polygon fill="black" stroke="black" points="19.6463,16.737 23.2471,6.77281 26.646,16.8076 19.6463,16.737"/>
</g>
<!-- 2&#45;&gt;5 -->
<g id="edge10" class="edge"><title>2&#45;&gt;5</title>
<path fill="none" stroke="black" d="M24.893,33.2386C19.1288,31.7564 11.2585,27.5407 4.94735,22.8827"/>
<polygon fill="black" stroke="black" points="2.37469,25.278 -2.75659,16.0086 7.03516,20.0549 2.37469,25.278"/>
</g>
<!-- 3 -->
<g id="node7" class="node"><title>3</title>
<ellipse fill="black" stroke="black" cx="-63.2077" cy="8.06377" rx="7.2" ry="7.2"/>
</g>
<!-- 2&#45;&gt;3 -->
<g id="edge6" class="edge"><title>2&#45;&gt;3</title>
<path fill="none" stroke="black" d="M25.1328,30.4753C10.0541,26.6499 -25.2573,17.6916 -46.3864,12.3313"/>
<polygon fill="black" stroke="black" points="-47.3722,15.6921 -56.2045,9.84045 -45.6509,8.90704 -47.3722,15.6921"/>
</g>
<!-- 6&#45;&gt;1 -->
<g id="edge26" class="edge"><title>6&#45;&gt;1</title>
<path fill="none" stroke="black" d="M-7.02433,-28.13C-9.31253,-26.8442 -12.309,-25.8943 -15.4087,-25.3715"/>
<polygon fill="black" stroke="black" points="-15.4651,-21.8714 -25.4647,-25.3723 -15.4644,-28.8714 -15.4651,-21.8714"/>
</g>
<!-- 6&#45;&gt;2 -->
<g id="edge24" class="edge"><title>6&#45;&gt;2</title>
<path fill="none" stroke="black" d="M3.62168,-30.2845C11.601,-21.5868 23.4644,-0.459153 29.5543,14.8921"/>
<polygon fill="black" stroke="black" points="33.0104,14.1956 32.8302,24.7889 26.365,16.3954 33.0104,14.1956"/>
</g>
<!-- 6&#45;&gt;7 -->
<g id="edge25" class="edge"><title>6&#45;&gt;7</title>
<path fill="none" stroke="black" d="M4.31837,-32.8159C9.80994,-29.4809 16.8417,-22.3319 21.9105,-15.3956"/>
<polygon fill="black" stroke="black" points="25.1354,-16.8234 27.2768,-6.44718 19.1321,-13.2232 25.1354,-16.8234"/>
</g>
<!-- 6&#45;&gt;5 -->
<g id="edge27" class="edge"><title>6&#45;&gt;5</title>
<path fill="none" stroke="black" d="M1.51937,-28.2112C3.02915,-22.5578 3.13612,-13.7705 2.07846,-6.17476"/>
<polygon fill="black" stroke="black" points="5.46893,-5.30413 -0.276704,3.59745 -1.33623,-6.94427 5.46893,-5.30413"/>
</g>
<!-- 7&#45;&gt;1 -->
<g id="edge31" class="edge"><title>7&#45;&gt;1</title>
<path fill="none" stroke="black" d="M20.2255,1.72321C10.1699,-0.429751 -7.71416,-9.13552 -19.5456,-17.1179"/>
<polygon fill="black" stroke="black" points="-22.0039,-14.5955 -27.7557,-23.4931 -17.7107,-20.1243 -22.0039,-14.5955"/>
</g>
<!-- 7&#45;&gt;2 -->
<g id="edge28" class="edge"><title>7&#45;&gt;2</title>
<path fill="none" stroke="black" d="M33.4424,5.32344C35.0294,8.26134 36.1752,12.3073 36.7146,16.3742"/>
<polygon fill="black" stroke="black" points="40.2139,16.477 36.6131,26.4412 33.2142,16.4064 40.2139,16.477"/>
</g>
<!-- 7&#45;&gt;6 -->
<g id="edge29" class="edge"><title>7&#45;&gt;6</title>
<path fill="none" stroke="black" d="M20.3335,-0.34539C14.8419,-3.68039 7.81021,-10.8295 2.74141,-17.7657"/>
<polygon fill="black" stroke="black" points="-0.483478,-16.338 -2.62492,-26.7142 5.51979,-19.9381 -0.483478,-16.338"/>
</g>
<!-- 7&#45;&gt;5 -->
<g id="edge32" class="edge"><title>7&#45;&gt;5</title>
<path fill="none" stroke="black" d="M23.6065,7.07295C20.4921,9.10393 15.9591,10.7668 11.3996,11.7265"/>
<polygon fill="black" stroke="black" points="11.6163,15.2203 1.36822,12.5319 11.056,8.24273 11.6163,15.2203"/>
</g>
<!-- 8 -->
<g id="node9" class="node"><title>8</title>
<ellipse fill="black" stroke="black" cx="-47.2189" cy="42.3536" rx="7.2" ry="7.2"/>
</g>
<!-- 7&#45;&gt;8 -->
<g id="edge30" class="edge"><title>7&#45;&gt;8</title>
<path fill="none" stroke="black" d="M21.1733,4.45015C9.47556,10.9331 -15.7131,24.8929 -32.0398,33.9413"/>
<polygon fill="black" stroke="black" points="-30.4173,37.0436 -40.8605,38.8297 -33.8105,30.921 -30.4173,37.0436"/>
</g>
<!-- 5&#45;&gt;1 -->
<g id="edge23" class="edge"><title>5&#45;&gt;1</title>
<path fill="none" stroke="black" d="M-12.2624,6.6403C-17.4098,2.53872 -23.6565,-5.72796 -27.8246,-13.4087"/>
<polygon fill="black" stroke="black" points="-31.1138,-12.1984 -31.8392,-22.7684 -24.6806,-14.9578 -31.1138,-12.1984"/>
</g>
<!-- 5&#45;&gt;2 -->
<g id="edge20" class="edge"><title>5&#45;&gt;2</title>
<path fill="none" stroke="black" d="M2.16155,7.87095C7.92572,9.35317 15.796,13.5688 22.1072,18.2268"/>
<polygon fill="black" stroke="black" points="24.6798,15.8315 29.8111,25.1009 20.0193,21.0546 24.6798,15.8315"/>
</g>
<!-- 5&#45;&gt;6 -->
<g id="edge21" class="edge"><title>5&#45;&gt;6</title>
<path fill="none" stroke="black" d="M-9.67319,2.94537C-11.183,-2.70801 -11.2899,-11.4953 -10.2323,-19.0911"/>
<polygon fill="black" stroke="black" points="-13.6227,-19.9617 -7.87712,-28.8633 -6.81759,-18.3216 -13.6227,-19.9617"/>
</g>
<!-- 5&#45;&gt;7 -->
<g id="edge22" class="edge"><title>5&#45;&gt;7</title>
<path fill="none" stroke="black" d="M-1.31656,2.6572C1.79783,0.626217 6.3309,-1.03667 10.8903,-1.99635"/>
<polygon fill="black" stroke="black" points="10.6737,-5.49013 20.9218,-2.8018 11.234,1.48741 10.6737,-5.49013"/>
</g>
<!-- 3&#45;&gt;1 -->
<g id="edge14" class="edge"><title>3&#45;&gt;1</title>
<path fill="none" stroke="black" d="M-58.4707,2.47289C-54.2497,-2.50885 -47.905,-9.99715 -42.3871,-16.5096"/>
<polygon fill="black" stroke="black" points="-44.7871,-19.0912 -35.6523,-24.4583 -39.4464,-14.5661 -44.7871,-19.0912"/>
</g>
<!-- 3&#45;&gt;6 -->
<g id="edge12" class="edge"><title>3&#45;&gt;6</title>
<path fill="none" stroke="black" d="M-57.2043,3.86892C-47.992,-2.56811 -30.1012,-15.0692 -17.3729,-23.963"/>
<polygon fill="black" stroke="black" points="-19.077,-27.042 -8.8751,-29.9008 -15.0676,-21.304 -19.077,-27.042"/>
</g>
<!-- 3&#45;&gt;7 -->
<g id="edge13" class="edge"><title>3&#45;&gt;7</title>
<path fill="none" stroke="black" d="M-55.7808,7.47894C-41.4838,6.35314 -9.79286,3.85767 10.1253,2.28923"/>
<polygon fill="black" stroke="black" points="10.028,-1.21385 20.272,1.49025 10.5776,5.76455 10.028,-1.21385"/>
</g>
<!-- 3&#45;&gt;5 -->
<g id="edge15" class="edge"><title>3&#45;&gt;5</title>
<path fill="none" stroke="black" d="M-55.6318,8.16169C-47.3435,8.26883 -33.777,8.44419 -22.81,8.58595"/>
<polygon fill="black" stroke="black" points="-22.6063,5.08819 -12.6524,8.71725 -22.6969,12.0876 -22.6063,5.08819"/>
</g>
<!-- 4 -->
<g id="node8" class="node"><title>4</title>
<ellipse fill="black" stroke="black" cx="-16.9278" cy="62.0866" rx="7.2" ry="7.2"/>
</g>
<!-- 3&#45;&gt;4 -->
<g id="edge11" class="edge"><title>3&#45;&gt;4</title>
<path fill="none" stroke="black" d="M-58.255,13.8452C-51.1895,22.0927 -38.0129,37.4738 -28.4328,48.6567"/>
<polygon fill="black" stroke="black" points="-25.5541,46.6373 -21.7062,56.5087 -30.8701,51.1914 -25.5541,46.6373"/>
</g>
<!-- 4&#45;&gt;1 -->
<g id="edge18" class="edge"><title>4&#45;&gt;1</title>
<path fill="none" stroke="black" d="M-18.0401,54.8743C-20.2766,40.3732 -25.3707,7.34455 -28.4957,-12.9175"/>
<polygon fill="black" stroke="black" points="-31.97,-12.4828 -30.0352,-22.8995 -25.0518,-13.5499 -31.97,-12.4828"/>
</g>
<!-- 4&#45;&gt;6 -->
<g id="edge16" class="edge"><title>4&#45;&gt;6</title>
<path fill="none" stroke="black" d="M-15.8731,54.8586C-13.6689,39.752 -8.52138,4.47448 -5.41257,-16.8314"/>
<polygon fill="black" stroke="black" points="-8.87012,-17.3769 -3.96287,-26.7668 -1.94347,-16.3662 -8.87012,-17.3769"/>
</g>
<!-- 4&#45;&gt;7 -->
<g id="edge17" class="edge"><title>4&#45;&gt;7</title>
<path fill="none" stroke="black" d="M-12.5007,55.9978C-5.64066,46.5629 7.74524,28.1527 17.1471,15.222"/>
<polygon fill="black" stroke="black" points="14.427,13.0113 23.1386,6.98147 20.0887,17.1278 14.427,13.0113"/>
</g>
<!-- 4&#45;&gt;5 -->
<g id="edge19" class="edge"><title>4&#45;&gt;5</title>
<path fill="none" stroke="black" d="M-15.3051,54.6791C-13.6852,47.2841 -11.1378,35.655 -9.01344,25.9573"/>
<polygon fill="black" stroke="black" points="-12.4256,25.1768 -6.86673,16.1574 -5.58769,26.6747 -12.4256,25.1768"/>
</g>
<!-- 8&#45;&gt;1 -->
<g id="edge35" class="edge"><title>8&#45;&gt;1</title>
<path fill="none" stroke="black" d="M-45.6148,35.1688C-43.1533,24.1436 -38.3729,2.73213 -34.9719,-12.5009"/>
<polygon fill="black" stroke="black" points="-38.2962,-13.6739 -32.7013,-22.671 -31.4644,-12.1486 -38.2962,-13.6739"/>
</g>
<!-- 8&#45;&gt;2 -->
<g id="edge33" class="edge"><title>8&#45;&gt;2</title>
<path fill="none" stroke="black" d="M-39.8793,41.4255C-27.6316,39.8768 -2.68565,36.7223 14.4206,34.5591"/>
<polygon fill="black" stroke="black" points="14.3984,31.0342 24.7586,33.2519 15.2767,37.9789 14.3984,31.0342"/>
</g>
<!-- 8&#45;&gt;6 -->
<g id="edge34" class="edge"><title>8&#45;&gt;6</title>
<path fill="none" stroke="black" d="M-43.5918,36.0989C-36.7432,24.2888 -21.7221,-1.61411 -11.9699,-18.4312"/>
<polygon fill="black" stroke="black" points="-14.7432,-20.6259 -6.69887,-27.5208 -8.68769,-17.1143 -14.7432,-20.6259"/>
</g>
<!-- 8&#45;&gt;5 -->
<g id="edge36" class="edge"><title>8&#45;&gt;5</title>
<path fill="none" stroke="black" d="M-41.3844,37.6899C-35.6223,33.0841 -26.5967,25.8697 -19.0086,19.8042"/>
<polygon fill="black" stroke="black" points="-21.0394,16.9468 -11.0428,13.4369 -16.6687,22.4147 -21.0394,16.9468"/>
</g>
<!-- 10&#45;&gt;1 -->
<g id="edge46" class="edge"><title>10&#45;&gt;1</title>
<path fill="none" stroke="black" d="M62.8174,-25.6557C46.917,-26.3619 8.70664,-28.0588 -13.7721,-29.057"/>
<polygon fill="black" stroke="black" points="-14.0568,-25.5661 -23.8916,-29.5064 -13.7461,-32.5592 -14.0568,-25.5661"/>
</g>
<!-- 10&#45;&gt;2 -->
<g id="edge43" class="edge"><title>10&#45;&gt;2</title>
<path fill="none" stroke="black" d="M66.0519,-19.1652C60.3438,-10.4587 49.7499,5.6998 41.9504,17.596"/>
<polygon fill="black" stroke="black" points="44.8512,19.5551 36.4413,25.999 38.9972,15.7171 44.8512,19.5551"/>
</g>
<!-- 10&#45;&gt;6 -->
<g id="edge44" class="edge"><title>10&#45;&gt;6</title>
<path fill="none" stroke="black" d="M62.8298,-26.2031C51.6808,-27.539 30.0287,-30.1335 14.6245,-31.9793"/>
<polygon fill="black" stroke="black" points="13.8527,-28.5466 4.34019,-33.2116 14.6856,-35.4969 13.8527,-28.5466"/>
</g>
<!-- 10&#45;&gt;7 -->
<g id="edge45" class="edge"><title>10&#45;&gt;7</title>
<path fill="none" stroke="black" d="M63.8173,-21.4593C58.2869,-18.0472 50.0054,-12.9379 42.7515,-8.46262"/>
<polygon fill="black" stroke="black" points="44.2,-5.2438 33.8516,-2.97183 40.5245,-11.2012 44.2,-5.2438"/>
</g>
<!-- 10&#45;&gt;5 -->
<g id="edge47" class="edge"><title>10&#45;&gt;5</title>
<path fill="none" stroke="black" d="M63.4083,-22.3023C51.7077,-17.0004 27.2134,-5.90109 10.8695,1.50493"/>
<polygon fill="black" stroke="black" points="12.0757,4.80089 1.52257,5.74036 9.18646,-1.57506 12.0757,4.80089"/>
</g>
</g>
</svg>
