<?xml version="1.0" encoding="UTF-8" standalone="no"?>
<!DOCTYPE svg PUBLIC "-//W3C//DTD SVG 1.1//EN"
 "http://www.w3.org/Graphics/SVG/1.1/DTD/svg11.dtd">
<!-- Generated by graphviz version 2.38.0 (20140413.2041)
 -->
<!-- Title: %3 Pages: 1 -->
<svg width="297pt" height="281pt"
 viewBox="0.00 0.00 296.56 281.22" xmlns="http://www.w3.org/2000/svg" xmlns:xlink="http://www.w3.org/1999/xlink">
<g id="graph0" class="graph" transform="scale(1 1) rotate(0) translate(147.062 135.91)">
<title>%3</title>
<polygon fill="white" stroke="none" points="-147.062,145.31 -147.062,-135.91 149.496,-135.91 149.496,145.31 -147.062,145.31"/>
<!-- 1 -->
<g id="node1" class="node"><title>1</title>
<ellipse fill="none" stroke="black" cx="-63.5386" cy="-53.0256" rx="7" ry="7"/>
</g>
<!-- 2 -->
<g id="node2" class="node"><title>2</title>
<ellipse fill="black" stroke="black" cx="-88.6283" cy="-124.71" rx="7.2" ry="7.2"/>
</g>
<!-- 1&#45;&gt;2 -->
<g id="edge1" class="edge"><title>1&#45;&gt;2</title>
<path fill="none" stroke="black" d="M-69.1347,-57.381C-75.8863,-67.1793 -84.8847,-91.076 -88.6201,-107.615"/>
<polygon fill="black" stroke="black" points="-92.0972,-107.19 -90.2731,-117.626 -85.1907,-108.33 -92.0972,-107.19"/>
</g>
<!-- 7 -->
<g id="node3" class="node"><title>7</title>
<ellipse fill="black" stroke="black" cx="-5.19224" cy="2.45503" rx="7.2" ry="7.2"/>
</g>
<!-- 1&#45;&gt;7 -->
<g id="edge2" class="edge"><title>1&#45;&gt;7</title>
<path fill="none" stroke="black" d="M-56.3121,-51.457C-45.2275,-45.2856 -24.9231,-26.7788 -13.3714,-13.0265"/>
<polygon fill="black" stroke="black" points="-10.4389,-14.9501 -7.22908,-4.85318 -16.0348,-10.7447 -10.4389,-14.9501"/>
</g>
<!-- 2&#45;&gt;1 -->
<g id="edge3" class="edge"><title>2&#45;&gt;1</title>
<path fill="none" stroke="black" d="M-82.7328,-119.913C-76.0459,-109.898 -67.303,-86.6181 -63.5947,-70.3315"/>
<polygon fill="black" stroke="black" points="-60.0644,-70.4351 -61.8857,-59.998 -66.9706,-69.2929 -60.0644,-70.4351"/>
</g>
<!-- 5 -->
<g id="node4" class="node"><title>5</title>
<ellipse fill="black" stroke="black" cx="-135.862" cy="-74.5827" rx="7.2" ry="7.2"/>
</g>
<!-- 2&#45;&gt;5 -->
<g id="edge4" class="edge"><title>2&#45;&gt;5</title>
<path fill="none" stroke="black" d="M-89.9937,-117.263C-95.1,-107.777 -109.075,-92.1052 -120.402,-82.4708"/>
<polygon fill="black" stroke="black" points="-118.593,-79.4539 -128.699,-76.2721 -122.783,-85.0615 -118.593,-79.4539"/>
</g>
<!-- 7&#45;&gt;1 -->
<g id="edge13" class="edge"><title>7&#45;&gt;1</title>
<path fill="none" stroke="black" d="M-12.4188,0.886515C-23.6131,-5.34608 -44.2107,-24.1594 -55.7,-37.9511"/>
<polygon fill="black" stroke="black" points="-58.6018,-35.9884 -61.7444,-46.1065 -52.978,-40.1566 -58.6018,-35.9884"/>
</g>
<!-- 3 -->
<g id="node5" class="node"><title>3</title>
<ellipse fill="black" stroke="black" cx="30.6001" cy="58.8264" rx="7.2" ry="7.2"/>
</g>
<!-- 7&#45;&gt;3 -->
<g id="edge14" class="edge"><title>7&#45;&gt;3</title>
<path fill="none" stroke="black" d="M1.58332,5.45247C9.3456,12.4741 20.7401,29.3448 27.0391,42.3186"/>
<polygon fill="black" stroke="black" points="30.299,41.0439 30.8315,51.6253 23.8166,43.6855 30.299,41.0439"/>
</g>
<!-- 9 -->
<g id="node9" class="node"><title>9</title>
<ellipse fill="black" stroke="black" cx="-34.7667" cy="80.5302" rx="7.2" ry="7.2"/>
</g>
<!-- 7&#45;&gt;9 -->
<g id="edge15" class="edge"><title>7&#45;&gt;9</title>
<path fill="none" stroke="black" d="M-7.81677,9.38368C-12.409,21.5069 -22.0225,46.8861 -28.4371,63.8203"/>
<polygon fill="black" stroke="black" points="-25.2901,65.3931 -32.1055,73.5049 -31.8362,62.9135 -25.2901,65.3931"/>
</g>
<!-- 5&#45;&gt;1 -->
<g id="edge11" class="edge"><title>5&#45;&gt;1</title>
<path fill="none" stroke="black" d="M-128.928,-72.5157C-117.775,-69.1915 -95.5452,-62.5655 -80.1202,-57.9679"/>
<polygon fill="black" stroke="black" points="-78.9303,-61.2655 -70.3468,-55.0548 -80.9299,-54.5572 -78.9303,-61.2655"/>
</g>
<!-- 5&#45;&gt;2 -->
<g id="edge12" class="edge"><title>5&#45;&gt;2</title>
<path fill="none" stroke="black" d="M-134.497,-82.0295C-129.391,-91.5158 -115.415,-107.188 -104.088,-116.822"/>
<polygon fill="black" stroke="black" points="-105.898,-119.839 -95.7922,-123.021 -101.708,-114.231 -105.898,-119.839"/>
</g>
<!-- 3&#45;&gt;7 -->
<g id="edge5" class="edge"><title>3&#45;&gt;7</title>
<path fill="none" stroke="black" d="M23.8246,55.829C16.0623,48.8073 4.66779,31.9367 -1.63118,18.9628"/>
<polygon fill="black" stroke="black" points="-4.89113,20.2375 -5.42367,9.6561 1.59132,17.5959 -4.89113,20.2375"/>
</g>
<!-- 8 -->
<g id="node6" class="node"><title>8</title>
<ellipse fill="black" stroke="black" cx="60.6465" cy="-23.0168" rx="7.2" ry="7.2"/>
</g>
<!-- 3&#45;&gt;8 -->
<g id="edge6" class="edge"><title>3&#45;&gt;8</title>
<path fill="none" stroke="black" d="M29.2849,51.6643C30.7137,37.9982 41.0286,8.23114 49.842,-9.34219"/>
<polygon fill="black" stroke="black" points="47.0463,-11.5049 55.0426,-18.4554 53.126,-8.03532 47.0463,-11.5049"/>
</g>
<!-- 4 -->
<g id="node7" class="node"><title>4</title>
<ellipse fill="black" stroke="black" cx="81.8584" cy="24.0667" rx="7.2" ry="7.2"/>
</g>
<!-- 3&#45;&gt;4 -->
<g id="edge7" class="edge"><title>3&#45;&gt;4</title>
<path fill="none" stroke="black" d="M33.3207,51.8543C39.4681,44.5603 53.6874,34.2114 65.223,28.1013"/>
<polygon fill="black" stroke="black" points="63.8408,24.8855 74.3991,24.0064 66.6935,31.2778 63.8408,24.8855"/>
</g>
<!-- 8&#45;&gt;7 -->
<g id="edge16" class="edge"><title>8&#45;&gt;7</title>
<path fill="none" stroke="black" d="M53.6006,-20.2909C43.5491,-16.4022 24.8039,-9.14995 11.175,-3.87718"/>
<polygon fill="black" stroke="black" points="12.1949,-0.519008 1.60568,-0.174969 9.66915,-7.04746 12.1949,-0.519008"/>
</g>
<!-- 8&#45;&gt;3 -->
<g id="edge17" class="edge"><title>8&#45;&gt;3</title>
<path fill="none" stroke="black" d="M61.9617,-15.8547C60.5328,-2.18857 50.218,27.5785 41.4046,45.1518"/>
<polygon fill="black" stroke="black" points="44.2003,47.3145 36.204,54.265 38.1206,43.8449 44.2003,47.3145"/>
</g>
<!-- 6 -->
<g id="node8" class="node"><title>6</title>
<ellipse fill="black" stroke="black" cx="138.296" cy="-24.6534" rx="7.2" ry="7.2"/>
</g>
<!-- 8&#45;&gt;6 -->
<g id="edge18" class="edge"><title>8&#45;&gt;6</title>
<path fill="none" stroke="black" d="M68.0918,-23.1737C80.1817,-23.4285 104.397,-23.9389 120.974,-24.2883"/>
<polygon fill="black" stroke="black" points="120.915,-27.7877 130.986,-24.4993 121.062,-20.7893 120.915,-27.7877"/>
</g>
<!-- 4&#45;&gt;7 -->
<g id="edge8" class="edge"><title>4&#45;&gt;7</title>
<path fill="none" stroke="black" d="M74.7347,22.2981C61.1571,18.9272 31.2244,11.496 12.0898,6.74555"/>
<polygon fill="black" stroke="black" points="11.1387,10.1158 2.27671,4.3093 12.8254,3.322 11.1387,10.1158"/>
</g>
<!-- 4&#45;&gt;3 -->
<g id="edge10" class="edge"><title>4&#45;&gt;3</title>
<path fill="none" stroke="black" d="M79.1378,31.0387C72.9905,38.3328 58.7711,48.6817 47.2355,54.7918"/>
<polygon fill="black" stroke="black" points="48.6177,58.0076 38.0594,58.8867 45.765,51.6152 48.6177,58.0076"/>
</g>
<!-- 4&#45;&gt;6 -->
<g id="edge9" class="edge"><title>4&#45;&gt;6</title>
<path fill="none" stroke="black" d="M87.4762,19.2171C96.1812,11.7024 113.167,-2.96097 125.098,-13.26"/>
<polygon fill="black" stroke="black" points="122.844,-15.9382 132.701,-19.8234 127.418,-10.6394 122.844,-15.9382"/>
</g>
<!-- 9&#45;&gt;3 -->
<g id="edge19" class="edge"><title>9&#45;&gt;3</title>
<path fill="none" stroke="black" d="M-27.7713,78.2075C-17.8959,74.9286 0.432193,68.8431 13.9257,64.3628"/>
<polygon fill="black" stroke="black" points="12.8634,61.0277 23.4569,61.1982 15.0692,67.6711 12.8634,61.0277"/>
</g>
<!-- 10 -->
<g id="node10" class="node"><title>10</title>
<ellipse fill="black" stroke="black" cx="16.5876" cy="134.11" rx="7.2" ry="7.2"/>
</g>
<!-- 9&#45;&gt;10 -->
<g id="edge20" class="edge"><title>9&#45;&gt;10</title>
<path fill="none" stroke="black" d="M-27.515,82.3446C-17.5612,88.4329 -0.585986,105.306 9.32425,118.267"/>
<polygon fill="black" stroke="black" points="12.393,116.557 15.0904,126.803 6.59243,120.475 12.393,116.557"/>
</g>
<!-- 10&#45;&gt;3 -->
<g id="edge21" class="edge"><title>10&#45;&gt;3</title>
<path fill="none" stroke="black" d="M17.9312,126.892C20.0919,115.283 24.399,92.1429 27.3875,76.0866"/>
<polygon fill="black" stroke="black" points="24.0102,75.1038 29.2811,65.9132 30.892,76.3848 24.0102,75.1038"/>
</g>
<!-- 10&#45;&gt;9 -->
<g id="edge22" class="edge"><title>10&#45;&gt;9</title>
<path fill="none" stroke="black" d="M9.33599,132.296C-0.617881,126.208 -17.5931,109.335 -27.5033,96.3738"/>
<polygon fill="black" stroke="black" points="-30.5721,98.0835 -33.2695,87.8378 -24.7715,94.1651 -30.5721,98.0835"/>
</g>
</g>
</svg>
