<?xml version="1.0" encoding="UTF-8" standalone="no"?>
<!DOCTYPE svg PUBLIC "-//W3C//DTD SVG 1.1//EN"
 "http://www.w3.org/Graphics/SVG/1.1/DTD/svg11.dtd">
<!-- Generated by graphviz version 2.38.0 (20140413.2041)
 -->
<!-- Title: %3 Pages: 1 -->
<svg width="289pt" height="274pt"
 viewBox="0.00 0.00 289.36 274.02" xmlns="http://www.w3.org/2000/svg" xmlns:xlink="http://www.w3.org/1999/xlink">
<g id="graph0" class="graph" transform="scale(1 1) rotate(0) translate(143.462 132.31)">
<title>%3</title>
<polygon fill="white" stroke="none" points="-143.462,141.71 -143.462,-132.31 145.896,-132.31 145.896,141.71 -143.462,141.71"/>
<!-- 1 -->
<g id="node1" class="node"><title>1</title>
<ellipse fill="none" stroke="black" cx="-63.5386" cy="-53.0256" rx="3.5" ry="3.5"/>
</g>
<!-- 2 -->
<g id="node2" class="node"><title>2</title>
<ellipse fill="black" stroke="black" cx="-88.6283" cy="-124.71" rx="3.6" ry="3.6"/>
</g>
<!-- 1&#45;&gt;2 -->
<g id="edge1" class="edge"><title>1&#45;&gt;2</title>
<path fill="none" stroke="black" d="M-66.8559,-54.5418C-74.153,-61.914 -85.9029,-92.9308 -89.3676,-111.198"/>
<polygon fill="black" stroke="black" points="-92.8716,-111.086 -90.2859,-121.36 -85.9,-111.716 -92.8716,-111.086"/>
</g>
<!-- 7 -->
<g id="node3" class="node"><title>7</title>
<ellipse fill="black" stroke="black" cx="-5.19224" cy="2.45503" rx="3.6" ry="3.6"/>
</g>
<!-- 1&#45;&gt;7 -->
<g id="edge2" class="edge"><title>1&#45;&gt;7</title>
<path fill="none" stroke="black" d="M-59.785,-53.0856C-49.4209,-49.4331 -22.9632,-25.4022 -10.8971,-9.98067"/>
<polygon fill="black" stroke="black" points="-7.83606,-11.692 -5.35995,-1.39052 -13.7197,-7.89942 -7.83606,-11.692"/>
</g>
<!-- 2&#45;&gt;1 -->
<g id="edge3" class="edge"><title>2&#45;&gt;1</title>
<path fill="none" stroke="black" d="M-85.3111,-123.194C-78.014,-115.822 -66.264,-84.8049 -62.7994,-66.5378"/>
<polygon fill="black" stroke="black" points="-59.2954,-66.65 -61.881,-56.3755 -66.267,-66.0199 -59.2954,-66.65"/>
</g>
<!-- 5 -->
<g id="node4" class="node"><title>5</title>
<ellipse fill="black" stroke="black" cx="-135.862" cy="-74.5827" rx="3.6" ry="3.6"/>
</g>
<!-- 2&#45;&gt;5 -->
<g id="edge4" class="edge"><title>2&#45;&gt;5</title>
<path fill="none" stroke="black" d="M-88.3893,-120.891C-91.2921,-111.68 -110.092,-90.4837 -123.34,-80.0631"/>
<polygon fill="black" stroke="black" points="-121.709,-76.9533 -132.033,-74.5719 -125.447,-82.8715 -121.709,-76.9533"/>
</g>
<!-- 7&#45;&gt;1 -->
<g id="edge13" class="edge"><title>7&#45;&gt;1</title>
<path fill="none" stroke="black" d="M-8.94591,2.51509C-19.4025,-1.17001 -46.2415,-25.5991 -58.1535,-41.0009"/>
<polygon fill="black" stroke="black" points="-61.1436,-39.181 -63.5038,-49.5096 -55.2177,-42.9072 -61.1436,-39.181"/>
</g>
<!-- 3 -->
<g id="node5" class="node"><title>3</title>
<ellipse fill="black" stroke="black" cx="30.6001" cy="58.8264" rx="3.6" ry="3.6"/>
</g>
<!-- 7&#45;&gt;3 -->
<g id="edge14" class="edge"><title>7&#45;&gt;3</title>
<path fill="none" stroke="black" d="M-1.47474,3.09877C6.5129,7.91342 21.7278,30.2377 28.3903,45.2194"/>
<polygon fill="black" stroke="black" points="31.8658,44.5939 31.5985,55.1854 25.2026,46.7389 31.8658,44.5939"/>
</g>
<!-- 9 -->
<g id="node9" class="node"><title>9</title>
<ellipse fill="black" stroke="black" cx="-34.7667" cy="80.5302" rx="3.6" ry="3.6"/>
</g>
<!-- 7&#45;&gt;9 -->
<g id="edge15" class="edge"><title>7&#45;&gt;9</title>
<path fill="none" stroke="black" d="M-6.61867,6.22076C-10.7651,17.167 -22.9574,49.3543 -29.8586,67.5732"/>
<polygon fill="black" stroke="black" points="-26.6073,68.8705 -33.4227,76.9822 -33.1534,66.3908 -26.6073,68.8705"/>
</g>
<!-- 5&#45;&gt;1 -->
<g id="edge11" class="edge"><title>5&#45;&gt;1</title>
<path fill="none" stroke="black" d="M-132.374,-73.5429C-122.518,-70.6051 -94.0698,-62.1258 -76.9863,-57.0338"/>
<polygon fill="black" stroke="black" points="-75.7459,-60.3163 -67.1623,-54.1057 -77.7455,-53.608 -75.7459,-60.3163"/>
</g>
<!-- 5&#45;&gt;2 -->
<g id="edge12" class="edge"><title>5&#45;&gt;2</title>
<path fill="none" stroke="black" d="M-136.101,-78.4021C-133.199,-87.6124 -114.399,-108.809 -101.151,-119.23"/>
<polygon fill="black" stroke="black" points="-102.782,-122.34 -92.4579,-124.721 -99.0434,-116.421 -102.782,-122.34"/>
</g>
<!-- 3&#45;&gt;7 -->
<g id="edge5" class="edge"><title>3&#45;&gt;7</title>
<path fill="none" stroke="black" d="M26.8826,58.1827C18.895,53.368 3.68004,31.0437 -2.98247,16.0621"/>
<polygon fill="black" stroke="black" points="-6.45794,16.6875 -6.19065,6.09608 0.205321,14.5425 -6.45794,16.6875"/>
</g>
<!-- 8 -->
<g id="node6" class="node"><title>8</title>
<ellipse fill="black" stroke="black" cx="60.6465" cy="-23.0168" rx="3.6" ry="3.6"/>
</g>
<!-- 3&#45;&gt;8 -->
<g id="edge6" class="edge"><title>3&#45;&gt;8</title>
<path fill="none" stroke="black" d="M29.1308,55.1969C28.6466,43.287 41.5833,5.79927 51.5594,-12.6451"/>
<polygon fill="black" stroke="black" points="48.7007,-14.6685 57.1046,-21.1202 54.5583,-10.8359 48.7007,-14.6685"/>
</g>
<!-- 4 -->
<g id="node7" class="node"><title>4</title>
<ellipse fill="black" stroke="black" cx="81.8584" cy="24.0667" rx="3.6" ry="3.6"/>
</g>
<!-- 3&#45;&gt;4 -->
<g id="edge7" class="edge"><title>3&#45;&gt;4</title>
<path fill="none" stroke="black" d="M30.9792,55.1944C35.0094,47.4819 54.8852,32.914 68.6729,26.3644"/>
<polygon fill="black" stroke="black" points="67.7468,22.9826 78.3413,23.0753 70.0014,29.6096 67.7468,22.9826"/>
</g>
<!-- 8&#45;&gt;7 -->
<g id="edge16" class="edge"><title>8&#45;&gt;7</title>
<path fill="none" stroke="black" d="M57.1067,-21.6473C47.997,-18.123 23.3794,-8.59885 7.95708,-2.63222"/>
<polygon fill="black" stroke="black" points="8.95429,0.73474 -1.63496,1.07878 6.42851,-5.79371 8.95429,0.73474"/>
</g>
<!-- 8&#45;&gt;3 -->
<g id="edge17" class="edge"><title>8&#45;&gt;3</title>
<path fill="none" stroke="black" d="M62.1158,-19.3873C62.6,-7.47737 49.6633,30.0103 39.6871,48.4547"/>
<polygon fill="black" stroke="black" points="42.5459,50.4781 34.142,56.9298 36.6883,46.6455 42.5459,50.4781"/>
</g>
<!-- 6 -->
<g id="node8" class="node"><title>6</title>
<ellipse fill="black" stroke="black" cx="138.296" cy="-24.6534" rx="3.6" ry="3.6"/>
</g>
<!-- 8&#45;&gt;6 -->
<g id="edge18" class="edge"><title>8&#45;&gt;6</title>
<path fill="none" stroke="black" d="M64.3916,-23.0957C75.0761,-23.3209 106.109,-23.975 124.386,-24.3602"/>
<polygon fill="black" stroke="black" points="124.334,-27.8598 134.405,-24.5714 124.481,-20.8613 124.334,-27.8598"/>
</g>
<!-- 4&#45;&gt;7 -->
<g id="edge8" class="edge"><title>4&#45;&gt;7</title>
<path fill="none" stroke="black" d="M78.118,23.138C66.2042,20.1803 28.7343,10.8778 8.34598,5.81609"/>
<polygon fill="black" stroke="black" points="7.29942,9.1626 -1.56261,3.35614 8.98612,2.36883 7.29942,9.1626"/>
</g>
<!-- 4&#45;&gt;3 -->
<g id="edge10" class="edge"><title>4&#45;&gt;3</title>
<path fill="none" stroke="black" d="M81.4794,27.6987C77.4491,35.4112 57.5734,49.9791 43.7856,56.5286"/>
<polygon fill="black" stroke="black" points="44.7117,59.9105 34.1173,59.8178 42.4572,53.2835 44.7117,59.9105"/>
</g>
<!-- 4&#45;&gt;6 -->
<g id="edge9" class="edge"><title>4&#45;&gt;6</title>
<path fill="none" stroke="black" d="M84.8927,21.4473C92.8519,14.5765 114.621,-4.21588 127.778,-15.5741"/>
<polygon fill="black" stroke="black" points="125.659,-18.3687 135.516,-22.254 130.234,-13.07 125.659,-18.3687"/>
</g>
<!-- 9&#45;&gt;3 -->
<g id="edge19" class="edge"><title>9&#45;&gt;3</title>
<path fill="none" stroke="black" d="M-31.2523,79.3633C-22.2079,76.3603 2.23323,68.2451 17.545,63.1611"/>
<polygon fill="black" stroke="black" points="16.4749,59.8286 27.0683,59.9991 18.6807,66.472 16.4749,59.8286"/>
</g>
<!-- 10 -->
<g id="node10" class="node"><title>10</title>
<ellipse fill="black" stroke="black" cx="16.5876" cy="134.11" rx="3.6" ry="3.6"/>
</g>
<!-- 9&#45;&gt;10 -->
<g id="edge20" class="edge"><title>9&#45;&gt;10</title>
<path fill="none" stroke="black" d="M-31.1592,80.493C-21.7019,83.988 0.977363,106.393 11.5509,121.282"/>
<polygon fill="black" stroke="black" points="14.8454,119.995 16.7483,130.418 8.76116,123.457 14.8454,119.995"/>
</g>
<!-- 10&#45;&gt;3 -->
<g id="edge21" class="edge"><title>10&#45;&gt;3</title>
<path fill="none" stroke="black" d="M17.2635,130.479C19.1823,120.17 24.7381,90.3206 28.0425,72.5676"/>
<polygon fill="black" stroke="black" points="24.6272,71.7891 29.898,62.5984 31.509,73.0701 24.6272,71.7891"/>
</g>
<!-- 10&#45;&gt;9 -->
<g id="edge22" class="edge"><title>10&#45;&gt;9</title>
<path fill="none" stroke="black" d="M12.9802,134.147C3.52287,130.652 -19.1564,108.248 -29.7299,93.3584"/>
<polygon fill="black" stroke="black" points="-33.0245,94.6455 -34.9274,84.2229 -26.9402,91.1839 -33.0245,94.6455"/>
</g>
</g>
</svg>
