<?xml version="1.0" encoding="UTF-8" standalone="no"?>
<!DOCTYPE svg PUBLIC "-//W3C//DTD SVG 1.1//EN"
 "http://www.w3.org/Graphics/SVG/1.1/DTD/svg11.dtd">
<!-- Generated by graphviz version 2.38.0 (20140413.2041)
 -->
<!-- Title: %3 Pages: 1 -->
<svg width="166pt" height="168pt"
 viewBox="0.00 0.00 165.69 167.87" xmlns="http://www.w3.org/2000/svg" xmlns:xlink="http://www.w3.org/1999/xlink">
<g id="graph0" class="graph" transform="scale(1 1) rotate(0) translate(91.1561 85.5532)">
<title>%3</title>
<polygon fill="white" stroke="none" points="-91.1561,82.3172 -91.1561,-85.5532 74.5344,-85.5532 74.5344,82.3172 -91.1561,82.3172"/>
<!-- 1 -->
<g id="node1" class="node"><title>1</title>
<ellipse fill="none" stroke="black" cx="-2.53495" cy="3.59358" rx="7" ry="7"/>
</g>
<!-- 2 -->
<g id="node2" class="node"><title>2</title>
<ellipse fill="black" stroke="black" cx="54.4999" cy="62.494" rx="7.2" ry="7.2"/>
</g>
<!-- 1&#45;&gt;2 -->
<g id="edge1" class="edge"><title>1&#45;&gt;2</title>
<path fill="none" stroke="black" d="M4.70127,5.54204C15.7872,12.3945 35.9469,32.4087 47.0848,46.8974"/>
<polygon fill="black" stroke="black" points="50.1614,45.1961 52.9152,55.4268 44.3825,49.1464 50.1614,45.1961"/>
</g>
<!-- 3 -->
<g id="node3" class="node"><title>3</title>
<ellipse fill="black" stroke="black" cx="-45.0539" cy="71.1172" rx="7.2" ry="7.2"/>
</g>
<!-- 1&#45;&gt;3 -->
<g id="edge2" class="edge"><title>1&#45;&gt;3</title>
<path fill="none" stroke="black" d="M-2.5377,10.6795C-6.21446,22.559 -20.2895,46.0531 -31.4797,60.0668"/>
<polygon fill="black" stroke="black" points="-29.0101,62.5562 -38.2784,67.6894 -34.2342,57.8968 -29.0101,62.5562"/>
</g>
<!-- 4 -->
<g id="node4" class="node"><title>4</title>
<ellipse fill="black" stroke="black" cx="-79.9561" cy="-23.0932" rx="7.2" ry="7.2"/>
</g>
<!-- 1&#45;&gt;4 -->
<g id="edge3" class="edge"><title>1&#45;&gt;4</title>
<path fill="none" stroke="black" d="M-9.58379,5.15514C-22.4128,4.17128 -49.5828,-4.57188 -66.1812,-12.4871"/>
<polygon fill="black" stroke="black" points="-68.2124,-9.60874 -75.3052,-17.4791 -64.8524,-15.7497 -68.2124,-9.60874"/>
</g>
<!-- 5 -->
<g id="node5" class="node"><title>5</title>
<ellipse fill="black" stroke="black" cx="63.3344" cy="-39.7584" rx="7.2" ry="7.2"/>
</g>
<!-- 1&#45;&gt;5 -->
<g id="edge4" class="edge"><title>1&#45;&gt;5</title>
<path fill="none" stroke="black" d="M0.52095,-3.01832C8.83143,-12.2779 30.9837,-27.5518 46.6881,-35.4862"/>
<polygon fill="black" stroke="black" points="45.3025,-38.7003 55.8668,-39.5035 48.1092,-32.2876 45.3025,-38.7003"/>
</g>
<!-- 2&#45;&gt;1 -->
<g id="edge5" class="edge"><title>2&#45;&gt;1</title>
<path fill="none" stroke="black" d="M47.2636,60.5455C36.1777,53.693 16.018,33.6789 4.8801,19.1901"/>
<polygon fill="black" stroke="black" points="1.8035,20.8914 -0.950306,10.6607 7.5824,16.9411 1.8035,20.8914"/>
</g>
<!-- 3&#45;&gt;1 -->
<g id="edge6" class="edge"><title>3&#45;&gt;1</title>
<path fill="none" stroke="black" d="M-44.9695,63.771C-41.1229,51.6619 -26.8677,27.9727 -15.6938,14.1266"/>
<polygon fill="black" stroke="black" points="-18.2449,11.7294 -8.93628,6.66967 -13.0578,16.43 -18.2449,11.7294"/>
</g>
<!-- 4&#45;&gt;1 -->
<g id="edge7" class="edge"><title>4&#45;&gt;1</title>
<path fill="none" stroke="black" d="M-72.9073,-24.6548C-60.0783,-23.6709 -32.9083,-14.9278 -16.3099,-7.01252"/>
<polygon fill="black" stroke="black" points="-14.2787,-9.89089 -7.18592,-2.02051 -17.6387,-3.74995 -14.2787,-9.89089"/>
</g>
<!-- 5&#45;&gt;1 -->
<g id="edge8" class="edge"><title>5&#45;&gt;1</title>
<path fill="none" stroke="black" d="M60.2785,-33.1465C51.9657,-23.8842 29.8032,-8.60437 14.098,-0.671804"/>
<polygon fill="black" stroke="black" points="15.0737,2.71971 4.50634,3.4819 12.292,-3.70384 15.0737,2.71971"/>
</g>
<!-- 6 -->
<g id="node6" class="node"><title>6</title>
<ellipse fill="black" stroke="black" cx="9.71074" cy="-74.3532" rx="7.2" ry="7.2"/>
</g>
<!-- 5&#45;&gt;6 -->
<g id="edge9" class="edge"><title>5&#45;&gt;6</title>
<path fill="none" stroke="black" d="M57.1831,-43.7268C49.2636,-48.836 35.2422,-57.8818 24.4841,-64.8223"/>
<polygon fill="black" stroke="black" points="22.296,-62.0687 15.7903,-70.431 26.0908,-67.9509 22.296,-62.0687"/>
</g>
<!-- 6&#45;&gt;1 -->
<g id="edge10" class="edge"><title>6&#45;&gt;1</title>
<path fill="none" stroke="black" d="M8.58065,-67.1599C6.67558,-55.0337 2.77522,-30.2069 0.13965,-13.4309"/>
<polygon fill="black" stroke="black" points="3.56683,-12.6935 -1.44284,-3.35794 -3.34835,-13.78 3.56683,-12.6935"/>
</g>
</g>
</svg>
