<?xml version="1.0" encoding="UTF-8" standalone="no"?>
<!DOCTYPE svg PUBLIC "-//W3C//DTD SVG 1.1//EN"
 "http://www.w3.org/Graphics/SVG/1.1/DTD/svg11.dtd">
<!-- Generated by graphviz version 2.38.0 (20140413.2041)
 -->
<!-- Title: %3 Pages: 1 -->
<svg width="158pt" height="161pt"
 viewBox="0.00 0.00 158.49 160.67" xmlns="http://www.w3.org/2000/svg" xmlns:xlink="http://www.w3.org/1999/xlink">
<g id="graph0" class="graph" transform="scale(1 1) rotate(0) translate(87.5561 81.9532)">
<title>%3</title>
<polygon fill="white" stroke="none" points="-87.5561,78.7172 -87.5561,-81.9532 70.9344,-81.9532 70.9344,78.7172 -87.5561,78.7172"/>
<!-- 1 -->
<g id="node1" class="node"><title>1</title>
<ellipse fill="none" stroke="black" cx="-2.53495" cy="3.59358" rx="3.5" ry="3.5"/>
</g>
<!-- 2 -->
<g id="node2" class="node"><title>2</title>
<ellipse fill="black" stroke="black" cx="54.4999" cy="62.494" rx="3.6" ry="3.6"/>
</g>
<!-- 1&#45;&gt;2 -->
<g id="edge1" class="edge"><title>1&#45;&gt;2</title>
<path fill="none" stroke="black" d="M1.25216,3.72368C11.5846,7.93262 37.4842,33.5051 49.1509,49.6662"/>
<polygon fill="black" stroke="black" points="52.3636,48.222 54.4556,58.6083 46.3432,51.7935 52.3636,48.222"/>
</g>
<!-- 3 -->
<g id="node3" class="node"><title>3</title>
<ellipse fill="black" stroke="black" cx="-45.0539" cy="71.1172" rx="3.6" ry="3.6"/>
</g>
<!-- 1&#45;&gt;3 -->
<g id="edge2" class="edge"><title>1&#45;&gt;3</title>
<path fill="none" stroke="black" d="M-1.72399,7.24167C-3.21592,18.0465 -21.3951,48.4495 -34.0458,63.1706"/>
<polygon fill="black" stroke="black" points="-31.7088,65.7795 -41.3299,70.2163 -36.5755,60.7481 -31.7088,65.7795"/>
</g>
<!-- 4 -->
<g id="node4" class="node"><title>4</title>
<ellipse fill="black" stroke="black" cx="-79.9561" cy="-23.0932" rx="3.6" ry="3.6"/>
</g>
<!-- 1&#45;&gt;4 -->
<g id="edge3" class="edge"><title>1&#45;&gt;4</title>
<path fill="none" stroke="black" d="M-5.968,5.19221C-17.1281,6.1224 -52.0322,-5.05935 -69.6479,-14.2094"/>
<polygon fill="black" stroke="black" points="-71.6194,-11.3155 -78.1616,-19.6492 -67.8504,-17.2142 -71.6194,-11.3155"/>
</g>
<!-- 5 -->
<g id="node5" class="node"><title>5</title>
<ellipse fill="black" stroke="black" cx="63.3344" cy="-39.7584" rx="3.6" ry="3.6"/>
</g>
<!-- 1&#45;&gt;5 -->
<g id="edge4" class="edge"><title>1&#45;&gt;5</title>
<path fill="none" stroke="black" d="M-1.78931,-0.0458136C3.94326,-9.1997 32.7278,-29.1222 50.1483,-37.1623"/>
<polygon fill="black" stroke="black" points="49.0037,-40.4699 59.5985,-40.4974 51.3333,-33.8689 49.0037,-40.4699"/>
</g>
<!-- 2&#45;&gt;1 -->
<g id="edge5" class="edge"><title>2&#45;&gt;1</title>
<path fill="none" stroke="black" d="M50.7127,62.3639C40.288,58.1173 14.017,32.1241 2.50496,15.9907"/>
<polygon fill="black" stroke="black" points="-0.636991,17.549 -2.61391,7.14018 5.42252,14.0443 -0.636991,17.549"/>
</g>
<!-- 3&#45;&gt;1 -->
<g id="edge6" class="edge"><title>3&#45;&gt;1</title>
<path fill="none" stroke="black" d="M-45.8649,67.4691C-44.374,56.6717 -26.2185,26.3026 -13.5689,11.5703"/>
<polygon fill="black" stroke="black" points="-15.6111,8.68068 -5.96349,4.30182 -10.7747,13.7413 -15.6111,8.68068"/>
</g>
<!-- 4&#45;&gt;1 -->
<g id="edge7" class="edge"><title>4&#45;&gt;1</title>
<path fill="none" stroke="black" d="M-76.5231,-24.6918C-65.363,-25.622 -30.4589,-14.4403 -12.8432,-5.29028"/>
<polygon fill="black" stroke="black" points="-10.8717,-8.18411 -4.32947,0.149554 -14.6407,-2.28539 -10.8717,-8.18411"/>
</g>
<!-- 5&#45;&gt;1 -->
<g id="edge8" class="edge"><title>5&#45;&gt;1</title>
<path fill="none" stroke="black" d="M62.5888,-36.119C56.8562,-26.9651 28.0717,-7.04261 10.6512,0.997561"/>
<polygon fill="black" stroke="black" points="11.7958,4.30513 1.20097,4.33263 9.46617,-2.29587 11.7958,4.30513"/>
</g>
<!-- 6 -->
<g id="node6" class="node"><title>6</title>
<ellipse fill="black" stroke="black" cx="9.71074" cy="-74.3532" rx="3.6" ry="3.6"/>
</g>
<!-- 5&#45;&gt;6 -->
<g id="edge9" class="edge"><title>5&#45;&gt;6</title>
<path fill="none" stroke="black" d="M60.1406,-41.8188C52.6718,-46.6372 33.7586,-58.8389 21.3357,-66.8535"/>
<polygon fill="black" stroke="black" points="19.3263,-63.9846 12.8207,-72.3469 23.1211,-69.8667 19.3263,-63.9846"/>
</g>
<!-- 6&#45;&gt;1 -->
<g id="edge10" class="edge"><title>6&#45;&gt;1</title>
<path fill="none" stroke="black" d="M9.12011,-70.5937C7.41951,-59.769 2.45023,-28.1383 -0.420865,-9.86308"/>
<polygon fill="black" stroke="black" points="3.03121,-9.28417 -1.97847,0.0514316 -3.88398,-10.3706 3.03121,-9.28417"/>
</g>
</g>
</svg>
