<?xml version="1.0" encoding="UTF-8" standalone="no"?>
<!DOCTYPE svg PUBLIC "-//W3C//DTD SVG 1.1//EN"
 "http://www.w3.org/Graphics/SVG/1.1/DTD/svg11.dtd">
<!-- Generated by graphviz version 2.38.0 (20140413.2041)
 -->
<!-- Title: %3 Pages: 1 -->
<svg width="372pt" height="332pt"
 viewBox="0.00 0.00 371.67 332.25" xmlns="http://www.w3.org/2000/svg" xmlns:xlink="http://www.w3.org/1999/xlink">
<g id="graph0" class="graph" transform="scale(1 1) rotate(0) translate(187.684 175.606)">
<title>%3</title>
<polygon fill="white" stroke="none" points="-187.684,156.649 -187.684,-175.606 183.984,-175.606 183.984,156.649 -187.684,156.649"/>
<!-- 1 -->
<g id="node1" class="node"><title>1</title>
<ellipse fill="none" stroke="black" cx="172.984" cy="130.111" rx="7" ry="7"/>
</g>
<!-- 7 -->
<g id="node2" class="node"><title>7</title>
<ellipse fill="black" stroke="black" cx="108.456" cy="83.4645" rx="7.2" ry="7.2"/>
</g>
<!-- 1&#45;&gt;7 -->
<g id="edge1" class="edge"><title>1&#45;&gt;7</title>
<path fill="none" stroke="black" d="M167.029,125.806C157.092,118.623 136.852,103.991 122.973,93.9583"/>
<polygon fill="black" stroke="black" points="120.639,96.5899 114.585,87.8949 124.74,90.9169 120.639,96.5899"/>
</g>
<!-- 6 -->
<g id="node8" class="node"><title>6</title>
<ellipse fill="black" stroke="black" cx="37.484" cy="135.931" rx="7.2" ry="7.2"/>
</g>
<!-- 7&#45;&gt;6 -->
<g id="edge8" class="edge"><title>7&#45;&gt;6</title>
<path fill="none" stroke="black" d="M102.405,87.9377C91.3012,96.1464 67.3909,113.822 51.8927,125.279"/>
<polygon fill="black" stroke="black" points="53.6417,128.339 43.5198,131.469 49.4805,122.71 53.6417,128.339"/>
</g>
<!-- 2 -->
<g id="node3" class="node"><title>2</title>
<ellipse fill="black" stroke="black" cx="-123.817" cy="104.561" rx="7.2" ry="7.2"/>
</g>
<!-- 3 -->
<g id="node4" class="node"><title>3</title>
<ellipse fill="black" stroke="black" cx="-176.484" cy="32.7213" rx="7.2" ry="7.2"/>
</g>
<!-- 2&#45;&gt;3 -->
<g id="edge2" class="edge"><title>2&#45;&gt;3</title>
<path fill="none" stroke="black" d="M-128.307,98.4364C-136.547,87.1966 -154.291,62.9939 -165.791,47.3063"/>
<polygon fill="black" stroke="black" points="-168.915,48.9652 -172.005,38.8309 -163.27,44.8264 -168.915,48.9652"/>
</g>
<!-- 4 -->
<g id="node5" class="node"><title>4</title>
<ellipse fill="black" stroke="black" cx="-129.007" cy="30.8314" rx="7.2" ry="7.2"/>
</g>
<!-- 2&#45;&gt;4 -->
<g id="edge3" class="edge"><title>2&#45;&gt;4</title>
<path fill="none" stroke="black" d="M-124.333,97.2224C-125.126,85.9605 -126.666,64.0893 -127.761,48.5292"/>
<polygon fill="black" stroke="black" points="-131.281,48.3619 -128.492,38.1408 -124.298,47.8703 -131.281,48.3619"/>
</g>
<!-- 8 -->
<g id="node6" class="node"><title>8</title>
<ellipse fill="black" stroke="black" cx="-139.324" cy="-45.5764" rx="7.2" ry="7.2"/>
</g>
<!-- 3&#45;&gt;8 -->
<g id="edge4" class="edge"><title>3&#45;&gt;8</title>
<path fill="none" stroke="black" d="M-173.316,26.0457C-167.502,13.7956 -154.983,-12.5827 -146.868,-29.6804"/>
<polygon fill="black" stroke="black" points="-149.934,-31.3841 -142.484,-38.9176 -143.61,-28.3828 -149.934,-31.3841"/>
</g>
<!-- 4&#45;&gt;8 -->
<g id="edge5" class="edge"><title>4&#45;&gt;8</title>
<path fill="none" stroke="black" d="M-129.996,23.5051C-131.587,11.7228 -134.758,-11.7625 -136.959,-28.0585"/>
<polygon fill="black" stroke="black" points="-140.483,-28.0054 -138.353,-38.3838 -133.546,-28.9421 -140.483,-28.0054"/>
</g>
<!-- 9 -->
<g id="node9" class="node"><title>9</title>
<ellipse fill="black" stroke="black" cx="-75.5142" cy="-104.013" rx="7.2" ry="7.2"/>
</g>
<!-- 8&#45;&gt;9 -->
<g id="edge9" class="edge"><title>8&#45;&gt;9</title>
<path fill="none" stroke="black" d="M-133.884,-50.5586C-123.9,-59.7014 -102.403,-79.3885 -88.4689,-92.1492"/>
<polygon fill="black" stroke="black" points="-90.6795,-94.8707 -80.9409,-99.0433 -85.9518,-89.7083 -90.6795,-94.8707"/>
</g>
<!-- 5 -->
<g id="node7" class="node"><title>5</title>
<ellipse fill="black" stroke="black" cx="-47.6585" cy="145.449" rx="7.2" ry="7.2"/>
</g>
<!-- 5&#45;&gt;2 -->
<g id="edge6" class="edge"><title>5&#45;&gt;2</title>
<path fill="none" stroke="black" d="M-54.1517,141.963C-66.0671,135.565 -91.7246,121.791 -108.355,112.862"/>
<polygon fill="black" stroke="black" points="-110.185,115.853 -117.34,108.039 -106.874,109.685 -110.185,115.853"/>
</g>
<!-- 6&#45;&gt;5 -->
<g id="edge7" class="edge"><title>6&#45;&gt;5</title>
<path fill="none" stroke="black" d="M30.2248,136.742C16.9038,138.231 -11.7805,141.438 -30.373,143.516"/>
<polygon fill="black" stroke="black" points="-30.0907,147.006 -40.4177,144.639 -30.8684,140.05 -30.0907,147.006"/>
</g>
<!-- 10 -->
<g id="node10" class="node"><title>10</title>
<ellipse fill="black" stroke="black" cx="-14.8142" cy="-164.406" rx="7.2" ry="7.2"/>
</g>
<!-- 9&#45;&gt;10 -->
<g id="edge10" class="edge"><title>9&#45;&gt;10</title>
<path fill="none" stroke="black" d="M-70.339,-109.162C-60.8421,-118.611 -40.3925,-138.957 -27.1375,-152.145"/>
<polygon fill="black" stroke="black" points="-29.534,-154.698 -19.9764,-159.27 -24.5968,-149.735 -29.534,-154.698"/>
</g>
<!-- 11 -->
<g id="node11" class="node"><title>11</title>
<ellipse fill="black" stroke="black" cx="-9.09822" cy="-69.641" rx="7.2" ry="7.2"/>
</g>
<!-- 9&#45;&gt;11 -->
<g id="edge11" class="edge"><title>9&#45;&gt;11</title>
<path fill="none" stroke="black" d="M-68.9032,-100.592C-58.659,-95.29 -38.6697,-84.945 -24.6298,-77.679"/>
<polygon fill="black" stroke="black" points="-22.955,-80.7532 -15.6825,-73.0486 -26.1724,-74.5364 -22.955,-80.7532"/>
</g>
<!-- 12 -->
<g id="node12" class="node"><title>12</title>
<ellipse fill="black" stroke="black" cx="74.5897" cy="-153.896" rx="7.2" ry="7.2"/>
</g>
<!-- 10&#45;&gt;12 -->
<g id="edge12" class="edge"><title>10&#45;&gt;12</title>
<path fill="none" stroke="black" d="M-7.49792,-163.546C6.58618,-161.89 37.8051,-158.22 57.4267,-155.914"/>
<polygon fill="black" stroke="black" points="57.8992,-159.382 67.4222,-154.739 57.0819,-152.43 57.8992,-159.382"/>
</g>
<!-- 15 -->
<g id="node13" class="node"><title>15</title>
<ellipse fill="black" stroke="black" cx="59.8656" cy="-33.3948" rx="7.2" ry="7.2"/>
</g>
<!-- 11&#45;&gt;15 -->
<g id="edge13" class="edge"><title>11&#45;&gt;15</title>
<path fill="none" stroke="black" d="M-2.48568,-66.1656C8.25194,-60.5221 29.7586,-49.2185 44.481,-41.4807"/>
<polygon fill="black" stroke="black" points="46.1503,-44.5574 53.3738,-36.8068 42.8936,-38.3611 46.1503,-44.5574"/>
</g>
<!-- 13 -->
<g id="node14" class="node"><title>13</title>
<ellipse fill="black" stroke="black" cx="136.764" cy="-89.0879" rx="7.2" ry="7.2"/>
</g>
<!-- 12&#45;&gt;13 -->
<g id="edge14" class="edge"><title>12&#45;&gt;13</title>
<path fill="none" stroke="black" d="M79.8906,-148.371C89.7099,-138.135 110.96,-115.984 124.523,-101.847"/>
<polygon fill="black" stroke="black" points="127.079,-104.239 131.476,-94.5994 122.027,-99.3927 127.079,-104.239"/>
</g>
<!-- 14 -->
<g id="node15" class="node"><title>14</title>
<ellipse fill="black" stroke="black" cx="125.573" cy="-3.0541" rx="7.2" ry="7.2"/>
</g>
<!-- 15&#45;&gt;14 -->
<g id="edge17" class="edge"><title>15&#45;&gt;14</title>
<path fill="none" stroke="black" d="M66.4062,-30.3747C76.3392,-25.7881 95.5332,-16.9252 109.37,-10.5358"/>
<polygon fill="black" stroke="black" points="111.054,-13.6136 118.666,-6.24375 108.119,-7.25839 111.054,-13.6136"/>
</g>
<!-- 13&#45;&gt;14 -->
<g id="edge15" class="edge"><title>13&#45;&gt;14</title>
<path fill="none" stroke="black" d="M135.809,-81.7527C134.059,-68.2922 130.289,-39.3077 127.845,-20.5206"/>
<polygon fill="black" stroke="black" points="131.286,-19.8357 126.525,-10.3707 124.344,-20.7387 131.286,-19.8357"/>
</g>
<!-- 14&#45;&gt;7 -->
<g id="edge16" class="edge"><title>14&#45;&gt;7</title>
<path fill="none" stroke="black" d="M124.173,4.02607C121.515,17.4576 115.672,46.9928 111.907,66.0208"/>
<polygon fill="black" stroke="black" points="115.299,66.9106 109.925,76.0412 108.432,65.552 115.299,66.9106"/>
</g>
</g>
</svg>
