<?xml version="1.0" encoding="UTF-8" standalone="no"?>
<!DOCTYPE svg PUBLIC "-//W3C//DTD SVG 1.1//EN"
 "http://www.w3.org/Graphics/SVG/1.1/DTD/svg11.dtd">
<!-- Generated by graphviz version 2.38.0 (20140413.2041)
 -->
<!-- Title: %3 Pages: 1 -->
<svg width="365pt" height="325pt"
 viewBox="0.00 0.00 364.57 325.05" xmlns="http://www.w3.org/2000/svg" xmlns:xlink="http://www.w3.org/1999/xlink">
<g id="graph0" class="graph" transform="scale(1 1) rotate(0) translate(184.084 172.006)">
<title>%3</title>
<polygon fill="white" stroke="none" points="-184.084,153.049 -184.084,-172.006 180.484,-172.006 180.484,153.049 -184.084,153.049"/>
<!-- 1 -->
<g id="node1" class="node"><title>1</title>
<ellipse fill="none" stroke="black" cx="172.984" cy="130.111" rx="3.5" ry="3.5"/>
</g>
<!-- 7 -->
<g id="node2" class="node"><title>7</title>
<ellipse fill="black" stroke="black" cx="108.456" cy="83.4645" rx="3.6" ry="3.6"/>
</g>
<!-- 1&#45;&gt;7 -->
<g id="edge1" class="edge"><title>1&#45;&gt;7</title>
<path fill="none" stroke="black" d="M169.872,127.861C160.954,121.414 134.976,102.635 119.814,91.675"/>
<polygon fill="black" stroke="black" points="117.442,94.2792 111.389,85.5842 121.543,88.6062 117.442,94.2792"/>
</g>
<!-- 6 -->
<g id="node8" class="node"><title>6</title>
<ellipse fill="black" stroke="black" cx="37.484" cy="135.931" rx="3.6" ry="3.6"/>
</g>
<!-- 7&#45;&gt;6 -->
<g id="edge8" class="edge"><title>7&#45;&gt;6</title>
<path fill="none" stroke="black" d="M105.407,85.7189C95.739,92.8657 65.4306,115.271 48.7567,127.597"/>
<polygon fill="black" stroke="black" points="50.5652,130.613 40.4433,133.743 46.404,124.984 50.5652,130.613"/>
</g>
<!-- 2 -->
<g id="node3" class="node"><title>2</title>
<ellipse fill="black" stroke="black" cx="-123.817" cy="104.561" rx="3.6" ry="3.6"/>
</g>
<!-- 3 -->
<g id="node4" class="node"><title>3</title>
<ellipse fill="black" stroke="black" cx="-176.484" cy="32.7213" rx="3.6" ry="3.6"/>
</g>
<!-- 2&#45;&gt;3 -->
<g id="edge2" class="edge"><title>2&#45;&gt;3</title>
<path fill="none" stroke="black" d="M-126.08,101.475C-133.254,91.6886 -155.745,61.0097 -168.119,44.1319"/>
<polygon fill="black" stroke="black" points="-171.198,45.851 -174.288,35.7168 -165.553,41.7123 -171.198,45.851"/>
</g>
<!-- 4 -->
<g id="node5" class="node"><title>4</title>
<ellipse fill="black" stroke="black" cx="-129.007" cy="30.8314" rx="3.6" ry="3.6"/>
</g>
<!-- 2&#45;&gt;4 -->
<g id="edge3" class="edge"><title>2&#45;&gt;4</title>
<path fill="none" stroke="black" d="M-124.096,100.597C-124.828,90.1995 -126.83,61.7603 -128.039,44.5715"/>
<polygon fill="black" stroke="black" points="-131.54,44.6836 -128.751,34.4625 -124.557,44.192 -131.54,44.6836"/>
</g>
<!-- 8 -->
<g id="node6" class="node"><title>8</title>
<ellipse fill="black" stroke="black" cx="-139.324" cy="-45.5764" rx="3.6" ry="3.6"/>
</g>
<!-- 3&#45;&gt;8 -->
<g id="edge4" class="edge"><title>3&#45;&gt;8</title>
<path fill="none" stroke="black" d="M-174.887,29.357C-169.825,18.6914 -153.957,-14.7452 -145.226,-33.1401"/>
<polygon fill="black" stroke="black" points="-148.323,-34.7782 -140.874,-42.3117 -141.999,-31.7768 -148.323,-34.7782"/>
</g>
<!-- 4&#45;&gt;8 -->
<g id="edge5" class="edge"><title>4&#45;&gt;8</title>
<path fill="none" stroke="black" d="M-129.504,27.1461C-130.917,16.6827 -135.008,-13.6121 -137.441,-31.63"/>
<polygon fill="black" stroke="black" points="-140.937,-31.3696 -138.807,-41.748 -134,-32.3064 -140.937,-31.3696"/>
</g>
<!-- 9 -->
<g id="node9" class="node"><title>9</title>
<ellipse fill="black" stroke="black" cx="-75.5142" cy="-104.013" rx="3.6" ry="3.6"/>
</g>
<!-- 8&#45;&gt;9 -->
<g id="edge9" class="edge"><title>8&#45;&gt;9</title>
<path fill="none" stroke="black" d="M-136.582,-48.0873C-127.89,-56.0474 -100.641,-81.0025 -85.6493,-94.7313"/>
<polygon fill="black" stroke="black" points="-87.9134,-97.4038 -78.1748,-101.576 -83.1858,-92.2414 -87.9134,-97.4038"/>
</g>
<!-- 5 -->
<g id="node7" class="node"><title>5</title>
<ellipse fill="black" stroke="black" cx="-47.6585" cy="145.449" rx="3.6" ry="3.6"/>
</g>
<!-- 5&#45;&gt;2 -->
<g id="edge6" class="edge"><title>5&#45;&gt;2</title>
<path fill="none" stroke="black" d="M-50.9309,143.692C-61.3051,138.122 -93.828,120.661 -111.72,111.056"/>
<polygon fill="black" stroke="black" points="-113.486,114.08 -120.641,106.266 -110.175,107.913 -113.486,114.08"/>
</g>
<!-- 6&#45;&gt;5 -->
<g id="edge7" class="edge"><title>6&#45;&gt;5</title>
<path fill="none" stroke="black" d="M33.8256,136.34C22.333,137.624 -13.473,141.627 -33.5855,143.875"/>
<polygon fill="black" stroke="black" points="-33.3957,147.376 -43.7227,145.009 -34.1734,140.419 -33.3957,147.376"/>
</g>
<!-- 10 -->
<g id="node10" class="node"><title>10</title>
<ellipse fill="black" stroke="black" cx="-14.8142" cy="-164.406" rx="3.6" ry="3.6"/>
</g>
<!-- 9&#45;&gt;10 -->
<g id="edge10" class="edge"><title>9&#45;&gt;10</title>
<path fill="none" stroke="black" d="M-72.906,-106.608C-64.7128,-114.76 -39.1858,-140.157 -24.8472,-154.423"/>
<polygon fill="black" stroke="black" points="-27.1778,-157.042 -17.6202,-161.614 -22.2406,-152.08 -27.1778,-157.042"/>
</g>
<!-- 11 -->
<g id="node11" class="node"><title>11</title>
<ellipse fill="black" stroke="black" cx="-9.09822" cy="-69.641" rx="3.6" ry="3.6"/>
</g>
<!-- 9&#45;&gt;11 -->
<g id="edge11" class="edge"><title>9&#45;&gt;11</title>
<path fill="none" stroke="black" d="M-72.3109,-102.355C-63.3033,-97.6934 -37.3874,-84.2814 -21.6755,-76.1501"/>
<polygon fill="black" stroke="black" points="-19.6984,-79.0679 -12.4259,-71.3632 -22.9158,-72.8511 -19.6984,-79.0679"/>
</g>
<!-- 12 -->
<g id="node12" class="node"><title>12</title>
<ellipse fill="black" stroke="black" cx="74.5897" cy="-153.896" rx="3.6" ry="3.6"/>
</g>
<!-- 10&#45;&gt;12 -->
<g id="edge12" class="edge"><title>10&#45;&gt;12</title>
<path fill="none" stroke="black" d="M-10.9726,-163.954C1.26323,-162.516 39.746,-157.992 60.6855,-155.531"/>
<polygon fill="black" stroke="black" points="61.339,-158.978 70.8619,-154.334 60.5217,-152.026 61.339,-158.978"/>
</g>
<!-- 15 -->
<g id="node13" class="node"><title>15</title>
<ellipse fill="black" stroke="black" cx="59.8656" cy="-33.3948" rx="3.6" ry="3.6"/>
</g>
<!-- 11&#45;&gt;15 -->
<g id="edge13" class="edge"><title>11&#45;&gt;15</title>
<path fill="none" stroke="black" d="M-5.77195,-67.8928C3.672,-62.9292 31.0154,-48.558 47.278,-40.0106"/>
<polygon fill="black" stroke="black" points="49.1868,-42.9615 56.4103,-35.2109 45.9301,-36.7652 49.1868,-42.9615"/>
</g>
<!-- 13 -->
<g id="node14" class="node"><title>13</title>
<ellipse fill="black" stroke="black" cx="136.764" cy="-89.0879" rx="3.6" ry="3.6"/>
</g>
<!-- 12&#45;&gt;13 -->
<g id="edge14" class="edge"><title>12&#45;&gt;13</title>
<path fill="none" stroke="black" d="M77.2612,-151.111C85.7304,-142.283 112.281,-114.607 126.888,-99.3816"/>
<polygon fill="black" stroke="black" points="129.774,-101.429 134.171,-91.7901 124.723,-96.5834 129.774,-101.429"/>
</g>
<!-- 14 -->
<g id="node15" class="node"><title>14</title>
<ellipse fill="black" stroke="black" cx="125.573" cy="-3.0541" rx="3.6" ry="3.6"/>
</g>
<!-- 15&#45;&gt;14 -->
<g id="edge17" class="edge"><title>15&#45;&gt;14</title>
<path fill="none" stroke="black" d="M63.3984,-31.7636C72.579,-27.5244 97.5417,-15.9978 112.9,-8.90596"/>
<polygon fill="black" stroke="black" points="114.411,-12.0633 122.023,-4.69342 111.477,-5.70806 114.411,-12.0633"/>
</g>
<!-- 13&#45;&gt;14 -->
<g id="edge15" class="edge"><title>13&#45;&gt;14</title>
<path fill="none" stroke="black" d="M136.283,-85.3912C134.758,-73.6718 129.98,-36.9315 127.351,-16.7191"/>
<polygon fill="black" stroke="black" points="130.801,-16.1063 126.04,-6.64134 123.859,-17.0093 130.801,-16.1063"/>
</g>
<!-- 14&#45;&gt;7 -->
<g id="edge16" class="edge"><title>14&#45;&gt;7</title>
<path fill="none" stroke="black" d="M124.838,0.66349C122.495,12.5045 115.127,49.7453 111.118,70.009"/>
<polygon fill="black" stroke="black" points="114.544,70.7265 109.17,79.857 107.677,69.3679 114.544,70.7265"/>
</g>
</g>
</svg>
