<?xml version="1.0" encoding="UTF-8" standalone="no"?>
<!DOCTYPE svg PUBLIC "-//W3C//DTD SVG 1.1//EN"
 "http://www.w3.org/Graphics/SVG/1.1/DTD/svg11.dtd">
<!-- Generated by graphviz version 2.38.0 (20140413.2041)
 -->
<!-- Title: %3 Pages: 1 -->
<svg width="200pt" height="269pt"
 viewBox="0.00 0.00 200.31 269.22" xmlns="http://www.w3.org/2000/svg" xmlns:xlink="http://www.w3.org/1999/xlink">
<g id="graph0" class="graph" transform="scale(1 1) rotate(0) translate(98.1374 163.356)">
<title>%3</title>
<polygon fill="white" stroke="none" points="-98.1374,105.867 -98.1374,-163.356 102.175,-163.356 102.175,105.867 -98.1374,105.867"/>
<!-- 1 -->
<g id="node1" class="node"><title>1</title>
<ellipse fill="none" stroke="black" cx="-29.0941" cy="-155.856" rx="3.5" ry="3.5"/>
</g>
<!-- 2 -->
<g id="node2" class="node"><title>2</title>
<ellipse fill="black" stroke="black" cx="4.46619" cy="-84.0198" rx="3.6" ry="3.6"/>
</g>
<!-- 1&#45;&gt;2 -->
<g id="edge1" class="edge"><title>1&#45;&gt;2</title>
<path fill="none" stroke="black" d="M-27.4755,-152.391C-22.8371,-142.463 -9.32623,-113.543 -1.44097,-96.6642"/>
<polygon fill="black" stroke="black" points="1.87941,-97.8258 2.9411,-87.2843 -4.46263,-94.8629 1.87941,-97.8258"/>
</g>
<!-- 3 -->
<g id="node3" class="node"><title>3</title>
<ellipse fill="black" stroke="black" cx="-2.77836" cy="6.38216" rx="3.6" ry="3.6"/>
</g>
<!-- 2&#45;&gt;3 -->
<g id="edge2" class="edge"><title>2&#45;&gt;3</title>
<path fill="none" stroke="black" d="M4.1549,-80.1354C3.15875,-67.7048 0.0157548,-28.4845 -1.67548,-7.38022"/>
<polygon fill="black" stroke="black" points="1.81142,-7.07564 -2.47629,2.61279 -5.16621,-7.63487 1.81142,-7.07564"/>
</g>
<!-- 16 -->
<g id="node4" class="node"><title>16</title>
<ellipse fill="black" stroke="black" cx="-35.1292" cy="-76.3441" rx="3.6" ry="3.6"/>
</g>
<!-- 3&#45;&gt;16 -->
<g id="edge3" class="edge"><title>3&#45;&gt;16</title>
<path fill="none" stroke="black" d="M-4.16843,2.82751C-8.59598,-8.49445 -22.521,-44.1029 -30.0979,-63.4784"/>
<polygon fill="black" stroke="black" points="-33.3978,-62.3068 -33.7803,-72.8948 -26.8786,-64.8563 -33.3978,-62.3068"/>
</g>
<!-- 7 -->
<g id="node5" class="node"><title>7</title>
<ellipse fill="black" stroke="black" cx="-82.8902" cy="-4.30308" rx="3.6" ry="3.6"/>
</g>
<!-- 3&#45;&gt;7 -->
<g id="edge4" class="edge"><title>3&#45;&gt;7</title>
<path fill="none" stroke="black" d="M-6.64232,5.86679C-17.8209,4.3758 -50.5885,0.00528533 -69.3284,-2.49423"/>
<polygon fill="black" stroke="black" points="-69.8002,0.973935 -79.2497,-3.81751 -68.8747,-5.96462 -69.8002,0.973935"/>
</g>
<!-- 4 -->
<g id="node6" class="node"><title>4</title>
<ellipse fill="black" stroke="black" cx="-56.3647" cy="61.7929" rx="3.6" ry="3.6"/>
</g>
<!-- 3&#45;&gt;4 -->
<g id="edge5" class="edge"><title>3&#45;&gt;4</title>
<path fill="none" stroke="black" d="M-5.36294,9.05473C-12.7011,16.6427 -33.9475,38.6125 -46.5838,51.6791"/>
<polygon fill="black" stroke="black" points="-44.2121,54.2613 -53.6798,59.0166 -49.244,49.3951 -44.2121,54.2613"/>
</g>
<!-- 10 -->
<g id="node7" class="node"><title>10</title>
<ellipse fill="black" stroke="black" cx="48.791" cy="75.5692" rx="3.6" ry="3.6"/>
</g>
<!-- 3&#45;&gt;10 -->
<g id="edge6" class="edge"><title>3&#45;&gt;10</title>
<path fill="none" stroke="black" d="M-0.56249,9.35504C6.39832,18.6939 28.0854,47.79 40.2672,64.1334"/>
<polygon fill="black" stroke="black" points="43.2371,62.2614 46.4071,72.3709 37.6246,66.4447 43.2371,62.2614"/>
</g>
<!-- 13 -->
<g id="node8" class="node"><title>13</title>
<ellipse fill="black" stroke="black" cx="82.5473" cy="-25.3573" rx="3.6" ry="3.6"/>
</g>
<!-- 3&#45;&gt;13 -->
<g id="edge7" class="edge"><title>3&#45;&gt;13</title>
<path fill="none" stroke="black" d="M0.887979,5.01835C12.6205,0.654083 49.6385,-13.1159 69.5577,-20.5254"/>
<polygon fill="black" stroke="black" points="68.3968,-23.8278 78.9896,-24.0339 70.8373,-17.267 68.3968,-23.8278"/>
</g>
<!-- 16&#45;&gt;1 -->
<g id="edge24" class="edge"><title>16&#45;&gt;1</title>
<path fill="none" stroke="black" d="M-34.8381,-80.1791C-34,-91.2212 -31.551,-123.487 -30.136,-142.129"/>
<polygon fill="black" stroke="black" points="-33.6153,-142.536 -29.3684,-152.243 -26.6354,-142.007 -33.6153,-142.536"/>
</g>
<!-- 9 -->
<g id="node11" class="node"><title>9</title>
<ellipse fill="black" stroke="black" cx="-90.5374" cy="37.4787" rx="3.6" ry="3.6"/>
</g>
<!-- 7&#45;&gt;9 -->
<g id="edge12" class="edge"><title>7&#45;&gt;9</title>
<path fill="none" stroke="black" d="M-83.5422,-0.740793C-84.5355,4.68616 -86.4798,15.3092 -88.0669,23.9809"/>
<polygon fill="black" stroke="black" points="-84.6438,24.719 -89.887,33.9254 -91.5294,23.4586 -84.6438,24.719"/>
</g>
<!-- 8 -->
<g id="node12" class="node"><title>8</title>
<ellipse fill="black" stroke="black" cx="-71.3882" cy="-43.8066" rx="3.6" ry="3.6"/>
</g>
<!-- 7&#45;&gt;8 -->
<g id="edge13" class="edge"><title>7&#45;&gt;8</title>
<path fill="none" stroke="black" d="M-81.8287,-7.94867C-80.364,-12.9793 -77.6435,-22.3228 -75.3468,-30.2109"/>
<polygon fill="black" stroke="black" points="-78.6367,-31.4318 -72.4807,-40.0546 -71.9158,-29.4749 -78.6367,-31.4318"/>
</g>
<!-- 6 -->
<g id="node9" class="node"><title>6</title>
<ellipse fill="black" stroke="black" cx="-34.7413" cy="98.2671" rx="3.6" ry="3.6"/>
</g>
<!-- 4&#45;&gt;6 -->
<g id="edge8" class="edge"><title>4&#45;&gt;6</title>
<path fill="none" stroke="black" d="M-54.3692,65.1589C-51.5835,69.8578 -46.3818,78.6319 -42.033,85.9674"/>
<polygon fill="black" stroke="black" points="-38.8841,84.4159 -36.7951,94.8028 -44.9055,87.9857 -38.8841,84.4159"/>
</g>
<!-- 5 -->
<g id="node10" class="node"><title>5</title>
<ellipse fill="black" stroke="black" cx="-1.70002" cy="90.0089" rx="3.6" ry="3.6"/>
</g>
<!-- 4&#45;&gt;5 -->
<g id="edge9" class="edge"><title>4&#45;&gt;5</title>
<path fill="none" stroke="black" d="M-53.1088,63.4735C-45.6423,67.3274 -26.9561,76.9726 -14.2927,83.509"/>
<polygon fill="black" stroke="black" points="-12.4288,80.5323 -5.14802,88.2292 -15.6395,86.7526 -12.4288,80.5323"/>
</g>
<!-- 12 -->
<g id="node13" class="node"><title>12</title>
<ellipse fill="black" stroke="black" cx="94.5755" cy="26.3107" rx="3.6" ry="3.6"/>
</g>
<!-- 10&#45;&gt;12 -->
<g id="edge16" class="edge"><title>10&#45;&gt;12</title>
<path fill="none" stroke="black" d="M51.7386,73.406C57.2595,69.2726 69.3772,59.8063 77.9843,50.2117 81.3047,46.5104 84.5246,42.1217 87.2305,38.1214"/>
<polygon fill="black" stroke="black" points="84.3391,36.1457 92.6622,29.59 90.2439,39.9052 84.3391,36.1457"/>
</g>
<!-- 11 -->
<g id="node14" class="node"><title>11</title>
<ellipse fill="black" stroke="black" cx="48.1491" cy="11.2403" rx="3.6" ry="3.6"/>
</g>
<!-- 10&#45;&gt;11 -->
<g id="edge17" class="edge"><title>10&#45;&gt;11</title>
<path fill="none" stroke="black" d="M48.7527,71.7378C48.6633,62.7779 48.4369,40.089 48.2882,25.186"/>
<polygon fill="black" stroke="black" points="44.7864,25.0055 48.1863,14.9711 51.786,24.9356 44.7864,25.0055"/>
</g>
<!-- 15 -->
<g id="node15" class="node"><title>15</title>
<ellipse fill="black" stroke="black" cx="51.8168" cy="-63.9276" rx="3.6" ry="3.6"/>
</g>
<!-- 13&#45;&gt;15 -->
<g id="edge20" class="edge"><title>13&#45;&gt;15</title>
<path fill="none" stroke="black" d="M80.1359,-28.3838C75.9416,-33.6483 67.1111,-44.7316 60.4189,-53.1311"/>
<polygon fill="black" stroke="black" points="57.6269,-51.0186 54.1329,-61.0207 63.1017,-55.3805 57.6269,-51.0186"/>
</g>
<!-- 14 -->
<g id="node16" class="node"><title>14</title>
<ellipse fill="black" stroke="black" cx="74.2776" cy="46.5647" rx="3.6" ry="3.6"/>
</g>
<!-- 13&#45;&gt;14 -->
<g id="edge21" class="edge"><title>13&#45;&gt;14</title>
<path fill="none" stroke="black" d="M82.1027,-21.4904C80.9472,-11.4415 77.8055,15.882 75.8726,32.693"/>
<polygon fill="black" stroke="black" points="79.3439,33.1441 74.7244,42.6788 72.3897,32.3444 79.3439,33.1441"/>
</g>
<!-- 6&#45;&gt;3 -->
<g id="edge11" class="edge"><title>6&#45;&gt;3</title>
<path fill="none" stroke="black" d="M-33.5274,94.7773C-29.2555,82.4967 -14.7729,40.8632 -7.30878,19.4059"/>
<polygon fill="black" stroke="black" points="-10.5848,18.1704 -3.99353,9.87544 -3.97337,20.4703 -10.5848,18.1704"/>
</g>
<!-- 5&#45;&gt;3 -->
<g id="edge10" class="edge"><title>5&#45;&gt;3</title>
<path fill="none" stroke="black" d="M-1.75203,85.9754C-1.90321,74.2508 -2.34777,39.7748 -2.5994,20.2605"/>
<polygon fill="black" stroke="black" points="-6.10003,20.2268 -2.72936,10.1824 0.899388,20.1364 -6.10003,20.2268"/>
</g>
<!-- 9&#45;&gt;3 -->
<g id="edge15" class="edge"><title>9&#45;&gt;3</title>
<path fill="none" stroke="black" d="M-86.7665,36.1425C-74.6993,31.8666 -36.6257,18.3756 -16.1384,11.1161"/>
<polygon fill="black" stroke="black" points="-17.0323,7.71971 -6.43752,7.67875 -14.6943,14.3177 -17.0323,7.71971"/>
</g>
<!-- 8&#45;&gt;3 -->
<g id="edge14" class="edge"><title>8&#45;&gt;3</title>
<path fill="none" stroke="black" d="M-68.4401,-41.6501C-59.1792,-34.8756 -30.3258,-13.7691 -14.1187,-1.91342"/>
<polygon fill="black" stroke="black" points="-11.9546,-4.66688 -5.94995,4.0621 -16.0875,0.982878 -11.9546,-4.66688"/>
</g>
<!-- 12&#45;&gt;3 -->
<g id="edge19" class="edge"><title>12&#45;&gt;3</title>
<path fill="none" stroke="black" d="M90.878,25.5539C77.8665,22.8904 33.755,13.8606 11.0205,9.20683"/>
<polygon fill="black" stroke="black" points="10.0178,12.5742 0.922837,7.1398 11.4216,5.71642 10.0178,12.5742"/>
</g>
<!-- 11&#45;&gt;3 -->
<g id="edge18" class="edge"><title>11&#45;&gt;3</title>
<path fill="none" stroke="black" d="M44.4865,10.8909C37.586,10.2326 22.3356,8.77786 11.0136,7.69782"/>
<polygon fill="black" stroke="black" points="10.4734,11.1623 0.851032,6.72838 11.1382,4.19391 10.4734,11.1623"/>
</g>
<!-- 15&#45;&gt;3 -->
<g id="edge23" class="edge"><title>15&#45;&gt;3</title>
<path fill="none" stroke="black" d="M49.471,-60.9065C42.0341,-51.3291 18.7195,-21.3036 5.89315,-4.78534"/>
<polygon fill="black" stroke="black" points="8.39561,-2.30131 -0.501978,3.45055 2.86669,-6.5945 8.39561,-2.30131"/>
</g>
<!-- 14&#45;&gt;3 -->
<g id="edge22" class="edge"><title>14&#45;&gt;3</title>
<path fill="none" stroke="black" d="M70.9666,44.8381C60.4702,39.3645 27.5638,22.2048 9.46065,12.7645"/>
<polygon fill="black" stroke="black" points="7.68302,15.7848 0.434537,8.05759 10.9197,9.57806 7.68302,15.7848"/>
</g>
</g>
</svg>
