<?xml version="1.0" encoding="UTF-8" standalone="no"?>
<!DOCTYPE svg PUBLIC "-//W3C//DTD SVG 1.1//EN"
 "http://www.w3.org/Graphics/SVG/1.1/DTD/svg11.dtd">
<!-- Generated by graphviz version 2.38.0 (20140413.2041)
 -->
<!-- Title: %3 Pages: 1 -->
<svg width="208pt" height="276pt"
 viewBox="0.00 0.00 207.51 276.32" xmlns="http://www.w3.org/2000/svg" xmlns:xlink="http://www.w3.org/1999/xlink">
<g id="graph0" class="graph" transform="scale(1 1) rotate(0) translate(101.737 166.856)">
<title>%3</title>
<polygon fill="white" stroke="none" points="-101.737,109.467 -101.737,-166.856 105.775,-166.856 105.775,109.467 -101.737,109.467"/>
<!-- 1 -->
<g id="node1" class="node"><title>1</title>
<ellipse fill="none" stroke="black" cx="-29.0941" cy="-155.856" rx="7" ry="7"/>
</g>
<!-- 2 -->
<g id="node2" class="node"><title>2</title>
<ellipse fill="black" stroke="black" cx="4.46619" cy="-84.0198" rx="7.2" ry="7.2"/>
</g>
<!-- 1&#45;&gt;2 -->
<g id="edge1" class="edge"><title>1&#45;&gt;2</title>
<path fill="none" stroke="black" d="M-25.997,-149.227C-20.8288,-138.164 -10.3022,-115.632 -3.0837,-100.18"/>
<polygon fill="black" stroke="black" points="0.216966,-101.384 1.27866,-90.8428 -6.12508,-98.4214 0.216966,-101.384"/>
</g>
<!-- 3 -->
<g id="node3" class="node"><title>3</title>
<ellipse fill="black" stroke="black" cx="-2.77836" cy="6.38216" rx="7.2" ry="7.2"/>
</g>
<!-- 2&#45;&gt;3 -->
<g id="edge2" class="edge"><title>2&#45;&gt;3</title>
<path fill="none" stroke="black" d="M3.87334,-76.6219C2.73208,-62.3805 0.202357,-30.8131 -1.38761,-10.9725"/>
<polygon fill="black" stroke="black" points="2.09015,-10.5538 -2.19756,-0.86538 -4.88748,-11.113 2.09015,-10.5538"/>
</g>
<!-- 16 -->
<g id="node4" class="node"><title>16</title>
<ellipse fill="black" stroke="black" cx="-35.1292" cy="-76.3441" rx="7.2" ry="7.2"/>
</g>
<!-- 3&#45;&gt;16 -->
<g id="edge3" class="edge"><title>3&#45;&gt;16</title>
<path fill="none" stroke="black" d="M-5.42576,-0.387678C-10.4716,-13.2908 -21.5956,-41.7365 -28.7066,-59.9206"/>
<polygon fill="black" stroke="black" points="-31.971,-58.6582 -32.3535,-69.2462 -25.4518,-61.2077 -31.971,-58.6582"/>
</g>
<!-- 7 -->
<g id="node5" class="node"><title>7</title>
<ellipse fill="black" stroke="black" cx="-82.8902" cy="-4.30308" rx="7.2" ry="7.2"/>
</g>
<!-- 3&#45;&gt;7 -->
<g id="edge4" class="edge"><title>3&#45;&gt;7</title>
<path fill="none" stroke="black" d="M-10.1715,5.39607C-22.6345,3.73376 -48.1509,0.33042 -65.3929,-1.9693"/>
<polygon fill="black" stroke="black" points="-66.2961,1.4413 -75.7456,-3.35014 -65.3706,-5.49725 -66.2961,1.4413"/>
</g>
<!-- 4 -->
<g id="node6" class="node"><title>4</title>
<ellipse fill="black" stroke="black" cx="-56.3647" cy="61.7929" rx="7.2" ry="7.2"/>
</g>
<!-- 3&#45;&gt;4 -->
<g id="edge5" class="edge"><title>3&#45;&gt;4</title>
<path fill="none" stroke="black" d="M-8.11233,11.8977C-16.3776,20.4444 -32.5056,37.1215 -43.8333,48.8349"/>
<polygon fill="black" stroke="black" points="-41.5845,51.5443 -51.0523,56.2996 -46.6165,46.6781 -41.5845,51.5443"/>
</g>
<!-- 10 -->
<g id="node7" class="node"><title>10</title>
<ellipse fill="black" stroke="black" cx="48.791" cy="75.5692" rx="7.2" ry="7.2"/>
</g>
<!-- 3&#45;&gt;10 -->
<g id="edge6" class="edge"><title>3&#45;&gt;10</title>
<path fill="none" stroke="black" d="M1.61841,12.281C9.68674,23.1057 27.0603,46.4146 38.3214,61.5229"/>
<polygon fill="black" stroke="black" points="41.2353,59.5757 44.4053,69.6853 35.6229,63.7591 41.2353,59.5757"/>
</g>
<!-- 13 -->
<g id="node8" class="node"><title>13</title>
<ellipse fill="black" stroke="black" cx="82.5473" cy="-25.3573" rx="7.2" ry="7.2"/>
</g>
<!-- 3&#45;&gt;13 -->
<g id="edge7" class="edge"><title>3&#45;&gt;13</title>
<path fill="none" stroke="black" d="M4.2042,3.78479C17.6458,-1.21523 47.4407,-12.2983 66.1672,-19.2642"/>
<polygon fill="black" stroke="black" points="65.1139,-22.6066 75.7067,-22.8127 67.5544,-16.0458 65.1139,-22.6066"/>
</g>
<!-- 16&#45;&gt;1 -->
<g id="edge24" class="edge"><title>16&#45;&gt;1</title>
<path fill="none" stroke="black" d="M-34.5722,-83.6819C-33.6334,-96.0516 -31.7111,-121.377 -30.4123,-138.49"/>
<polygon fill="black" stroke="black" points="-33.8792,-139.059 -29.6324,-148.765 -26.8993,-138.529 -33.8792,-139.059"/>
</g>
<!-- 9 -->
<g id="node11" class="node"><title>9</title>
<ellipse fill="black" stroke="black" cx="-90.5374" cy="37.4787" rx="7.2" ry="7.2"/>
</g>
<!-- 7&#45;&gt;9 -->
<g id="edge12" class="edge"><title>7&#45;&gt;9</title>
<path fill="none" stroke="black" d="M-84.2222,2.97474C-85.0995,7.76772 -86.2866,14.254 -87.3949,20.3092"/>
<polygon fill="black" stroke="black" points="-83.9774,21.0778 -89.2206,30.2842 -90.863,19.8175 -83.9774,21.0778"/>
</g>
<!-- 8 -->
<g id="node12" class="node"><title>8</title>
<ellipse fill="black" stroke="black" cx="-71.3882" cy="-43.8066" rx="7.2" ry="7.2"/>
</g>
<!-- 7&#45;&gt;8 -->
<g id="edge13" class="edge"><title>7&#45;&gt;8</title>
<path fill="none" stroke="black" d="M-80.7806,-11.5486C-79.5001,-15.9464 -77.8105,-21.7493 -76.2177,-27.2196"/>
<polygon fill="black" stroke="black" points="-79.5634,-28.2491 -73.4073,-36.872 -72.8425,-26.2922 -79.5634,-28.2491"/>
</g>
<!-- 6 -->
<g id="node9" class="node"><title>6</title>
<ellipse fill="black" stroke="black" cx="-34.7413" cy="98.2671" rx="7.2" ry="7.2"/>
</g>
<!-- 4&#45;&gt;6 -->
<g id="edge8" class="edge"><title>4&#45;&gt;6</title>
<path fill="none" stroke="black" d="M-52.5982,68.1462C-50.1177,72.3303 -46.7608,77.9926 -43.6271,83.2787"/>
<polygon fill="black" stroke="black" points="-40.5536,81.5997 -38.4647,91.9866 -46.575,85.1694 -40.5536,81.5997"/>
</g>
<!-- 5 -->
<g id="node10" class="node"><title>5</title>
<ellipse fill="black" stroke="black" cx="-1.70002" cy="90.0089" rx="7.2" ry="7.2"/>
</g>
<!-- 4&#45;&gt;5 -->
<g id="edge9" class="edge"><title>4&#45;&gt;5</title>
<path fill="none" stroke="black" d="M-49.6617,65.2527C-41.6246,69.4012 -27.8979,76.4864 -17.1836,82.0168"/>
<polygon fill="black" stroke="black" points="-15.3988,78.9993 -8.11804,86.6961 -18.6095,85.2195 -15.3988,78.9993"/>
</g>
<!-- 12 -->
<g id="node13" class="node"><title>12</title>
<ellipse fill="black" stroke="black" cx="94.5755" cy="26.3107" rx="7.2" ry="7.2"/>
</g>
<!-- 10&#45;&gt;12 -->
<g id="edge16" class="edge"><title>10&#45;&gt;12</title>
<path fill="none" stroke="black" d="M54.043,69.9186C61.0162,62.4164 73.5301,48.9529 82.8149,38.9636"/>
<polygon fill="black" stroke="black" points="80.2904,36.5387 89.6622,31.5969 85.4177,41.3044 80.2904,36.5387"/>
</g>
<!-- 11 -->
<g id="node14" class="node"><title>11</title>
<ellipse fill="black" stroke="black" cx="48.1491" cy="11.2403" rx="7.2" ry="7.2"/>
</g>
<!-- 10&#45;&gt;11 -->
<g id="edge17" class="edge"><title>10&#45;&gt;11</title>
<path fill="none" stroke="black" d="M48.7173,68.1898C48.6216,58.5924 48.4513,41.5247 48.322,28.5691"/>
<polygon fill="black" stroke="black" points="44.8219,28.568 48.2219,18.5336 51.8216,28.4981 44.8219,28.568"/>
</g>
<!-- 15 -->
<g id="node15" class="node"><title>15</title>
<ellipse fill="black" stroke="black" cx="51.8168" cy="-63.9276" rx="7.2" ry="7.2"/>
</g>
<!-- 13&#45;&gt;15 -->
<g id="edge20" class="edge"><title>13&#45;&gt;15</title>
<path fill="none" stroke="black" d="M78.0129,-31.0485C74.0185,-36.062 68.0371,-43.5693 62.7979,-50.1452"/>
<polygon fill="black" stroke="black" points="59.8639,-48.211 56.3698,-58.2131 65.3387,-52.573 59.8639,-48.211"/>
</g>
<!-- 14 -->
<g id="node16" class="node"><title>14</title>
<ellipse fill="black" stroke="black" cx="74.2776" cy="46.5647" rx="7.2" ry="7.2"/>
</g>
<!-- 13&#45;&gt;14 -->
<g id="edge21" class="edge"><title>13&#45;&gt;14</title>
<path fill="none" stroke="black" d="M81.7241,-18.1982C80.474,-7.32571 78.0583,13.6836 76.3168,28.8295"/>
<polygon fill="black" stroke="black" points="79.7664,29.469 75.147,39.0038 72.8123,28.6694 79.7664,29.469"/>
</g>
<!-- 6&#45;&gt;3 -->
<g id="edge11" class="edge"><title>6&#45;&gt;3</title>
<path fill="none" stroke="black" d="M-32.3389,91.3608C-27.3179,76.9266 -15.5925,43.2193 -8.51094,22.8618"/>
<polygon fill="black" stroke="black" points="-11.7999,21.6635 -5.20866,13.3686 -5.1885,23.9634 -11.7999,21.6635"/>
</g>
<!-- 5&#45;&gt;3 -->
<g id="edge10" class="edge"><title>5&#45;&gt;3</title>
<path fill="none" stroke="black" d="M-1.79571,82.5876C-1.96395,69.5405 -2.31702,42.1594 -2.5509,24.0217"/>
<polygon fill="black" stroke="black" points="-6.052,23.9514 -2.68133,13.9071 0.947415,23.8611 -6.052,23.9514"/>
</g>
<!-- 9&#45;&gt;3 -->
<g id="edge15" class="edge"><title>9&#45;&gt;3</title>
<path fill="none" stroke="black" d="M-83.6511,35.0386C-69.9411,30.1806 -38.8862,19.1766 -19.4958,12.3058"/>
<polygon fill="black" stroke="black" points="-20.4712,8.93826 -9.87644,8.89729 -18.1332,15.5363 -20.4712,8.93826"/>
</g>
<!-- 8&#45;&gt;3 -->
<g id="edge14" class="edge"><title>8&#45;&gt;3</title>
<path fill="none" stroke="black" d="M-65.5386,-39.5276C-54.8041,-31.6752 -31.6897,-14.7668 -16.7075,-3.80713"/>
<polygon fill="black" stroke="black" points="-14.6178,-6.61506 -8.61319,2.11392 -18.7507,-0.965307 -14.6178,-6.61506"/>
</g>
<!-- 12&#45;&gt;3 -->
<g id="edge19" class="edge"><title>12&#45;&gt;3</title>
<path fill="none" stroke="black" d="M87.2581,24.8129C71.8899,21.6669 35.9007,14.2999 14.3659,9.89164"/>
<polygon fill="black" stroke="black" points="13.4543,13.2777 4.35934,7.84326 14.8581,6.41988 13.4543,13.2777"/>
</g>
<!-- 11&#45;&gt;3 -->
<g id="edge18" class="edge"><title>11&#45;&gt;3</title>
<path fill="none" stroke="black" d="M40.6346,10.5235C33.7866,9.87021 23.4147,8.88081 14.5261,8.03289"/>
<polygon fill="black" stroke="black" points="14.0596,11.5044 4.43723,7.07048 14.7244,4.53601 14.0596,11.5044"/>
</g>
<!-- 15&#45;&gt;3 -->
<g id="edge23" class="edge"><title>15&#45;&gt;3</title>
<path fill="none" stroke="black" d="M47.1621,-57.9331C38.6203,-46.9327 20.2274,-23.2455 8.30551,-7.89207"/>
<polygon fill="black" stroke="black" points="10.7622,-5.3491 1.86462,0.402757 5.23329,-9.64229 10.7622,-5.3491"/>
</g>
<!-- 14&#45;&gt;3 -->
<g id="edge22" class="edge"><title>14&#45;&gt;3</title>
<path fill="none" stroke="black" d="M67.7079,43.1388C55.652,36.852 29.6921,23.3146 12.8655,14.54"/>
<polygon fill="black" stroke="black" points="11.0232,17.5267 3.77476,9.79943 14.2599,11.3199 11.0232,17.5267"/>
</g>
</g>
</svg>
