<?xml version="1.0" encoding="UTF-8" standalone="no"?>
<!DOCTYPE svg PUBLIC "-//W3C//DTD SVG 1.1//EN"
 "http://www.w3.org/Graphics/SVG/1.1/DTD/svg11.dtd">
<!-- Generated by graphviz version 2.38.0 (20140413.2041)
 -->
<!-- Title: %3 Pages: 1 -->
<svg width="625pt" height="559pt"
 viewBox="0.00 0.00 625.28 558.96" xmlns="http://www.w3.org/2000/svg" xmlns:xlink="http://www.w3.org/1999/xlink">
<g id="graph0" class="graph" transform="scale(1 1) rotate(0) translate(258.327 281.072)">
<title>%3</title>
<polygon fill="white" stroke="none" points="-258.327,277.89 -258.327,-281.072 366.953,-281.072 366.953,277.89 -258.327,277.89"/>
<!-- 1 -->
<g id="node1" class="node"><title>1</title>
<ellipse fill="none" stroke="black" cx="-85.3938" cy="66.4158" rx="7" ry="7"/>
</g>
<!-- 16 -->
<g id="node2" class="node"><title>16</title>
<ellipse fill="black" stroke="black" cx="-25.0089" cy="27.5752" rx="7.2" ry="7.2"/>
</g>
<!-- 1&#45;&gt;16 -->
<g id="edge1" class="edge"><title>1&#45;&gt;16</title>
<path fill="none" stroke="black" d="M-79.3831,62.5496C-70.2547,56.6781 -52.6155,45.3322 -39.8992,37.1529"/>
<polygon fill="black" stroke="black" points="-41.6609,34.1245 -31.357,31.6584 -37.8741,40.0118 -41.6609,34.1245"/>
</g>
<!-- 2 -->
<g id="node3" class="node"><title>2</title>
<ellipse fill="black" stroke="black" cx="-84.2582" cy="-39.7885" rx="7.2" ry="7.2"/>
</g>
<!-- 16&#45;&gt;2 -->
<g id="edge28" class="edge"><title>16&#45;&gt;2</title>
<path fill="none" stroke="black" d="M-32.0505,25.1761C-43.7421,17.0318 -65.8838,-7.3028 -77.407,-23.8735"/>
<polygon fill="black" stroke="black" points="-80.4953,-22.2118 -82.8054,-32.5518 -74.5515,-25.9093 -80.4953,-22.2118"/>
</g>
<!-- 4 -->
<g id="node7" class="node"><title>4</title>
<ellipse fill="black" stroke="black" cx="-24.31" cy="115.861" rx="7.2" ry="7.2"/>
</g>
<!-- 16&#45;&gt;4 -->
<g id="edge27" class="edge"><title>16&#45;&gt;4</title>
<path fill="none" stroke="black" d="M-21.2559,33.8952C-17.7479,47.4851 -16.9372,79.8529 -19.0721,99.605"/>
<polygon fill="black" stroke="black" points="-15.6265,100.223 -20.6714,109.54 -22.5375,99.1104 -15.6265,100.223"/>
</g>
<!-- 7 -->
<g id="node10" class="node"><title>7</title>
<ellipse fill="black" stroke="black" cx="56.7309" cy="14.4538" rx="7.2" ry="7.2"/>
</g>
<!-- 16&#45;&gt;7 -->
<g id="edge29" class="edge"><title>16&#45;&gt;7</title>
<path fill="none" stroke="black" d="M-19.4632,22.8633C-7.49545,17.6343 21.1085,12.4568 39.6689,11.6138"/>
<polygon fill="black" stroke="black" points="39.9472,8.11612 49.9148,11.7074 39.8832,15.1158 39.9472,8.11612"/>
</g>
<!-- 2&#45;&gt;16 -->
<g id="edge2" class="edge"><title>2&#45;&gt;16</title>
<path fill="none" stroke="black" d="M-77.2167,-37.3894C-65.5251,-29.2451 -43.3834,-4.91051 -31.8601,11.6601"/>
<polygon fill="black" stroke="black" points="-28.7719,9.99851 -26.4617,20.3384 -34.7157,13.6959 -28.7719,9.99851"/>
</g>
<!-- 12 -->
<g id="node4" class="node"><title>12</title>
<ellipse fill="black" stroke="black" cx="-83.3705" cy="-121.59" rx="7.2" ry="7.2"/>
</g>
<!-- 2&#45;&gt;12 -->
<g id="edge3" class="edge"><title>2&#45;&gt;12</title>
<path fill="none" stroke="black" d="M-87.9647,-45.9779C-91.0949,-58.5081 -91.3616,-87.2315 -89.0543,-105.448"/>
<polygon fill="black" stroke="black" points="-92.474,-106.205 -87.2297,-115.411 -85.5886,-104.944 -92.474,-106.205"/>
</g>
<!-- 3 -->
<g id="node5" class="node"><title>3</title>
<ellipse fill="black" stroke="black" cx="-168.941" cy="-32.4605" rx="7.2" ry="7.2"/>
</g>
<!-- 2&#45;&gt;3 -->
<g id="edge4" class="edge"><title>2&#45;&gt;3</title>
<path fill="none" stroke="black" d="M-90.2979,-35.4784C-103.011,-31.0845 -132.912,-27.9266 -151.965,-28.4309"/>
<polygon fill="black" stroke="black" points="-152.483,-24.9609 -162.175,-29.2399 -151.93,-31.9391 -152.483,-24.9609"/>
</g>
<!-- 12&#45;&gt;2 -->
<g id="edge21" class="edge"><title>12&#45;&gt;2</title>
<path fill="none" stroke="black" d="M-79.6641,-115.4C-76.5338,-102.87 -76.2672,-74.1466 -78.5744,-55.9298"/>
<polygon fill="black" stroke="black" points="-75.1547,-55.173 -80.399,-45.9671 -82.0402,-56.434 -75.1547,-55.173"/>
</g>
<!-- 13 -->
<g id="node15" class="node"><title>13</title>
<ellipse fill="black" stroke="black" cx="-99.7577" cy="-197.357" rx="7.2" ry="7.2"/>
</g>
<!-- 12&#45;&gt;13 -->
<g id="edge22" class="edge"><title>12&#45;&gt;13</title>
<path fill="none" stroke="black" d="M-88.6575,-127.208C-94.1619,-138.314 -100.137,-163.371 -101.815,-180.338"/>
<polygon fill="black" stroke="black" points="-105.32,-180.385 -102.232,-190.52 -98.3256,-180.671 -105.32,-180.385"/>
</g>
<!-- 3&#45;&gt;2 -->
<g id="edge6" class="edge"><title>3&#45;&gt;2</title>
<path fill="none" stroke="black" d="M-162.902,-36.7707C-150.188,-41.1646 -120.287,-44.3224 -101.235,-43.8181"/>
<polygon fill="black" stroke="black" points="-100.716,-47.2881 -91.024,-43.0092 -101.269,-40.31 -100.716,-47.2881"/>
</g>
<!-- 15 -->
<g id="node6" class="node"><title>15</title>
<ellipse fill="black" stroke="black" cx="-247.127" cy="-28.9332" rx="7.2" ry="7.2"/>
</g>
<!-- 3&#45;&gt;15 -->
<g id="edge5" class="edge"><title>3&#45;&gt;15</title>
<path fill="none" stroke="black" d="M-174.903,-28.3446C-186.579,-24.679 -212.831,-22.8951 -230.259,-24.0489"/>
<polygon fill="black" stroke="black" points="-231.132,-20.63 -240.628,-25.3299 -230.274,-27.5772 -231.132,-20.63"/>
</g>
<!-- 15&#45;&gt;3 -->
<g id="edge26" class="edge"><title>15&#45;&gt;3</title>
<path fill="none" stroke="black" d="M-241.165,-33.0491C-229.49,-36.7148 -203.237,-38.4986 -185.809,-37.3449"/>
<polygon fill="black" stroke="black" points="-184.936,-40.7637 -175.44,-36.0638 -185.794,-33.8166 -184.936,-40.7637"/>
</g>
<!-- 4&#45;&gt;16 -->
<g id="edge7" class="edge"><title>4&#45;&gt;16</title>
<path fill="none" stroke="black" d="M-28.0631,109.541C-31.571,95.9506 -32.3818,63.5828 -30.2468,43.8307"/>
<polygon fill="black" stroke="black" points="-33.6925,43.2127 -28.6476,33.8961 -26.7815,44.3253 -33.6925,43.2127"/>
</g>
<!-- 5 -->
<g id="node8" class="node"><title>5</title>
<ellipse fill="black" stroke="black" cx="-42.5199" cy="193.816" rx="7.2" ry="7.2"/>
</g>
<!-- 4&#45;&gt;5 -->
<g id="edge8" class="edge"><title>4&#45;&gt;5</title>
<path fill="none" stroke="black" d="M-21.9967,122.852C-21.6924,135.467 -27.3399,162.193 -33.3299,179.018"/>
<polygon fill="black" stroke="black" points="-30.166,180.524 -37.2566,188.396 -36.6229,177.82 -30.166,180.524"/>
</g>
<!-- 5&#45;&gt;4 -->
<g id="edge9" class="edge"><title>5&#45;&gt;4</title>
<path fill="none" stroke="black" d="M-44.8333,186.824C-45.1376,174.209 -39.4901,147.483 -33.5001,130.659"/>
<polygon fill="black" stroke="black" points="-36.664,129.153 -29.5734,121.28 -30.2071,131.856 -36.664,129.153"/>
</g>
<!-- 6 -->
<g id="node9" class="node"><title>6</title>
<ellipse fill="black" stroke="black" cx="-62.6486" cy="266.69" rx="7.2" ry="7.2"/>
</g>
<!-- 5&#45;&gt;6 -->
<g id="edge10" class="edge"><title>5&#45;&gt;6</title>
<path fill="none" stroke="black" d="M-40.3965,200.821C-40.505,212.681 -46.5607,236.821 -52.7985,252.367"/>
<polygon fill="black" stroke="black" points="-49.6647,253.928 -57.0752,261.499 -56.0041,250.959 -49.6647,253.928"/>
</g>
<!-- 6&#45;&gt;5 -->
<g id="edge11" class="edge"><title>6&#45;&gt;5</title>
<path fill="none" stroke="black" d="M-64.772,259.685C-64.6636,247.824 -58.6078,223.685 -52.37,208.139"/>
<polygon fill="black" stroke="black" points="-55.5038,206.578 -48.0933,199.006 -49.1645,209.546 -55.5038,206.578"/>
</g>
<!-- 7&#45;&gt;16 -->
<g id="edge12" class="edge"><title>7&#45;&gt;16</title>
<path fill="none" stroke="black" d="M51.1852,19.1657C39.2174,24.3947 10.6135,29.5722 -7.94697,30.4152"/>
<polygon fill="black" stroke="black" points="-8.22529,33.9129 -18.1929,30.3216 -8.16127,26.9132 -8.22529,33.9129"/>
</g>
<!-- 8 -->
<g id="node11" class="node"><title>8</title>
<ellipse fill="black" stroke="black" cx="134.698" cy="9.63713" rx="7.2" ry="7.2"/>
</g>
<!-- 7&#45;&gt;8 -->
<g id="edge13" class="edge"><title>7&#45;&gt;8</title>
<path fill="none" stroke="black" d="M62.6119,10.2401C74.2022,6.38236 100.371,4.16568 117.783,5.03175"/>
<polygon fill="black" stroke="black" points="118.581,1.59706 128.152,6.14156 117.836,8.5573 118.581,1.59706"/>
</g>
<!-- 8&#45;&gt;7 -->
<g id="edge14" class="edge"><title>8&#45;&gt;7</title>
<path fill="none" stroke="black" d="M128.817,13.8508C117.227,17.7086 91.0574,19.9252 73.6455,19.0592"/>
<polygon fill="black" stroke="black" points="72.8477,22.4939 63.277,17.9494 73.5927,15.5336 72.8477,22.4939"/>
</g>
<!-- 9 -->
<g id="node12" class="node"><title>9</title>
<ellipse fill="black" stroke="black" cx="210.197" cy="6.82095" rx="7.2" ry="7.2"/>
</g>
<!-- 8&#45;&gt;9 -->
<g id="edge15" class="edge"><title>8&#45;&gt;9</title>
<path fill="none" stroke="black" d="M140.73,5.49757C152.062,2.01948 176.886,0.503331 193.579,1.75573"/>
<polygon fill="black" stroke="black" points="194.114,-1.70402 203.57,3.075 193.198,5.23574 194.114,-1.70402"/>
</g>
<!-- 9&#45;&gt;8 -->
<g id="edge17" class="edge"><title>9&#45;&gt;8</title>
<path fill="none" stroke="black" d="M204.164,10.9605C192.832,14.4386 168.008,15.9547 151.316,14.7023"/>
<polygon fill="black" stroke="black" points="150.78,18.1621 141.324,13.3831 151.697,11.2223 150.78,18.1621"/>
</g>
<!-- 10 -->
<g id="node13" class="node"><title>10</title>
<ellipse fill="black" stroke="black" cx="284.293" cy="2.74977" rx="7.2" ry="7.2"/>
</g>
<!-- 9&#45;&gt;10 -->
<g id="edge16" class="edge"><title>9&#45;&gt;10</title>
<path fill="none" stroke="black" d="M216.296,2.50004C227.397,-1.08775 251.254,-2.97923 267.542,-2.05772"/>
<polygon fill="black" stroke="black" points="268.242,-5.50012 277.773,-0.873585 267.437,1.45347 268.242,-5.50012"/>
</g>
<!-- 10&#45;&gt;9 -->
<g id="edge18" class="edge"><title>10&#45;&gt;9</title>
<path fill="none" stroke="black" d="M278.194,7.07068C267.092,10.6585 243.235,12.55 226.948,11.6284"/>
<polygon fill="black" stroke="black" points="226.247,15.0708 216.716,10.4443 227.052,8.11726 226.247,15.0708"/>
</g>
<!-- 11 -->
<g id="node14" class="node"><title>11</title>
<ellipse fill="black" stroke="black" cx="355.753" cy="-14.0177" rx="7.2" ry="7.2"/>
</g>
<!-- 10&#45;&gt;11 -->
<g id="edge19" class="edge"><title>10&#45;&gt;11</title>
<path fill="none" stroke="black" d="M289.476,-2.55438C299.661,-7.99821 322.567,-13.9685 338.594,-15.866"/>
<polygon fill="black" stroke="black" points="338.58,-19.3711 348.767,-16.4622 338.989,-12.3831 338.58,-19.3711"/>
</g>
<!-- 11&#45;&gt;10 -->
<g id="edge20" class="edge"><title>11&#45;&gt;10</title>
<path fill="none" stroke="black" d="M350.569,-8.71353C340.385,-3.2697 317.478,2.70061 301.452,4.59814"/>
<polygon fill="black" stroke="black" points="301.466,8.10323 291.278,5.19426 301.056,1.11522 301.466,8.10323"/>
</g>
<!-- 13&#45;&gt;12 -->
<g id="edge23" class="edge"><title>13&#45;&gt;12</title>
<path fill="none" stroke="black" d="M-94.4707,-191.739C-88.9663,-180.633 -82.9914,-155.575 -81.3132,-138.609"/>
<polygon fill="black" stroke="black" points="-77.8084,-138.562 -80.8964,-128.427 -84.8026,-138.275 -77.8084,-138.562"/>
</g>
<!-- 14 -->
<g id="node16" class="node"><title>14</title>
<ellipse fill="black" stroke="black" cx="-118.335" cy="-269.872" rx="7.2" ry="7.2"/>
</g>
<!-- 13&#45;&gt;14 -->
<g id="edge24" class="edge"><title>13&#45;&gt;14</title>
<path fill="none" stroke="black" d="M-105.197,-202.552C-110.901,-212.838 -117.452,-236.073 -119.754,-252.366"/>
<polygon fill="black" stroke="black" points="-123.274,-252.465 -120.606,-262.718 -116.298,-253.039 -123.274,-252.465"/>
</g>
<!-- 14&#45;&gt;13 -->
<g id="edge25" class="edge"><title>14&#45;&gt;13</title>
<path fill="none" stroke="black" d="M-112.896,-264.677C-107.191,-254.391 -100.64,-231.156 -98.3385,-214.863"/>
<polygon fill="black" stroke="black" points="-94.8186,-214.764 -97.4864,-204.511 -101.795,-214.19 -94.8186,-214.764"/>
</g>
</g>
</svg>
