<?xml version="1.0" encoding="UTF-8" standalone="no"?>
<!DOCTYPE svg PUBLIC "-//W3C//DTD SVG 1.1//EN"
 "http://www.w3.org/Graphics/SVG/1.1/DTD/svg11.dtd">
<!-- Generated by graphviz version 2.38.0 (20140413.2041)
 -->
<!-- Title: %3 Pages: 1 -->
<svg width="618pt" height="552pt"
 viewBox="0.00 0.00 618.08 551.76" xmlns="http://www.w3.org/2000/svg" xmlns:xlink="http://www.w3.org/1999/xlink">
<g id="graph0" class="graph" transform="scale(1 1) rotate(0) translate(254.727 277.472)">
<title>%3</title>
<polygon fill="white" stroke="none" points="-254.727,274.29 -254.727,-277.472 363.353,-277.472 363.353,274.29 -254.727,274.29"/>
<!-- 1 -->
<g id="node1" class="node"><title>1</title>
<ellipse fill="none" stroke="black" cx="-85.3938" cy="66.4158" rx="3.5" ry="3.5"/>
</g>
<!-- 16 -->
<g id="node2" class="node"><title>16</title>
<ellipse fill="black" stroke="black" cx="-25.0089" cy="27.5752" rx="3.6" ry="3.6"/>
</g>
<!-- 1&#45;&gt;16 -->
<g id="edge1" class="edge"><title>1&#45;&gt;16</title>
<path fill="none" stroke="black" d="M-82.1472,64.3275C-73.7921,58.9534 -51.2138,44.4306 -37.069,35.3325"/>
<polygon fill="black" stroke="black" points="-38.5754,32.1399 -28.2715,29.6738 -34.7886,38.0272 -38.5754,32.1399"/>
</g>
<!-- 2 -->
<g id="node3" class="node"><title>2</title>
<ellipse fill="black" stroke="black" cx="-84.2582" cy="-39.7885" rx="3.6" ry="3.6"/>
</g>
<!-- 16&#45;&gt;2 -->
<g id="edge28" class="edge"><title>16&#45;&gt;2</title>
<path fill="none" stroke="black" d="M-28.9552,27.0709C-39.9605,21.5231 -67.8834,-9.09121 -79.5481,-27.0527"/>
<polygon fill="black" stroke="black" points="-82.7408,-25.6018 -84.3519,-36.0734 -76.5622,-28.8921 -82.7408,-25.6018"/>
</g>
<!-- 4 -->
<g id="node7" class="node"><title>4</title>
<ellipse fill="black" stroke="black" cx="-24.31" cy="115.861" rx="3.6" ry="3.6"/>
</g>
<!-- 16&#45;&gt;4 -->
<g id="edge27" class="edge"><title>16&#45;&gt;4</title>
<path fill="none" stroke="black" d="M-22.3556,30.4918C-17.6669,41.7075 -16.5961,82.4715 -19.5345,103.35"/>
<polygon fill="black" stroke="black" points="-16.1398,104.205 -21.8075,113.156 -22.959,102.624 -16.1398,104.205"/>
</g>
<!-- 7 -->
<g id="node10" class="node"><title>7</title>
<ellipse fill="black" stroke="black" cx="56.7309" cy="14.4538" rx="3.6" ry="3.6"/>
</g>
<!-- 16&#45;&gt;7 -->
<g id="edge29" class="edge"><title>16&#45;&gt;7</title>
<path fill="none" stroke="black" d="M-22.7062,24.5418C-13.1933,18.4406 23.2542,11.7764 43.315,11.5032"/>
<polygon fill="black" stroke="black" points="43.7842,8.02852 53.4938,12.268 43.2597,15.0088 43.7842,8.02852"/>
</g>
<!-- 2&#45;&gt;16 -->
<g id="edge2" class="edge"><title>2&#45;&gt;16</title>
<path fill="none" stroke="black" d="M-80.312,-39.2842C-69.3067,-33.7365 -41.3837,-3.1221 -29.7191,14.8394"/>
<polygon fill="black" stroke="black" points="-26.5264,13.3885 -24.9153,23.8601 -32.705,16.6788 -26.5264,13.3885"/>
</g>
<!-- 12 -->
<g id="node4" class="node"><title>12</title>
<ellipse fill="black" stroke="black" cx="-83.3705" cy="-121.59" rx="3.6" ry="3.6"/>
</g>
<!-- 2&#45;&gt;12 -->
<g id="edge3" class="edge"><title>2&#45;&gt;12</title>
<path fill="none" stroke="black" d="M-86.8587,-42.5387C-91.2636,-52.8241 -91.6695,-89.435 -88.5469,-109.018"/>
<polygon fill="black" stroke="black" points="-91.9173,-109.966 -86.0721,-118.803 -85.1309,-108.25 -91.9173,-109.966"/>
</g>
<!-- 3 -->
<g id="node5" class="node"><title>3</title>
<ellipse fill="black" stroke="black" cx="-168.941" cy="-32.4605" rx="3.6" ry="3.6"/>
</g>
<!-- 2&#45;&gt;3 -->
<g id="edge4" class="edge"><title>2&#45;&gt;3</title>
<path fill="none" stroke="black" d="M-86.849,-36.9244C-97.1479,-31.4596 -135.557,-27.3561 -155.982,-28.6026"/>
<polygon fill="black" stroke="black" points="-156.798,-25.187 -166.149,-30.1689 -155.732,-32.1054 -156.798,-25.187"/>
</g>
<!-- 12&#45;&gt;2 -->
<g id="edge21" class="edge"><title>12&#45;&gt;2</title>
<path fill="none" stroke="black" d="M-80.7701,-118.839C-76.3652,-108.554 -75.9593,-71.9431 -79.0818,-52.3604"/>
<polygon fill="black" stroke="black" points="-75.7115,-51.4119 -81.5566,-42.5753 -82.4978,-53.1283 -75.7115,-51.4119"/>
</g>
<!-- 13 -->
<g id="node15" class="node"><title>13</title>
<ellipse fill="black" stroke="black" cx="-99.7577" cy="-197.357" rx="3.6" ry="3.6"/>
</g>
<!-- 12&#45;&gt;13 -->
<g id="edge22" class="edge"><title>12&#45;&gt;13</title>
<path fill="none" stroke="black" d="M-86.4864,-123.555C-92.89,-132 -100.915,-165.177 -102.121,-184.058"/>
<polygon fill="black" stroke="black" points="-105.616,-184.299 -101.804,-194.184 -98.619,-184.08 -105.616,-184.299"/>
</g>
<!-- 3&#45;&gt;2 -->
<g id="edge6" class="edge"><title>3&#45;&gt;2</title>
<path fill="none" stroke="black" d="M-166.35,-35.3247C-156.052,-40.7895 -117.643,-44.893 -97.2177,-43.6465"/>
<polygon fill="black" stroke="black" points="-96.4011,-47.062 -87.0507,-42.0802 -97.467,-40.1436 -96.4011,-47.062"/>
</g>
<!-- 15 -->
<g id="node6" class="node"><title>15</title>
<ellipse fill="black" stroke="black" cx="-247.127" cy="-28.9332" rx="3.6" ry="3.6"/>
</g>
<!-- 3&#45;&gt;15 -->
<g id="edge5" class="edge"><title>3&#45;&gt;15</title>
<path fill="none" stroke="black" d="M-171.424,-29.7157C-180.914,-24.8096 -215.292,-22.4273 -234.29,-24.3857"/>
<polygon fill="black" stroke="black" points="-235.193,-20.9969 -244.315,-26.3861 -233.824,-27.8616 -235.193,-20.9969"/>
</g>
<!-- 15&#45;&gt;3 -->
<g id="edge26" class="edge"><title>15&#45;&gt;3</title>
<path fill="none" stroke="black" d="M-244.644,-31.678C-235.154,-36.5841 -200.776,-38.9664 -181.778,-37.008"/>
<polygon fill="black" stroke="black" points="-180.875,-40.3969 -171.753,-35.0076 -182.245,-33.5322 -180.875,-40.3969"/>
</g>
<!-- 4&#45;&gt;16 -->
<g id="edge7" class="edge"><title>4&#45;&gt;16</title>
<path fill="none" stroke="black" d="M-26.9633,112.944C-31.652,101.728 -32.7229,60.9642 -29.7845,40.086"/>
<polygon fill="black" stroke="black" points="-33.1792,39.231 -27.5115,30.2796 -26.3599,40.8116 -33.1792,39.231"/>
</g>
<!-- 5 -->
<g id="node8" class="node"><title>5</title>
<ellipse fill="black" stroke="black" cx="-42.5199" cy="193.816" rx="3.6" ry="3.6"/>
</g>
<!-- 4&#45;&gt;5 -->
<g id="edge8" class="edge"><title>4&#45;&gt;5</title>
<path fill="none" stroke="black" d="M-22.3547,119.052C-20.2457,129.784 -27.532,164.567 -34.6992,182.672"/>
<polygon fill="black" stroke="black" points="-31.6513,184.4 -39.2919,191.74 -37.8961,181.237 -31.6513,184.4"/>
</g>
<!-- 5&#45;&gt;4 -->
<g id="edge9" class="edge"><title>5&#45;&gt;4</title>
<path fill="none" stroke="black" d="M-44.4752,190.624C-46.5843,179.892 -39.298,145.109 -32.1308,127.005"/>
<polygon fill="black" stroke="black" points="-35.1787,125.276 -27.538,117.936 -28.9339,128.439 -35.1787,125.276"/>
</g>
<!-- 6 -->
<g id="node9" class="node"><title>6</title>
<ellipse fill="black" stroke="black" cx="-62.6486" cy="266.69" rx="3.6" ry="3.6"/>
</g>
<!-- 5&#45;&gt;6 -->
<g id="edge10" class="edge"><title>5&#45;&gt;6</title>
<path fill="none" stroke="black" d="M-40.6545,196.941C-38.8462,207.116 -46.8204,239.155 -54.358,256.061"/>
<polygon fill="black" stroke="black" points="-51.3947,257.93 -59.3809,264.892 -57.4794,254.47 -51.3947,257.93"/>
</g>
<!-- 6&#45;&gt;5 -->
<g id="edge11" class="edge"><title>6&#45;&gt;5</title>
<path fill="none" stroke="black" d="M-64.5141,263.565C-66.3224,253.39 -58.3481,221.35 -50.8105,204.444"/>
<polygon fill="black" stroke="black" points="-53.7739,202.575 -45.7876,195.613 -47.6891,206.036 -53.7739,202.575"/>
</g>
<!-- 7&#45;&gt;16 -->
<g id="edge12" class="edge"><title>7&#45;&gt;16</title>
<path fill="none" stroke="black" d="M54.4281,17.4872C44.9152,23.5884 8.46777,30.2526 -11.593,30.5258"/>
<polygon fill="black" stroke="black" points="-12.0623,34.0005 -21.7719,29.761 -11.5377,27.0202 -12.0623,34.0005"/>
</g>
<!-- 8 -->
<g id="node11" class="node"><title>8</title>
<ellipse fill="black" stroke="black" cx="134.698" cy="9.63713" rx="3.6" ry="3.6"/>
</g>
<!-- 7&#45;&gt;8 -->
<g id="edge13" class="edge"><title>7&#45;&gt;8</title>
<path fill="none" stroke="black" d="M59.1628,11.6684C68.5511,6.60644 102.82,3.65737 121.811,5.30207"/>
<polygon fill="black" stroke="black" points="122.642,1.89576 131.849,7.13679 121.383,8.78168 122.642,1.89576"/>
</g>
<!-- 8&#45;&gt;7 -->
<g id="edge14" class="edge"><title>8&#45;&gt;7</title>
<path fill="none" stroke="black" d="M132.266,12.4225C122.878,17.4845 88.6089,20.4335 69.6174,18.7889"/>
<polygon fill="black" stroke="black" points="68.7871,22.1952 59.5794,16.9541 70.0458,15.3092 68.7871,22.1952"/>
</g>
<!-- 9 -->
<g id="node12" class="node"><title>9</title>
<ellipse fill="black" stroke="black" cx="210.197" cy="6.82095" rx="3.6" ry="3.6"/>
</g>
<!-- 8&#45;&gt;9 -->
<g id="edge15" class="edge"><title>8&#45;&gt;9</title>
<path fill="none" stroke="black" d="M137.112,6.91513C146.259,2.11879 179.189,0.0461026 197.569,2.12686"/>
<polygon fill="black" stroke="black" points="198.45,-1.26388 207.498,4.24852 196.988,5.58159 198.45,-1.26388"/>
</g>
<!-- 9&#45;&gt;8 -->
<g id="edge17" class="edge"><title>9&#45;&gt;8</title>
<path fill="none" stroke="black" d="M207.783,9.54295C198.635,14.3393 165.706,16.412 147.326,14.3312"/>
<polygon fill="black" stroke="black" points="146.444,17.722 137.396,12.2096 147.907,10.8765 146.444,17.722"/>
</g>
<!-- 10 -->
<g id="node13" class="node"><title>10</title>
<ellipse fill="black" stroke="black" cx="284.293" cy="2.74977" rx="3.6" ry="3.6"/>
</g>
<!-- 9&#45;&gt;10 -->
<g id="edge16" class="edge"><title>9&#45;&gt;10</title>
<path fill="none" stroke="black" d="M212.518,4.05933C221.371,-0.864434 253.406,-3.48287 271.543,-1.75871"/>
<polygon fill="black" stroke="black" points="272.461,-5.1452 281.596,0.222712 271.108,1.72266 272.461,-5.1452"/>
</g>
<!-- 10&#45;&gt;9 -->
<g id="edge18" class="edge"><title>10&#45;&gt;9</title>
<path fill="none" stroke="black" d="M281.972,5.51139C273.118,10.4352 241.084,13.0536 222.946,11.3294"/>
<polygon fill="black" stroke="black" points="222.028,14.7159 212.894,9.34801 223.382,7.84806 222.028,14.7159"/>
</g>
<!-- 11 -->
<g id="node14" class="node"><title>11</title>
<ellipse fill="black" stroke="black" cx="355.753" cy="-14.0177" rx="3.6" ry="3.6"/>
</g>
<!-- 10&#45;&gt;11 -->
<g id="edge19" class="edge"><title>10&#45;&gt;11</title>
<path fill="none" stroke="black" d="M286.369,-0.606472C294.581,-6.93287 324.727,-14.8339 342.481,-16.2558"/>
<polygon fill="black" stroke="black" points="342.808,-19.7495 352.729,-16.0308 342.654,-12.7512 342.808,-19.7495"/>
</g>
<!-- 11&#45;&gt;10 -->
<g id="edge20" class="edge"><title>11&#45;&gt;10</title>
<path fill="none" stroke="black" d="M353.677,-10.6614C345.465,-4.33504 315.319,3.56604 297.564,4.98787"/>
<polygon fill="black" stroke="black" points="297.238,8.48164 287.317,4.76289 297.391,1.48332 297.238,8.48164"/>
</g>
<!-- 13&#45;&gt;12 -->
<g id="edge23" class="edge"><title>13&#45;&gt;12</title>
<path fill="none" stroke="black" d="M-96.6418,-195.392C-90.2382,-186.946 -82.2131,-153.77 -81.007,-134.888"/>
<polygon fill="black" stroke="black" points="-77.5127,-134.648 -81.3237,-124.762 -84.5092,-134.867 -77.5127,-134.648"/>
</g>
<!-- 14 -->
<g id="node16" class="node"><title>14</title>
<ellipse fill="black" stroke="black" cx="-118.335" cy="-269.872" rx="3.6" ry="3.6"/>
</g>
<!-- 13&#45;&gt;14 -->
<g id="edge24" class="edge"><title>13&#45;&gt;14</title>
<path fill="none" stroke="black" d="M-102.924,-199.117C-109.528,-206.958 -118.456,-238.406 -120.275,-256.647"/>
<polygon fill="black" stroke="black" points="-123.775,-256.71 -120.283,-266.713 -116.775,-256.716 -123.775,-256.71"/>
</g>
<!-- 14&#45;&gt;13 -->
<g id="edge25" class="edge"><title>14&#45;&gt;13</title>
<path fill="none" stroke="black" d="M-115.169,-268.112C-108.565,-260.271 -99.6368,-228.823 -97.8175,-210.582"/>
<polygon fill="black" stroke="black" points="-94.3175,-210.519 -97.8095,-200.516 -101.318,-210.513 -94.3175,-210.519"/>
</g>
</g>
</svg>
