<?xml version="1.0" encoding="UTF-8" standalone="no"?>
<!DOCTYPE svg PUBLIC "-//W3C//DTD SVG 1.1//EN"
 "http://www.w3.org/Graphics/SVG/1.1/DTD/svg11.dtd">
<!-- Generated by graphviz version 2.38.0 (20140413.2041)
 -->
<!-- Title: %3 Pages: 1 -->
<svg width="402pt" height="436pt"
 viewBox="0.00 0.00 401.71 436.28" xmlns="http://www.w3.org/2000/svg" xmlns:xlink="http://www.w3.org/1999/xlink">
<g id="graph0" class="graph" transform="scale(1 1) rotate(0) translate(227.28 235.884)">
<title>%3</title>
<polygon fill="white" stroke="none" points="-227.28,200.393 -227.28,-235.884 174.429,-235.884 174.429,200.393 -227.28,200.393"/>
<!-- 1 -->
<g id="node1" class="node"><title>1</title>
<ellipse fill="none" stroke="black" cx="154.391" cy="-15.8106" rx="7" ry="7"/>
</g>
<!-- 12 -->
<g id="node2" class="node"><title>12</title>
<ellipse fill="black" stroke="black" cx="163.229" cy="68.5412" rx="7.2" ry="7.2"/>
</g>
<!-- 1&#45;&gt;12 -->
<g id="edge1" class="edge"><title>1&#45;&gt;12</title>
<path fill="none" stroke="black" d="M155.145,-8.61884C156.527,4.57852 159.505,32.9964 161.435,51.4162"/>
<polygon fill="black" stroke="black" points="164.916,51.0573 162.477,61.3676 157.954,51.7868 164.916,51.0573"/>
</g>
<!-- 13 -->
<g id="node16" class="node"><title>13</title>
<ellipse fill="black" stroke="black" cx="126.108" cy="144.947" rx="7.2" ry="7.2"/>
</g>
<!-- 12&#45;&gt;13 -->
<g id="edge15" class="edge"><title>12&#45;&gt;13</title>
<path fill="none" stroke="black" d="M160.064,75.0555C154.256,87.0096 141.75,112.75 133.644,129.435"/>
<polygon fill="black" stroke="black" points="136.783,130.984 129.265,138.449 130.487,127.925 136.783,130.984"/>
</g>
<!-- 2 -->
<g id="node3" class="node"><title>2</title>
<ellipse fill="black" stroke="black" cx="53.7173" cy="189.193" rx="7.2" ry="7.2"/>
</g>
<!-- 3 -->
<g id="node4" class="node"><title>3</title>
<ellipse fill="black" stroke="black" cx="-30.8098" cy="186.41" rx="7.2" ry="7.2"/>
</g>
<!-- 2&#45;&gt;3 -->
<g id="edge2" class="edge"><title>2&#45;&gt;3</title>
<path fill="none" stroke="black" d="M46.5106,188.955C33.4181,188.524 5.37689,187.601 -13.0925,186.993"/>
<polygon fill="black" stroke="black" points="-13.2567,190.49 -23.1361,186.662 -13.0263,183.493 -13.2567,190.49"/>
</g>
<!-- 4 -->
<g id="node5" class="node"><title>4</title>
<ellipse fill="black" stroke="black" cx="-98.0593" cy="135.605" rx="7.2" ry="7.2"/>
</g>
<!-- 3&#45;&gt;4 -->
<g id="edge3" class="edge"><title>3&#45;&gt;4</title>
<path fill="none" stroke="black" d="M-37.016,181.721C-47.5786,173.742 -69.3105,157.324 -83.7868,146.388"/>
<polygon fill="black" stroke="black" points="-86.1925,148.957 -92.0618,140.136 -81.973,143.371 -86.1925,148.957"/>
</g>
<!-- 5 -->
<g id="node6" class="node"><title>5</title>
<ellipse fill="black" stroke="black" cx="-137.315" cy="57.7948" rx="7.2" ry="7.2"/>
</g>
<!-- 4&#45;&gt;5 -->
<g id="edge4" class="edge"><title>4&#45;&gt;5</title>
<path fill="none" stroke="black" d="M-101.406,128.971C-107.548,116.797 -120.773,90.5832 -129.345,73.5918"/>
<polygon fill="black" stroke="black" points="-132.597,74.9168 -133.976,64.4121 -126.347,71.7637 -132.597,74.9168"/>
</g>
<!-- 6 -->
<g id="node7" class="node"><title>6</title>
<ellipse fill="black" stroke="black" cx="-116.852" cy="-26.9351" rx="7.2" ry="7.2"/>
</g>
<!-- 5&#45;&gt;6 -->
<g id="edge5" class="edge"><title>5&#45;&gt;6</title>
<path fill="none" stroke="black" d="M-135.57,50.5708C-132.354,37.2518 -125.41,8.49941 -120.943,-9.99446"/>
<polygon fill="black" stroke="black" points="-124.342,-10.8305 -118.592,-19.7294 -117.538,-9.18714 -124.342,-10.8305"/>
</g>
<!-- 15 -->
<g id="node8" class="node"><title>15</title>
<ellipse fill="black" stroke="black" cx="-216.08" cy="72.1959" rx="7.2" ry="7.2"/>
</g>
<!-- 5&#45;&gt;15 -->
<g id="edge6" class="edge"><title>5&#45;&gt;15</title>
<path fill="none" stroke="black" d="M-142.804,62.7052C-154.254,68.0169 -181.02,73.5003 -198.841,74.7195"/>
<polygon fill="black" stroke="black" points="-198.962,78.2214 -209.009,74.8602 -199.059,71.2221 -198.962,78.2214"/>
</g>
<!-- 8 -->
<g id="node9" class="node"><title>8</title>
<ellipse fill="black" stroke="black" cx="-43.0804" cy="-29.0599" rx="7.2" ry="7.2"/>
</g>
<!-- 6&#45;&gt;8 -->
<g id="edge7" class="edge"><title>6&#45;&gt;8</title>
<path fill="none" stroke="black" d="M-109.509,-27.1466C-98.2406,-27.4712 -76.357,-28.1014 -60.7882,-28.5499"/>
<polygon fill="black" stroke="black" points="-60.4905,-32.0598 -50.3939,-28.8492 -60.2889,-25.0627 -60.4905,-32.0598"/>
</g>
<!-- 7 -->
<g id="node10" class="node"><title>7</title>
<ellipse fill="black" stroke="black" cx="-105.392" cy="-112.262" rx="7.2" ry="7.2"/>
</g>
<!-- 6&#45;&gt;7 -->
<g id="edge8" class="edge"><title>6&#45;&gt;7</title>
<path fill="none" stroke="black" d="M-115.875,-34.21C-114.082,-47.5599 -110.221,-76.3061 -107.719,-94.9388"/>
<polygon fill="black" stroke="black" points="-111.167,-95.5602 -106.367,-105.005 -104.229,-94.6283 -111.167,-95.5602"/>
</g>
<!-- 15&#45;&gt;5 -->
<g id="edge18" class="edge"><title>15&#45;&gt;5</title>
<path fill="none" stroke="black" d="M-210.591,67.2855C-199.141,61.9738 -172.375,56.4904 -154.554,55.2712"/>
<polygon fill="black" stroke="black" points="-154.433,51.7693 -144.386,55.1305 -154.336,58.7686 -154.433,51.7693"/>
</g>
<!-- 9 -->
<g id="node12" class="node"><title>9</title>
<ellipse fill="black" stroke="black" cx="32.2117" cy="-47.5394" rx="7.2" ry="7.2"/>
</g>
<!-- 8&#45;&gt;9 -->
<g id="edge10" class="edge"><title>8&#45;&gt;9</title>
<path fill="none" stroke="black" d="M-35.861,-30.8318C-24.2509,-33.6814 -1.10844,-39.3614 14.9496,-43.3026"/>
<polygon fill="black" stroke="black" points="14.5781,-46.8153 25.1241,-45.7999 16.2467,-40.017 14.5781,-46.8153"/>
</g>
<!-- 11 -->
<g id="node11" class="node"><title>11</title>
<ellipse fill="black" stroke="black" cx="-32.6488" cy="-161.106" rx="7.2" ry="7.2"/>
</g>
<!-- 7&#45;&gt;11 -->
<g id="edge9" class="edge"><title>7&#45;&gt;11</title>
<path fill="none" stroke="black" d="M-99.1901,-116.426C-87.8089,-124.068 -63.3019,-140.524 -47.4171,-151.19"/>
<polygon fill="black" stroke="black" points="-49.0884,-154.283 -38.8352,-156.952 -45.1862,-148.472 -49.0884,-154.283"/>
</g>
<!-- 10 -->
<g id="node14" class="node"><title>10</title>
<ellipse fill="black" stroke="black" cx="56.389" cy="-155.792" rx="7.2" ry="7.2"/>
</g>
<!-- 11&#45;&gt;10 -->
<g id="edge14" class="edge"><title>11&#45;&gt;10</title>
<path fill="none" stroke="black" d="M-25.3625,-160.671C-11.4749,-159.842 19.1411,-158.015 38.7125,-156.847"/>
<polygon fill="black" stroke="black" points="38.9759,-160.338 48.7496,-156.248 38.5588,-153.35 38.9759,-160.338"/>
</g>
<!-- 14 -->
<g id="node13" class="node"><title>14</title>
<ellipse fill="black" stroke="black" cx="99.8212" cy="-81.4979" rx="7.2" ry="7.2"/>
</g>
<!-- 9&#45;&gt;14 -->
<g id="edge11" class="edge"><title>9&#45;&gt;14</title>
<path fill="none" stroke="black" d="M38.6943,-50.7955C49.0135,-55.9785 69.4779,-66.2573 83.8771,-73.4896"/>
<polygon fill="black" stroke="black" points="82.5511,-76.7402 93.0582,-78.101 85.693,-70.4849 82.5511,-76.7402"/>
</g>
<!-- 14&#45;&gt;1 -->
<g id="edge17" class="edge"><title>14&#45;&gt;1</title>
<path fill="none" stroke="black" d="M104.474,-75.8974C113.012,-65.6203 131.396,-43.4904 143.312,-29.1464"/>
<polygon fill="black" stroke="black" points="146.052,-31.3255 149.75,-21.3969 140.668,-26.8523 146.052,-31.3255"/>
</g>
<!-- 10&#45;&gt;14 -->
<g id="edge12" class="edge"><title>10&#45;&gt;14</title>
<path fill="none" stroke="black" d="M60.092,-149.458C66.8873,-137.834 81.5194,-112.805 91.0036,-96.581"/>
<polygon fill="black" stroke="black" points="94.1022,-98.2156 96.1275,-87.8161 88.0591,-94.6828 94.1022,-98.2156"/>
</g>
<!-- 16 -->
<g id="node15" class="node"><title>16</title>
<ellipse fill="black" stroke="black" cx="94.3697" cy="-224.684" rx="7.2" ry="7.2"/>
</g>
<!-- 10&#45;&gt;16 -->
<g id="edge13" class="edge"><title>10&#45;&gt;16</title>
<path fill="none" stroke="black" d="M56.0039,-163.053C58.9981,-174.979 71.2396,-198.424 81.3606,-212.768"/>
<polygon fill="black" stroke="black" points="78.9299,-215.335 87.8889,-220.991 84.4122,-210.983 78.9299,-215.335"/>
</g>
<!-- 16&#45;&gt;10 -->
<g id="edge19" class="edge"><title>16&#45;&gt;10</title>
<path fill="none" stroke="black" d="M94.7548,-217.422C91.7607,-205.496 79.5191,-182.052 69.3981,-167.708"/>
<polygon fill="black" stroke="black" points="71.8289,-165.14 62.8698,-159.485 66.3465,-169.493 71.8289,-165.14"/>
</g>
<!-- 13&#45;&gt;2 -->
<g id="edge16" class="edge"><title>13&#45;&gt;2</title>
<path fill="none" stroke="black" d="M119.936,148.719C108.61,155.642 84.222,170.548 68.4141,180.21"/>
<polygon fill="black" stroke="black" points="70.2315,183.201 59.8737,185.43 66.5809,177.228 70.2315,183.201"/>
</g>
</g>
</svg>
