<?xml version="1.0" encoding="UTF-8" standalone="no"?>
<!DOCTYPE svg PUBLIC "-//W3C//DTD SVG 1.1//EN"
 "http://www.w3.org/Graphics/SVG/1.1/DTD/svg11.dtd">
<!-- Generated by graphviz version 2.38.0 (20140413.2041)
 -->
<!-- Title: %3 Pages: 1 -->
<svg width="395pt" height="429pt"
 viewBox="0.00 0.00 394.51 429.08" xmlns="http://www.w3.org/2000/svg" xmlns:xlink="http://www.w3.org/1999/xlink">
<g id="graph0" class="graph" transform="scale(1 1) rotate(0) translate(223.68 232.284)">
<title>%3</title>
<polygon fill="white" stroke="none" points="-223.68,196.793 -223.68,-232.284 170.829,-232.284 170.829,196.793 -223.68,196.793"/>
<!-- 1 -->
<g id="node1" class="node"><title>1</title>
<ellipse fill="none" stroke="black" cx="154.391" cy="-15.8106" rx="3.5" ry="3.5"/>
</g>
<!-- 12 -->
<g id="node2" class="node"><title>12</title>
<ellipse fill="black" stroke="black" cx="163.229" cy="68.5412" rx="3.6" ry="3.6"/>
</g>
<!-- 1&#45;&gt;12 -->
<g id="edge1" class="edge"><title>1&#45;&gt;12</title>
<path fill="none" stroke="black" d="M154.771,-12.1861C155.964,-0.800345 159.68,34.6732 161.768,54.5989"/>
<polygon fill="black" stroke="black" points="165.259,54.3316 162.82,64.6419 158.297,55.0611 165.259,54.3316"/>
</g>
<!-- 13 -->
<g id="node16" class="node"><title>13</title>
<ellipse fill="black" stroke="black" cx="126.108" cy="144.947" rx="3.6" ry="3.6"/>
</g>
<!-- 12&#45;&gt;13 -->
<g id="edge15" class="edge"><title>12&#45;&gt;13</title>
<path fill="none" stroke="black" d="M161.634,71.8243C156.623,82.1374 141.013,114.269 132.244,132.318"/>
<polygon fill="black" stroke="black" points="135.342,133.949 127.824,141.415 129.046,130.89 135.342,133.949"/>
</g>
<!-- 2 -->
<g id="node3" class="node"><title>2</title>
<ellipse fill="black" stroke="black" cx="53.7173" cy="189.193" rx="3.6" ry="3.6"/>
</g>
<!-- 3 -->
<g id="node4" class="node"><title>3</title>
<ellipse fill="black" stroke="black" cx="-30.8098" cy="186.41" rx="3.6" ry="3.6"/>
</g>
<!-- 2&#45;&gt;3 -->
<g id="edge2" class="edge"><title>2&#45;&gt;3</title>
<path fill="none" stroke="black" d="M50.0853,189.073C38.6759,188.697 3.12855,187.527 -16.8386,186.87"/>
<polygon fill="black" stroke="black" points="-17.0231,190.366 -26.9024,186.538 -16.7926,183.369 -17.0231,190.366"/>
</g>
<!-- 4 -->
<g id="node5" class="node"><title>4</title>
<ellipse fill="black" stroke="black" cx="-98.0593" cy="135.605" rx="3.6" ry="3.6"/>
</g>
<!-- 3&#45;&gt;4 -->
<g id="edge3" class="edge"><title>3&#45;&gt;4</title>
<path fill="none" stroke="black" d="M-33.6995,184.227C-42.7768,177.369 -71.0581,156.004 -86.9438,144.003"/>
<polygon fill="black" stroke="black" points="-89.0813,146.774 -94.9506,137.954 -84.8618,141.189 -89.0813,146.774"/>
</g>
<!-- 5 -->
<g id="node6" class="node"><title>5</title>
<ellipse fill="black" stroke="black" cx="-137.315" cy="57.7948" rx="3.6" ry="3.6"/>
</g>
<!-- 4&#45;&gt;5 -->
<g id="edge4" class="edge"><title>4&#45;&gt;5</title>
<path fill="none" stroke="black" d="M-99.7461,132.262C-105.093,121.663 -121.857,88.4341 -131.08,70.1537"/>
<polygon fill="black" stroke="black" points="-134.299,71.5438 -135.678,61.0392 -128.049,68.3908 -134.299,71.5438"/>
</g>
<!-- 6 -->
<g id="node7" class="node"><title>6</title>
<ellipse fill="black" stroke="black" cx="-116.852" cy="-26.9351" rx="3.6" ry="3.6"/>
</g>
<!-- 5&#45;&gt;6 -->
<g id="edge5" class="edge"><title>5&#45;&gt;6</title>
<path fill="none" stroke="black" d="M-136.436,54.1541C-133.648,42.6123 -124.91,6.42885 -120.102,-13.4772"/>
<polygon fill="black" stroke="black" points="-123.455,-14.5034 -117.705,-23.4022 -116.651,-12.86 -123.455,-14.5034"/>
</g>
<!-- 15 -->
<g id="node8" class="node"><title>15</title>
<ellipse fill="black" stroke="black" cx="-216.08" cy="72.1959" rx="3.6" ry="3.6"/>
</g>
<!-- 5&#45;&gt;15 -->
<g id="edge6" class="edge"><title>5&#45;&gt;15</title>
<path fill="none" stroke="black" d="M-139.462,60.8612C-148.464,67.0763 -183.274,74.2713 -202.739,74.9216"/>
<polygon fill="black" stroke="black" points="-203.11,78.406 -212.888,74.3278 -202.701,71.4179 -203.11,78.406"/>
</g>
<!-- 8 -->
<g id="node9" class="node"><title>8</title>
<ellipse fill="black" stroke="black" cx="-43.0804" cy="-29.0599" rx="3.6" ry="3.6"/>
</g>
<!-- 6&#45;&gt;8 -->
<g id="edge7" class="edge"><title>6&#45;&gt;8</title>
<path fill="none" stroke="black" d="M-112.886,-27.0493C-102.482,-27.349 -74.0267,-28.1686 -56.8282,-28.6639"/>
<polygon fill="black" stroke="black" points="-56.8102,-32.1658 -46.7135,-28.9552 -56.6086,-25.1687 -56.8102,-32.1658"/>
</g>
<!-- 7 -->
<g id="node10" class="node"><title>7</title>
<ellipse fill="black" stroke="black" cx="-105.392" cy="-112.262" rx="3.6" ry="3.6"/>
</g>
<!-- 6&#45;&gt;7 -->
<g id="edge8" class="edge"><title>6&#45;&gt;7</title>
<path fill="none" stroke="black" d="M-116.36,-30.6015C-114.813,-42.1188 -109.993,-78.0024 -107.286,-98.1583"/>
<polygon fill="black" stroke="black" points="-110.722,-98.8723 -105.922,-108.317 -103.784,-97.9405 -110.722,-98.8723"/>
</g>
<!-- 15&#45;&gt;5 -->
<g id="edge18" class="edge"><title>15&#45;&gt;5</title>
<path fill="none" stroke="black" d="M-213.932,69.1295C-204.931,62.9144 -170.121,55.7194 -150.656,55.0691"/>
<polygon fill="black" stroke="black" points="-150.285,51.5847 -140.507,55.6629 -150.694,58.5728 -150.285,51.5847"/>
</g>
<!-- 9 -->
<g id="node12" class="node"><title>9</title>
<ellipse fill="black" stroke="black" cx="32.2117" cy="-47.5394" rx="3.6" ry="3.6"/>
</g>
<!-- 8&#45;&gt;9 -->
<g id="edge10" class="edge"><title>8&#45;&gt;9</title>
<path fill="none" stroke="black" d="M-39.4489,-29.9512C-29.0888,-32.4939 1.0016,-39.8793 18.7242,-44.2291"/>
<polygon fill="black" stroke="black" points="17.8932,-47.6289 28.4392,-46.6135 19.5618,-40.8307 17.8932,-47.6289"/>
</g>
<!-- 11 -->
<g id="node11" class="node"><title>11</title>
<ellipse fill="black" stroke="black" cx="-32.6488" cy="-161.106" rx="3.6" ry="3.6"/>
</g>
<!-- 7&#45;&gt;11 -->
<g id="edge9" class="edge"><title>7&#45;&gt;11</title>
<path fill="none" stroke="black" d="M-102.266,-114.361C-92.3575,-121.014 -61.2928,-141.873 -44.2028,-153.348"/>
<polygon fill="black" stroke="black" points="-45.9351,-156.4 -35.6819,-159.069 -42.0329,-150.589 -45.9351,-156.4"/>
</g>
<!-- 10 -->
<g id="node14" class="node"><title>10</title>
<ellipse fill="black" stroke="black" cx="56.389" cy="-155.792" rx="3.6" ry="3.6"/>
</g>
<!-- 11&#45;&gt;10 -->
<g id="edge14" class="edge"><title>11&#45;&gt;10</title>
<path fill="none" stroke="black" d="M-28.8229,-160.878C-16.6372,-160.15 21.6881,-157.863 42.5418,-156.619"/>
<polygon fill="black" stroke="black" points="42.9029,-160.103 52.6766,-156.014 42.4858,-153.116 42.9029,-160.103"/>
</g>
<!-- 14 -->
<g id="node13" class="node"><title>14</title>
<ellipse fill="black" stroke="black" cx="99.8212" cy="-81.4979" rx="3.6" ry="3.6"/>
</g>
<!-- 9&#45;&gt;14 -->
<g id="edge11" class="edge"><title>9&#45;&gt;14</title>
<path fill="none" stroke="black" d="M35.4726,-49.1773C44.7311,-53.8276 71.5375,-67.2917 87.4807,-75.2996"/>
<polygon fill="black" stroke="black" points="85.9266,-78.4356 96.4337,-79.7964 89.0685,-72.1803 85.9266,-78.4356"/>
</g>
<!-- 14&#45;&gt;1 -->
<g id="edge17" class="edge"><title>14&#45;&gt;1</title>
<path fill="none" stroke="black" d="M102.166,-78.6754C109.599,-69.7276 132.903,-41.6762 145.724,-26.2439"/>
<polygon fill="black" stroke="black" points="148.418,-28.478 152.116,-18.5495 143.033,-24.0049 148.418,-28.478"/>
</g>
<!-- 10&#45;&gt;14 -->
<g id="edge12" class="edge"><title>10&#45;&gt;14</title>
<path fill="none" stroke="black" d="M58.2553,-152.6C64.1177,-142.572 82.3828,-111.328 92.6424,-93.7778"/>
<polygon fill="black" stroke="black" points="95.7881,-95.3317 97.8134,-84.9322 89.745,-91.7989 95.7881,-95.3317"/>
</g>
<!-- 16 -->
<g id="node15" class="node"><title>16</title>
<ellipse fill="black" stroke="black" cx="94.3697" cy="-224.684" rx="3.6" ry="3.6"/>
</g>
<!-- 10&#45;&gt;16 -->
<g id="edge13" class="edge"><title>10&#45;&gt;16</title>
<path fill="none" stroke="black" d="M55.3494,-159.354C56.1359,-170.002 71.9783,-200.485 83.5938,-215.828"/>
<polygon fill="black" stroke="black" points="81.3844,-218.598 90.723,-223.602 86.5433,-213.866 81.3844,-218.598"/>
</g>
<!-- 16&#45;&gt;10 -->
<g id="edge19" class="edge"><title>16&#45;&gt;10</title>
<path fill="none" stroke="black" d="M95.4093,-221.122C94.6228,-210.474 78.7804,-179.99 67.1649,-164.647"/>
<polygon fill="black" stroke="black" points="69.3743,-161.878 60.0357,-156.874 64.2154,-166.609 69.3743,-161.878"/>
</g>
<!-- 13&#45;&gt;2 -->
<g id="edge16" class="edge"><title>13&#45;&gt;2</title>
<path fill="none" stroke="black" d="M122.998,146.848C113.226,152.82 82.7829,171.427 65.6826,181.879"/>
<polygon fill="black" stroke="black" points="67.4215,184.919 57.0637,187.147 63.7709,178.946 67.4215,184.919"/>
</g>
</g>
</svg>
