<?xml version="1.0" encoding="UTF-8" standalone="no"?>
<!DOCTYPE svg PUBLIC "-//W3C//DTD SVG 1.1//EN"
 "http://www.w3.org/Graphics/SVG/1.1/DTD/svg11.dtd">
<!-- Generated by graphviz version 2.38.0 (20140413.2041)
 -->
<!-- Title: %3 Pages: 1 -->
<svg width="213pt" height="241pt"
 viewBox="0.00 0.00 212.50 241.41" xmlns="http://www.w3.org/2000/svg" xmlns:xlink="http://www.w3.org/1999/xlink">
<g id="graph0" class="graph" transform="scale(1 1) rotate(0) translate(117.965 130.066)">
<title>%3</title>
<polygon fill="white" stroke="none" points="-117.965,111.349 -117.965,-130.066 94.5384,-130.066 94.5384,111.349 -117.965,111.349"/>
<!-- 1 -->
<g id="node1" class="node"><title>1</title>
<ellipse fill="none" stroke="black" cx="-10.2532" cy="0.242466" rx="7" ry="7"/>
</g>
<!-- 2 -->
<g id="node2" class="node"><title>2</title>
<ellipse fill="black" stroke="black" cx="27.4234" cy="-39.507" rx="7.2" ry="7.2"/>
</g>
<!-- 1&#45;&gt;2 -->
<g id="edge1" class="edge"><title>1&#45;&gt;2</title>
<path fill="none" stroke="black" d="M-9.39307,-7.01793C-5.74155,-14.2801 3.47889,-24.8967 11.8951,-32.1441"/>
<polygon fill="black" stroke="black" points="9.98056,-35.0809 20.1074,-38.1952 14.1329,-29.4455 9.98056,-35.0809"/>
</g>
<!-- 15 -->
<g id="node3" class="node"><title>15</title>
<ellipse fill="black" stroke="black" cx="-106.765" cy="19.2893" rx="7.2" ry="7.2"/>
</g>
<!-- 1&#45;&gt;15 -->
<g id="edge2" class="edge"><title>1&#45;&gt;15</title>
<path fill="none" stroke="black" d="M-15.6154,4.8546C-29.5906,11.3715 -67.4759,19.4213 -89.7673,21.2078"/>
<polygon fill="black" stroke="black" points="-89.6864,24.7069 -99.7936,21.5298 -89.9112,17.7105 -89.6864,24.7069"/>
</g>
<!-- 16 -->
<g id="node4" class="node"><title>16</title>
<ellipse fill="black" stroke="black" cx="-94.1644" cy="-41.3288" rx="7.2" ry="7.2"/>
</g>
<!-- 1&#45;&gt;16 -->
<g id="edge3" class="edge"><title>1&#45;&gt;16</title>
<path fill="none" stroke="black" d="M-17.3391,0.704462C-31.7257,-2.42876 -64.0771,-17.8227 -81.9145,-29.3865"/>
<polygon fill="black" stroke="black" points="-84.0661,-26.623 -90.1247,-35.3146 -79.9683,-32.2982 -84.0661,-26.623"/>
</g>
<!-- 14 -->
<g id="node5" class="node"><title>14</title>
<ellipse fill="black" stroke="black" cx="-58.0897" cy="-79.4342" rx="7.2" ry="7.2"/>
</g>
<!-- 1&#45;&gt;14 -->
<g id="edge4" class="edge"><title>1&#45;&gt;14</title>
<path fill="none" stroke="black" d="M-16.4437,-3.1531C-26.808,-13.4628 -45.5942,-43.6501 -54.2865,-62.875"/>
<polygon fill="black" stroke="black" points="-57.5634,-61.6444 -57.9595,-72.2318 -51.0474,-64.2023 -57.5634,-61.6444"/>
</g>
<!-- 2&#45;&gt;1 -->
<g id="edge6" class="edge"><title>2&#45;&gt;1</title>
<path fill="none" stroke="black" d="M26.5633,-32.2466C22.8733,-24.908 13.4966,-14.1439 5.00965,-6.89269"/>
<polygon fill="black" stroke="black" points="6.9099,-3.94703 -3.23691,-0.898573 2.79419,-9.6093 6.9099,-3.94703"/>
</g>
<!-- 13 -->
<g id="node6" class="node"><title>13</title>
<ellipse fill="black" stroke="black" cx="22.2295" cy="38.8846" rx="7.2" ry="7.2"/>
</g>
<!-- 2&#45;&gt;13 -->
<g id="edge5" class="edge"><title>2&#45;&gt;13</title>
<path fill="none" stroke="black" d="M30.8505,-33.1017C33.1944,-21.0466 32.0462,5.34195 28.9604,22.6004"/>
<polygon fill="black" stroke="black" points="32.253,23.883 26.5336,32.8015 25.4431,22.263 32.253,23.883"/>
</g>
<!-- 3 -->
<g id="node7" class="node"><title>3</title>
<ellipse fill="black" stroke="black" cx="-49.8768" cy="9.08338" rx="7.2" ry="7.2"/>
</g>
<!-- 2&#45;&gt;3 -->
<g id="edge7" class="edge"><title>2&#45;&gt;3</title>
<path fill="none" stroke="black" d="M21.0976,-35.5307C8.92027,-27.8761 -18.0722,-10.9088 -35.0373,-0.244606"/>
<polygon fill="black" stroke="black" points="-33.3507,2.82919 -43.6796,5.18788 -37.076,-3.09721 -33.3507,2.82919"/>
</g>
<!-- 4 -->
<g id="node8" class="node"><title>4</title>
<ellipse fill="black" stroke="black" cx="83.3384" cy="5.90153" rx="7.2" ry="7.2"/>
</g>
<!-- 2&#45;&gt;4 -->
<g id="edge8" class="edge"><title>2&#45;&gt;4</title>
<path fill="none" stroke="black" d="M33.4073,-34.6475C42.0282,-27.6465 58.1795,-14.53 69.7806,-5.10872"/>
<polygon fill="black" stroke="black" points="72.0089,-7.80799 77.5651,1.21305 67.596,-2.37411 72.0089,-7.80799"/>
</g>
<!-- 5 -->
<g id="node9" class="node"><title>5</title>
<ellipse fill="black" stroke="black" cx="56.1519" cy="22.5818" rx="7.2" ry="7.2"/>
</g>
<!-- 2&#45;&gt;5 -->
<g id="edge9" class="edge"><title>2&#45;&gt;5</title>
<path fill="none" stroke="black" d="M30.4979,-32.8624C34.7951,-23.5751 42.7341,-6.41721 48.6468,6.36153"/>
<polygon fill="black" stroke="black" points="51.9896,5.25143 53.0124,15.7968 45.6367,8.19095 51.9896,5.25143"/>
</g>
<!-- 15&#45;&gt;1 -->
<g id="edge41" class="edge"><title>15&#45;&gt;1</title>
<path fill="none" stroke="black" d="M-101.122,14.5474C-86.895,8.03943 -49.2289,0.0634276 -27.1047,-1.68772"/>
<polygon fill="black" stroke="black" points="-27.0057,-5.19198 -16.9082,-1.98402 -26.8023,1.80507 -27.0057,-5.19198"/>
</g>
<!-- 16&#45;&gt;1 -->
<g id="edge42" class="edge"><title>16&#45;&gt;1</title>
<path fill="none" stroke="black" d="M-86.7846,-41.7256C-72.2246,-38.4428 -40.0829,-23.1202 -22.3896,-11.6262"/>
<polygon fill="black" stroke="black" points="-20.2989,-14.4336 -14.2499,-5.73527 -24.403,-8.76285 -20.2989,-14.4336"/>
</g>
<!-- 14&#45;&gt;1 -->
<g id="edge40" class="edge"><title>14&#45;&gt;1</title>
<path fill="none" stroke="black" d="M-51.4747,-75.6101C-41.0329,-64.9192 -22.644,-35.3024 -14.0653,-16.3363"/>
<polygon fill="black" stroke="black" points="-10.739,-17.4408 -10.3508,-6.85306 -17.2569,-14.8878 -10.739,-17.4408"/>
</g>
<!-- 13&#45;&gt;2 -->
<g id="edge39" class="edge"><title>13&#45;&gt;2</title>
<path fill="none" stroke="black" d="M18.8025,32.4793C16.4586,20.4241 17.6068,-5.96437 20.6926,-23.2228"/>
<polygon fill="black" stroke="black" points="17.4,-24.5055 23.1193,-33.4239 24.2099,-22.8854 17.4,-24.5055"/>
</g>
<!-- 3&#45;&gt;1 -->
<g id="edge11" class="edge"><title>3&#45;&gt;1</title>
<path fill="none" stroke="black" d="M-42.6092,7.46182C-38.3112,6.50284 -32.6752,5.24531 -27.3133,4.04896"/>
<polygon fill="black" stroke="black" points="-27.7312,0.556203 -17.209,1.79445 -26.2068,7.38821 -27.7312,0.556203"/>
</g>
<!-- 3&#45;&gt;13 -->
<g id="edge10" class="edge"><title>3&#45;&gt;13</title>
<path fill="none" stroke="black" d="M-43.2225,11.8336C-32.1182,16.4229 -9.50113,25.7705 6.00813,32.1804"/>
<polygon fill="black" stroke="black" points="7.476,28.9998 15.3809,36.0541 4.80224,35.4691 7.476,28.9998"/>
</g>
<!-- 6 -->
<g id="node10" class="node"><title>6</title>
<ellipse fill="black" stroke="black" cx="-56.5193" cy="73.1057" rx="7.2" ry="7.2"/>
</g>
<!-- 3&#45;&gt;6 -->
<g id="edge12" class="edge"><title>3&#45;&gt;6</title>
<path fill="none" stroke="black" d="M-50.6388,16.4276C-51.6298,25.9793 -53.3922,42.9657 -54.7299,55.8595"/>
<polygon fill="black" stroke="black" points="-51.2528,56.2618 -55.7662,65.8472 -58.2154,55.5394 -51.2528,56.2618"/>
</g>
<!-- 8 -->
<g id="node11" class="node"><title>8</title>
<ellipse fill="black" stroke="black" cx="-22.9334" cy="65.9556" rx="7.2" ry="7.2"/>
</g>
<!-- 3&#45;&gt;8 -->
<g id="edge13" class="edge"><title>3&#45;&gt;8</title>
<path fill="none" stroke="black" d="M-46.7861,15.6073C-42.8492,23.9172 -35.9113,38.5618 -30.5294,49.922"/>
<polygon fill="black" stroke="black" points="-27.2734,48.6198 -26.155,59.1555 -33.5994,51.6168 -27.2734,48.6198"/>
</g>
<!-- 4&#45;&gt;1 -->
<g id="edge15" class="edge"><title>4&#45;&gt;1</title>
<path fill="none" stroke="black" d="M75.9944,5.45747C61.2285,4.56464 27.5968,2.53109 6.96476,1.28356"/>
<polygon fill="black" stroke="black" points="6.57102,4.76624 -3.19947,0.668975 6.99358,-2.221 6.57102,4.76624"/>
</g>
<!-- 4&#45;&gt;13 -->
<g id="edge14" class="edge"><title>4&#45;&gt;13</title>
<path fill="none" stroke="black" d="M76.7987,9.4313C67.5665,14.4143 50.4323,23.6623 37.8178,30.4709"/>
<polygon fill="black" stroke="black" points="39.3699,33.6104 28.9075,35.2802 36.0451,27.4504 39.3699,33.6104"/>
</g>
<!-- 10 -->
<g id="node12" class="node"><title>10</title>
<ellipse fill="black" stroke="black" cx="61.0087" cy="-41.5625" rx="7.2" ry="7.2"/>
</g>
<!-- 4&#45;&gt;10 -->
<g id="edge16" class="edge"><title>4&#45;&gt;10</title>
<path fill="none" stroke="black" d="M80.2335,-0.698137C77.2006,-7.14501 72.4685,-17.2036 68.4582,-25.7279"/>
<polygon fill="black" stroke="black" points="65.1772,-24.4802 64.0872,-35.0189 71.5113,-27.4602 65.1772,-24.4802"/>
</g>
<!-- 7 -->
<g id="node13" class="node"><title>7</title>
<ellipse fill="black" stroke="black" cx="62.6165" cy="73.6723" rx="7.2" ry="7.2"/>
</g>
<!-- 4&#45;&gt;7 -->
<g id="edge17" class="edge"><title>4&#45;&gt;7</title>
<path fill="none" stroke="black" d="M81.1988,12.8989C78.0656,23.1461 72.1329,42.549 67.8114,56.6822"/>
<polygon fill="black" stroke="black" points="71.0466,58.0719 64.7754,66.6114 64.3525,56.025 71.0466,58.0719"/>
</g>
<!-- 5&#45;&gt;1 -->
<g id="edge19" class="edge"><title>5&#45;&gt;1</title>
<path fill="none" stroke="black" d="M49.0454,20.1911C38.9075,16.7806 20.001,10.4203 6.25484,5.79595"/>
<polygon fill="black" stroke="black" points="4.96522,9.05493 -3.39683,2.54903 7.19723,2.42029 4.96522,9.05493"/>
</g>
<!-- 5&#45;&gt;13 -->
<g id="edge18" class="edge"><title>5&#45;&gt;13</title>
<path fill="none" stroke="black" d="M49.6113,25.7252C46.2324,27.349 41.9527,29.4058 37.7868,31.4079"/>
<polygon fill="black" stroke="black" points="39.2793,34.5738 28.75,35.7509 36.2471,28.2646 39.2793,34.5738"/>
</g>
<!-- 5&#45;&gt;8 -->
<g id="edge20" class="edge"><title>5&#45;&gt;8</title>
<path fill="none" stroke="black" d="M49.68,26.1313C37.2214,32.9641 9.60561,48.1098 -7.75129,57.6291"/>
<polygon fill="black" stroke="black" points="-6.14217,60.7383 -16.5932,62.4783 -9.50829,54.6008 -6.14217,60.7383"/>
</g>
<!-- 5&#45;&gt;7 -->
<g id="edge21" class="edge"><title>5&#45;&gt;7</title>
<path fill="none" stroke="black" d="M57.1057,30.1204C57.975,36.9903 59.2916,47.3953 60.4199,56.3124"/>
<polygon fill="black" stroke="black" points="63.9174,56.0733 61.7005,66.4336 56.9728,56.9521 63.9174,56.0733"/>
</g>
<!-- 6&#45;&gt;1 -->
<g id="edge23" class="edge"><title>6&#45;&gt;1</title>
<path fill="none" stroke="black" d="M-52.5746,66.8935C-45.336,55.4936 -29.7492,30.9462 -19.6461,15.0351"/>
<polygon fill="black" stroke="black" points="-22.503,13.0048 -14.1879,6.43902 -16.5936,16.7571 -22.503,13.0048"/>
</g>
<!-- 6&#45;&gt;13 -->
<g id="edge22" class="edge"><title>6&#45;&gt;13</title>
<path fill="none" stroke="black" d="M-49.8052,70.1881C-37.4845,64.834 -10.9543,53.305 6.24201,45.8322"/>
<polygon fill="black" stroke="black" points="4.96602,42.5705 15.5324,41.7949 7.75594,48.9905 4.96602,42.5705"/>
</g>
<!-- 9 -->
<g id="node14" class="node"><title>9</title>
<ellipse fill="black" stroke="black" cx="3.82322" cy="100.149" rx="7.2" ry="7.2"/>
</g>
<!-- 6&#45;&gt;9 -->
<g id="edge24" class="edge"><title>6&#45;&gt;9</title>
<path fill="none" stroke="black" d="M-49.5972,76.208C-40.5945,80.2427 -24.5845,87.418 -12.4317,92.8645"/>
<polygon fill="black" stroke="black" points="-10.7121,89.7996 -3.0181,97.0834 -13.575,96.1875 -10.7121,89.7996"/>
</g>
<!-- 8&#45;&gt;1 -->
<g id="edge29" class="edge"><title>8&#45;&gt;1</title>
<path fill="none" stroke="black" d="M-21.528,58.6721C-19.6137,48.7516 -16.1287,30.6911 -13.5381,17.2656"/>
<polygon fill="black" stroke="black" points="-16.9578,16.5146 -11.6264,7.35887 -10.0846,17.8409 -16.9578,16.5146"/>
</g>
<!-- 8&#45;&gt;13 -->
<g id="edge28" class="edge"><title>8&#45;&gt;13</title>
<path fill="none" stroke="black" d="M-16.6537,62.1915C-10.5194,58.5145 -0.9484,52.7776 7.16264,47.9158"/>
<polygon fill="black" stroke="black" points="5.6265,44.756 16.0031,42.6167 9.22539,50.76 5.6265,44.756"/>
</g>
<!-- 8&#45;&gt;9 -->
<g id="edge30" class="edge"><title>8&#45;&gt;9</title>
<path fill="none" stroke="black" d="M-18.2728,71.9117C-15.2034,75.8342 -11.0497,81.1425 -7.17195,86.0981"/>
<polygon fill="black" stroke="black" points="-4.19019,84.2292 -0.784026,94.2616 -9.70303,88.543 -4.19019,84.2292"/>
</g>
<!-- 10&#45;&gt;1 -->
<g id="edge34" class="edge"><title>10&#45;&gt;1</title>
<path fill="none" stroke="black" d="M54.4323,-37.7045C43.2395,-31.1384 20.2109,-17.629 4.87084,-8.62988"/>
<polygon fill="black" stroke="black" points="6.4985,-5.52695 -3.89788,-3.48582 2.95649,-11.5647 6.4985,-5.52695"/>
</g>
<!-- 10&#45;&gt;13 -->
<g id="edge33" class="edge"><title>10&#45;&gt;13</title>
<path fill="none" stroke="black" d="M57.8353,-34.9791C51.7867,-22.4315 38.4523,5.23052 29.9283,22.9136"/>
<polygon fill="black" stroke="black" points="33.0519,24.494 25.5568,31.9823 26.7463,21.4544 33.0519,24.494"/>
</g>
<!-- 11 -->
<g id="node15" class="node"><title>11</title>
<ellipse fill="black" stroke="black" cx="10.7433" cy="-88.1682" rx="7.2" ry="7.2"/>
</g>
<!-- 10&#45;&gt;11 -->
<g id="edge35" class="edge"><title>10&#45;&gt;11</title>
<path fill="none" stroke="black" d="M55.6295,-46.5501C48.1107,-53.5214 34.2201,-66.4006 23.8748,-75.9927"/>
<polygon fill="black" stroke="black" points="21.1896,-73.7095 16.2363,-83.0751 25.949,-78.8426 21.1896,-73.7095"/>
</g>
<!-- 7&#45;&gt;1 -->
<g id="edge26" class="edge"><title>7&#45;&gt;1</title>
<path fill="none" stroke="black" d="M57.3759,68.3914C45.9266,56.8541 18.4127,29.1287 2.22656,12.8182"/>
<polygon fill="black" stroke="black" points="-0.500468,15.039 -5.0601,5.47551 4.46821,10.1082 -0.500468,15.039"/>
</g>
<!-- 7&#45;&gt;13 -->
<g id="edge25" class="edge"><title>7&#45;&gt;13</title>
<path fill="none" stroke="black" d="M57.0008,68.8352C51.5172,64.1119 42.9627,56.7433 35.7111,50.4971"/>
<polygon fill="black" stroke="black" points="33.3516,53.0841 28.059,43.9059 37.92,47.7804 33.3516,53.0841"/>
</g>
<!-- 7&#45;&gt;9 -->
<g id="edge27" class="edge"><title>7&#45;&gt;9</title>
<path fill="none" stroke="black" d="M55.8721,76.7095C47.1006,80.6598 31.5016,87.6847 19.6608,93.0171"/>
<polygon fill="black" stroke="black" points="21.0442,96.2326 10.4889,97.1476 18.1697,89.85 21.0442,96.2326"/>
</g>
<!-- 9&#45;&gt;1 -->
<g id="edge32" class="edge"><title>9&#45;&gt;1</title>
<path fill="none" stroke="black" d="M2.81088,92.9644C0.599189,77.267 -4.71575,39.5445 -7.84247,17.3527"/>
<polygon fill="black" stroke="black" points="-11.3206,17.753 -9.25005,7.36243 -4.38902,16.7763 -11.3206,17.753"/>
</g>
<!-- 9&#45;&gt;13 -->
<g id="edge31" class="edge"><title>9&#45;&gt;13</title>
<path fill="none" stroke="black" d="M5.93465,93.1216C8.65301,84.0736 13.4659,68.0542 17.1586,55.7631"/>
<polygon fill="black" stroke="black" points="13.9133,54.4005 20.1427,45.8305 20.6173,56.4147 13.9133,54.4005"/>
</g>
<!-- 11&#45;&gt;1 -->
<g id="edge37" class="edge"><title>11&#45;&gt;1</title>
<path fill="none" stroke="black" d="M9.02508,-80.9332C5.71742,-67.0055 -1.61436,-36.1334 -6.22248,-16.7299"/>
<polygon fill="black" stroke="black" points="-2.85394,-15.7661 -8.56993,-6.84542 -9.66452,-17.3836 -2.85394,-15.7661"/>
</g>
<!-- 12 -->
<g id="node16" class="node"><title>12</title>
<ellipse fill="black" stroke="black" cx="71.2671" cy="-118.866" rx="7.2" ry="7.2"/>
</g>
<!-- 11&#45;&gt;12 -->
<g id="edge36" class="edge"><title>11&#45;&gt;12</title>
<path fill="none" stroke="black" d="M17.2204,-91.4533C26.2737,-96.0451 42.999,-104.528 55.4557,-110.846"/>
<polygon fill="black" stroke="black" points="54.1514,-114.109 64.6531,-115.511 57.3178,-107.866 54.1514,-114.109"/>
</g>
<!-- 12&#45;&gt;2 -->
<g id="edge38" class="edge"><title>12&#45;&gt;2</title>
<path fill="none" stroke="black" d="M67.6792,-112.371C60.7724,-99.8697 45.4626,-72.1585 35.8402,-54.7416"/>
<polygon fill="black" stroke="black" points="38.8378,-52.9297 30.9384,-45.8692 32.7107,-56.3148 38.8378,-52.9297"/>
</g>
</g>
</svg>
