<?xml version="1.0" encoding="UTF-8" standalone="no"?>
<!DOCTYPE svg PUBLIC "-//W3C//DTD SVG 1.1//EN"
 "http://www.w3.org/Graphics/SVG/1.1/DTD/svg11.dtd">
<!-- Generated by graphviz version 2.38.0 (20140413.2041)
 -->
<!-- Title: %3 Pages: 1 -->
<svg width="205pt" height="234pt"
 viewBox="0.00 0.00 205.30 234.21" xmlns="http://www.w3.org/2000/svg" xmlns:xlink="http://www.w3.org/1999/xlink">
<g id="graph0" class="graph" transform="scale(1 1) rotate(0) translate(114.365 126.466)">
<title>%3</title>
<polygon fill="white" stroke="none" points="-114.365,107.749 -114.365,-126.466 90.9384,-126.466 90.9384,107.749 -114.365,107.749"/>
<!-- 1 -->
<g id="node1" class="node"><title>1</title>
<ellipse fill="none" stroke="black" cx="-10.2532" cy="0.242466" rx="3.5" ry="3.5"/>
</g>
<!-- 2 -->
<g id="node2" class="node"><title>2</title>
<ellipse fill="black" stroke="black" cx="27.4234" cy="-39.507" rx="3.6" ry="3.6"/>
</g>
<!-- 1&#45;&gt;2 -->
<g id="edge1" class="edge"><title>1&#45;&gt;2</title>
<path fill="none" stroke="black" d="M-10.7776,-3.49706C-8.87277,-11.098 4.32882,-26.369 14.884,-34.5998"/>
<polygon fill="black" stroke="black" points="13.352,-37.7605 23.738,-39.8539 16.9243,-31.7407 13.352,-37.7605"/>
</g>
<!-- 15 -->
<g id="node3" class="node"><title>15</title>
<ellipse fill="black" stroke="black" cx="-106.765" cy="19.2893" rx="3.6" ry="3.6"/>
</g>
<!-- 1&#45;&gt;15 -->
<g id="edge2" class="edge"><title>1&#45;&gt;15</title>
<path fill="none" stroke="black" d="M-11.7597,3.86141C-12.081,4.43383 -12.4527,4.99623 -12.8728,5.47833 -24.99,19.3824 -29.0616,24.9371 -47.0478,29.0171 -55.5972,30.9565 -78.4091,26.2265 -93.2081,22.7113"/>
<polygon fill="black" stroke="black" points="-94.4021,26.0213 -103.266,20.2172 -92.7172,19.227 -94.4021,26.0213"/>
</g>
<!-- 16 -->
<g id="node4" class="node"><title>16</title>
<ellipse fill="black" stroke="black" cx="-94.1644" cy="-41.3288" rx="3.6" ry="3.6"/>
</g>
<!-- 1&#45;&gt;16 -->
<g id="edge3" class="edge"><title>1&#45;&gt;16</title>
<path fill="none" stroke="black" d="M-13.7677,1.25077C-26.0891,0.478004 -66.3078,-18.5723 -84.8202,-31.3256"/>
<polygon fill="black" stroke="black" points="-87.1704,-28.7262 -92.6988,-37.7643 -82.7408,-34.1464 -87.1704,-28.7262"/>
</g>
<!-- 14 -->
<g id="node5" class="node"><title>14</title>
<ellipse fill="black" stroke="black" cx="-58.0897" cy="-79.4342" rx="3.6" ry="3.6"/>
</g>
<!-- 1&#45;&gt;14 -->
<g id="edge4" class="edge"><title>1&#45;&gt;14</title>
<path fill="none" stroke="black" d="M-13.7455,-0.788026C-23.6566,-8.01479 -47.0583,-45.47 -55.6724,-66.0532"/>
<polygon fill="black" stroke="black" points="-59.0328,-65.0693 -58.7911,-75.6613 -52.3747,-67.2304 -59.0328,-65.0693"/>
</g>
<!-- 2&#45;&gt;1 -->
<g id="edge6" class="edge"><title>2&#45;&gt;1</title>
<path fill="none" stroke="black" d="M27.9478,-35.7675C26.043,-28.1666 12.8414,-12.8956 2.2862,-4.66474"/>
<polygon fill="black" stroke="black" points="3.81824,-1.50404 -6.56774,0.589351 0.24591,-7.52391 3.81824,-1.50404"/>
</g>
<!-- 13 -->
<g id="node6" class="node"><title>13</title>
<ellipse fill="black" stroke="black" cx="22.2295" cy="38.8846" rx="3.6" ry="3.6"/>
</g>
<!-- 2&#45;&gt;13 -->
<g id="edge5" class="edge"><title>2&#45;&gt;13</title>
<path fill="none" stroke="black" d="M29.875,-36.7249C33.6949,-26.7124 32.2372,7.84937 28.1771,26.584"/>
<polygon fill="black" stroke="black" points="31.4348,27.8901 25.0737,36.3628 24.7627,25.7725 31.4348,27.8901"/>
</g>
<!-- 3 -->
<g id="node7" class="node"><title>3</title>
<ellipse fill="black" stroke="black" cx="-49.8768" cy="9.08338" rx="3.6" ry="3.6"/>
</g>
<!-- 2&#45;&gt;3 -->
<g id="edge7" class="edge"><title>2&#45;&gt;3</title>
<path fill="none" stroke="black" d="M24.102,-37.4192C13.4729,-30.7378 -20.0633,-9.6572 -38.109,1.6862"/>
<polygon fill="black" stroke="black" points="-36.3248,4.69869 -46.6537,7.05737 -40.0501,-1.22772 -36.3248,4.69869"/>
</g>
<!-- 4 -->
<g id="node8" class="node"><title>4</title>
<ellipse fill="black" stroke="black" cx="83.3384" cy="5.90153" rx="3.6" ry="3.6"/>
</g>
<!-- 2&#45;&gt;4 -->
<g id="edge8" class="edge"><title>2&#45;&gt;4</title>
<path fill="none" stroke="black" d="M30.4297,-37.0657C38.2421,-30.7212 59.4845,-13.4702 72.554,-2.85648"/>
<polygon fill="black" stroke="black" points="74.761,-5.57294 80.3173,3.4481 70.3482,-0.139061 74.761,-5.57294"/>
</g>
<!-- 5 -->
<g id="node9" class="node"><title>5</title>
<ellipse fill="black" stroke="black" cx="56.1519" cy="22.5818" rx="3.6" ry="3.6"/>
</g>
<!-- 2&#45;&gt;5 -->
<g id="edge9" class="edge"><title>2&#45;&gt;5</title>
<path fill="none" stroke="black" d="M28.968,-36.1689C32.904,-27.6622 43.4748,-4.81635 50.2151,9.75118"/>
<polygon fill="black" stroke="black" points="53.5768,8.6818 54.5997,19.2272 47.2239,11.6213 53.5768,8.6818"/>
</g>
<!-- 15&#45;&gt;1 -->
<g id="edge41" class="edge"><title>15&#45;&gt;1</title>
<path fill="none" stroke="black" d="M-102.877,19.3269C-102.434,19.3185 -101.99,19.3047 -101.565,19.2835 -78.5072,18.1344 -72.5383,18.6137 -49.8614,14.2834 -37.0691,11.8406 -31.0156,12.066 -21.6536,7.862"/>
<polygon fill="black" stroke="black" points="-23.2611,4.7527 -12.7908,3.13305 -19.9658,10.9286 -23.2611,4.7527"/>
</g>
<!-- 16&#45;&gt;1 -->
<g id="edge42" class="edge"><title>16&#45;&gt;1</title>
<path fill="none" stroke="black" d="M-90.6499,-42.3371C-78.3285,-41.5643 -38.1098,-22.5139 -19.5974,-9.76067"/>
<polygon fill="black" stroke="black" points="-17.2472,-12.3601 -11.7187,-3.32202 -21.6768,-6.93986 -17.2472,-12.3601"/>
</g>
<!-- 14&#45;&gt;1 -->
<g id="edge40" class="edge"><title>14&#45;&gt;1</title>
<path fill="none" stroke="black" d="M-54.5974,-78.4037C-44.6863,-71.177 -21.2846,-33.7217 -12.6705,-13.1386"/>
<polygon fill="black" stroke="black" points="-9.31013,-14.1225 -9.55178,-3.53041 -15.9682,-11.9613 -9.31013,-14.1225"/>
</g>
<!-- 13&#45;&gt;2 -->
<g id="edge39" class="edge"><title>13&#45;&gt;2</title>
<path fill="none" stroke="black" d="M19.778,36.1025C15.9581,26.09 17.4158,-8.47179 21.4758,-27.2064"/>
<polygon fill="black" stroke="black" points="18.2182,-28.5125 24.5793,-36.9852 24.8903,-26.3949 18.2182,-28.5125"/>
</g>
<!-- 3&#45;&gt;1 -->
<g id="edge11" class="edge"><title>3&#45;&gt;1</title>
<path fill="none" stroke="black" d="M-46.2201,8.2675C-41.1743,7.14165 -31.8024,5.05056 -23.8903,3.2852"/>
<polygon fill="black" stroke="black" points="-24.5389,-0.156079 -14.0166,1.08217 -23.0144,6.67593 -24.5389,-0.156079"/>
</g>
<!-- 3&#45;&gt;13 -->
<g id="edge10" class="edge"><title>3&#45;&gt;13</title>
<path fill="none" stroke="black" d="M-46.399,10.5208C-36.5247,14.6018 -7.93533,26.4176 9.06831,33.4451"/>
<polygon fill="black" stroke="black" points="10.7118,30.3372 18.6167,37.3915 8.03804,36.8064 10.7118,30.3372"/>
</g>
<!-- 6 -->
<g id="node10" class="node"><title>6</title>
<ellipse fill="black" stroke="black" cx="-56.5193" cy="73.1057" rx="3.6" ry="3.6"/>
</g>
<!-- 3&#45;&gt;6 -->
<g id="edge12" class="edge"><title>3&#45;&gt;6</title>
<path fill="none" stroke="black" d="M-50.2724,12.8965C-51.1976,21.8137 -53.5404,44.3945 -55.0793,59.2265"/>
<polygon fill="black" stroke="black" points="-51.6206,59.8074 -56.134,69.3928 -58.5833,59.0849 -51.6206,59.8074"/>
</g>
<!-- 8 -->
<g id="node11" class="node"><title>8</title>
<ellipse fill="black" stroke="black" cx="-22.9334" cy="65.9556" rx="3.6" ry="3.6"/>
</g>
<!-- 3&#45;&gt;8 -->
<g id="edge13" class="edge"><title>3&#45;&gt;8</title>
<path fill="none" stroke="black" d="M-48.2721,12.4707C-44.5569,20.3127 -35.2058,40.0509 -28.9627,53.2291"/>
<polygon fill="black" stroke="black" points="-25.6144,52.1216 -24.496,62.6573 -31.9404,55.1186 -25.6144,52.1216"/>
</g>
<!-- 4&#45;&gt;1 -->
<g id="edge15" class="edge"><title>4&#45;&gt;1</title>
<path fill="none" stroke="black" d="M79.3169,5.65837C66.3307,4.87315 25.1031,2.3803 3.40353,1.06823"/>
<polygon fill="black" stroke="black" points="3.01536,4.55124 -6.75513,0.45398 3.43791,-2.43599 3.01536,4.55124"/>
</g>
<!-- 4&#45;&gt;13 -->
<g id="edge14" class="edge"><title>4&#45;&gt;13</title>
<path fill="none" stroke="black" d="M79.6244,7.2132C73.7207,9.35395 61.898,13.87 52.4593,18.9206 45.9434,22.4072 39.0405,26.899 33.4785,30.7387"/>
<polygon fill="black" stroke="black" points="35.4603,33.6243 25.2884,36.588 31.392,27.9279 35.4603,33.6243"/>
</g>
<!-- 10 -->
<g id="node12" class="node"><title>10</title>
<ellipse fill="black" stroke="black" cx="61.0087" cy="-41.5625" rx="3.6" ry="3.6"/>
</g>
<!-- 4&#45;&gt;10 -->
<g id="edge16" class="edge"><title>4&#45;&gt;10</title>
<path fill="none" stroke="black" d="M81.7325,2.48804C78.6747,-4.01165 71.8775,-18.4598 66.8981,-29.0439"/>
<polygon fill="black" stroke="black" points="63.6901,-27.6413 62.6001,-38.1799 70.0241,-30.6212 63.6901,-27.6413"/>
</g>
<!-- 7 -->
<g id="node13" class="node"><title>7</title>
<ellipse fill="black" stroke="black" cx="62.6165" cy="73.6723" rx="3.6" ry="3.6"/>
</g>
<!-- 4&#45;&gt;7 -->
<g id="edge17" class="edge"><title>4&#45;&gt;7</title>
<path fill="none" stroke="black" d="M82.2243,9.54518C79.3571,18.9222 71.6091,44.2622 66.7551,60.1371"/>
<polygon fill="black" stroke="black" points="70.0072,61.4711 63.7361,70.0106 63.3131,59.4242 70.0072,61.4711"/>
</g>
<!-- 5&#45;&gt;1 -->
<g id="edge19" class="edge"><title>5&#45;&gt;1</title>
<path fill="none" stroke="black" d="M52.5816,21.3808C43.3936,18.2898 18.5642,9.93696 3.00922,4.70409"/>
<polygon fill="black" stroke="black" points="1.6967,7.95536 -6.66535,1.44947 3.92871,1.32073 1.6967,7.95536"/>
</g>
<!-- 5&#45;&gt;13 -->
<g id="edge18" class="edge"><title>5&#45;&gt;13</title>
<path fill="none" stroke="black" d="M52.7752,24.2046C48.6527,26.1859 41.4402,29.6521 35.0586,32.719"/>
<polygon fill="black" stroke="black" points="36.3249,35.9937 25.7957,37.1707 33.2928,29.6844 36.3249,35.9937"/>
</g>
<!-- 5&#45;&gt;8 -->
<g id="edge20" class="edge"><title>5&#45;&gt;8</title>
<path fill="none" stroke="black" d="M53.0652,24.8245C47.6942,28.6797 36.2182,36.7101 25.934,42.5339 14.0378,49.2704 -0.0982637,55.9057 -10.0985,60.3842"/>
<polygon fill="black" stroke="black" points="-8.72792,63.6049 -19.2918,64.4146 -11.5386,57.1939 -8.72792,63.6049"/>
</g>
<!-- 5&#45;&gt;7 -->
<g id="edge21" class="edge"><title>5&#45;&gt;7</title>
<path fill="none" stroke="black" d="M56.6168,26.2561C57.4927,33.1788 59.4286,48.478 60.8657,59.8361"/>
<polygon fill="black" stroke="black" points="64.3727,59.671 62.1558,70.0313 57.428,60.5498 64.3727,59.671"/>
</g>
<!-- 6&#45;&gt;1 -->
<g id="edge23" class="edge"><title>6&#45;&gt;1</title>
<path fill="none" stroke="black" d="M-54.5313,69.9749C-48.229,60.0496 -28.4713,28.9337 -17.6018,11.8155"/>
<polygon fill="black" stroke="black" points="-20.4974,9.84635 -12.1823,3.28055 -14.5881,13.5986 -20.4974,9.84635"/>
</g>
<!-- 6&#45;&gt;13 -->
<g id="edge22" class="edge"><title>6&#45;&gt;13</title>
<path fill="none" stroke="black" d="M-53.1355,71.6353C-42.506,67.0161 -9.3888,52.6247 9.21334,44.5409"/>
<polygon fill="black" stroke="black" points="8.02282,41.2421 18.5892,40.4665 10.8127,47.6622 8.02282,41.2421"/>
</g>
<!-- 9 -->
<g id="node14" class="node"><title>9</title>
<ellipse fill="black" stroke="black" cx="3.82322" cy="100.149" rx="3.6" ry="3.6"/>
</g>
<!-- 6&#45;&gt;9 -->
<g id="edge24" class="edge"><title>6&#45;&gt;9</title>
<path fill="none" stroke="black" d="M-52.9253,74.7165C-44.4366,78.5208 -22.8108,88.2129 -8.84112,94.4737"/>
<polygon fill="black" stroke="black" points="-7.37037,91.2973 0.323654,98.581 -10.2332,97.6851 -7.37037,91.2973"/>
</g>
<!-- 8&#45;&gt;1 -->
<g id="edge29" class="edge"><title>8&#45;&gt;1</title>
<path fill="none" stroke="black" d="M-22.1782,62.0417C-20.3776,52.7104 -15.764,28.8014 -12.8318,13.6057"/>
<polygon fill="black" stroke="black" points="-16.2579,12.8877 -10.9266,3.73198 -9.38473,14.214 -16.2579,12.8877"/>
</g>
<!-- 8&#45;&gt;13 -->
<g id="edge28" class="edge"><title>8&#45;&gt;13</title>
<path fill="none" stroke="black" d="M-19.6854,64.0087C-13.5008,60.3016 0.246835,52.0612 10.3179,46.0245"/>
<polygon fill="black" stroke="black" points="8.63431,42.9531 19.0109,40.8138 12.2332,48.9571 8.63431,42.9531"/>
</g>
<!-- 8&#45;&gt;9 -->
<g id="edge30" class="edge"><title>8&#45;&gt;9</title>
<path fill="none" stroke="black" d="M-20.4642,69.1112C-16.9065,73.6578 -10.1639,82.2745 -4.68412,89.2774"/>
<polygon fill="black" stroke="black" points="-1.81818,87.2605 1.58798,97.2929 -7.33102,91.5743 -1.81818,87.2605"/>
</g>
<!-- 10&#45;&gt;1 -->
<g id="edge34" class="edge"><title>10&#45;&gt;1</title>
<path fill="none" stroke="black" d="M57.5716,-39.5461C47.6279,-33.7128 18.4801,-16.6136 1.81039,-6.8345"/>
<polygon fill="black" stroke="black" points="3.38152,-3.69841 -7.01486,-1.65728 -0.160486,-9.73617 3.38152,-3.69841"/>
</g>
<!-- 10&#45;&gt;13 -->
<g id="edge33" class="edge"><title>10&#45;&gt;13</title>
<path fill="none" stroke="black" d="M59.3424,-38.1058C54.0351,-27.0957 37.3431,7.53173 28.2605,26.3734"/>
<polygon fill="black" stroke="black" points="31.3416,28.0421 23.8464,35.5303 25.036,25.0025 31.3416,28.0421"/>
</g>
<!-- 11 -->
<g id="node15" class="node"><title>11</title>
<ellipse fill="black" stroke="black" cx="10.7433" cy="-88.1682" rx="3.6" ry="3.6"/>
</g>
<!-- 10&#45;&gt;11 -->
<g id="edge35" class="edge"><title>10&#45;&gt;11</title>
<path fill="none" stroke="black" d="M58.3062,-44.0682C51.4163,-50.4565 32.907,-67.6182 21.1143,-78.5523"/>
<polygon fill="black" stroke="black" points="18.6626,-76.0525 13.7093,-85.4182 23.4219,-81.1856 18.6626,-76.0525"/>
</g>
<!-- 7&#45;&gt;1 -->
<g id="edge26" class="edge"><title>7&#45;&gt;1</title>
<path fill="none" stroke="black" d="M59.981,70.8339C53.9987,64.4081 38.9004,48.2869 25.8788,35.1801 17.2303,26.4752 7.18058,16.7914 -0.121304,9.83086"/>
<polygon fill="black" stroke="black" points="-2.74098,12.1701 -7.58845,2.74926 2.07593,7.09098 -2.74098,12.1701"/>
</g>
<!-- 7&#45;&gt;13 -->
<g id="edge25" class="edge"><title>7&#45;&gt;13</title>
<path fill="none" stroke="black" d="M59.7119,71.1704C54.2351,66.4529 42.1256,56.0223 33.1447,48.2865"/>
<polygon fill="black" stroke="black" points="30.6199,50.7312 25.3274,41.553 35.1884,45.4275 30.6199,50.7312"/>
</g>
<!-- 7&#45;&gt;9 -->
<g id="edge27" class="edge"><title>7&#45;&gt;9</title>
<path fill="none" stroke="black" d="M59.1148,75.2492C50.926,78.937 30.1894,88.2756 16.5689,94.4095"/>
<polygon fill="black" stroke="black" points="17.7882,97.6989 7.23294,98.6139 14.9138,91.3163 17.7882,97.6989"/>
</g>
<!-- 9&#45;&gt;1 -->
<g id="edge32" class="edge"><title>9&#45;&gt;1</title>
<path fill="none" stroke="black" d="M3.28859,96.355C1.39854,82.9404 -5.03,37.3141 -8.30349,14.0806"/>
<polygon fill="black" stroke="black" points="-11.7886,14.4313 -9.71807,4.04073 -4.85704,13.4546 -11.7886,14.4313"/>
</g>
<!-- 9&#45;&gt;13 -->
<g id="edge31" class="edge"><title>9&#45;&gt;13</title>
<path fill="none" stroke="black" d="M4.91949,96.5005C7.48315,87.9675 13.9751,66.3592 18.2393,52.1661"/>
<polygon fill="black" stroke="black" points="14.9327,51.0077 21.162,42.4377 21.6366,53.0219 14.9327,51.0077"/>
</g>
<!-- 11&#45;&gt;1 -->
<g id="edge37" class="edge"><title>11&#45;&gt;1</title>
<path fill="none" stroke="black" d="M9.84112,-84.3693C6.95403,-72.2125 -2.15518,-33.8562 -7.05681,-13.2168"/>
<polygon fill="black" stroke="black" points="-3.66177,-12.3645 -9.37776,-3.44387 -10.4723,-13.982 -3.66177,-12.3645"/>
</g>
<!-- 12 -->
<g id="node16" class="node"><title>12</title>
<ellipse fill="black" stroke="black" cx="71.2671" cy="-118.866" rx="3.6" ry="3.6"/>
</g>
<!-- 11&#45;&gt;12 -->
<g id="edge36" class="edge"><title>11&#45;&gt;12</title>
<path fill="none" stroke="black" d="M13.9973,-89.8186C22.2895,-94.0244 44.5596,-105.32 58.7599,-112.522"/>
<polygon fill="black" stroke="black" points="57.4953,-115.805 67.997,-117.207 60.6617,-109.562 57.4953,-115.805"/>
</g>
<!-- 12&#45;&gt;2 -->
<g id="edge38" class="edge"><title>12&#45;&gt;2</title>
<path fill="none" stroke="black" d="M69.3832,-115.456C63.3546,-104.544 44.3333,-70.1144 34.098,-51.5882"/>
<polygon fill="black" stroke="black" points="37.151,-49.8764 29.2515,-42.8159 31.0239,-53.2615 37.151,-49.8764"/>
</g>
</g>
</svg>
