<?xml version="1.0" encoding="UTF-8" standalone="no"?>
<!DOCTYPE svg PUBLIC "-//W3C//DTD SVG 1.1//EN"
 "http://www.w3.org/Graphics/SVG/1.1/DTD/svg11.dtd">
<!-- Generated by graphviz version 2.38.0 (20140413.2041)
 -->
<!-- Title: %3 Pages: 1 -->
<svg width="357pt" height="346pt"
 viewBox="0.00 0.00 356.79 346.30" xmlns="http://www.w3.org/2000/svg" xmlns:xlink="http://www.w3.org/1999/xlink">
<g id="graph0" class="graph" transform="scale(1 1) rotate(0) translate(159.934 172.386)">
<title>%3</title>
<polygon fill="white" stroke="none" points="-159.934,173.919 -159.934,-172.386 196.855,-172.386 196.855,173.919 -159.934,173.919"/>
<!-- 1 -->
<g id="node1" class="node"><title>1</title>
<ellipse fill="none" stroke="black" cx="-76.4093" cy="-50.2134" rx="3.5" ry="3.5"/>
</g>
<!-- 2 -->
<g id="node2" class="node"><title>2</title>
<ellipse fill="black" stroke="black" cx="-151.137" cy="-86.7757" rx="3.6" ry="3.6"/>
</g>
<!-- 1&#45;&gt;2 -->
<g id="edge1" class="edge"><title>1&#45;&gt;2</title>
<path fill="none" stroke="black" d="M-80.0515,-49.0674C-91.3339,-49.5836 -124.858,-65.0766 -141.58,-76.4431"/>
<polygon fill="black" stroke="black" points="-144.215,-74.0769 -149.739,-83.1177 -139.783,-79.495 -144.215,-74.0769"/>
</g>
<!-- 4 -->
<g id="node3" class="node"><title>4</title>
<ellipse fill="black" stroke="black" cx="-75.1513" cy="36.9197" rx="3.6" ry="3.6"/>
</g>
<!-- 1&#45;&gt;4 -->
<g id="edge2" class="edge"><title>1&#45;&gt;4</title>
<path fill="none" stroke="black" d="M-73.9096,-47.7352C-69.0257,-37.3098 -67.6243,3.41107 -70.4286,24.3431"/>
<polygon fill="black" stroke="black" points="-67.0344,25.2027 -72.6471,34.1888 -73.8632,23.664 -67.0344,25.2027"/>
</g>
<!-- 2&#45;&gt;1 -->
<g id="edge3" class="edge"><title>2&#45;&gt;1</title>
<path fill="none" stroke="black" d="M-147.495,-87.9217C-136.112,-87.401 -102.088,-71.6347 -85.5231,-60.2426"/>
<polygon fill="black" stroke="black" points="-82.9972,-62.6928 -77.5722,-53.5922 -87.4883,-57.3234 -82.9972,-62.6928"/>
</g>
<!-- 3 -->
<g id="node4" class="node"><title>3</title>
<ellipse fill="black" stroke="black" cx="-129.601" cy="-17.7963" rx="3.6" ry="3.6"/>
</g>
<!-- 2&#45;&gt;3 -->
<g id="edge4" class="edge"><title>2&#45;&gt;3</title>
<path fill="none" stroke="black" d="M-149.979,-83.0671C-146.97,-73.4293 -138.788,-47.2237 -133.754,-31.1005"/>
<polygon fill="black" stroke="black" points="-130.404,-32.112 -130.764,-21.5233 -137.086,-30.0257 -130.404,-32.112"/>
</g>
<!-- 4&#45;&gt;1 -->
<g id="edge9" class="edge"><title>4&#45;&gt;1</title>
<path fill="none" stroke="black" d="M-77.823,34.0586C-82.5603,23.0716 -83.899,-16.8303 -81.1447,-37.5418"/>
<polygon fill="black" stroke="black" points="-84.5073,-38.5416 -78.8947,-47.5277 -77.6785,-37.0029 -84.5073,-38.5416"/>
</g>
<!-- 5 -->
<g id="node5" class="node"><title>5</title>
<ellipse fill="black" stroke="black" cx="-152.334" cy="77.497" rx="3.6" ry="3.6"/>
</g>
<!-- 4&#45;&gt;5 -->
<g id="edge7" class="edge"><title>4&#45;&gt;5</title>
<path fill="none" stroke="black" d="M-76.4954,40.5978C-84.1559,49.7975 -119.156,69.0596 -138.884,75.982"/>
<polygon fill="black" stroke="black" points="-138.259,79.4343 -148.813,78.4972 -139.978,72.6486 -138.259,79.4343"/>
</g>
<!-- 7 -->
<g id="node6" class="node"><title>7</title>
<ellipse fill="black" stroke="black" cx="-24.9382" cy="102.207" rx="3.6" ry="3.6"/>
</g>
<!-- 4&#45;&gt;7 -->
<g id="edge8" class="edge"><title>4&#45;&gt;7</title>
<path fill="none" stroke="black" d="M-71.3958,37.4885C-61.5791,42.8794 -38.6464,71.3568 -28.8334,88.8086"/>
<polygon fill="black" stroke="black" points="-25.4603,87.7757 -24.5492,98.3313 -31.844,90.6478 -25.4603,87.7757"/>
</g>
<!-- 3&#45;&gt;1 -->
<g id="edge5" class="edge"><title>3&#45;&gt;1</title>
<path fill="none" stroke="black" d="M-126.433,-19.7271C-119.098,-24.197 -100.637,-35.4478 -88.3121,-42.9593"/>
<polygon fill="black" stroke="black" points="-89.8548,-46.1179 -79.4941,-48.3334 -86.2118,-40.1405 -89.8548,-46.1179"/>
</g>
<!-- 3&#45;&gt;4 -->
<g id="edge6" class="edge"><title>3&#45;&gt;4</title>
<path fill="none" stroke="black" d="M-126.974,-15.1573C-119.518,-7.66441 -97.9296,14.0299 -85.0897,26.9327"/>
<polygon fill="black" stroke="black" points="-82.4523,24.6211 -77.8794,34.1783 -87.4142,29.5587 -82.4523,24.6211"/>
</g>
<!-- 5&#45;&gt;4 -->
<g id="edge10" class="edge"><title>5&#45;&gt;4</title>
<path fill="none" stroke="black" d="M-150.99,73.819C-143.329,64.6193 -108.329,45.3572 -88.6015,38.4348"/>
<polygon fill="black" stroke="black" points="-89.2259,34.9825 -78.6726,35.9195 -87.5068,41.7681 -89.2259,34.9825"/>
</g>
<!-- 6 -->
<g id="node7" class="node"><title>6</title>
<ellipse fill="black" stroke="black" cx="-95.5847" cy="107.009" rx="3.6" ry="3.6"/>
</g>
<!-- 5&#45;&gt;6 -->
<g id="edge11" class="edge"><title>5&#45;&gt;6</title>
<path fill="none" stroke="black" d="M-148.954,79.2548C-141.05,83.3652 -121.034,93.7741 -107.887,100.611"/>
<polygon fill="black" stroke="black" points="-106.133,97.5783 -98.8759,105.297 -109.363,103.789 -106.133,97.5783"/>
</g>
<!-- 7&#45;&gt;4 -->
<g id="edge16" class="edge"><title>7&#45;&gt;4</title>
<path fill="none" stroke="black" d="M-28.6937,101.638C-38.5104,96.2475 -61.4431,67.7701 -71.256,50.3183"/>
<polygon fill="black" stroke="black" points="-74.6292,51.3512 -75.5403,40.7956 -68.2455,48.4792 -74.6292,51.3512"/>
</g>
<!-- 8 -->
<g id="node8" class="node"><title>8</title>
<ellipse fill="black" stroke="black" cx="-3.34322" cy="166.319" rx="3.6" ry="3.6"/>
</g>
<!-- 7&#45;&gt;8 -->
<g id="edge14" class="edge"><title>7&#45;&gt;8</title>
<path fill="none" stroke="black" d="M-21.4708,103.751C-14.7612,110.501 -5.07256,136.589 -2.21097,152.902"/>
<polygon fill="black" stroke="black" points="1.28828,152.772 -1.51588,162.989 -5.69516,153.254 1.28828,152.772"/>
</g>
<!-- 10 -->
<g id="node9" class="node"><title>10</title>
<ellipse fill="black" stroke="black" cx="66.3723" cy="89.7344" rx="3.6" ry="3.6"/>
</g>
<!-- 7&#45;&gt;10 -->
<g id="edge15" class="edge"><title>7&#45;&gt;10</title>
<path fill="none" stroke="black" d="M-22.6373,99.4063C-12.1838,93.1567 31.0967,86.4535 53.2263,86.6701"/>
<polygon fill="black" stroke="black" points="53.5726,83.1871 63.2047,87.6001 52.923,90.1569 53.5726,83.1871"/>
</g>
<!-- 6&#45;&gt;4 -->
<g id="edge12" class="edge"><title>6&#45;&gt;4</title>
<path fill="none" stroke="black" d="M-94.4861,103.241C-91.6312,93.4477 -83.8684,66.8205 -79.0923,50.4379"/>
<polygon fill="black" stroke="black" points="-82.4144,49.3274 -76.2553,40.7067 -75.6941,51.2866 -82.4144,49.3274"/>
</g>
<!-- 6&#45;&gt;7 -->
<g id="edge13" class="edge"><title>6&#45;&gt;7</title>
<path fill="none" stroke="black" d="M-91.7865,106.751C-82.0116,106.086 -55.5963,104.291 -39.0477,103.166"/>
<polygon fill="black" stroke="black" points="-38.9696,99.6529 -28.7552,102.467 -38.4948,106.637 -38.9696,99.6529"/>
</g>
<!-- 8&#45;&gt;7 -->
<g id="edge17" class="edge"><title>8&#45;&gt;7</title>
<path fill="none" stroke="black" d="M-6.81053,164.775C-13.5202,158.025 -23.2088,131.937 -26.0704,115.624"/>
<polygon fill="black" stroke="black" points="-29.5697,115.754 -26.7655,105.537 -22.5862,115.272 -29.5697,115.754"/>
</g>
<!-- 9 -->
<g id="node10" class="node"><title>9</title>
<ellipse fill="black" stroke="black" cx="2.00705" cy="70.9478" rx="3.6" ry="3.6"/>
</g>
<!-- 8&#45;&gt;9 -->
<g id="edge18" class="edge"><title>8&#45;&gt;9</title>
<path fill="none" stroke="black" d="M-3.14002,162.696C-2.42825,150.009 -0.0231227,107.136 1.23127,84.7763"/>
<polygon fill="black" stroke="black" points="-2.25107,84.3619 1.80364,74.5736 4.73794,84.754 -2.25107,84.3619"/>
</g>
<!-- 10&#45;&gt;7 -->
<g id="edge23" class="edge"><title>10&#45;&gt;7</title>
<path fill="none" stroke="black" d="M64.0715,92.5353C53.6179,98.7849 10.3375,105.488 -11.7921,105.271"/>
<polygon fill="black" stroke="black" points="-12.1385,108.754 -21.7705,104.342 -11.4889,101.785 -12.1385,108.754"/>
</g>
<!-- 11 -->
<g id="node11" class="node"><title>11</title>
<ellipse fill="black" stroke="black" cx="141.239" cy="55.0918" rx="3.6" ry="3.6"/>
</g>
<!-- 10&#45;&gt;11 -->
<g id="edge22" class="edge"><title>10&#45;&gt;11</title>
<path fill="none" stroke="black" d="M67.7588,86.1948C75.2309,77.761 108.393,61.5311 127.567,55.8654"/>
<polygon fill="black" stroke="black" points="127.047,52.4 137.54,53.86 128.427,59.2626 127.047,52.4"/>
</g>
<!-- 9&#45;&gt;4 -->
<g id="edge21" class="edge"><title>9&#45;&gt;4</title>
<path fill="none" stroke="black" d="M-1.30835,69.4857C-11.7232,64.8926 -44.1716,50.5823 -62.398,42.5441"/>
<polygon fill="black" stroke="black" points="-63.8472,45.7304 -71.5846,38.4927 -61.0225,39.3256 -63.8472,45.7304"/>
</g>
<!-- 9&#45;&gt;7 -->
<g id="edge19" class="edge"><title>9&#45;&gt;7</title>
<path fill="none" stroke="black" d="M-0.479597,73.8326C-3.91094,77.8133 -10.2841,85.2069 -15.6646,91.4488"/>
<polygon fill="black" stroke="black" points="-13.1988,93.949 -22.3789,99.2382 -18.5009,89.3786 -13.1988,93.949"/>
</g>
<!-- 9&#45;&gt;10 -->
<g id="edge20" class="edge"><title>9&#45;&gt;10</title>
<path fill="none" stroke="black" d="M5.4676,71.9579C14.2861,74.5318 37.9696,81.4444 53.0712,85.8522"/>
<polygon fill="black" stroke="black" points="54.2758,82.5577 62.8946,88.7194 52.3145,89.2773 54.2758,82.5577"/>
</g>
<!-- 11&#45;&gt;10 -->
<g id="edge25" class="edge"><title>11&#45;&gt;10</title>
<path fill="none" stroke="black" d="M139.853,58.6314C132.381,67.0652 99.2185,83.2951 80.0449,88.9608"/>
<polygon fill="black" stroke="black" points="80.5649,92.4262 70.0712,90.9662 79.185,85.5636 80.5649,92.4262"/>
</g>
<!-- 12 -->
<g id="node12" class="node"><title>12</title>
<ellipse fill="black" stroke="black" cx="187.069" cy="-14.4476" rx="3.6" ry="3.6"/>
</g>
<!-- 11&#45;&gt;12 -->
<g id="edge24" class="edge"><title>11&#45;&gt;12</title>
<path fill="none" stroke="black" d="M140.568,51.3308C142.523,40.1966 162.18,8.88459 175.595,-6.27156"/>
<polygon fill="black" stroke="black" points="173.591,-9.19363 183.261,-13.5239 178.402,-4.10877 173.591,-9.19363"/>
</g>
<!-- 12&#45;&gt;11 -->
<g id="edge27" class="edge"><title>12&#45;&gt;11</title>
<path fill="none" stroke="black" d="M187.74,-10.6866C185.785,0.447591 166.128,31.7596 152.713,46.9157"/>
<polygon fill="black" stroke="black" points="154.717,49.8378 145.047,54.168 149.906,44.7529 154.717,49.8378"/>
</g>
<!-- 13 -->
<g id="node13" class="node"><title>13</title>
<ellipse fill="black" stroke="black" cx="181.546" cy="-98.0235" rx="3.6" ry="3.6"/>
</g>
<!-- 12&#45;&gt;13 -->
<g id="edge26" class="edge"><title>12&#45;&gt;13</title>
<path fill="none" stroke="black" d="M184.261,-17.055C179.038,-27.2638 175.76,-64.9135 177.393,-85.0771"/>
<polygon fill="black" stroke="black" points="173.948,-85.6967 179.071,-94.9705 180.849,-84.5259 173.948,-85.6967"/>
</g>
<!-- 13&#45;&gt;12 -->
<g id="edge29" class="edge"><title>13&#45;&gt;12</title>
<path fill="none" stroke="black" d="M184.354,-95.4161C189.577,-85.2073 192.855,-47.5576 191.222,-27.394"/>
<polygon fill="black" stroke="black" points="194.667,-26.7744 189.544,-17.5006 187.766,-27.9452 194.667,-26.7744"/>
</g>
<!-- 14 -->
<g id="node14" class="node"><title>14</title>
<ellipse fill="black" stroke="black" cx="122.072" cy="-156.9" rx="3.6" ry="3.6"/>
</g>
<!-- 13&#45;&gt;14 -->
<g id="edge28" class="edge"><title>13&#45;&gt;14</title>
<path fill="none" stroke="black" d="M178.678,-100.863C170.379,-109.079 146.053,-133.161 132.14,-146.933"/>
<polygon fill="black" stroke="black" points="129.419,-144.702 124.775,-154.225 134.344,-149.677 129.419,-144.702"/>
</g>
<!-- 15 -->
<g id="node15" class="node"><title>15</title>
<ellipse fill="black" stroke="black" cx="39.0342" cy="-162.073" rx="3.6" ry="3.6"/>
</g>
<!-- 14&#45;&gt;15 -->
<g id="edge30" class="edge"><title>14&#45;&gt;15</title>
<path fill="none" stroke="black" d="M119.146,-154.447C108.474,-150.587 71.2684,-152.1 51.5384,-156.245"/>
<polygon fill="black" stroke="black" points="50.2753,-152.97 41.7264,-159.229 52.3122,-159.667 50.2753,-152.97"/>
</g>
<!-- 15&#45;&gt;14 -->
<g id="edge31" class="edge"><title>15&#45;&gt;14</title>
<path fill="none" stroke="black" d="M41.9605,-164.526C52.6325,-168.386 89.8381,-166.873 109.568,-162.729"/>
<polygon fill="black" stroke="black" points="110.831,-166.003 119.38,-159.744 108.794,-159.306 110.831,-166.003"/>
</g>
<!-- 16 -->
<g id="node16" class="node"><title>16</title>
<ellipse fill="black" stroke="black" cx="-30.8415" cy="-119.496" rx="3.6" ry="3.6"/>
</g>
<!-- 15&#45;&gt;16 -->
<g id="edge32" class="edge"><title>15&#45;&gt;16</title>
<path fill="none" stroke="black" d="M38.0778,-158.41C31.6837,-149.226 0.835573,-129.488 -17.4333,-121.764"/>
<polygon fill="black" stroke="black" points="-16.4551,-118.402 -27.0463,-118.68 -18.5935,-125.068 -16.4551,-118.402"/>
</g>
<!-- 16&#45;&gt;1 -->
<g id="edge34" class="edge"><title>16&#45;&gt;1</title>
<path fill="none" stroke="black" d="M-33.0393,-116.154C-39.3978,-106.487 -58.036,-78.1486 -68.6953,-61.9419"/>
<polygon fill="black" stroke="black" points="-65.9192,-59.7934 -74.3386,-53.3618 -71.7676,-63.64 -65.9192,-59.7934"/>
</g>
<!-- 16&#45;&gt;15 -->
<g id="edge33" class="edge"><title>16&#45;&gt;15</title>
<path fill="none" stroke="black" d="M-29.8852,-123.158C-23.4911,-132.343 7.35708,-152.08 25.626,-159.804"/>
<polygon fill="black" stroke="black" points="24.6477,-163.166 35.2389,-162.888 26.7861,-156.501 24.6477,-163.166"/>
</g>
</g>
</svg>
