<?xml version="1.0" encoding="UTF-8" standalone="no"?>
<!DOCTYPE svg PUBLIC "-//W3C//DTD SVG 1.1//EN"
 "http://www.w3.org/Graphics/SVG/1.1/DTD/svg11.dtd">
<!-- Generated by graphviz version 2.38.0 (20140413.2041)
 -->
<!-- Title: %3 Pages: 1 -->
<svg width="362pt" height="351pt"
 viewBox="0.00 0.00 361.80 350.79" xmlns="http://www.w3.org/2000/svg" xmlns:xlink="http://www.w3.org/1999/xlink">
<g id="graph0" class="graph" transform="scale(1 1) rotate(0) translate(163.534 173.273)">
<title>%3</title>
<polygon fill="white" stroke="none" points="-163.534,177.519 -163.534,-173.273 198.269,-173.273 198.269,177.519 -163.534,177.519"/>
<!-- 1 -->
<g id="node1" class="node"><title>1</title>
<ellipse fill="none" stroke="black" cx="-76.4093" cy="-50.2134" rx="7" ry="7"/>
</g>
<!-- 2 -->
<g id="node2" class="node"><title>2</title>
<ellipse fill="black" stroke="black" cx="-151.137" cy="-86.7757" rx="7.2" ry="7.2"/>
</g>
<!-- 1&#45;&gt;2 -->
<g id="edge1" class="edge"><title>1&#45;&gt;2</title>
<path fill="none" stroke="black" d="M-83.4109,-49.5167C-96.1842,-52.0527 -123.033,-64.5244 -138.867,-74.6561"/>
<polygon fill="black" stroke="black" points="-140.997,-71.8766 -147.078,-80.5524 -136.914,-77.5626 -140.997,-71.8766"/>
</g>
<!-- 4 -->
<g id="node3" class="node"><title>4</title>
<ellipse fill="black" stroke="black" cx="-75.1513" cy="36.9197" rx="7.2" ry="7.2"/>
</g>
<!-- 1&#45;&gt;4 -->
<g id="edge2" class="edge"><title>1&#45;&gt;4</title>
<path fill="none" stroke="black" d="M-72.6915,-44.2768C-69.0449,-31.0847 -67.9974,1.05027 -70.0028,20.7076"/>
<polygon fill="black" stroke="black" points="-66.5462,21.2578 -71.5398,30.6021 -73.4633,20.1833 -66.5462,21.2578"/>
</g>
<!-- 2&#45;&gt;1 -->
<g id="edge3" class="edge"><title>2&#45;&gt;1</title>
<path fill="none" stroke="black" d="M-143.862,-87.417C-130.951,-84.7534 -104.273,-72.333 -88.5656,-62.2599"/>
<polygon fill="black" stroke="black" points="-86.4958,-65.0825 -80.4247,-56.3996 -90.5854,-59.4013 -86.4958,-65.0825"/>
</g>
<!-- 3 -->
<g id="node4" class="node"><title>3</title>
<ellipse fill="black" stroke="black" cx="-129.601" cy="-17.7963" rx="7.2" ry="7.2"/>
</g>
<!-- 2&#45;&gt;3 -->
<g id="edge4" class="edge"><title>2&#45;&gt;3</title>
<path fill="none" stroke="black" d="M-148.914,-79.6535C-145.625,-69.1203 -139.369,-49.0827 -134.867,-34.6637"/>
<polygon fill="black" stroke="black" points="-131.484,-35.5718 -131.845,-24.9831 -138.166,-33.4856 -131.484,-35.5718"/>
</g>
<!-- 4&#45;&gt;1 -->
<g id="edge9" class="edge"><title>4&#45;&gt;1</title>
<path fill="none" stroke="black" d="M-78.9443,30.7068C-82.5214,17.3793 -83.5444,-14.3269 -81.5721,-33.8602"/>
<polygon fill="black" stroke="black" points="-84.9986,-34.6048 -80.0078,-43.9506 -78.0812,-33.5324 -84.9986,-34.6048"/>
</g>
<!-- 5 -->
<g id="node5" class="node"><title>5</title>
<ellipse fill="black" stroke="black" cx="-152.334" cy="77.497" rx="7.2" ry="7.2"/>
</g>
<!-- 4&#45;&gt;5 -->
<g id="edge7" class="edge"><title>4&#45;&gt;5</title>
<path fill="none" stroke="black" d="M-78.979,43.1155C-89.2529,52.3404 -117.083,67.6098 -135.405,74.696"/>
<polygon fill="black" stroke="black" points="-134.524,78.0903 -145.117,77.8701 -136.699,71.4366 -134.524,78.0903"/>
</g>
<!-- 7 -->
<g id="node6" class="node"><title>7</title>
<ellipse fill="black" stroke="black" cx="-24.9382" cy="102.207" rx="7.2" ry="7.2"/>
</g>
<!-- 4&#45;&gt;7 -->
<g id="edge8" class="edge"><title>4&#45;&gt;7</title>
<path fill="none" stroke="black" d="M-68.1649,39.6998C-57.8927,47.8115 -40.0546,70.0863 -30.5816,85.8109"/>
<polygon fill="black" stroke="black" points="-27.3114,84.5077 -25.7281,94.9835 -33.4987,87.7816 -27.3114,84.5077"/>
</g>
<!-- 3&#45;&gt;1 -->
<g id="edge5" class="edge"><title>3&#45;&gt;1</title>
<path fill="none" stroke="black" d="M-123.078,-21.7713C-115.258,-26.5374 -101.901,-34.6776 -91.4755,-41.0314"/>
<polygon fill="black" stroke="black" points="-93.015,-44.192 -82.6543,-46.4074 -89.372,-38.2145 -93.015,-44.192"/>
</g>
<!-- 3&#45;&gt;4 -->
<g id="edge6" class="edge"><title>3&#45;&gt;4</title>
<path fill="none" stroke="black" d="M-124.181,-12.3499C-115.696,-3.82337 -99.0559,12.898 -87.5301,24.4804"/>
<polygon fill="black" stroke="black" points="-84.8039,22.258 -80.231,31.8152 -89.7657,27.1957 -84.8039,22.258"/>
</g>
<!-- 5&#45;&gt;4 -->
<g id="edge10" class="edge"><title>5&#45;&gt;4</title>
<path fill="none" stroke="black" d="M-148.506,71.3012C-138.232,62.0764 -110.403,46.807 -92.08,39.7208"/>
<polygon fill="black" stroke="black" points="-92.9608,36.3265 -82.3682,36.5467 -90.7861,42.9801 -92.9608,36.3265"/>
</g>
<!-- 6 -->
<g id="node7" class="node"><title>6</title>
<ellipse fill="black" stroke="black" cx="-95.5847" cy="107.009" rx="7.2" ry="7.2"/>
</g>
<!-- 5&#45;&gt;6 -->
<g id="edge11" class="edge"><title>5&#45;&gt;6</title>
<path fill="none" stroke="black" d="M-145.824,80.8824C-137.443,85.2409 -122.604,92.9576 -111.219,98.8784"/>
<polygon fill="black" stroke="black" points="-109.276,95.9439 -102.019,103.663 -112.506,102.154 -109.276,95.9439"/>
</g>
<!-- 7&#45;&gt;4 -->
<g id="edge16" class="edge"><title>7&#45;&gt;4</title>
<path fill="none" stroke="black" d="M-31.9245,99.4271C-42.1968,91.3155 -60.0349,69.0406 -69.5079,53.3161"/>
<polygon fill="black" stroke="black" points="-72.778,54.6193 -74.3614,44.1434 -66.5908,51.3454 -72.778,54.6193"/>
</g>
<!-- 8 -->
<g id="node8" class="node"><title>8</title>
<ellipse fill="black" stroke="black" cx="-3.34322" cy="166.319" rx="7.2" ry="7.2"/>
</g>
<!-- 7&#45;&gt;8 -->
<g id="edge14" class="edge"><title>7&#45;&gt;8</title>
<path fill="none" stroke="black" d="M-19.0472,106.811C-13.1413,115.606 -6.0139,134.961 -2.93086,149.241"/>
<polygon fill="black" stroke="black" points="0.556833,148.899 -1.42599,159.307 -6.36622,149.934 0.556833,148.899"/>
</g>
<!-- 10 -->
<g id="node9" class="node"><title>10</title>
<ellipse fill="black" stroke="black" cx="66.3723" cy="89.7344" rx="7.2" ry="7.2"/>
</g>
<!-- 7&#45;&gt;10 -->
<g id="edge15" class="edge"><title>7&#45;&gt;10</title>
<path fill="none" stroke="black" d="M-19.1535,97.7516C-5.61629,92.3813 28.5048,87.1539 49.3304,86.6973"/>
<polygon fill="black" stroke="black" points="49.663,83.2052 59.5593,86.9887 49.4636,90.2024 49.663,83.2052"/>
</g>
<!-- 6&#45;&gt;4 -->
<g id="edge12" class="edge"><title>6&#45;&gt;4</title>
<path fill="none" stroke="black" d="M-93.5508,100.032C-90.4297,89.3265 -84.3684,68.5353 -80.0561,53.7436"/>
<polygon fill="black" stroke="black" points="-83.3361,52.4889 -77.177,43.8682 -76.6158,54.4481 -83.3361,52.4889"/>
</g>
<!-- 6&#45;&gt;7 -->
<g id="edge13" class="edge"><title>6&#45;&gt;7</title>
<path fill="none" stroke="black" d="M-88.2904,106.513C-77.6084,105.787 -57.3821,104.412 -42.6492,103.411"/>
<polygon fill="black" stroke="black" points="-42.513,99.8937 -32.2987,102.707 -42.0383,106.878 -42.513,99.8937"/>
</g>
<!-- 8&#45;&gt;7 -->
<g id="edge17" class="edge"><title>8&#45;&gt;7</title>
<path fill="none" stroke="black" d="M-9.2342,161.715C-15.1401,152.919 -22.2675,133.565 -25.3505,119.285"/>
<polygon fill="black" stroke="black" points="-28.8382,119.627 -26.8554,109.219 -21.9152,118.592 -28.8382,119.627"/>
</g>
<!-- 9 -->
<g id="node10" class="node"><title>9</title>
<ellipse fill="black" stroke="black" cx="2.00705" cy="70.9478" rx="7.2" ry="7.2"/>
</g>
<!-- 8&#45;&gt;9 -->
<g id="edge18" class="edge"><title>8&#45;&gt;9</title>
<path fill="none" stroke="black" d="M-2.92339,158.835C-2.07951,143.793 -0.157743,109.536 1.02179,88.5104"/>
<polygon fill="black" stroke="black" points="-2.46554,88.1849 1.58917,78.3967 4.52347,88.577 -2.46554,88.1849"/>
</g>
<!-- 10&#45;&gt;7 -->
<g id="edge23" class="edge"><title>10&#45;&gt;7</title>
<path fill="none" stroke="black" d="M60.5877,94.19C47.0504,99.5603 12.9294,104.788 -7.89631,105.244"/>
<polygon fill="black" stroke="black" points="-8.22886,108.736 -18.1251,104.953 -8.02948,101.739 -8.22886,108.736"/>
</g>
<!-- 11 -->
<g id="node11" class="node"><title>11</title>
<ellipse fill="black" stroke="black" cx="141.239" cy="55.0918" rx="7.2" ry="7.2"/>
</g>
<!-- 10&#45;&gt;11 -->
<g id="edge22" class="edge"><title>10&#45;&gt;11</title>
<path fill="none" stroke="black" d="M70.6331,83.5283C80.8275,75.2882 106.527,62.7796 123.979,56.9934"/>
<polygon fill="black" stroke="black" points="123.443,53.5124 134.01,54.2742 125.274,60.2686 123.443,53.5124"/>
</g>
<!-- 9&#45;&gt;4 -->
<g id="edge21" class="edge"><title>9&#45;&gt;4</title>
<path fill="none" stroke="black" d="M-4.84024,67.9281C-16.8211,62.6443 -41.9022,51.5831 -58.6376,44.2025"/>
<polygon fill="black" stroke="black" points="-60.4711,47.2193 -68.2085,39.9816 -57.6464,40.8145 -60.4711,47.2193"/>
</g>
<!-- 9&#45;&gt;7 -->
<g id="edge19" class="edge"><title>9&#45;&gt;7</title>
<path fill="none" stroke="black" d="M-2.93512,76.6813C-5.89777,80.1183 -9.79534,84.6399 -13.4859,88.9214"/>
<polygon fill="black" stroke="black" points="-10.8472,91.2208 -20.0273,96.5101 -16.1493,86.6505 -10.8472,91.2208"/>
</g>
<!-- 9&#45;&gt;10 -->
<g id="edge20" class="edge"><title>9&#45;&gt;10</title>
<path fill="none" stroke="black" d="M9.39056,73.1029C19.0904,75.934 36.4166,80.9911 49.4253,84.788"/>
<polygon fill="black" stroke="black" points="50.4561,81.4428 59.0749,87.6045 48.4948,88.1624 50.4561,81.4428"/>
</g>
<!-- 11&#45;&gt;10 -->
<g id="edge25" class="edge"><title>11&#45;&gt;10</title>
<path fill="none" stroke="black" d="M136.978,61.2979C126.784,69.538 101.085,82.0466 83.6327,87.8328"/>
<polygon fill="black" stroke="black" points="84.1687,91.3138 73.6013,90.552 82.3373,84.5576 84.1687,91.3138"/>
</g>
<!-- 12 -->
<g id="node12" class="node"><title>12</title>
<ellipse fill="black" stroke="black" cx="187.069" cy="-14.4476" rx="7.2" ry="7.2"/>
</g>
<!-- 11&#45;&gt;12 -->
<g id="edge24" class="edge"><title>11&#45;&gt;12</title>
<path fill="none" stroke="black" d="M141.533,47.7886C145.827,35.3106 161.561,10.404 173.563,-3.90949"/>
<polygon fill="black" stroke="black" points="171.033,-6.32914 180.418,-11.2469 176.148,-1.55033 171.033,-6.32914"/>
</g>
<!-- 12&#45;&gt;11 -->
<g id="edge27" class="edge"><title>12&#45;&gt;11</title>
<path fill="none" stroke="black" d="M186.775,-7.14444C182.481,5.33356 166.747,30.2402 154.745,44.5536"/>
<polygon fill="black" stroke="black" points="157.274,46.9733 147.89,51.891 152.159,42.1945 157.274,46.9733"/>
</g>
<!-- 13 -->
<g id="node13" class="node"><title>13</title>
<ellipse fill="black" stroke="black" cx="181.546" cy="-98.0235" rx="7.2" ry="7.2"/>
</g>
<!-- 12&#45;&gt;13 -->
<g id="edge26" class="edge"><title>12&#45;&gt;13</title>
<path fill="none" stroke="black" d="M182.888,-20.4806C178.767,-33.0907 176.246,-62.6113 177.156,-81.374"/>
<polygon fill="black" stroke="black" points="173.684,-81.8263 178.182,-91.4188 180.648,-81.1148 173.684,-81.8263"/>
</g>
<!-- 13&#45;&gt;12 -->
<g id="edge29" class="edge"><title>13&#45;&gt;12</title>
<path fill="none" stroke="black" d="M185.727,-91.9905C189.848,-79.3804 192.369,-49.8598 191.459,-31.0971"/>
<polygon fill="black" stroke="black" points="194.931,-30.6448 190.433,-21.0523 187.967,-31.3563 194.931,-30.6448"/>
</g>
<!-- 14 -->
<g id="node14" class="node"><title>14</title>
<ellipse fill="black" stroke="black" cx="122.072" cy="-156.9" rx="7.2" ry="7.2"/>
</g>
<!-- 13&#45;&gt;14 -->
<g id="edge28" class="edge"><title>13&#45;&gt;14</title>
<path fill="none" stroke="black" d="M176.058,-103.457C166.716,-112.704 147.497,-131.731 134.695,-144.405"/>
<polygon fill="black" stroke="black" points="132.021,-142.127 127.376,-151.649 136.945,-147.101 132.021,-142.127"/>
</g>
<!-- 15 -->
<g id="node15" class="node"><title>15</title>
<ellipse fill="black" stroke="black" cx="39.0342" cy="-162.073" rx="7.2" ry="7.2"/>
</g>
<!-- 14&#45;&gt;15 -->
<g id="edge30" class="edge"><title>14&#45;&gt;15</title>
<path fill="none" stroke="black" d="M115.596,-153.523C102.648,-151.042 73.2452,-152.304 54.8771,-155.597"/>
<polygon fill="black" stroke="black" points="54.0446,-152.197 45.1122,-157.895 55.648,-159.011 54.0446,-152.197"/>
</g>
<!-- 15&#45;&gt;14 -->
<g id="edge31" class="edge"><title>15&#45;&gt;14</title>
<path fill="none" stroke="black" d="M45.5101,-165.45C58.458,-167.932 87.8613,-166.669 106.229,-163.376"/>
<polygon fill="black" stroke="black" points="107.062,-166.776 115.994,-161.078 105.458,-159.962 107.062,-166.776"/>
</g>
<!-- 16 -->
<g id="node16" class="node"><title>16</title>
<ellipse fill="black" stroke="black" cx="-30.8415" cy="-119.496" rx="7.2" ry="7.2"/>
</g>
<!-- 15&#45;&gt;16 -->
<g id="edge32" class="edge"><title>15&#45;&gt;16</title>
<path fill="none" stroke="black" d="M35.5508,-155.45C26.4466,-146.159 2.5323,-130.931 -14.0228,-123.277"/>
<polygon fill="black" stroke="black" points="-13.0233,-119.908 -23.6094,-119.479 -15.6017,-126.416 -13.0233,-119.908"/>
</g>
<!-- 16&#45;&gt;1 -->
<g id="edge34" class="edge"><title>16&#45;&gt;1</title>
<path fill="none" stroke="black" d="M-35.0467,-113.102C-42.2039,-102.22 -56.9293,-79.8313 -66.7384,-64.9174"/>
<polygon fill="black" stroke="black" points="-63.9261,-62.8238 -72.3454,-56.3922 -69.7745,-66.6704 -63.9261,-62.8238"/>
</g>
<!-- 16&#45;&gt;15 -->
<g id="edge33" class="edge"><title>16&#45;&gt;15</title>
<path fill="none" stroke="black" d="M-27.3582,-126.119C-18.2539,-135.41 5.66035,-150.637 22.2154,-158.292"/>
<polygon fill="black" stroke="black" points="21.216,-161.661 31.8021,-162.09 23.7944,-155.153 21.216,-161.661"/>
</g>
</g>
</svg>
