<?xml version="1.0" encoding="UTF-8" standalone="no"?>
<!DOCTYPE svg PUBLIC "-//W3C//DTD SVG 1.1//EN"
 "http://www.w3.org/Graphics/SVG/1.1/DTD/svg11.dtd">
<!-- Generated by graphviz version 2.38.0 (20140413.2041)
 -->
<!-- Title: %3 Pages: 1 -->
<svg width="293pt" height="202pt"
 viewBox="0.00 0.00 292.80 201.98" xmlns="http://www.w3.org/2000/svg" xmlns:xlink="http://www.w3.org/1999/xlink">
<g id="graph0" class="graph" transform="scale(1 1) rotate(0) translate(136.324 120.989)">
<title>%3</title>
<polygon fill="white" stroke="none" points="-136.324,80.9945 -136.324,-120.989 156.474,-120.989 156.474,80.9945 -136.324,80.9945"/>
<!-- 1 -->
<g id="node1" class="node"><title>1</title>
<ellipse fill="none" stroke="black" cx="-31.7614" cy="-11.8579" rx="3.5" ry="3.5"/>
</g>
<!-- 2 -->
<g id="node2" class="node"><title>2</title>
<ellipse fill="black" stroke="black" cx="28.3177" cy="-68.0891" rx="3.6" ry="3.6"/>
</g>
<!-- 1&#45;&gt;2 -->
<g id="edge1" class="edge"><title>1&#45;&gt;2</title>
<path fill="none" stroke="black" d="M-29.1798,-14.2741C-21.1469,-21.7925 3.72024,-45.067 17.9828,-58.4161"/>
<polygon fill="black" stroke="black" points="15.8477,-61.2117 25.5404,-65.4898 20.6311,-56.101 15.8477,-61.2117"/>
</g>
<!-- 3 -->
<g id="node3" class="node"><title>3</title>
<ellipse fill="black" stroke="black" cx="7.9807" cy="71.0859" rx="3.6" ry="3.6"/>
</g>
<!-- 1&#45;&gt;3 -->
<g id="edge2" class="edge"><title>1&#45;&gt;3</title>
<path fill="none" stroke="black" d="M-30.0537,-8.29388C-24.589,3.11115 -7.34721,39.0957 1.93056,58.4589"/>
<polygon fill="black" stroke="black" points="5.15892,57.0969 6.32363,67.6275 -1.15385,60.1216 5.15892,57.0969"/>
</g>
<!-- 16 -->
<g id="node4" class="node"><title>16</title>
<ellipse fill="black" stroke="black" cx="-29.2023" cy="-73.3969" rx="3.6" ry="3.6"/>
</g>
<!-- 2&#45;&gt;16 -->
<g id="edge3" class="edge"><title>2&#45;&gt;16</title>
<path fill="none" stroke="black" d="M24.5436,-68.4374C16.6644,-69.1645 -1.88781,-70.8764 -14.9827,-72.0847"/>
<polygon fill="black" stroke="black" points="-15.7029,-68.6362 -25.3389,-73.0404 -15.0596,-75.6066 -15.7029,-68.6362"/>
</g>
<!-- 9 -->
<g id="node5" class="node"><title>9</title>
<ellipse fill="black" stroke="black" cx="-8.60771" cy="-3.16922" rx="3.6" ry="3.6"/>
</g>
<!-- 3&#45;&gt;9 -->
<g id="edge4" class="edge"><title>3&#45;&gt;9</title>
<path fill="none" stroke="black" d="M7.18061,67.5044C4.90898,57.3359 -1.66814,27.8946 -5.57991,10.3842"/>
<polygon fill="black" stroke="black" points="-9.01206,11.0738 -7.77657,0.55124 -2.18045,9.54757 -9.01206,11.0738"/>
</g>
<!-- 16&#45;&gt;1 -->
<g id="edge33" class="edge"><title>16&#45;&gt;1</title>
<path fill="none" stroke="black" d="M-29.3547,-69.7316C-29.7076,-61.2461 -30.5957,-39.8882 -31.1887,-25.6287"/>
<polygon fill="black" stroke="black" points="-27.7004,-25.2727 -31.6129,-15.4268 -34.6943,-25.5636 -27.7004,-25.2727"/>
</g>
<!-- 9&#45;&gt;2 -->
<g id="edge15" class="edge"><title>9&#45;&gt;2</title>
<path fill="none" stroke="black" d="M-6.82672,-6.30044C-1.81876,-15.1051 12.5897,-40.4372 21.3251,-55.7952"/>
<polygon fill="black" stroke="black" points="18.4812,-57.8745 26.4676,-64.8364 24.5658,-54.4136 18.4812,-57.8745"/>
</g>
<!-- 4 -->
<g id="node6" class="node"><title>4</title>
<ellipse fill="black" stroke="black" cx="68.59" cy="-20.839" rx="3.6" ry="3.6"/>
</g>
<!-- 9&#45;&gt;4 -->
<g id="edge16" class="edge"><title>9&#45;&gt;4</title>
<path fill="none" stroke="black" d="M-4.8843,-4.02147C5.73803,-6.45282 36.59,-13.5145 54.7612,-17.6737"/>
<polygon fill="black" stroke="black" points="54.1933,-21.1342 64.7221,-19.9537 55.7552,-14.3107 54.1933,-21.1342"/>
</g>
<!-- 10 -->
<g id="node11" class="node"><title>10</title>
<ellipse fill="black" stroke="black" cx="-85.6914" cy="-40.1519" rx="3.6" ry="3.6"/>
</g>
<!-- 9&#45;&gt;10 -->
<g id="edge17" class="edge"><title>9&#45;&gt;10</title>
<path fill="none" stroke="black" d="M-11.573,-5.24293C-15.3353,-7.82496 -22.072,-12.2865 -28.19,-15.4987 -43.0479,-23.2996 -60.9157,-30.6641 -72.7486,-35.2775"/>
<polygon fill="black" stroke="black" points="-74.1341,-32.0599 -82.2349,-38.8883 -71.6439,-38.602 -74.1341,-32.0599"/>
</g>
<!-- 14 -->
<g id="node13" class="node"><title>14</title>
<ellipse fill="black" stroke="black" cx="45.4179" cy="65.5624" rx="3.6" ry="3.6"/>
</g>
<!-- 9&#45;&gt;14 -->
<g id="edge20" class="edge"><title>9&#45;&gt;14</title>
<path fill="none" stroke="black" d="M-6.28629,-0.215907C1.07298,9.14659 24.1444,38.4981 36.8369,54.6456"/>
<polygon fill="black" stroke="black" points="39.7372,52.6717 43.1653,62.6966 34.2338,56.9976 39.7372,52.6717"/>
</g>
<!-- 15 -->
<g id="node14" class="node"><title>15</title>
<ellipse fill="black" stroke="black" cx="38.4008" cy="2.0542" rx="3.6" ry="3.6"/>
</g>
<!-- 9&#45;&gt;15 -->
<g id="edge19" class="edge"><title>9&#45;&gt;15</title>
<path fill="none" stroke="black" d="M-4.91903,-2.75935C1.3659,-2.06099 14.4556,-0.606503 24.6101,0.521827"/>
<polygon fill="black" stroke="black" points="25.0464,-2.95133 34.5987,1.63172 24.2733,4.00586 25.0464,-2.95133"/>
</g>
<!-- 13 -->
<g id="node15" class="node"><title>13</title>
<ellipse fill="black" stroke="black" cx="-16.836" cy="-113.389" rx="3.6" ry="3.6"/>
</g>
<!-- 9&#45;&gt;13 -->
<g id="edge18" class="edge"><title>9&#45;&gt;13</title>
<path fill="none" stroke="black" d="M-8.88148,-6.83643C-9.95018,-21.152 -13.8759,-73.7381 -15.7827,-99.2799"/>
<polygon fill="black" stroke="black" points="-19.2985,-99.3621 -16.5527,-109.595 -12.3179,-99.8833 -19.2985,-99.3621"/>
</g>
<!-- 7 -->
<g id="node7" class="node"><title>7</title>
<ellipse fill="black" stroke="black" cx="-26.073" cy="30.0879" rx="3.6" ry="3.6"/>
</g>
<!-- 4&#45;&gt;7 -->
<g id="edge5" class="edge"><title>4&#45;&gt;7</title>
<path fill="none" stroke="black" d="M64.9947,-18.9048C52.1106,-11.9734 7.86607,11.8293 -13.8513,23.5128"/>
<polygon fill="black" stroke="black" points="-12.4045,26.7088 -22.8692,28.3643 -15.7209,20.5443 -12.4045,26.7088"/>
</g>
<!-- 7&#45;&gt;10 -->
<g id="edge9" class="edge"><title>7&#45;&gt;10</title>
<path fill="none" stroke="black" d="M-28.6348,27.0698C-36.8325,17.4116 -62.6975,-13.0615 -76.6154,-29.4589"/>
<polygon fill="black" stroke="black" points="-79.4028,-27.3343 -83.2056,-37.2232 -74.0661,-31.8641 -79.4028,-27.3343"/>
</g>
<!-- 12 -->
<g id="node12" class="node"><title>12</title>
<ellipse fill="black" stroke="black" cx="-128.724" cy="35.1077" rx="3.6" ry="3.6"/>
</g>
<!-- 7&#45;&gt;12 -->
<g id="edge10" class="edge"><title>7&#45;&gt;12</title>
<path fill="none" stroke="black" d="M-29.9717,30.2786C-43.7547,30.9526 -90.634,33.2451 -114.506,34.4124"/>
<polygon fill="black" stroke="black" points="-114.662,37.9242 -124.821,34.9169 -115.004,30.9325 -114.662,37.9242"/>
</g>
<!-- 7&#45;&gt;14 -->
<g id="edge11" class="edge"><title>7&#45;&gt;14</title>
<path fill="none" stroke="black" d="M-22.6249,31.7989C-12.7442,36.7018 16.037,50.9833 32.8344,59.3183"/>
<polygon fill="black" stroke="black" points="34.7671,56.3701 42.1692,63.9504 31.6556,62.6406 34.7671,56.3701"/>
</g>
<!-- 7&#45;&gt;15 -->
<g id="edge12" class="edge"><title>7&#45;&gt;15</title>
<path fill="none" stroke="black" d="M-24.7381,26.4616C-18.276,19.0679 7.89318,6.758 24.4923,2.26168"/>
<polygon fill="black" stroke="black" points="24.3993,-1.27013 34.8353,0.557222 25.5375,5.63672 24.3993,-1.27013"/>
</g>
<!-- 5 -->
<g id="node8" class="node"><title>5</title>
<ellipse fill="black" stroke="black" cx="148.874" cy="-35.5183" rx="3.6" ry="3.6"/>
</g>
<!-- 5&#45;&gt;4 -->
<g id="edge6" class="edge"><title>5&#45;&gt;4</title>
<path fill="none" stroke="black" d="M145.001,-34.8103C133.799,-32.762 100.961,-26.7578 82.1809,-23.324"/>
<polygon fill="black" stroke="black" points="82.7048,-19.8619 72.2384,-21.5061 81.4457,-26.7477 82.7048,-19.8619"/>
</g>
<!-- 6 -->
<g id="node9" class="node"><title>6</title>
<ellipse fill="black" stroke="black" cx="-89.7905" cy="62.6137" rx="3.6" ry="3.6"/>
</g>
<!-- 6&#45;&gt;9 -->
<g id="edge8" class="edge"><title>6&#45;&gt;9</title>
<path fill="none" stroke="black" d="M-86.7072,60.1153C-75.7565,51.2418 -38.3892,20.9629 -19.5925,5.73185"/>
<polygon fill="black" stroke="black" points="-21.6671,2.90808 -11.6941,-0.668287 -17.2601,8.34673 -21.6671,2.90808"/>
</g>
<!-- 8 -->
<g id="node10" class="node"><title>8</title>
<ellipse fill="black" stroke="black" cx="-45.9842" cy="73.3945" rx="3.6" ry="3.6"/>
</g>
<!-- 6&#45;&gt;8 -->
<g id="edge7" class="edge"><title>6&#45;&gt;8</title>
<path fill="none" stroke="black" d="M-86.0556,63.5329C-80.2364,64.965 -68.7189,67.7995 -59.5193,70.0635"/>
<polygon fill="black" stroke="black" points="-58.5835,66.6893 -49.7097,72.4777 -60.2564,73.4865 -58.5835,66.6893"/>
</g>
<!-- 8&#45;&gt;1 -->
<g id="edge13" class="edge"><title>8&#45;&gt;1</title>
<path fill="none" stroke="black" d="M-45.3731,69.7313C-43.4357,58.1184 -37.3619,21.7118 -34.0204,1.683"/>
<polygon fill="black" stroke="black" points="-37.4523,0.984473 -32.3544,-8.30322 -30.5478,2.13644 -37.4523,0.984473"/>
</g>
<!-- 8&#45;&gt;9 -->
<g id="edge14" class="edge"><title>8&#45;&gt;9</title>
<path fill="none" stroke="black" d="M-43.8591,70.1969C-39.5074,63.5731 -29.4015,47.7969 -22.3852,33.7539 -21.5946,32.1716 -21.5154,31.7206 -20.8731,30.0725 -18.3141,23.5062 -15.5892,16.1598 -13.3593,10.0464"/>
<polygon fill="black" stroke="black" points="-16.543,8.55763 -9.85531,0.340218 -9.95886,10.9346 -16.543,8.55763"/>
</g>
<!-- 10&#45;&gt;16 -->
<g id="edge21" class="edge"><title>10&#45;&gt;16</title>
<path fill="none" stroke="black" d="M-82.3269,-42.132C-74.459,-46.7624 -54.5352,-58.4879 -41.4484,-66.1898"/>
<polygon fill="black" stroke="black" points="-42.8719,-69.4131 -32.4784,-71.4688 -39.3214,-63.3803 -42.8719,-69.4131"/>
</g>
<!-- 12&#45;&gt;6 -->
<g id="edge23" class="edge"><title>12&#45;&gt;6</title>
<path fill="none" stroke="black" d="M-125.669,37.266C-120.515,40.9071 -109.836,48.4514 -101.463,54.3674"/>
<polygon fill="black" stroke="black" points="-99.3083,51.604 -93.1605,60.2328 -103.347,57.3212 -99.3083,51.604"/>
</g>
<!-- 14&#45;&gt;3 -->
<g id="edge25" class="edge"><title>14&#45;&gt;3</title>
<path fill="none" stroke="black" d="M41.6915,66.1122C37.0863,66.7917 28.9872,67.9866 21.8819,69.0349"/>
<polygon fill="black" stroke="black" points="22.3202,72.5081 11.9164,70.5052 21.2984,65.583 22.3202,72.5081"/>
</g>
<!-- 15&#45;&gt;1 -->
<g id="edge26" class="edge"><title>15&#45;&gt;1</title>
<path fill="none" stroke="black" d="M34.5185,1.09863C26.497,-0.854718 7.49645,-5.37298 -8.61378,-8.36922 -11.6204,-8.9284 -14.8595,-9.46028 -17.9347,-9.93259"/>
<polygon fill="black" stroke="black" points="-18.7354,-6.51136 -28.14,-11.3904 -17.7455,-13.441 -18.7354,-6.51136"/>
</g>
<!-- 15&#45;&gt;2 -->
<g id="edge27" class="edge"><title>15&#45;&gt;2</title>
<path fill="none" stroke="black" d="M37.8587,-1.71701C36.4636,-11.4223 32.6934,-37.6494 30.3315,-54.0801"/>
<polygon fill="black" stroke="black" points="26.821,-53.903 28.8625,-64.2993 33.7498,-54.8991 26.821,-53.903"/>
</g>
<!-- 15&#45;&gt;3 -->
<g id="edge28" class="edge"><title>15&#45;&gt;3</title>
<path fill="none" stroke="black" d="M36.9336,5.38374C32.8079,14.7461 20.9378,41.6826 13.7414,58.0133"/>
<polygon fill="black" stroke="black" points="16.7402,59.8877 9.50486,67.6272 10.3346,57.0649 16.7402,59.8877"/>
</g>
<!-- 15&#45;&gt;16 -->
<g id="edge32" class="edge"><title>15&#45;&gt;16</title>
<path fill="none" stroke="black" d="M35.8332,-0.811438C26.798,-10.8956 -3.83331,-45.0828 -19.6202,-62.7024"/>
<polygon fill="black" stroke="black" points="-22.5657,-60.7449 -26.6322,-70.5284 -17.3523,-65.4161 -22.5657,-60.7449"/>
</g>
<!-- 15&#45;&gt;7 -->
<g id="edge29" class="edge"><title>15&#45;&gt;7</title>
<path fill="none" stroke="black" d="M37.0659,5.68053C30.6038,13.0742 4.43459,25.3841 -12.1645,29.8804"/>
<polygon fill="black" stroke="black" points="-12.0715,33.4122 -22.5076,31.5849 -13.2098,26.5054 -12.0715,33.4122"/>
</g>
<!-- 15&#45;&gt;14 -->
<g id="edge31" class="edge"><title>15&#45;&gt;14</title>
<path fill="none" stroke="black" d="M38.8188,5.83674C39.7961,14.6822 42.2711,37.0817 43.8967,51.7946"/>
<polygon fill="black" stroke="black" points="47.3915,51.5553 45.011,61.8793 40.4338,52.3242 47.3915,51.5553"/>
</g>
<!-- 11 -->
<g id="node16" class="node"><title>11</title>
<ellipse fill="black" stroke="black" cx="125.09" cy="26.505" rx="3.6" ry="3.6"/>
</g>
<!-- 15&#45;&gt;11 -->
<g id="edge30" class="edge"><title>15&#45;&gt;11</title>
<path fill="none" stroke="black" d="M42.1257,3.10482C53.99,6.45116 91.3041,16.9757 111.608,22.7023"/>
<polygon fill="black" stroke="black" points="112.801,19.4022 121.475,25.4855 110.9,26.1394 112.801,19.4022"/>
</g>
<!-- 13&#45;&gt;16 -->
<g id="edge24" class="edge"><title>13&#45;&gt;16</title>
<path fill="none" stroke="black" d="M-17.9772,-109.698C-19.5703,-104.546 -22.5451,-94.9259 -25.0322,-86.8828"/>
<polygon fill="black" stroke="black" points="-21.7297,-85.715 -28.0277,-77.1953 -28.4173,-87.7829 -21.7297,-85.715"/>
</g>
<!-- 11&#45;&gt;5 -->
<g id="edge22" class="edge"><title>11&#45;&gt;5</title>
<path fill="none" stroke="black" d="M126.506,22.8109C129.852,14.0858 138.376,-8.14239 143.882,-22.5012"/>
<polygon fill="black" stroke="black" points="140.646,-23.8374 147.494,-31.9212 147.182,-21.331 140.646,-23.8374"/>
</g>
</g>
</svg>
