<?xml version="1.0" encoding="UTF-8" standalone="no"?>
<!DOCTYPE svg PUBLIC "-//W3C//DTD SVG 1.1//EN"
 "http://www.w3.org/Graphics/SVG/1.1/DTD/svg11.dtd">
<!-- Generated by graphviz version 2.38.0 (20140413.2041)
 -->
<!-- Title: %3 Pages: 1 -->
<svg width="300pt" height="209pt"
 viewBox="0.00 0.00 300.00 209.18" xmlns="http://www.w3.org/2000/svg" xmlns:xlink="http://www.w3.org/1999/xlink">
<g id="graph0" class="graph" transform="scale(1 1) rotate(0) translate(139.924 124.589)">
<title>%3</title>
<polygon fill="white" stroke="none" points="-139.924,84.5945 -139.924,-124.589 160.074,-124.589 160.074,84.5945 -139.924,84.5945"/>
<!-- 1 -->
<g id="node1" class="node"><title>1</title>
<ellipse fill="none" stroke="black" cx="-31.7614" cy="-11.8579" rx="7" ry="7"/>
</g>
<!-- 2 -->
<g id="node2" class="node"><title>2</title>
<ellipse fill="black" stroke="black" cx="28.3177" cy="-68.0891" rx="7.2" ry="7.2"/>
</g>
<!-- 1&#45;&gt;2 -->
<g id="edge1" class="edge"><title>1&#45;&gt;2</title>
<path fill="none" stroke="black" d="M-26.639,-16.6521C-17.4211,-25.2797 2.22227,-43.665 15.3514,-55.9533"/>
<polygon fill="black" stroke="black" points="13.1707,-58.7062 22.8635,-62.9842 17.9541,-53.5954 13.1707,-58.7062"/>
</g>
<!-- 3 -->
<g id="node3" class="node"><title>3</title>
<ellipse fill="black" stroke="black" cx="7.9807" cy="71.0859" rx="7.2" ry="7.2"/>
</g>
<!-- 1&#45;&gt;3 -->
<g id="edge2" class="edge"><title>1&#45;&gt;3</title>
<path fill="none" stroke="black" d="M-28.6429,-5.34941C-22.4342,7.6083 -8.3709,36.9592 0.410127,55.2857"/>
<polygon fill="black" stroke="black" points="3.6016,53.8467 4.7663,64.3773 -2.71118,56.8714 3.6016,53.8467"/>
</g>
<!-- 16 -->
<g id="node4" class="node"><title>16</title>
<ellipse fill="black" stroke="black" cx="-29.2023" cy="-73.3969" rx="7.2" ry="7.2"/>
</g>
<!-- 2&#45;&gt;16 -->
<g id="edge3" class="edge"><title>2&#45;&gt;16</title>
<path fill="none" stroke="black" d="M20.7979,-68.783C12.5711,-69.5422 -0.894691,-70.7847 -11.7803,-71.7892"/>
<polygon fill="black" stroke="black" points="-12.2265,-68.3154 -21.8626,-72.7196 -11.5833,-75.2858 -12.2265,-68.3154"/>
</g>
<!-- 9 -->
<g id="node5" class="node"><title>9</title>
<ellipse fill="black" stroke="black" cx="-8.60771" cy="-3.16922" rx="7.2" ry="7.2"/>
</g>
<!-- 3&#45;&gt;9 -->
<g id="edge4" class="edge"><title>3&#45;&gt;9</title>
<path fill="none" stroke="black" d="M6.39014,63.966C3.85827,52.6326 -1.1628,30.1566 -4.69573,14.342"/>
<polygon fill="black" stroke="black" points="-8.18387,14.781 -6.94838,4.25848 -1.35227,13.2548 -8.18387,14.781"/>
</g>
<!-- 16&#45;&gt;1 -->
<g id="edge33" class="edge"><title>16&#45;&gt;1</title>
<path fill="none" stroke="black" d="M-29.5161,-65.851C-29.8923,-56.8032 -30.5349,-41.3503 -31.0365,-29.2885"/>
<polygon fill="black" stroke="black" points="-27.5483,-28.9289 -31.4609,-19.083 -34.5423,-29.2198 -27.5483,-28.9289"/>
</g>
<!-- 9&#45;&gt;2 -->
<g id="edge15" class="edge"><title>9&#45;&gt;2</title>
<path fill="none" stroke="black" d="M-4.93217,-9.63133C0.76329,-19.6447 11.8768,-39.1838 19.6825,-52.9074"/>
<polygon fill="black" stroke="black" points="16.6706,-54.6913 24.657,-61.6532 22.7552,-51.2304 16.6706,-54.6913"/>
</g>
<!-- 4 -->
<g id="node6" class="node"><title>4</title>
<ellipse fill="black" stroke="black" cx="68.59" cy="-20.839" rx="7.2" ry="7.2"/>
</g>
<!-- 9&#45;&gt;4 -->
<g id="edge16" class="edge"><title>9&#45;&gt;4</title>
<path fill="none" stroke="black" d="M-1.4835,-4.79988C10.4049,-7.52101 34.6189,-13.0634 51.2233,-16.8639"/>
<polygon fill="black" stroke="black" points="50.729,-20.3413 61.2579,-19.1608 52.2909,-13.5177 50.729,-20.3413"/>
</g>
<!-- 10 -->
<g id="node11" class="node"><title>10</title>
<ellipse fill="black" stroke="black" cx="-85.6914" cy="-40.1519" rx="7.2" ry="7.2"/>
</g>
<!-- 9&#45;&gt;10 -->
<g id="edge17" class="edge"><title>9&#45;&gt;10</title>
<path fill="none" stroke="black" d="M-15.1798,-6.32235C-27.24,-12.1085 -53.2093,-24.5679 -70.0419,-32.6437"/>
<polygon fill="black" stroke="black" points="-71.6339,-29.5255 -79.1359,-37.0068 -68.6059,-35.8367 -71.6339,-29.5255"/>
</g>
<!-- 14 -->
<g id="node13" class="node"><title>14</title>
<ellipse fill="black" stroke="black" cx="45.4179" cy="65.5624" rx="7.2" ry="7.2"/>
</g>
<!-- 9&#45;&gt;14 -->
<g id="edge20" class="edge"><title>9&#45;&gt;14</title>
<path fill="none" stroke="black" d="M-4.00151,2.6908C4.45113,13.4443 22.6522,36.5998 34.4497,51.6086"/>
<polygon fill="black" stroke="black" points="37.3953,49.6923 40.8234,59.7172 31.8919,54.0182 37.3953,49.6923"/>
</g>
<!-- 15 -->
<g id="node14" class="node"><title>15</title>
<ellipse fill="black" stroke="black" cx="38.4008" cy="2.0542" rx="7.2" ry="7.2"/>
</g>
<!-- 9&#45;&gt;15 -->
<g id="edge19" class="edge"><title>9&#45;&gt;15</title>
<path fill="none" stroke="black" d="M-1.26263,-2.35306C4.63621,-1.6976 13.1669,-0.749702 20.8067,0.0992075"/>
<polygon fill="black" stroke="black" points="21.3999,-3.35651 30.9522,1.22653 20.6268,3.60067 21.3999,-3.35651"/>
</g>
<!-- 13 -->
<g id="node15" class="node"><title>13</title>
<ellipse fill="black" stroke="black" cx="-16.836" cy="-113.389" rx="7.2" ry="7.2"/>
</g>
<!-- 9&#45;&gt;13 -->
<g id="edge18" class="edge"><title>9&#45;&gt;13</title>
<path fill="none" stroke="black" d="M-9.14759,-10.401C-10.4316,-27.6004 -13.6969,-71.3404 -15.5324,-95.9272"/>
<polygon fill="black" stroke="black" points="-19.0291,-95.7532 -16.2833,-105.986 -12.0485,-96.2744 -19.0291,-95.7532"/>
</g>
<!-- 7 -->
<g id="node7" class="node"><title>7</title>
<ellipse fill="black" stroke="black" cx="-26.073" cy="30.0879" rx="7.2" ry="7.2"/>
</g>
<!-- 4&#45;&gt;7 -->
<g id="edge5" class="edge"><title>4&#45;&gt;7</title>
<path fill="none" stroke="black" d="M62.0835,-17.3386C47.2219,-9.34337 10.4468,10.441 -10.611,21.7696"/>
<polygon fill="black" stroke="black" points="-9.05623,24.9075 -19.5209,26.563 -12.3727,18.743 -9.05623,24.9075"/>
</g>
<!-- 7&#45;&gt;10 -->
<g id="edge9" class="edge"><title>7&#45;&gt;10</title>
<path fill="none" stroke="black" d="M-30.7512,24.5763C-40.0216,13.6543 -60.9658,-11.0213 -74.1502,-26.5546"/>
<polygon fill="black" stroke="black" points="-77.0666,-24.5819 -80.8694,-34.4708 -71.7299,-29.1117 -77.0666,-24.5819"/>
</g>
<!-- 12 -->
<g id="node12" class="node"><title>12</title>
<ellipse fill="black" stroke="black" cx="-128.724" cy="35.1077" rx="7.2" ry="7.2"/>
</g>
<!-- 7&#45;&gt;12 -->
<g id="edge10" class="edge"><title>7&#45;&gt;12</title>
<path fill="none" stroke="black" d="M-33.4554,30.4489C-49.5839,31.2376 -88.3424,33.133 -111.144,34.248"/>
<polygon fill="black" stroke="black" points="-111.249,37.7573 -121.408,34.75 -111.591,30.7656 -111.249,37.7573"/>
</g>
<!-- 7&#45;&gt;14 -->
<g id="edge11" class="edge"><title>7&#45;&gt;14</title>
<path fill="none" stroke="black" d="M-19.4755,33.3617C-8.46596,38.8247 13.9581,49.9517 29.335,57.5819"/>
<polygon fill="black" stroke="black" points="31.2257,54.6129 38.6278,62.1931 28.1142,60.8833 31.2257,54.6129"/>
</g>
<!-- 7&#45;&gt;15 -->
<g id="edge12" class="edge"><title>7&#45;&gt;15</title>
<path fill="none" stroke="black" d="M-21.7632,23.7287C-13.0491,16.8681 6.6701,7.68355 21.2012,3.21583"/>
<polygon fill="black" stroke="black" points="20.491,-0.21327 31.0338,0.835378 22.1382,6.59019 20.491,-0.21327"/>
</g>
<!-- 5 -->
<g id="node8" class="node"><title>5</title>
<ellipse fill="black" stroke="black" cx="148.874" cy="-35.5183" rx="7.2" ry="7.2"/>
</g>
<!-- 5&#45;&gt;4 -->
<g id="edge6" class="edge"><title>5&#45;&gt;4</title>
<path fill="none" stroke="black" d="M141.749,-34.2156C129.283,-31.9363 103.186,-27.1646 85.7726,-23.9807"/>
<polygon fill="black" stroke="black" points="86.2806,-20.5157 75.8141,-22.1599 85.0215,-27.4015 86.2806,-20.5157"/>
</g>
<!-- 6 -->
<g id="node9" class="node"><title>6</title>
<ellipse fill="black" stroke="black" cx="-89.7905" cy="62.6137" rx="7.2" ry="7.2"/>
</g>
<!-- 6&#45;&gt;9 -->
<g id="edge8" class="edge"><title>6&#45;&gt;9</title>
<path fill="none" stroke="black" d="M-83.952,57.8828C-71.1966,47.547 -40.5439,22.7089 -22.5112,8.09687"/>
<polygon fill="black" stroke="black" points="-24.3663,5.09522 -14.3933,1.51886 -19.9593,10.5339 -24.3663,5.09522"/>
</g>
<!-- 8 -->
<g id="node10" class="node"><title>8</title>
<ellipse fill="black" stroke="black" cx="-45.9842" cy="73.3945" rx="7.2" ry="7.2"/>
</g>
<!-- 6&#45;&gt;8 -->
<g id="edge7" class="edge"><title>6&#45;&gt;8</title>
<path fill="none" stroke="black" d="M-82.5568,64.3939C-77.1984,65.7126 -69.6722,67.5649 -62.8391,69.2465"/>
<polygon fill="black" stroke="black" points="-61.9572,65.859 -53.0834,71.6474 -63.6301,72.6562 -61.9572,65.859"/>
</g>
<!-- 8&#45;&gt;1 -->
<g id="edge13" class="edge"><title>8&#45;&gt;1</title>
<path fill="none" stroke="black" d="M-44.7716,66.1259C-42.5464,52.7877 -37.7547,24.0664 -34.6489,5.44999"/>
<polygon fill="black" stroke="black" points="-38.0689,4.68 -32.9709,-4.6077 -31.1643,5.83196 -38.0689,4.68"/>
</g>
<!-- 8&#45;&gt;9 -->
<g id="edge14" class="edge"><title>8&#45;&gt;9</title>
<path fill="none" stroke="black" d="M-42.7975,66.8667C-36.9498,54.8879 -24.3577,29.0938 -16.1959,12.3747"/>
<polygon fill="black" stroke="black" points="-19.3186,10.793 -11.7863,3.34204 -13.0281,13.8639 -19.3186,10.793"/>
</g>
<!-- 10&#45;&gt;16 -->
<g id="edge21" class="edge"><title>10&#45;&gt;16</title>
<path fill="none" stroke="black" d="M-79.2114,-43.9655C-70.7836,-48.9255 -55.7959,-57.746 -44.4192,-64.4414"/>
<polygon fill="black" stroke="black" points="-46.0002,-67.572 -35.6067,-69.6277 -42.4498,-61.5392 -46.0002,-67.572"/>
</g>
<!-- 12&#45;&gt;6 -->
<g id="edge23" class="edge"><title>12&#45;&gt;6</title>
<path fill="none" stroke="black" d="M-122.64,39.4055C-117.697,42.8977 -110.523,47.9663 -104.139,52.4765"/>
<polygon fill="black" stroke="black" points="-101.851,49.8074 -95.7036,58.4361 -105.891,55.5245 -101.851,49.8074"/>
</g>
<!-- 14&#45;&gt;3 -->
<g id="edge25" class="edge"><title>14&#45;&gt;3</title>
<path fill="none" stroke="black" d="M38.1997,66.6274C34.4707,67.1776 29.7476,67.8744 25.15,68.5528"/>
<polygon fill="black" stroke="black" points="25.5806,72.027 15.1768,70.0242 24.5588,65.102 25.5806,72.027"/>
</g>
<!-- 15&#45;&gt;1 -->
<g id="edge26" class="edge"><title>15&#45;&gt;1</title>
<path fill="none" stroke="black" d="M31.1565,0.617762C20.4373,-1.5077 0.040625,-5.55203 -14.6272,-8.46044"/>
<polygon fill="black" stroke="black" points="-15.7398,-5.11282 -24.868,-10.491 -14.3782,-11.9791 -15.7398,-5.11282"/>
</g>
<!-- 15&#45;&gt;2 -->
<g id="edge27" class="edge"><title>15&#45;&gt;2</title>
<path fill="none" stroke="black" d="M37.3597,-5.18818C35.8351,-15.7941 32.9483,-35.8763 30.8455,-50.5043"/>
<polygon fill="black" stroke="black" points="27.3268,-50.3848 29.3682,-60.7811 34.2556,-51.3809 27.3268,-50.3848"/>
</g>
<!-- 15&#45;&gt;3 -->
<g id="edge28" class="edge"><title>15&#45;&gt;3</title>
<path fill="none" stroke="black" d="M35.484,8.67325C30.841,19.2095 21.6333,40.1044 15.1545,54.8065"/>
<polygon fill="black" stroke="black" points="18.259,56.4412 11.0236,64.1807 11.8534,53.6184 18.259,56.4412"/>
</g>
<!-- 15&#45;&gt;16 -->
<g id="edge32" class="edge"><title>15&#45;&gt;16</title>
<path fill="none" stroke="black" d="M33.539,-3.37205C22.9172,-15.2269 -2.60816,-43.7155 -17.6245,-60.475"/>
<polygon fill="black" stroke="black" points="-20.3181,-58.2364 -24.3845,-68.0198 -15.1046,-62.9076 -20.3181,-58.2364"/>
</g>
<!-- 15&#45;&gt;7 -->
<g id="edge29" class="edge"><title>15&#45;&gt;7</title>
<path fill="none" stroke="black" d="M34.091,8.41343C25.3769,15.274 5.65767,24.4586 -8.87347,28.9263"/>
<polygon fill="black" stroke="black" points="-8.16324,32.3554 -18.7061,31.3067 -9.8104,25.5519 -8.16324,32.3554"/>
</g>
<!-- 15&#45;&gt;14 -->
<g id="edge31" class="edge"><title>15&#45;&gt;14</title>
<path fill="none" stroke="black" d="M39.2058,9.3394C40.2421,18.7187 42.0769,35.3248 43.4847,48.0659"/>
<polygon fill="black" stroke="black" points="47.0029,48.0383 44.6224,58.3622 40.0452,48.8071 47.0029,48.0383"/>
</g>
<!-- 11 -->
<g id="node16" class="node"><title>11</title>
<ellipse fill="black" stroke="black" cx="125.09" cy="26.505" rx="7.2" ry="7.2"/>
</g>
<!-- 15&#45;&gt;11 -->
<g id="edge30" class="edge"><title>15&#45;&gt;11</title>
<path fill="none" stroke="black" d="M45.4949,4.05511C59.1513,7.90692 89.4222,16.4449 108.448,21.8111"/>
<polygon fill="black" stroke="black" points="109.465,18.4615 118.14,24.5447 107.565,25.1986 109.465,18.4615"/>
</g>
<!-- 13&#45;&gt;16 -->
<g id="edge24" class="edge"><title>13&#45;&gt;16</title>
<path fill="none" stroke="black" d="M-18.99,-106.423C-20.3732,-101.95 -22.2327,-95.9362 -23.9859,-90.2663"/>
<polygon fill="black" stroke="black" points="-20.7749,-88.8028 -27.0729,-80.2831 -27.4625,-90.8708 -20.7749,-88.8028"/>
</g>
<!-- 11&#45;&gt;5 -->
<g id="edge22" class="edge"><title>11&#45;&gt;5</title>
<path fill="none" stroke="black" d="M127.818,19.3901C131.366,10.1366 137.677,-6.31935 142.467,-18.8106"/>
<polygon fill="black" stroke="black" points="139.329,-20.4025 146.177,-28.4864 145.864,-17.8962 139.329,-20.4025"/>
</g>
</g>
</svg>
