<?xml version="1.0" encoding="UTF-8" standalone="no"?>
<!DOCTYPE svg PUBLIC "-//W3C//DTD SVG 1.1//EN"
 "http://www.w3.org/Graphics/SVG/1.1/DTD/svg11.dtd">
<!-- Generated by graphviz version 2.38.0 (20140413.2041)
 -->
<!-- Title: %3 Pages: 1 -->
<svg width="420pt" height="339pt"
 viewBox="0.00 0.00 420.20 339.06" xmlns="http://www.w3.org/2000/svg" xmlns:xlink="http://www.w3.org/1999/xlink">
<g id="graph0" class="graph" transform="scale(1 1) rotate(0) translate(196.42 175.542)">
<title>%3</title>
<polygon fill="white" stroke="none" points="-196.42,163.518 -196.42,-175.542 223.778,-175.542 223.778,163.518 -196.42,163.518"/>
<!-- 1 -->
<g id="node1" class="node"><title>1</title>
<ellipse fill="none" stroke="black" cx="-79.6482" cy="71.4945" rx="7" ry="7"/>
</g>
<!-- 14 -->
<g id="node2" class="node"><title>14</title>
<ellipse fill="black" stroke="black" cx="-66.3292" cy="152.318" rx="7.2" ry="7.2"/>
</g>
<!-- 1&#45;&gt;14 -->
<g id="edge1" class="edge"><title>1&#45;&gt;14</title>
<path fill="none" stroke="black" d="M-74.9239,76.9559C-69.6669,88.7702 -64.4205,117.05 -63.5321,135.415"/>
<polygon fill="black" stroke="black" points="-60.033,135.579 -63.6004,145.556 -67.0328,135.532 -60.033,135.579"/>
</g>
<!-- 7 -->
<g id="node3" class="node"><title>7</title>
<ellipse fill="black" stroke="black" cx="-127.375" cy="141.515" rx="7.2" ry="7.2"/>
</g>
<!-- 1&#45;&gt;7 -->
<g id="edge2" class="edge"><title>1&#45;&gt;7</title>
<path fill="none" stroke="black" d="M-80.0208,78.6158C-84.4861,91.0895 -100.973,116.337 -113.457,130.849"/>
<polygon fill="black" stroke="black" points="-111.129,133.479 -120.569,138.288 -116.188,128.641 -111.129,133.479"/>
</g>
<!-- 2 -->
<g id="node4" class="node"><title>2</title>
<ellipse fill="black" stroke="black" cx="-159.443" cy="88.5243" rx="7.2" ry="7.2"/>
</g>
<!-- 1&#45;&gt;2 -->
<g id="edge3" class="edge"><title>1&#45;&gt;2</title>
<path fill="none" stroke="black" d="M-85.1074,76.5892C-96.7918,82.3677 -124.524,88.8486 -142.623,90.5512"/>
<polygon fill="black" stroke="black" points="-142.514,94.0495 -152.64,90.9354 -142.782,87.0546 -142.514,94.0495"/>
</g>
<!-- 5 -->
<g id="node5" class="node"><title>5</title>
<ellipse fill="black" stroke="black" cx="-101.275" cy="-16.354" rx="7.2" ry="7.2"/>
</g>
<!-- 1&#45;&gt;5 -->
<g id="edge4" class="edge"><title>1&#45;&gt;5</title>
<path fill="none" stroke="black" d="M-81.3452,64.6012C-84.7082,50.9411 -92.3059,20.0795 -97.0887,0.652087"/>
<polygon fill="black" stroke="black" points="-100.534,1.29807 -99.5261,-9.2487 -93.737,-0.375325 -100.534,1.29807"/>
</g>
<!-- 14&#45;&gt;1 -->
<g id="edge22" class="edge"><title>14&#45;&gt;1</title>
<path fill="none" stroke="black" d="M-71.0535,146.856C-76.3105,135.042 -81.5569,106.762 -82.4453,88.3975"/>
<polygon fill="black" stroke="black" points="-85.9444,88.2326 -82.377,78.2565 -78.9446,88.2799 -85.9444,88.2326"/>
</g>
<!-- 7&#45;&gt;1 -->
<g id="edge14" class="edge"><title>7&#45;&gt;1</title>
<path fill="none" stroke="black" d="M-126.906,134.127C-122.247,121.409 -105.56,95.9554 -93.1127,81.6353"/>
<polygon fill="black" stroke="black" points="-95.5345,79.1052 -86.0561,74.3713 -90.5135,83.9828 -95.5345,79.1052"/>
</g>
<!-- 2&#45;&gt;1 -->
<g id="edge5" class="edge"><title>2&#45;&gt;1</title>
<path fill="none" stroke="black" d="M-153.984,83.4297C-142.299,77.6511 -114.567,71.1703 -96.4675,69.4677"/>
<polygon fill="black" stroke="black" points="-96.5774,65.9694 -86.4506,69.0835 -96.309,72.9643 -96.5774,65.9694"/>
</g>
<!-- 3 -->
<g id="node6" class="node"><title>3</title>
<ellipse fill="black" stroke="black" cx="-153.483" cy="-80.1575" rx="7.2" ry="7.2"/>
</g>
<!-- 5&#45;&gt;3 -->
<g id="edge9" class="edge"><title>5&#45;&gt;3</title>
<path fill="none" stroke="black" d="M-108.346,-18.9269C-118.866,-26.7343 -137.384,-48.4819 -147.338,-63.9269"/>
<polygon fill="black" stroke="black" points="-150.572,-62.5333 -152.472,-72.9564 -144.487,-65.9932 -150.572,-62.5333"/>
</g>
<!-- 6 -->
<g id="node10" class="node"><title>6</title>
<ellipse fill="black" stroke="black" cx="-50.9688" cy="-84.8467" rx="7.2" ry="7.2"/>
</g>
<!-- 5&#45;&gt;6 -->
<g id="edge10" class="edge"><title>5&#45;&gt;6</title>
<path fill="none" stroke="black" d="M-100.535,-23.7358C-95.4596,-36.19 -78.1258,-60.7501 -65.1884,-74.7409"/>
<polygon fill="black" stroke="black" points="-67.4572,-77.4168 -57.85,-81.8836 -62.5747,-72.4006 -67.4572,-77.4168"/>
</g>
<!-- 10 -->
<g id="node11" class="node"><title>10</title>
<ellipse fill="black" stroke="black" cx="-185.22" cy="-21.9747" rx="7.2" ry="7.2"/>
</g>
<!-- 5&#45;&gt;10 -->
<g id="edge11" class="edge"><title>5&#45;&gt;10</title>
<path fill="none" stroke="black" d="M-107.837,-13.0115C-120.939,-10.5999 -150.666,-12.0208 -169.226,-15.4134"/>
<polygon fill="black" stroke="black" points="-170.174,-12.0413 -179.091,-17.7639 -168.552,-18.8507 -170.174,-12.0413"/>
</g>
<!-- 3&#45;&gt;5 -->
<g id="edge6" class="edge"><title>3&#45;&gt;5</title>
<path fill="none" stroke="black" d="M-146.412,-77.5846C-135.893,-69.7772 -117.374,-48.0296 -107.42,-32.5846"/>
<polygon fill="black" stroke="black" points="-104.187,-33.9782 -102.286,-23.5551 -110.272,-30.5183 -104.187,-33.9782"/>
</g>
<!-- 4 -->
<g id="node7" class="node"><title>4</title>
<ellipse fill="black" stroke="black" cx="160.218" cy="72.6622" rx="7.2" ry="7.2"/>
</g>
<!-- 15 -->
<g id="node8" class="node"><title>15</title>
<ellipse fill="black" stroke="black" cx="84.9499" cy="103.829" rx="7.2" ry="7.2"/>
</g>
<!-- 4&#45;&gt;15 -->
<g id="edge7" class="edge"><title>4&#45;&gt;15</title>
<path fill="none" stroke="black" d="M153.539,75.428C141.851,80.2674 117.384,90.3984 101.059,97.1583"/>
<polygon fill="black" stroke="black" points="102.301,100.432 91.7226,101.024 99.6229,93.9647 102.301,100.432"/>
</g>
<!-- 13 -->
<g id="node9" class="node"><title>13</title>
<ellipse fill="black" stroke="black" cx="209.507" cy="6.82088" rx="7.2" ry="7.2"/>
</g>
<!-- 4&#45;&gt;13 -->
<g id="edge8" class="edge"><title>4&#45;&gt;13</title>
<path fill="none" stroke="black" d="M160.902,65.452C165.793,53.4947 182.497,30.199 195.155,16.7514"/>
<polygon fill="black" stroke="black" points="193.065,13.909 202.724,9.55464 197.889,18.9818 193.065,13.909"/>
</g>
<!-- 16 -->
<g id="node16" class="node"><title>16</title>
<ellipse fill="black" stroke="black" cx="3.97166" cy="91.4955" rx="7.2" ry="7.2"/>
</g>
<!-- 15&#45;&gt;16 -->
<g id="edge23" class="edge"><title>15&#45;&gt;16</title>
<path fill="none" stroke="black" d="M77.7636,102.734C65.1896,100.819 38.8668,96.8101 21.3029,94.135"/>
<polygon fill="black" stroke="black" points="20.6172,97.5711 11.2582,92.6052 21.6712,90.6509 20.6172,97.5711"/>
</g>
<!-- 13&#45;&gt;4 -->
<g id="edge21" class="edge"><title>13&#45;&gt;4</title>
<path fill="none" stroke="black" d="M208.823,14.031C203.932,25.9884 187.228,49.284 174.57,62.7317"/>
<polygon fill="black" stroke="black" points="176.66,65.5741 167.001,69.9284 171.837,60.5012 176.66,65.5741"/>
</g>
<!-- 6&#45;&gt;5 -->
<g id="edge12" class="edge"><title>6&#45;&gt;5</title>
<path fill="none" stroke="black" d="M-51.7087,-77.4649C-56.7845,-65.0108 -74.1183,-40.4507 -87.0558,-26.4599"/>
<polygon fill="black" stroke="black" points="-84.7869,-23.784 -94.3941,-19.3171 -89.6694,-28.8002 -84.7869,-23.784"/>
</g>
<!-- 8 -->
<g id="node12" class="node"><title>8</title>
<ellipse fill="black" stroke="black" cx="5.24403" cy="-143.743" rx="7.2" ry="7.2"/>
</g>
<!-- 6&#45;&gt;8 -->
<g id="edge13" class="edge"><title>6&#45;&gt;8</title>
<path fill="none" stroke="black" d="M-45.7812,-90.282C-36.952,-99.5326 -18.7867,-118.565 -6.68613,-131.243"/>
<polygon fill="black" stroke="black" points="-9.20546,-133.673 0.230805,-138.491 -4.14167,-128.84 -9.20546,-133.673"/>
</g>
<!-- 10&#45;&gt;5 -->
<g id="edge17" class="edge"><title>10&#45;&gt;5</title>
<path fill="none" stroke="black" d="M-178.658,-25.3172C-165.556,-27.7288 -135.83,-26.308 -117.27,-22.9154"/>
<polygon fill="black" stroke="black" points="-116.321,-26.2875 -107.405,-20.5649 -117.944,-19.4781 -116.321,-26.2875"/>
</g>
<!-- 9 -->
<g id="node13" class="node"><title>9</title>
<ellipse fill="black" stroke="black" cx="84.1023" cy="-164.342" rx="7.2" ry="7.2"/>
</g>
<!-- 8&#45;&gt;9 -->
<g id="edge15" class="edge"><title>8&#45;&gt;9</title>
<path fill="none" stroke="black" d="M12.2422,-145.571C24.487,-148.77 50.1207,-155.466 67.2248,-159.933"/>
<polygon fill="black" stroke="black" points="66.4465,-163.348 77.0065,-162.489 68.2157,-156.575 66.4465,-163.348"/>
</g>
<!-- 11 -->
<g id="node14" class="node"><title>11</title>
<ellipse fill="black" stroke="black" cx="163.171" cy="-141.647" rx="7.2" ry="7.2"/>
</g>
<!-- 9&#45;&gt;11 -->
<g id="edge16" class="edge"><title>9&#45;&gt;11</title>
<path fill="none" stroke="black" d="M91.0864,-166.263C104.003,-165.937 131.718,-158.595 148.788,-151.537"/>
<polygon fill="black" stroke="black" points="150.704,-154.5 158.205,-147.017 147.675,-148.189 150.704,-154.5"/>
</g>
<!-- 11&#45;&gt;9 -->
<g id="edge19" class="edge"><title>11&#45;&gt;9</title>
<path fill="none" stroke="black" d="M156.187,-139.726C143.27,-140.052 115.555,-147.395 98.4856,-154.452"/>
<polygon fill="black" stroke="black" points="96.5692,-151.489 89.0681,-158.972 99.598,-157.8 96.5692,-151.489"/>
</g>
<!-- 12 -->
<g id="node15" class="node"><title>12</title>
<ellipse fill="black" stroke="black" cx="212.578" cy="-75.593" rx="7.2" ry="7.2"/>
</g>
<!-- 11&#45;&gt;12 -->
<g id="edge18" class="edge"><title>11&#45;&gt;12</title>
<path fill="none" stroke="black" d="M167.731,-135.551C175.491,-125.176 191.457,-103.831 202.093,-89.6118"/>
<polygon fill="black" stroke="black" points="204.985,-91.5881 208.172,-81.4839 199.38,-87.3953 204.985,-91.5881"/>
</g>
<!-- 12&#45;&gt;13 -->
<g id="edge20" class="edge"><title>12&#45;&gt;13</title>
<path fill="none" stroke="black" d="M212.306,-68.2794C211.829,-55.4824 210.831,-28.6929 210.164,-10.8176"/>
<polygon fill="black" stroke="black" points="213.654,-10.4576 209.783,-0.594886 206.658,-10.7183 213.654,-10.4576"/>
</g>
<!-- 16&#45;&gt;1 -->
<g id="edge24" class="edge"><title>16&#45;&gt;1</title>
<path fill="none" stroke="black" d="M-3.15772,89.7902C-16.2405,86.6609 -44.4118,79.9227 -62.6717,75.5551"/>
<polygon fill="black" stroke="black" points="-63.6254,78.9258 -72.5368,73.1955 -61.9969,72.1179 -63.6254,78.9258"/>
</g>
</g>
</svg>
