<?xml version="1.0" encoding="UTF-8" standalone="no"?>
<!DOCTYPE svg PUBLIC "-//W3C//DTD SVG 1.1//EN"
 "http://www.w3.org/Graphics/SVG/1.1/DTD/svg11.dtd">
<!-- Generated by graphviz version 2.38.0 (20140413.2041)
 -->
<!-- Title: %3 Pages: 1 -->
<svg width="413pt" height="332pt"
 viewBox="0.00 0.00 413.00 331.86" xmlns="http://www.w3.org/2000/svg" xmlns:xlink="http://www.w3.org/1999/xlink">
<g id="graph0" class="graph" transform="scale(1 1) rotate(0) translate(192.82 171.942)">
<title>%3</title>
<polygon fill="white" stroke="none" points="-192.82,159.918 -192.82,-171.942 220.178,-171.942 220.178,159.918 -192.82,159.918"/>
<!-- 1 -->
<g id="node1" class="node"><title>1</title>
<ellipse fill="none" stroke="black" cx="-79.6482" cy="71.4945" rx="3.5" ry="3.5"/>
</g>
<!-- 14 -->
<g id="node2" class="node"><title>14</title>
<ellipse fill="black" stroke="black" cx="-66.3292" cy="152.318" rx="3.6" ry="3.6"/>
</g>
<!-- 1&#45;&gt;14 -->
<g id="edge1" class="edge"><title>1&#45;&gt;14</title>
<path fill="none" stroke="black" d="M-76.6099,73.756C-70.487,83.1357 -63.735,119.17 -63.4125,139.022"/>
<polygon fill="black" stroke="black" points="-59.9295,139.384 -64.152,149.101 -66.9108,138.872 -59.9295,139.384"/>
</g>
<!-- 7 -->
<g id="node3" class="node"><title>7</title>
<ellipse fill="black" stroke="black" cx="-127.375" cy="141.515" rx="3.6" ry="3.6"/>
</g>
<!-- 1&#45;&gt;7 -->
<g id="edge2" class="edge"><title>1&#45;&gt;7</title>
<path fill="none" stroke="black" d="M-79.0628,75.3056C-81.3128,86.6583 -102.167,118.659 -116.016,133.733"/>
<polygon fill="black" stroke="black" points="-114.074,136.696 -123.838,140.807 -118.769,131.504 -114.074,136.696"/>
</g>
<!-- 2 -->
<g id="node4" class="node"><title>2</title>
<ellipse fill="black" stroke="black" cx="-159.443" cy="88.5243" rx="3.6" ry="3.6"/>
</g>
<!-- 1&#45;&gt;2 -->
<g id="edge3" class="edge"><title>1&#45;&gt;2</title>
<path fill="none" stroke="black" d="M-81.7541,74.6334C-90.7968,81.1812 -126.333,89.5867 -146.074,90.8243"/>
<polygon fill="black" stroke="black" points="-146.237,94.3213 -156.138,90.5505 -146.047,87.3239 -146.237,94.3213"/>
</g>
<!-- 5 -->
<g id="node5" class="node"><title>5</title>
<ellipse fill="black" stroke="black" cx="-101.275" cy="-16.354" rx="3.6" ry="3.6"/>
</g>
<!-- 1&#45;&gt;5 -->
<g id="edge4" class="edge"><title>1&#45;&gt;5</title>
<path fill="none" stroke="black" d="M-80.5775,67.7198C-83.5513,55.6403 -92.9341,17.5278 -97.9829,-2.98037"/>
<polygon fill="black" stroke="black" points="-101.382,-2.14435 -100.374,-12.6911 -94.5845,-3.81775 -101.382,-2.14435"/>
</g>
<!-- 14&#45;&gt;1 -->
<g id="edge22" class="edge"><title>14&#45;&gt;1</title>
<path fill="none" stroke="black" d="M-69.3675,150.056C-75.5157,140.637 -82.2985,104.343 -82.5686,84.5435"/>
<polygon fill="black" stroke="black" points="-86.0393,84.0428 -81.7335,74.3624 -79.0628,84.6151 -86.0393,84.0428"/>
</g>
<!-- 7&#45;&gt;1 -->
<g id="edge14" class="edge"><title>7&#45;&gt;1</title>
<path fill="none" stroke="black" d="M-127.96,137.704C-125.71,126.351 -104.856,94.3508 -91.0075,79.2766"/>
<polygon fill="black" stroke="black" points="-92.9493,76.3137 -83.1848,72.202 -88.254,81.5055 -92.9493,76.3137"/>
</g>
<!-- 2&#45;&gt;1 -->
<g id="edge5" class="edge"><title>2&#45;&gt;1</title>
<path fill="none" stroke="black" d="M-157.337,85.3855C-148.257,78.8105 -112.462,70.3624 -92.7722,69.1795"/>
<polygon fill="black" stroke="black" points="-92.4693,65.688 -82.6011,69.5441 -92.7201,72.6835 -92.4693,65.688"/>
</g>
<!-- 3 -->
<g id="node6" class="node"><title>3</title>
<ellipse fill="black" stroke="black" cx="-153.483" cy="-80.1575" rx="3.6" ry="3.6"/>
</g>
<!-- 5&#45;&gt;3 -->
<g id="edge9" class="edge"><title>5&#45;&gt;3</title>
<path fill="none" stroke="black" d="M-105.048,-16.8113C-115.029,-21.9112 -138.831,-49.7106 -149.178,-66.873"/>
<polygon fill="black" stroke="black" points="-152.522,-65.7465 -153.753,-76.2696 -146.229,-68.811 -152.522,-65.7465"/>
</g>
<!-- 6 -->
<g id="node10" class="node"><title>6</title>
<ellipse fill="black" stroke="black" cx="-50.9688" cy="-84.8467" rx="3.6" ry="3.6"/>
</g>
<!-- 5&#45;&gt;6 -->
<g id="edge10" class="edge"><title>5&#45;&gt;6</title>
<path fill="none" stroke="black" d="M-101.721,-20.1898C-99.055,-31.481 -77.0219,-62.8155 -62.6169,-77.4397"/>
<polygon fill="black" stroke="black" points="-64.4332,-80.4864 -54.5325,-84.2582 -59.9202,-75.1355 -64.4332,-80.4864"/>
</g>
<!-- 10 -->
<g id="node11" class="node"><title>10</title>
<ellipse fill="black" stroke="black" cx="-185.22" cy="-21.9747" rx="3.6" ry="3.6"/>
</g>
<!-- 5&#45;&gt;10 -->
<g id="edge11" class="edge"><title>5&#45;&gt;10</title>
<path fill="none" stroke="black" d="M-104.244,-13.9168C-115.102,-10.096 -153.023,-11.844 -172.882,-16.1394"/>
<polygon fill="black" stroke="black" points="-173.989,-12.8183 -182.509,-19.116 -171.921,-19.5059 -173.989,-12.8183"/>
</g>
<!-- 3&#45;&gt;5 -->
<g id="edge6" class="edge"><title>3&#45;&gt;5</title>
<path fill="none" stroke="black" d="M-149.71,-79.7002C-139.73,-74.6003 -115.927,-46.8009 -105.581,-29.6385"/>
<polygon fill="black" stroke="black" points="-102.236,-30.765 -101.005,-20.2419 -108.53,-27.7005 -102.236,-30.765"/>
</g>
<!-- 4 -->
<g id="node7" class="node"><title>4</title>
<ellipse fill="black" stroke="black" cx="160.218" cy="72.6622" rx="3.6" ry="3.6"/>
</g>
<!-- 15 -->
<g id="node8" class="node"><title>15</title>
<ellipse fill="black" stroke="black" cx="84.9499" cy="103.829" rx="3.6" ry="3.6"/>
</g>
<!-- 4&#45;&gt;15 -->
<g id="edge7" class="edge"><title>4&#45;&gt;15</title>
<path fill="none" stroke="black" d="M156.588,74.1654C146.085,78.5143 115.299,91.2621 97.6917,98.5526"/>
<polygon fill="black" stroke="black" points="98.9486,101.82 88.3703,102.412 96.2705,95.3528 98.9486,101.82"/>
</g>
<!-- 13 -->
<g id="node9" class="node"><title>13</title>
<ellipse fill="black" stroke="black" cx="209.507" cy="6.82088" rx="3.6" ry="3.6"/>
</g>
<!-- 4&#45;&gt;13 -->
<g id="edge8" class="edge"><title>4&#45;&gt;13</title>
<path fill="none" stroke="black" d="M159.753,68.8953C162.293,58.0014 183.514,28.2907 197.663,14.1645"/>
<polygon fill="black" stroke="black" points="195.75,11.2023 205.672,7.48646 200.233,16.5786 195.75,11.2023"/>
</g>
<!-- 16 -->
<g id="node16" class="node"><title>16</title>
<ellipse fill="black" stroke="black" cx="3.97166" cy="91.4955" rx="3.6" ry="3.6"/>
</g>
<!-- 15&#45;&gt;16 -->
<g id="edge23" class="edge"><title>15&#45;&gt;16</title>
<path fill="none" stroke="black" d="M81.0441,103.234C69.7446,101.513 36.6227,96.4683 17.6801,93.5833"/>
<polygon fill="black" stroke="black" points="17.0106,97.0218 7.65157,92.0559 18.0646,90.1016 17.0106,97.0218"/>
</g>
<!-- 13&#45;&gt;4 -->
<g id="edge21" class="edge"><title>13&#45;&gt;4</title>
<path fill="none" stroke="black" d="M209.973,10.5877C207.432,21.4816 186.211,51.1923 172.062,65.3185"/>
<polygon fill="black" stroke="black" points="173.975,68.2807 164.053,71.9966 169.492,62.9044 173.975,68.2807"/>
</g>
<!-- 6&#45;&gt;5 -->
<g id="edge12" class="edge"><title>6&#45;&gt;5</title>
<path fill="none" stroke="black" d="M-50.5228,-81.0109C-53.1891,-69.7198 -75.2222,-38.3852 -89.6272,-23.761"/>
<polygon fill="black" stroke="black" points="-87.8109,-20.7143 -97.7116,-16.9425 -92.324,-26.0653 -87.8109,-20.7143"/>
</g>
<!-- 8 -->
<g id="node12" class="node"><title>8</title>
<ellipse fill="black" stroke="black" cx="5.24403" cy="-143.743" rx="3.6" ry="3.6"/>
</g>
<!-- 6&#45;&gt;8 -->
<g id="edge13" class="edge"><title>6&#45;&gt;8</title>
<path fill="none" stroke="black" d="M-48.2575,-87.6874C-40.4137,-95.9057 -17.4214,-119.996 -4.27198,-133.773"/>
<polygon fill="black" stroke="black" points="-6.74672,-136.249 2.68954,-141.067 -1.68293,-131.416 -6.74672,-136.249"/>
</g>
<!-- 10&#45;&gt;5 -->
<g id="edge17" class="edge"><title>10&#45;&gt;5</title>
<path fill="none" stroke="black" d="M-182.251,-24.412C-171.394,-28.2328 -133.473,-26.4848 -113.614,-22.1894"/>
<polygon fill="black" stroke="black" points="-112.506,-25.5105 -103.986,-19.2128 -114.574,-18.8229 -112.506,-25.5105"/>
</g>
<!-- 9 -->
<g id="node13" class="node"><title>9</title>
<ellipse fill="black" stroke="black" cx="84.1023" cy="-164.342" rx="3.6" ry="3.6"/>
</g>
<!-- 8&#45;&gt;9 -->
<g id="edge15" class="edge"><title>8&#45;&gt;9</title>
<path fill="none" stroke="black" d="M9.04752,-144.737C20.0512,-147.611 52.3061,-156.036 70.7528,-160.855"/>
<polygon fill="black" stroke="black" points="69.9588,-164.265 80.5187,-163.406 71.728,-157.492 69.9588,-164.265"/>
</g>
<!-- 11 -->
<g id="node14" class="node"><title>11</title>
<ellipse fill="black" stroke="black" cx="163.171" cy="-141.647" rx="3.6" ry="3.6"/>
</g>
<!-- 9&#45;&gt;11 -->
<g id="edge16" class="edge"><title>9&#45;&gt;11</title>
<path fill="none" stroke="black" d="M87.4587,-166.115C98.5992,-167.616 134.2,-158.233 152.357,-149.994"/>
<polygon fill="black" stroke="black" points="154.208,-152.968 161.186,-144.996 150.76,-146.876 154.208,-152.968"/>
</g>
<!-- 11&#45;&gt;9 -->
<g id="edge19" class="edge"><title>11&#45;&gt;9</title>
<path fill="none" stroke="black" d="M159.815,-139.874C148.674,-138.373 113.073,-147.756 94.9168,-155.995"/>
<polygon fill="black" stroke="black" points="93.0652,-153.021 86.0871,-160.993 96.5137,-159.113 93.0652,-153.021"/>
</g>
<!-- 12 -->
<g id="node15" class="node"><title>12</title>
<ellipse fill="black" stroke="black" cx="212.578" cy="-75.593" rx="3.6" ry="3.6"/>
</g>
<!-- 11&#45;&gt;12 -->
<g id="edge18" class="edge"><title>11&#45;&gt;12</title>
<path fill="none" stroke="black" d="M165.554,-138.461C172.448,-129.244 192.657,-102.227 204.214,-86.775"/>
<polygon fill="black" stroke="black" points="207.146,-88.6989 210.333,-78.5947 201.541,-84.5061 207.146,-88.6989"/>
</g>
<!-- 12&#45;&gt;13 -->
<g id="edge20" class="edge"><title>12&#45;&gt;13</title>
<path fill="none" stroke="black" d="M212.43,-71.618C212.002,-60.1182 210.745,-26.409 210.027,-7.1306"/>
<polygon fill="black" stroke="black" points="213.517,-6.78696 209.647,3.07573 206.522,-7.04771 213.517,-6.78696"/>
</g>
<!-- 16&#45;&gt;1 -->
<g id="edge24" class="edge"><title>16&#45;&gt;1</title>
<path fill="none" stroke="black" d="M0.378624,90.636C-11.0119,87.9116 -46.7213,79.3703 -66.3666,74.6713"/>
<polygon fill="black" stroke="black" points="-67.2501,78.0588 -76.1616,72.3285 -65.6217,71.2509 -67.2501,78.0588"/>
</g>
</g>
</svg>
