<?xml version="1.0" encoding="UTF-8" standalone="no"?>
<!DOCTYPE svg PUBLIC "-//W3C//DTD SVG 1.1//EN"
 "http://www.w3.org/Graphics/SVG/1.1/DTD/svg11.dtd">
<!-- Generated by graphviz version 2.38.0 (20140413.2041)
 -->
<!-- Title: %3 Pages: 1 -->
<svg width="409pt" height="199pt"
 viewBox="0.00 0.00 408.74 199.38" xmlns="http://www.w3.org/2000/svg" xmlns:xlink="http://www.w3.org/1999/xlink">
<g id="graph0" class="graph" transform="scale(1 1) rotate(0) translate(213.295 80.6128)">
<title>%3</title>
<polygon fill="white" stroke="none" points="-213.295,118.769 -213.295,-80.6128 195.442,-80.6128 195.442,118.769 -213.295,118.769"/>
<!-- 1 -->
<g id="node1" class="node"><title>1</title>
<ellipse fill="none" stroke="black" cx="184.442" cy="107.769" rx="7" ry="7"/>
</g>
<!-- 2 -->
<g id="node2" class="node"><title>2</title>
<ellipse fill="black" stroke="black" cx="130.577" cy="59.5588" rx="7.2" ry="7.2"/>
</g>
<!-- 1&#45;&gt;2 -->
<g id="edge1" class="edge"><title>1&#45;&gt;2</title>
<path fill="none" stroke="black" d="M179.08,102.97C170.938,95.6819 155.203,81.5992 143.86,71.4468"/>
<polygon fill="black" stroke="black" points="141.357,73.9041 136.24,64.627 146.026,68.6881 141.357,73.9041"/>
</g>
<!-- 3 -->
<g id="node3" class="node"><title>3</title>
<ellipse fill="black" stroke="black" cx="70.9687" cy="18.5408" rx="7.2" ry="7.2"/>
</g>
<!-- 2&#45;&gt;3 -->
<g id="edge2" class="edge"><title>2&#45;&gt;3</title>
<path fill="none" stroke="black" d="M124.644,55.4759C115.633,49.2752 98.2204,37.2933 85.6675,28.6554"/>
<polygon fill="black" stroke="black" points="83.4891,31.405 77.2352,22.8529 87.4573,25.6384 83.4891,31.405"/>
</g>
<!-- 4 -->
<g id="node4" class="node"><title>4</title>
<ellipse fill="black" stroke="black" cx="7.05356" cy="-15.3688" rx="7.2" ry="7.2"/>
</g>
<!-- 3&#45;&gt;4 -->
<g id="edge3" class="edge"><title>3&#45;&gt;4</title>
<path fill="none" stroke="black" d="M64.6066,15.1654C54.9445,10.0393 36.2741,0.1339 22.8144,-7.00704"/>
<polygon fill="black" stroke="black" points="20.9662,-4.02543 13.7728,-11.804 24.2469,-10.2091 20.9662,-4.02543"/>
</g>
<!-- 5 -->
<g id="node5" class="node"><title>5</title>
<ellipse fill="black" stroke="black" cx="-60.4798" cy="-41.4124" rx="7.2" ry="7.2"/>
</g>
<!-- 4&#45;&gt;5 -->
<g id="edge4" class="edge"><title>4&#45;&gt;5</title>
<path fill="none" stroke="black" d="M0.331305,-17.9612C-9.87772,-21.8982 -29.6051,-29.5059 -43.8268,-34.9903"/>
<polygon fill="black" stroke="black" points="-45.3093,-31.8107 -53.3802,-38.6745 -42.7905,-38.3419 -45.3093,-31.8107"/>
</g>
<!-- 6 -->
<g id="node6" class="node"><title>6</title>
<ellipse fill="black" stroke="black" cx="-130.467" cy="-59.6742" rx="7.2" ry="7.2"/>
</g>
<!-- 5&#45;&gt;6 -->
<g id="edge5" class="edge"><title>5&#45;&gt;6</title>
<path fill="none" stroke="black" d="M-67.7061,-43.298C-78.3931,-46.0865 -98.7237,-51.3914 -113.353,-55.2087"/>
<polygon fill="black" stroke="black" points="-114.383,-51.8601 -123.175,-57.7715 -112.616,-58.6333 -114.383,-51.8601"/>
</g>
<!-- 7 -->
<g id="node7" class="node"><title>7</title>
<ellipse fill="black" stroke="black" cx="-202.095" cy="-69.4128" rx="7.2" ry="7.2"/>
</g>
<!-- 6&#45;&gt;7 -->
<g id="edge6" class="edge"><title>6&#45;&gt;7</title>
<path fill="none" stroke="black" d="M-137.863,-60.6797C-148.8,-62.1668 -169.607,-64.9957 -184.58,-67.0314"/>
<polygon fill="black" stroke="black" points="-185.195,-63.5827 -194.632,-68.3981 -184.251,-70.5189 -185.195,-63.5827"/>
</g>
</g>
</svg>
