<?xml version="1.0" encoding="UTF-8" standalone="no"?>
<!DOCTYPE svg PUBLIC "-//W3C//DTD SVG 1.1//EN"
 "http://www.w3.org/Graphics/SVG/1.1/DTD/svg11.dtd">
<!-- Generated by graphviz version 2.38.0 (20140413.2041)
 -->
<!-- Title: %3 Pages: 1 -->
<svg width="402pt" height="192pt"
 viewBox="0.00 0.00 401.64 192.28" xmlns="http://www.w3.org/2000/svg" xmlns:xlink="http://www.w3.org/1999/xlink">
<g id="graph0" class="graph" transform="scale(1 1) rotate(0) translate(209.695 77.0128)">
<title>%3</title>
<polygon fill="white" stroke="none" points="-209.695,115.269 -209.695,-77.0128 191.942,-77.0128 191.942,115.269 -209.695,115.269"/>
<!-- 1 -->
<g id="node1" class="node"><title>1</title>
<ellipse fill="none" stroke="black" cx="184.442" cy="107.769" rx="3.5" ry="3.5"/>
</g>
<!-- 2 -->
<g id="node2" class="node"><title>2</title>
<ellipse fill="black" stroke="black" cx="130.577" cy="59.5588" rx="3.6" ry="3.6"/>
</g>
<!-- 1&#45;&gt;2 -->
<g id="edge1" class="edge"><title>1&#45;&gt;2</title>
<path fill="none" stroke="black" d="M181.546,105.177C174.02,98.4407 153.557,80.1256 140.966,68.8571"/>
<polygon fill="black" stroke="black" points="138.605,71.4407 133.488,62.1636 143.273,66.2247 138.605,71.4407"/>
</g>
<!-- 3 -->
<g id="node3" class="node"><title>3</title>
<ellipse fill="black" stroke="black" cx="70.9687" cy="18.5408" rx="3.6" ry="3.6"/>
</g>
<!-- 2&#45;&gt;3 -->
<g id="edge2" class="edge"><title>2&#45;&gt;3</title>
<path fill="none" stroke="black" d="M127.372,57.3535C119.044,51.6224 96.3983,36.0395 82.4655,26.452"/>
<polygon fill="black" stroke="black" points="80.4433,29.3091 74.1894,20.757 84.4115,23.5425 80.4433,29.3091"/>
</g>
<!-- 4 -->
<g id="node4" class="node"><title>4</title>
<ellipse fill="black" stroke="black" cx="7.05356" cy="-15.3688" rx="3.6" ry="3.6"/>
</g>
<!-- 3&#45;&gt;4 -->
<g id="edge3" class="edge"><title>3&#45;&gt;4</title>
<path fill="none" stroke="black" d="M67.5323,16.7177C58.6021,11.9798 34.3204,-0.902607 19.381,-8.8286"/>
<polygon fill="black" stroke="black" points="17.7003,-5.75811 10.5069,-13.5366 20.981,-11.9417 17.7003,-5.75811"/>
</g>
<!-- 5 -->
<g id="node5" class="node"><title>5</title>
<ellipse fill="black" stroke="black" cx="-60.4798" cy="-41.4124" rx="3.6" ry="3.6"/>
</g>
<!-- 4&#45;&gt;5 -->
<g id="edge4" class="edge"><title>4&#45;&gt;5</title>
<path fill="none" stroke="black" d="M3.42267,-16.769C-6.01309,-20.4078 -31.6693,-30.3019 -47.4545,-36.3894"/>
<polygon fill="black" stroke="black" points="-48.76,-33.1415 -56.8309,-40.0053 -46.2413,-39.6727 -48.76,-33.1415"/>
</g>
<!-- 6 -->
<g id="node6" class="node"><title>6</title>
<ellipse fill="black" stroke="black" cx="-130.467" cy="-59.6742" rx="3.6" ry="3.6"/>
</g>
<!-- 5&#45;&gt;6 -->
<g id="edge5" class="edge"><title>5&#45;&gt;6</title>
<path fill="none" stroke="black" d="M-64.2426,-42.3943C-74.0213,-44.9458 -100.61,-51.8835 -116.969,-56.152"/>
<polygon fill="black" stroke="black" points="-117.893,-52.776 -126.686,-58.6875 -116.126,-59.5493 -117.893,-52.776"/>
</g>
<!-- 7 -->
<g id="node7" class="node"><title>7</title>
<ellipse fill="black" stroke="black" cx="-202.095" cy="-69.4128" rx="3.6" ry="3.6"/>
</g>
<!-- 6&#45;&gt;7 -->
<g id="edge6" class="edge"><title>6&#45;&gt;7</title>
<path fill="none" stroke="black" d="M-134.318,-60.1978C-144.326,-61.5584 -171.538,-65.2582 -188.28,-67.5345"/>
<polygon fill="black" stroke="black" points="-188.787,-64.0712 -198.224,-68.8866 -187.844,-71.0074 -188.787,-64.0712"/>
</g>
</g>
</svg>
