<?xml version="1.0" encoding="UTF-8" standalone="no"?>
<!DOCTYPE svg PUBLIC "-//W3C//DTD SVG 1.1//EN"
 "http://www.w3.org/Graphics/SVG/1.1/DTD/svg11.dtd">
<!-- Generated by graphviz version 2.38.0 (20140413.2041)
 -->
<!-- Title: %3 Pages: 1 -->
<svg width="258pt" height="348pt"
 viewBox="0.00 0.00 258.37 348.11" xmlns="http://www.w3.org/2000/svg" xmlns:xlink="http://www.w3.org/1999/xlink">
<g id="graph0" class="graph" transform="scale(1 1) rotate(0) translate(160.665 182.021)">
<title>%3</title>
<polygon fill="white" stroke="none" points="-160.665,166.086 -160.665,-182.021 97.7017,-182.021 97.7017,166.086 -160.665,166.086"/>
<!-- 1 -->
<g id="node1" class="node"><title>1</title>
<ellipse fill="none" stroke="black" cx="-38.1917" cy="-50.8151" rx="7" ry="7"/>
</g>
<!-- 2 -->
<g id="node2" class="node"><title>2</title>
<ellipse fill="black" stroke="black" cx="18.5873" cy="3.82354" rx="7.2" ry="7.2"/>
</g>
<!-- 1&#45;&gt;2 -->
<g id="edge1" class="edge"><title>1&#45;&gt;2</title>
<path fill="none" stroke="black" d="M-31.0716,-49.2968C-20.2125,-43.2408 -0.440368,-25.0189 10.7553,-11.4614"/>
<polygon fill="black" stroke="black" points="13.5804,-13.5275 16.694,-3.40052 7.9447,-9.37548 13.5804,-13.5275"/>
</g>
<!-- 3 -->
<g id="node3" class="node"><title>3</title>
<ellipse fill="black" stroke="black" cx="-72.1187" cy="25.8216" rx="7.2" ry="7.2"/>
</g>
<!-- 1&#45;&gt;3 -->
<g id="edge2" class="edge"><title>1&#45;&gt;3</title>
<path fill="none" stroke="black" d="M-37.2457,-43.8046C-39.329,-30.8583 -50.8535,-3.35145 -60.4282,12.9854"/>
<polygon fill="black" stroke="black" points="-57.607,15.065 -66.036,21.4839 -63.4497,11.2096 -57.607,15.065"/>
</g>
<!-- 4 -->
<g id="node4" class="node"><title>4</title>
<ellipse fill="black" stroke="black" cx="31.4407" cy="-95.786" rx="7.2" ry="7.2"/>
</g>
<!-- 1&#45;&gt;4 -->
<g id="edge3" class="edge"><title>1&#45;&gt;4</title>
<path fill="none" stroke="black" d="M-35.1929,-57.1599C-26.4664,-66.7667 -2.01697,-83.2675 14.7766,-91.5636"/>
<polygon fill="black" stroke="black" points="13.4646,-94.8092 24.0346,-95.5338 16.2236,-88.3758 13.4646,-94.8092"/>
</g>
<!-- 2&#45;&gt;1 -->
<g id="edge5" class="edge"><title>2&#45;&gt;1</title>
<path fill="none" stroke="black" d="M11.4672,2.30525C0.605046,-3.75254 -19.1752,-21.983 -30.3692,-35.5417"/>
<polygon fill="black" stroke="black" points="-33.4577,-33.836 -36.5319,-43.9751 -27.8059,-37.9661 -33.4577,-33.836"/>
</g>
<!-- 5 -->
<g id="node5" class="node"><title>5</title>
<ellipse fill="black" stroke="black" cx="-1.8303" cy="76.4889" rx="7.2" ry="7.2"/>
</g>
<!-- 2&#45;&gt;5 -->
<g id="edge4" class="edge"><title>2&#45;&gt;5</title>
<path fill="none" stroke="black" d="M20.6824,10.8282C20.5266,22.6703 14.3751,46.7435 8.07584,62.2353"/>
<polygon fill="black" stroke="black" points="11.2091,63.7966 3.76311,71.3336 4.88377,60.7982 11.2091,63.7966"/>
</g>
<!-- 6 -->
<g id="node6" class="node"><title>6</title>
<ellipse fill="black" stroke="black" cx="86.5017" cy="-31.3626" rx="7.2" ry="7.2"/>
</g>
<!-- 2&#45;&gt;6 -->
<g id="edge6" class="edge"><title>2&#45;&gt;6</title>
<path fill="none" stroke="black" d="M22.5469,-2.7101C31.6814,-10.8577 53.9945,-23.0295 69.7288,-28.9894"/>
<polygon fill="black" stroke="black" points="68.7387,-32.3469 79.3278,-31.9971 70.8318,-25.6671 68.7387,-32.3469"/>
</g>
<!-- 3&#45;&gt;1 -->
<g id="edge9" class="edge"><title>3&#45;&gt;1</title>
<path fill="none" stroke="black" d="M-73.019,18.5339C-70.8129,5.44407 -59.3336,-21.89 -49.8131,-38.0968"/>
<polygon fill="black" stroke="black" points="-52.6752,-40.114 -44.2387,-46.5231 -46.8371,-36.2518 -52.6752,-40.114"/>
</g>
<!-- 3&#45;&gt;5 -->
<g id="edge7" class="edge"><title>3&#45;&gt;5</title>
<path fill="none" stroke="black" d="M-64.8984,26.4616C-52.3123,31.4222 -26.9566,48.964 -12.4303,62.0756"/>
<polygon fill="black" stroke="black" points="-9.58905,59.9674 -4.99607,69.5149 -14.5405,64.9155 -9.58905,59.9674"/>
</g>
<!-- 10 -->
<g id="node7" class="node"><title>10</title>
<ellipse fill="black" stroke="black" cx="-149.465" cy="35.6944" rx="7.2" ry="7.2"/>
</g>
<!-- 3&#45;&gt;10 -->
<g id="edge8" class="edge"><title>3&#45;&gt;10</title>
<path fill="none" stroke="black" d="M-77.7013,30.4084C-88.9941,35.011 -114.916,38.9235 -132.316,39.1908"/>
<polygon fill="black" stroke="black" points="-132.871,42.6708 -142.716,38.7571 -132.579,35.6769 -132.871,42.6708"/>
</g>
<!-- 4&#45;&gt;1 -->
<g id="edge11" class="edge"><title>4&#45;&gt;1</title>
<path fill="none" stroke="black" d="M28.0617,-89.0289C19.0659,-79.4131 -4.75172,-63.3644 -21.299,-55.1508"/>
<polygon fill="black" stroke="black" points="-20.3245,-51.7603 -30.8942,-51.031 -23.0862,-58.1924 -20.3245,-51.7603"/>
</g>
<!-- 4&#45;&gt;6 -->
<g id="edge10" class="edge"><title>4&#45;&gt;6</title>
<path fill="none" stroke="black" d="M38.6826,-93.2277C49.702,-85.3025 69.4695,-63.0047 80.0122,-47.3633"/>
<polygon fill="black" stroke="black" points="83.0825,-49.0487 85.2237,-38.6725 77.0791,-45.4487 83.0825,-49.0487"/>
</g>
<!-- 11 -->
<g id="node8" class="node"><title>11</title>
<ellipse fill="black" stroke="black" cx="46.9208" cy="-170.821" rx="7.2" ry="7.2"/>
</g>
<!-- 4&#45;&gt;11 -->
<g id="edge12" class="edge"><title>4&#45;&gt;11</title>
<path fill="none" stroke="black" d="M28.8764,-102.717C28.2264,-114.829 32.8405,-140.02 38.1505,-156.146"/>
<polygon fill="black" stroke="black" points="34.952,-157.575 41.8817,-165.589 41.4623,-155.003 34.952,-157.575"/>
</g>
<!-- 5&#45;&gt;2 -->
<g id="edge15" class="edge"><title>5&#45;&gt;2</title>
<path fill="none" stroke="black" d="M-3.92542,69.4842C-3.76954,57.6422 2.38198,33.569 8.68119,18.0772"/>
<polygon fill="black" stroke="black" points="5.54789,16.5159 12.9939,8.97881 11.8733,19.5142 5.54789,16.5159"/>
</g>
<!-- 5&#45;&gt;3 -->
<g id="edge14" class="edge"><title>5&#45;&gt;3</title>
<path fill="none" stroke="black" d="M-9.05059,75.8489C-21.6366,70.8883 -46.9923,53.3465 -61.5186,40.2349"/>
<polygon fill="black" stroke="black" points="-64.3599,42.3431 -68.9529,32.7956 -59.4085,37.395 -64.3599,42.3431"/>
</g>
<!-- 12 -->
<g id="node9" class="node"><title>12</title>
<ellipse fill="black" stroke="black" cx="-3.42582" cy="154.886" rx="7.2" ry="7.2"/>
</g>
<!-- 5&#45;&gt;12 -->
<g id="edge13" class="edge"><title>5&#45;&gt;12</title>
<path fill="none" stroke="black" d="M1.88673,82.7187C4.7807,94.6311 4.84314,120.994 2.55162,138.342"/>
<polygon fill="black" stroke="black" points="5.90283,139.455 0.594979,148.624 -0.973762,138.146 5.90283,139.455"/>
</g>
<!-- 6&#45;&gt;2 -->
<g id="edge16" class="edge"><title>6&#45;&gt;2</title>
<path fill="none" stroke="black" d="M82.5421,-24.829C73.4076,-16.6814 51.0945,-4.50955 35.3602,1.45028"/>
<polygon fill="black" stroke="black" points="36.3503,4.80781 25.7612,4.45806 34.2572,-1.87195 36.3503,4.80781"/>
</g>
<!-- 6&#45;&gt;4 -->
<g id="edge17" class="edge"><title>6&#45;&gt;4</title>
<path fill="none" stroke="black" d="M79.2597,-33.921C68.2404,-41.8461 48.4729,-64.1439 37.9302,-79.7854"/>
<polygon fill="black" stroke="black" points="34.8599,-78.0999 32.7187,-88.4761 40.8632,-81.6999 34.8599,-78.0999"/>
</g>
<!-- 13 -->
<g id="node10" class="node"><title>13</title>
<ellipse fill="black" stroke="black" cx="81.5808" cy="52.0712" rx="7.2" ry="7.2"/>
</g>
<!-- 6&#45;&gt;13 -->
<g id="edge18" class="edge"><title>6&#45;&gt;13</title>
<path fill="none" stroke="black" d="M86.065,-23.9584C85.2972,-10.9414 83.686,16.3765 82.6188,34.4723"/>
<polygon fill="black" stroke="black" points="86.1064,34.7871 82.0236,44.5637 79.1185,34.3749 86.1064,34.7871"/>
</g>
<!-- 10&#45;&gt;3 -->
<g id="edge19" class="edge"><title>10&#45;&gt;3</title>
<path fill="none" stroke="black" d="M-143.882,31.1076C-132.589,26.505 -106.668,22.5925 -89.2677,22.3252"/>
<polygon fill="black" stroke="black" points="-88.7129,18.8452 -78.8674,22.7589 -89.0046,25.8392 -88.7129,18.8452"/>
</g>
<!-- 11&#45;&gt;4 -->
<g id="edge20" class="edge"><title>11&#45;&gt;4</title>
<path fill="none" stroke="black" d="M49.4852,-163.891C50.1351,-151.778 45.521,-126.588 40.211,-110.462"/>
<polygon fill="black" stroke="black" points="43.4095,-109.032 36.4798,-101.018 36.8992,-111.605 43.4095,-109.032"/>
</g>
<!-- 12&#45;&gt;5 -->
<g id="edge21" class="edge"><title>12&#45;&gt;5</title>
<path fill="none" stroke="black" d="M-7.14284,148.656C-10.0368,136.743 -10.0993,110.381 -7.80773,93.0323"/>
<polygon fill="black" stroke="black" points="-11.1589,91.9199 -5.85109,82.7505 -4.28235,93.2286 -11.1589,91.9199"/>
</g>
<!-- 13&#45;&gt;5 -->
<g id="edge22" class="edge"><title>13&#45;&gt;5</title>
<path fill="none" stroke="black" d="M74.4692,54.1531C61.419,57.9733 33.3181,66.1996 15.1037,71.5316"/>
<polygon fill="black" stroke="black" points="15.8439,74.9618 5.26329,74.4123 13.8772,68.2437 15.8439,74.9618"/>
</g>
</g>
</svg>
