<?xml version="1.0" encoding="UTF-8" standalone="no"?>
<!DOCTYPE svg PUBLIC "-//W3C//DTD SVG 1.1//EN"
 "http://www.w3.org/Graphics/SVG/1.1/DTD/svg11.dtd">
<!-- Generated by graphviz version 2.38.0 (20140413.2041)
 -->
<!-- Title: %3 Pages: 1 -->
<svg width="251pt" height="341pt"
 viewBox="0.00 0.00 251.17 340.91" xmlns="http://www.w3.org/2000/svg" xmlns:xlink="http://www.w3.org/1999/xlink">
<g id="graph0" class="graph" transform="scale(1 1) rotate(0) translate(157.065 178.421)">
<title>%3</title>
<polygon fill="white" stroke="none" points="-157.065,162.486 -157.065,-178.421 94.1017,-178.421 94.1017,162.486 -157.065,162.486"/>
<!-- 1 -->
<g id="node1" class="node"><title>1</title>
<ellipse fill="none" stroke="black" cx="-38.1917" cy="-50.8151" rx="3.5" ry="3.5"/>
</g>
<!-- 2 -->
<g id="node2" class="node"><title>2</title>
<ellipse fill="black" stroke="black" cx="18.5873" cy="3.82354" rx="3.6" ry="3.6"/>
</g>
<!-- 1&#45;&gt;2 -->
<g id="edge1" class="edge"><title>1&#45;&gt;2</title>
<path fill="none" stroke="black" d="M-34.4789,-50.8924C-24.2906,-47.3262 1.47502,-23.6655 13.1517,-8.45837"/>
<polygon fill="black" stroke="black" points="16.1218,-10.3099 18.4851,0.0179863 10.1971,-6.582 16.1218,-10.3099"/>
</g>
<!-- 3 -->
<g id="node3" class="node"><title>3</title>
<ellipse fill="black" stroke="black" cx="-72.1187" cy="25.8216" rx="3.6" ry="3.6"/>
</g>
<!-- 1&#45;&gt;3 -->
<g id="edge2" class="edge"><title>1&#45;&gt;3</title>
<path fill="none" stroke="black" d="M-36.9155,-47.2006C-37.032,-35.7281 -51.6149,-0.837152 -62.4268,16.2756"/>
<polygon fill="black" stroke="black" points="-59.6664,18.4278 -68.5083,24.2649 -65.2363,14.1879 -59.6664,18.4278"/>
</g>
<!-- 4 -->
<g id="node4" class="node"><title>4</title>
<ellipse fill="black" stroke="black" cx="31.4407" cy="-95.786" rx="3.6" ry="3.6"/>
</g>
<!-- 1&#45;&gt;4 -->
<g id="edge3" class="edge"><title>1&#45;&gt;4</title>
<path fill="none" stroke="black" d="M-37.3018,-54.5208C-31.0384,-63.9422 -0.316882,-84.7393 17.9583,-93.0779"/>
<polygon fill="black" stroke="black" points="16.9998,-96.4513 27.5946,-96.482 19.3314,-89.851 16.9998,-96.4513"/>
</g>
<!-- 2&#45;&gt;1 -->
<g id="edge5" class="edge"><title>2&#45;&gt;1</title>
<path fill="none" stroke="black" d="M14.8745,3.90077C4.68624,0.334612 -21.0794,-23.3261 -32.7561,-38.5332"/>
<polygon fill="black" stroke="black" points="-35.7262,-36.6817 -38.0895,-47.0096 -29.8015,-40.4096 -35.7262,-36.6817"/>
</g>
<!-- 5 -->
<g id="node5" class="node"><title>5</title>
<ellipse fill="black" stroke="black" cx="-1.8303" cy="76.4889" rx="3.6" ry="3.6"/>
</g>
<!-- 2&#45;&gt;5 -->
<g id="edge4" class="edge"><title>2&#45;&gt;5</title>
<path fill="none" stroke="black" d="M20.4401,6.95271C22.2074,17.1209 14.106,49.0729 6.50178,65.9165"/>
<polygon fill="black" stroke="black" points="9.46382,67.7866 1.44416,74.7102 3.39584,64.2966 9.46382,67.7866"/>
</g>
<!-- 6 -->
<g id="node6" class="node"><title>6</title>
<ellipse fill="black" stroke="black" cx="86.5017" cy="-31.3626" rx="3.6" ry="3.6"/>
</g>
<!-- 2&#45;&gt;6 -->
<g id="edge6" class="edge"><title>2&#45;&gt;6</title>
<path fill="none" stroke="black" d="M19.637,0.317527C25.9973,-8.01586 55.5102,-24.2416 73.1958,-30.2368"/>
<polygon fill="black" stroke="black" points="72.3998,-33.6451 82.9351,-32.5232 73.9997,-26.8303 72.3998,-33.6451"/>
</g>
<!-- 3&#45;&gt;1 -->
<g id="edge9" class="edge"><title>3&#45;&gt;1</title>
<path fill="none" stroke="black" d="M-73.3949,22.2071C-73.2785,10.7414 -58.7126,-24.1153 -47.9028,-41.2388"/>
<polygon fill="black" stroke="black" points="-50.4076,-43.7223 -41.5311,-49.5066 -44.8631,-39.4493 -50.4076,-43.7223"/>
</g>
<!-- 3&#45;&gt;5 -->
<g id="edge7" class="edge"><title>3&#45;&gt;5</title>
<path fill="none" stroke="black" d="M-68.2421,25.3738C-56.6486,28.0873 -24.0059,50.6777 -9.11918,65.1723"/>
<polygon fill="black" stroke="black" points="-6.34436,63.0314 -2.49159,72.9009 -11.6581,67.5882 -6.34436,63.0314"/>
</g>
<!-- 10 -->
<g id="node7" class="node"><title>10</title>
<ellipse fill="black" stroke="black" cx="-149.465" cy="35.6944" rx="3.6" ry="3.6"/>
</g>
<!-- 3&#45;&gt;10 -->
<g id="edge8" class="edge"><title>3&#45;&gt;10</title>
<path fill="none" stroke="black" d="M-74.3591,28.759C-83.3799,34.4202 -117.321,39.5898 -136.346,39.1828"/>
<polygon fill="black" stroke="black" points="-136.936,42.6378 -146.464,38.0043 -136.126,35.6848 -136.936,42.6378"/>
</g>
<!-- 4&#45;&gt;1 -->
<g id="edge11" class="edge"><title>4&#45;&gt;1</title>
<path fill="none" stroke="black" d="M30.5508,-92.0803C24.2314,-82.5748 -6.9847,-61.4896 -25.1958,-53.3028"/>
<polygon fill="black" stroke="black" points="-24.1108,-49.975 -34.7052,-50.0623 -26.3687,-56.6009 -24.1108,-49.975"/>
</g>
<!-- 4&#45;&gt;6 -->
<g id="edge10" class="edge"><title>4&#45;&gt;6</title>
<path fill="none" stroke="black" d="M35.272,-95.3514C45.6382,-90.2025 71.0529,-61.684 81.9697,-44.366"/>
<polygon fill="black" stroke="black" points="85.3385,-45.4621 86.7461,-34.9612 79.0973,-42.2924 85.3385,-45.4621"/>
</g>
<!-- 11 -->
<g id="node8" class="node"><title>11</title>
<ellipse fill="black" stroke="black" cx="46.9208" cy="-170.821" rx="3.6" ry="3.6"/>
</g>
<!-- 4&#45;&gt;11 -->
<g id="edge12" class="edge"><title>4&#45;&gt;11</title>
<path fill="none" stroke="black" d="M29.3799,-98.814C26.9293,-108.97 32.8611,-141.899 39.316,-159.505"/>
<polygon fill="black" stroke="black" points="36.286,-161.281 43.7719,-168.778 42.5954,-158.249 36.286,-161.281"/>
</g>
<!-- 5&#45;&gt;2 -->
<g id="edge15" class="edge"><title>5&#45;&gt;2</title>
<path fill="none" stroke="black" d="M-3.68304,73.3597C-5.45041,63.1915 2.65105,31.2395 10.2553,14.396"/>
<polygon fill="black" stroke="black" points="7.29321,12.5258 15.3129,5.60227 13.3612,16.0158 7.29321,12.5258"/>
</g>
<!-- 5&#45;&gt;3 -->
<g id="edge14" class="edge"><title>5&#45;&gt;3</title>
<path fill="none" stroke="black" d="M-5.7069,76.9367C-17.3003,74.2232 -49.9431,51.6328 -64.8298,37.1382"/>
<polygon fill="black" stroke="black" points="-67.6046,39.2791 -71.4574,29.4096 -62.2908,34.7223 -67.6046,39.2791"/>
</g>
<!-- 12 -->
<g id="node9" class="node"><title>12</title>
<ellipse fill="black" stroke="black" cx="-3.42582" cy="154.886" rx="3.6" ry="3.6"/>
</g>
<!-- 5&#45;&gt;12 -->
<g id="edge13" class="edge"><title>5&#45;&gt;12</title>
<path fill="none" stroke="black" d="M0.746201,79.1508C5.02095,88.9592 5.14888,123.485 1.95178,142.35"/>
<polygon fill="black" stroke="black" points="5.27008,143.489 -0.700224,152.241 -1.49114,141.676 5.27008,143.489"/>
</g>
<!-- 6&#45;&gt;2 -->
<g id="edge16" class="edge"><title>6&#45;&gt;2</title>
<path fill="none" stroke="black" d="M85.452,-27.8566C79.0917,-19.5232 49.5788,-3.29743 31.8932,2.69777"/>
<polygon fill="black" stroke="black" points="32.6892,6.10599 22.1539,4.98416 31.0893,-0.708747 32.6892,6.10599"/>
</g>
<!-- 6&#45;&gt;4 -->
<g id="edge17" class="edge"><title>6&#45;&gt;4</title>
<path fill="none" stroke="black" d="M82.6703,-31.7973C72.3041,-36.9461 46.8895,-65.4646 35.9727,-82.7826"/>
<polygon fill="black" stroke="black" points="32.6039,-81.6865 31.1962,-92.1874 38.8451,-84.8563 32.6039,-81.6865"/>
</g>
<!-- 13 -->
<g id="node10" class="node"><title>13</title>
<ellipse fill="black" stroke="black" cx="81.5808" cy="52.0712" rx="3.6" ry="3.6"/>
</g>
<!-- 6&#45;&gt;13 -->
<g id="edge18" class="edge"><title>6&#45;&gt;13</title>
<path fill="none" stroke="black" d="M86.2643,-27.3384C85.5744,-15.6408 83.5457,18.7556 82.3974,38.2249"/>
<polygon fill="black" stroke="black" points="85.8872,38.5032 81.8044,48.2797 78.8993,38.091 85.8872,38.5032"/>
</g>
<!-- 10&#45;&gt;3 -->
<g id="edge19" class="edge"><title>10&#45;&gt;3</title>
<path fill="none" stroke="black" d="M-147.224,32.757C-138.204,27.0958 -104.262,21.9262 -85.2378,22.3332"/>
<polygon fill="black" stroke="black" points="-84.6472,18.8782 -75.1193,23.5117 -85.4571,25.8312 -84.6472,18.8782"/>
</g>
<!-- 11&#45;&gt;4 -->
<g id="edge20" class="edge"><title>11&#45;&gt;4</title>
<path fill="none" stroke="black" d="M48.9817,-167.793C51.4323,-157.638 45.5004,-124.709 39.0455,-107.102"/>
<polygon fill="black" stroke="black" points="42.0755,-105.327 34.5897,-97.8292 35.7661,-108.359 42.0755,-105.327"/>
</g>
<!-- 12&#45;&gt;5 -->
<g id="edge21" class="edge"><title>12&#45;&gt;5</title>
<path fill="none" stroke="black" d="M-6.00231,152.224C-10.2771,142.415 -10.405,107.889 -7.20789,89.0247"/>
<polygon fill="black" stroke="black" points="-10.5262,87.8856 -4.55589,79.1331 -3.76497,89.6984 -10.5262,87.8856"/>
</g>
<!-- 13&#45;&gt;5 -->
<g id="edge22" class="edge"><title>13&#45;&gt;5</title>
<path fill="none" stroke="black" d="M77.9967,53.1204C66.6346,56.4465 31.0143,66.874 11.4181,72.6106"/>
<polygon fill="black" stroke="black" points="12.2282,76.0203 1.64758,75.4708 10.2615,69.3022 12.2282,76.0203"/>
</g>
</g>
</svg>
