<?xml version="1.0" encoding="UTF-8" standalone="no"?>
<!DOCTYPE svg PUBLIC "-//W3C//DTD SVG 1.1//EN"
 "http://www.w3.org/Graphics/SVG/1.1/DTD/svg11.dtd">
<!-- Generated by graphviz version 2.38.0 (20140413.2041)
 -->
<!-- Title: %3 Pages: 1 -->
<svg width="349pt" height="394pt"
 viewBox="0.00 0.00 348.52 394.16" xmlns="http://www.w3.org/2000/svg" xmlns:xlink="http://www.w3.org/1999/xlink">
<g id="graph0" class="graph" transform="scale(1 1) rotate(0) translate(174.826 185.637)">
<title>%3</title>
<polygon fill="white" stroke="none" points="-174.826,208.519 -174.826,-185.637 173.697,-185.637 173.697,208.519 -174.826,208.519"/>
<!-- 1 -->
<g id="node1" class="node"><title>1</title>
<ellipse fill="none" stroke="black" cx="25.7406" cy="-73.3676" rx="7" ry="7"/>
</g>
<!-- 2 -->
<g id="node2" class="node"><title>2</title>
<ellipse fill="black" stroke="black" cx="-10.8022" cy="-149.943" rx="7.2" ry="7.2"/>
</g>
<!-- 1&#45;&gt;2 -->
<g id="edge1" class="edge"><title>1&#45;&gt;2</title>
<path fill="none" stroke="black" d="M19.7706,-77.2798C11.1904,-87.4778 -2.43673,-114.671 -8.66744,-132.784"/>
<polygon fill="black" stroke="black" points="-12.0412,-131.852 -11.4343,-142.43 -5.31252,-133.782 -12.0412,-131.852"/>
</g>
<!-- 2&#45;&gt;1 -->
<g id="edge2" class="edge"><title>2&#45;&gt;1</title>
<path fill="none" stroke="black" d="M-4.46644,-145.589C4.13146,-135.067 17.4656,-108.378 23.6076,-90.5205"/>
<polygon fill="black" stroke="black" points="27.0127,-91.3427 26.3959,-80.7659 20.2822,-89.4189 27.0127,-91.3427"/>
</g>
<!-- 3 -->
<g id="node3" class="node"><title>3</title>
<ellipse fill="black" stroke="black" cx="-92.3024" cy="-174.437" rx="7.2" ry="7.2"/>
</g>
<!-- 2&#45;&gt;3 -->
<g id="edge3" class="edge"><title>2&#45;&gt;3</title>
<path fill="none" stroke="black" d="M-18.0141,-148.17C-31.4664,-148.786 -60.454,-156.905 -77.9954,-164.417"/>
<polygon fill="black" stroke="black" points="-79.7686,-161.389 -87.197,-168.943 -76.6789,-167.67 -79.7686,-161.389"/>
</g>
<!-- 3&#45;&gt;2 -->
<g id="edge4" class="edge"><title>3&#45;&gt;2</title>
<path fill="none" stroke="black" d="M-85.0905,-176.21C-71.6382,-175.593 -42.6506,-167.474 -25.1092,-159.963"/>
<polygon fill="black" stroke="black" points="-23.336,-162.991 -15.9076,-155.437 -26.4257,-156.71 -23.336,-162.991"/>
</g>
<!-- 4 -->
<g id="node4" class="node"><title>4</title>
<ellipse fill="black" stroke="black" cx="-160.874" cy="-122.7" rx="7.2" ry="7.2"/>
</g>
<!-- 3&#45;&gt;4 -->
<g id="edge5" class="edge"><title>3&#45;&gt;4</title>
<path fill="none" stroke="black" d="M-95.0036,-167.76C-103.37,-157.269 -127.407,-138.386 -144.09,-128.481"/>
<polygon fill="black" stroke="black" points="-142.841,-125.183 -153.322,-123.63 -146.098,-131.38 -142.841,-125.183"/>
</g>
<!-- 4&#45;&gt;3 -->
<g id="edge6" class="edge"><title>4&#45;&gt;3</title>
<path fill="none" stroke="black" d="M-158.173,-129.376C-149.806,-139.868 -125.77,-158.751 -109.086,-168.655"/>
<polygon fill="black" stroke="black" points="-110.335,-171.953 -99.8545,-173.507 -107.079,-165.757 -110.335,-171.953"/>
</g>
<!-- 5 -->
<g id="node5" class="node"><title>5</title>
<ellipse fill="black" stroke="black" cx="-163.626" cy="-37.2241" rx="7.2" ry="7.2"/>
</g>
<!-- 4&#45;&gt;5 -->
<g id="edge7" class="edge"><title>4&#45;&gt;5</title>
<path fill="none" stroke="black" d="M-161.109,-115.412C-161.539,-102.039 -162.466,-73.2424 -163.067,-54.5772"/>
<polygon fill="black" stroke="black" points="-159.572,-54.3754 -163.392,-44.4932 -166.568,-54.6007 -159.572,-54.3754"/>
</g>
<!-- 6 -->
<g id="node6" class="node"><title>6</title>
<ellipse fill="black" stroke="black" cx="-100.308" cy="16.0587" rx="7.2" ry="7.2"/>
</g>
<!-- 5&#45;&gt;6 -->
<g id="edge8" class="edge"><title>5&#45;&gt;6</title>
<path fill="none" stroke="black" d="M-157.783,-32.3069C-147.837,-23.9379 -127.376,-6.71945 -113.746,4.75038"/>
<polygon fill="black" stroke="black" points="-111.352,2.19007 -105.955,11.3068 -115.86,7.54604 -111.352,2.19007"/>
</g>
<!-- 7 -->
<g id="node7" class="node"><title>7</title>
<ellipse fill="black" stroke="black" cx="-40.5412" cy="70.4458" rx="7.2" ry="7.2"/>
</g>
<!-- 6&#45;&gt;7 -->
<g id="edge9" class="edge"><title>6&#45;&gt;7</title>
<path fill="none" stroke="black" d="M-94.7922,21.0778C-85.4943,29.5388 -66.4581,46.8616 -53.5949,58.5671"/>
<polygon fill="black" stroke="black" points="-50.9118,56.2764 -45.8714,65.5954 -55.6231,61.4537 -50.9118,56.2764"/>
</g>
<!-- 13 -->
<g id="node8" class="node"><title>13</title>
<ellipse fill="black" stroke="black" cx="-48.0463" cy="-46.4159" rx="7.2" ry="7.2"/>
</g>
<!-- 6&#45;&gt;13 -->
<g id="edge10" class="edge"><title>6&#45;&gt;13</title>
<path fill="none" stroke="black" d="M-95.4848,10.2932C-87.2763,0.480556 -70.3878,-19.7083 -59.1379,-33.1568"/>
<polygon fill="black" stroke="black" points="-61.808,-35.4198 -52.7071,-40.8443 -56.4389,-30.9284 -61.808,-35.4198"/>
</g>
<!-- 8 -->
<g id="node9" class="node"><title>8</title>
<ellipse fill="black" stroke="black" cx="11.1594" cy="5.75842" rx="7.2" ry="7.2"/>
</g>
<!-- 7&#45;&gt;8 -->
<g id="edge11" class="edge"><title>7&#45;&gt;8</title>
<path fill="none" stroke="black" d="M-35.77,64.4761C-27.6496,54.3159 -10.9424,33.412 0.186891,19.4872"/>
<polygon fill="black" stroke="black" points="-2.42881,17.1539 6.54861,11.5274 3.03931,21.5242 -2.42881,17.1539"/>
</g>
<!-- 9 -->
<g id="node10" class="node"><title>9</title>
<ellipse fill="black" stroke="black" cx="10.7306" cy="134.386" rx="7.2" ry="7.2"/>
</g>
<!-- 7&#45;&gt;9 -->
<g id="edge12" class="edge"><title>7&#45;&gt;9</title>
<path fill="none" stroke="black" d="M-35.8096,76.3465C-27.7565,86.3893 -11.1879,107.052 -0.150891,120.815"/>
<polygon fill="black" stroke="black" points="2.63269,118.692 6.15806,128.683 -2.8284,123.071 2.63269,118.692"/>
</g>
<!-- 13&#45;&gt;1 -->
<g id="edge19" class="edge"><title>13&#45;&gt;1</title>
<path fill="none" stroke="black" d="M-41.2369,-48.9032C-29.7578,-53.0961 -6.25606,-61.6804 9.62466,-67.481"/>
<polygon fill="black" stroke="black" points="8.56616,-70.8205 19.16,-70.9639 10.9678,-64.2454 8.56616,-70.8205"/>
</g>
<!-- 8&#45;&gt;1 -->
<g id="edge13" class="edge"><title>8&#45;&gt;1</title>
<path fill="none" stroke="black" d="M12.505,-1.54374C14.7734,-13.8534 19.4177,-39.0557 22.5559,-56.0855"/>
<polygon fill="black" stroke="black" points="19.1858,-57.1108 24.4402,-66.3109 26.0699,-55.8421 19.1858,-57.1108"/>
</g>
<!-- 11 -->
<g id="node11" class="node"><title>11</title>
<ellipse fill="black" stroke="black" cx="94.2818" cy="145.09" rx="7.2" ry="7.2"/>
</g>
<!-- 9&#45;&gt;11 -->
<g id="edge14" class="edge"><title>9&#45;&gt;11</title>
<path fill="none" stroke="black" d="M18.1452,135.335C31.1805,137.005 58.5369,140.51 76.6582,142.832"/>
<polygon fill="black" stroke="black" points="77.2896,139.384 86.7637,144.127 76.4,146.327 77.2896,139.384"/>
</g>
<!-- 10 -->
<g id="node12" class="node"><title>10</title>
<ellipse fill="black" stroke="black" cx="44.9443" cy="197.319" rx="7.2" ry="7.2"/>
</g>
<!-- 9&#45;&gt;10 -->
<g id="edge15" class="edge"><title>9&#45;&gt;10</title>
<path fill="none" stroke="black" d="M14.3921,141.121C19.6154,150.728 29.3565,168.647 36.4389,181.674"/>
<polygon fill="black" stroke="black" points="39.7103,180.364 41.4117,190.821 33.5604,183.707 39.7103,180.364"/>
</g>
<!-- 11&#45;&gt;10 -->
<g id="edge16" class="edge"><title>11&#45;&gt;10</title>
<path fill="none" stroke="black" d="M89.0018,150.679C81.395,158.732 67.1437,173.819 56.9072,184.655"/>
<polygon fill="black" stroke="black" points="59.4497,187.061 50.0384,191.927 54.3611,182.254 59.4497,187.061"/>
</g>
<!-- 12 -->
<g id="node13" class="node"><title>12</title>
<ellipse fill="black" stroke="black" cx="157.596" cy="90.542" rx="7.2" ry="7.2"/>
</g>
<!-- 11&#45;&gt;12 -->
<g id="edge17" class="edge"><title>11&#45;&gt;12</title>
<path fill="none" stroke="black" d="M100.125,140.056C110.069,131.488 130.529,113.861 144.158,102.119"/>
<polygon fill="black" stroke="black" points="142.089,99.2823 151.949,95.4068 146.658,104.586 142.089,99.2823"/>
</g>
<!-- 14 -->
<g id="node14" class="node"><title>14</title>
<ellipse fill="black" stroke="black" cx="162.497" cy="5.50837" rx="7.2" ry="7.2"/>
</g>
<!-- 12&#45;&gt;14 -->
<g id="edge18" class="edge"><title>12&#45;&gt;14</title>
<path fill="none" stroke="black" d="M158.014,83.2921C158.78,69.9881 160.431,41.3405 161.502,22.7718"/>
<polygon fill="black" stroke="black" points="158.01,22.5219 162.08,12.7399 164.999,22.9248 158.01,22.5219"/>
</g>
<!-- 15 -->
<g id="node15" class="node"><title>15</title>
<ellipse fill="black" stroke="black" cx="109.551" cy="-61.0212" rx="7.2" ry="7.2"/>
</g>
<!-- 14&#45;&gt;15 -->
<g id="edge20" class="edge"><title>14&#45;&gt;15</title>
<path fill="none" stroke="black" d="M157.983,-0.163902C149.699,-10.5729 131.861,-32.9864 120.3,-47.5144"/>
<polygon fill="black" stroke="black" points="117.542,-45.3592 114.053,-55.3633 123.019,-49.7181 117.542,-45.3592"/>
</g>
<!-- 15&#45;&gt;1 -->
<g id="edge21" class="edge"><title>15&#45;&gt;1</title>
<path fill="none" stroke="black" d="M102.405,-62.0738C89.3543,-63.9964 61.3231,-68.1258 43.0152,-70.8228"/>
<polygon fill="black" stroke="black" points="42.2512,-67.3975 32.8681,-72.3176 43.2714,-74.3227 42.2512,-67.3975"/>
</g>
</g>
</svg>
