<?xml version="1.0" encoding="UTF-8" standalone="no"?>
<!DOCTYPE svg PUBLIC "-//W3C//DTD SVG 1.1//EN"
 "http://www.w3.org/Graphics/SVG/1.1/DTD/svg11.dtd">
<!-- Generated by graphviz version 2.38.0 (20140413.2041)
 -->
<!-- Title: %3 Pages: 1 -->
<svg width="341pt" height="387pt"
 viewBox="0.00 0.00 341.32 386.96" xmlns="http://www.w3.org/2000/svg" xmlns:xlink="http://www.w3.org/1999/xlink">
<g id="graph0" class="graph" transform="scale(1 1) rotate(0) translate(171.226 182.037)">
<title>%3</title>
<polygon fill="white" stroke="none" points="-171.226,204.919 -171.226,-182.037 170.097,-182.037 170.097,204.919 -171.226,204.919"/>
<!-- 1 -->
<g id="node1" class="node"><title>1</title>
<ellipse fill="none" stroke="black" cx="25.7406" cy="-73.3676" rx="3.5" ry="3.5"/>
</g>
<!-- 2 -->
<g id="node2" class="node"><title>2</title>
<ellipse fill="black" stroke="black" cx="-10.8022" cy="-149.943" rx="3.6" ry="3.6"/>
</g>
<!-- 1&#45;&gt;2 -->
<g id="edge1" class="edge"><title>1&#45;&gt;2</title>
<path fill="none" stroke="black" d="M22.151,-74.7826C13.425,-82.4881 -3.87943,-116.946 -9.8716,-136.474"/>
<polygon fill="black" stroke="black" points="-13.3528,-136.023 -11.9689,-146.527 -6.50036,-137.453 -13.3528,-136.023"/>
</g>
<!-- 2&#45;&gt;1 -->
<g id="edge2" class="edge"><title>2&#45;&gt;1</title>
<path fill="none" stroke="black" d="M-7.21268,-148.528C1.51334,-140.822 18.8178,-106.365 24.8099,-86.8361"/>
<polygon fill="black" stroke="black" points="28.2912,-87.2869 26.9073,-76.7829 21.4387,-85.8573 28.2912,-87.2869"/>
</g>
<!-- 3 -->
<g id="node3" class="node"><title>3</title>
<ellipse fill="black" stroke="black" cx="-92.3024" cy="-174.437" rx="3.6" ry="3.6"/>
</g>
<!-- 2&#45;&gt;3 -->
<g id="edge3" class="edge"><title>2&#45;&gt;3</title>
<path fill="none" stroke="black" d="M-14.2709,-148.239C-25.824,-146.973 -62.8166,-157.267 -81.4375,-165.953"/>
<polygon fill="black" stroke="black" points="-83.3459,-163.013 -90.2658,-171.036 -79.8532,-169.079 -83.3459,-163.013"/>
</g>
<!-- 3&#45;&gt;2 -->
<g id="edge4" class="edge"><title>3&#45;&gt;2</title>
<path fill="none" stroke="black" d="M-88.8337,-176.141C-77.2806,-177.407 -40.288,-167.113 -21.6671,-158.427"/>
<polygon fill="black" stroke="black" points="-19.7587,-161.367 -12.8388,-153.344 -23.2514,-155.3 -19.7587,-161.367"/>
</g>
<!-- 4 -->
<g id="node4" class="node"><title>4</title>
<ellipse fill="black" stroke="black" cx="-160.874" cy="-122.7" rx="3.6" ry="3.6"/>
</g>
<!-- 3&#45;&gt;4 -->
<g id="edge5" class="edge"><title>3&#45;&gt;4</title>
<path fill="none" stroke="black" d="M-92.9997,-170.616C-98.9409,-160.398 -129.892,-136.09 -147.996,-126.256"/>
<polygon fill="black" stroke="black" points="-146.7,-123.003 -157.269,-122.258 -149.471,-129.431 -146.7,-123.003"/>
</g>
<!-- 4&#45;&gt;3 -->
<g id="edge6" class="edge"><title>4&#45;&gt;3</title>
<path fill="none" stroke="black" d="M-160.177,-126.521C-154.235,-136.738 -123.284,-161.046 -105.181,-170.881"/>
<polygon fill="black" stroke="black" points="-106.476,-174.134 -95.9074,-174.879 -103.705,-167.706 -106.476,-174.134"/>
</g>
<!-- 5 -->
<g id="node5" class="node"><title>5</title>
<ellipse fill="black" stroke="black" cx="-163.626" cy="-37.2241" rx="3.6" ry="3.6"/>
</g>
<!-- 4&#45;&gt;5 -->
<g id="edge7" class="edge"><title>4&#45;&gt;5</title>
<path fill="none" stroke="black" d="M-160.992,-119.027C-161.364,-107.489 -162.521,-71.5433 -163.171,-51.3521"/>
<polygon fill="black" stroke="black" points="-159.679,-51.0575 -163.499,-41.1753 -166.675,-51.2828 -159.679,-51.0575"/>
</g>
<!-- 6 -->
<g id="node6" class="node"><title>6</title>
<ellipse fill="black" stroke="black" cx="-100.308" cy="16.0587" rx="3.6" ry="3.6"/>
</g>
<!-- 5&#45;&gt;6 -->
<g id="edge8" class="edge"><title>5&#45;&gt;6</title>
<path fill="none" stroke="black" d="M-160.572,-34.6541C-151.737,-27.2192 -125.838,-5.42531 -111.027,7.03869"/>
<polygon fill="black" stroke="black" points="-108.583,4.52064 -103.185,13.6374 -113.09,9.87661 -108.583,4.52064"/>
</g>
<!-- 7 -->
<g id="node7" class="node"><title>7</title>
<ellipse fill="black" stroke="black" cx="-40.5412" cy="70.4458" rx="3.6" ry="3.6"/>
</g>
<!-- 6&#45;&gt;7 -->
<g id="edge9" class="edge"><title>6&#45;&gt;7</title>
<path fill="none" stroke="black" d="M-97.4251,18.6819C-89.0854,26.2709 -64.6395,48.5165 -50.6588,61.2389"/>
<polygon fill="black" stroke="black" points="-48.2977,58.6553 -43.2572,67.9743 -53.0089,63.8325 -48.2977,58.6553"/>
</g>
<!-- 13 -->
<g id="node8" class="node"><title>13</title>
<ellipse fill="black" stroke="black" cx="-48.0463" cy="-46.4159" rx="3.6" ry="3.6"/>
</g>
<!-- 6&#45;&gt;13 -->
<g id="edge10" class="edge"><title>6&#45;&gt;13</title>
<path fill="none" stroke="black" d="M-97.7871,13.0454C-90.4947,4.32785 -69.1185,-21.2257 -56.8934,-35.8399"/>
<polygon fill="black" stroke="black" points="-59.5221,-38.1524 -50.4212,-43.5769 -54.153,-33.661 -59.5221,-38.1524"/>
</g>
<!-- 8 -->
<g id="node9" class="node"><title>8</title>
<ellipse fill="black" stroke="black" cx="11.1594" cy="5.75842" rx="3.6" ry="3.6"/>
</g>
<!-- 7&#45;&gt;8 -->
<g id="edge11" class="edge"><title>7&#45;&gt;8</title>
<path fill="none" stroke="black" d="M-38.0476,67.3258C-30.8334,58.2995 -9.68666,31.8409 2.40725,16.7091"/>
<polygon fill="black" stroke="black" points="-0.167442,14.3245 8.80998,8.69802 5.30069,18.6948 -0.167442,14.3245"/>
</g>
<!-- 9 -->
<g id="node10" class="node"><title>9</title>
<ellipse fill="black" stroke="black" cx="10.7306" cy="134.386" rx="3.6" ry="3.6"/>
</g>
<!-- 7&#45;&gt;9 -->
<g id="edge12" class="edge"><title>7&#45;&gt;9</title>
<path fill="none" stroke="black" d="M-38.0683,73.5298C-30.9139,82.4518 -9.94255,108.605 2.05106,123.561"/>
<polygon fill="black" stroke="black" points="4.8753,121.489 8.40068,131.48 -0.585784,125.868 4.8753,121.489"/>
</g>
<!-- 13&#45;&gt;1 -->
<g id="edge19" class="edge"><title>13&#45;&gt;1</title>
<path fill="none" stroke="black" d="M-44.4874,-47.7159C-34.2894,-51.4408 -4.58391,-62.2912 12.7529,-68.6236"/>
<polygon fill="black" stroke="black" points="11.7936,-71.9994 22.3874,-72.1428 14.1953,-65.4243 11.7936,-71.9994"/>
</g>
<!-- 8&#45;&gt;1 -->
<g id="edge13" class="edge"><title>8&#45;&gt;1</title>
<path fill="none" stroke="black" d="M11.8627,1.94201C13.8876,-9.04646 19.8046,-41.1556 23.2233,-59.7073"/>
<polygon fill="black" stroke="black" points="19.8236,-60.5717 25.0779,-69.7718 26.7076,-59.3031 19.8236,-60.5717"/>
</g>
<!-- 11 -->
<g id="node11" class="node"><title>11</title>
<ellipse fill="black" stroke="black" cx="94.2818" cy="145.09" rx="3.6" ry="3.6"/>
</g>
<!-- 9&#45;&gt;11 -->
<g id="edge14" class="edge"><title>9&#45;&gt;11</title>
<path fill="none" stroke="black" d="M14.3207,134.845C25.5984,136.29 60.7353,140.792 80.4719,143.321"/>
<polygon fill="black" stroke="black" points="80.9454,139.853 90.4195,144.595 80.0558,146.796 80.9454,139.853"/>
</g>
<!-- 10 -->
<g id="node12" class="node"><title>10</title>
<ellipse fill="black" stroke="black" cx="44.9443" cy="197.319" rx="3.6" ry="3.6"/>
</g>
<!-- 9&#45;&gt;10 -->
<g id="edge15" class="edge"><title>9&#45;&gt;10</title>
<path fill="none" stroke="black" d="M12.5701,137.769C17.304,146.477 30.0967,170.008 38.1111,184.75"/>
<polygon fill="black" stroke="black" points="41.3943,183.462 43.0957,193.919 35.2444,186.805 41.3943,183.462"/>
</g>
<!-- 11&#45;&gt;10 -->
<g id="edge16" class="edge"><title>11&#45;&gt;10</title>
<path fill="none" stroke="black" d="M91.6292,147.898C84.8027,155.125 66.355,174.654 54.798,186.888"/>
<polygon fill="black" stroke="black" points="57.0213,189.631 47.61,194.497 51.9326,184.824 57.0213,189.631"/>
</g>
<!-- 12 -->
<g id="node13" class="node"><title>12</title>
<ellipse fill="black" stroke="black" cx="157.596" cy="90.542" rx="3.6" ry="3.6"/>
</g>
<!-- 11&#45;&gt;12 -->
<g id="edge17" class="edge"><title>11&#45;&gt;12</title>
<path fill="none" stroke="black" d="M97.3356,142.459C106.17,134.847 132.067,112.536 146.878,99.7762"/>
<polygon fill="black" stroke="black" points="144.858,96.8964 154.719,93.0209 149.427,102.2 144.858,96.8964"/>
</g>
<!-- 14 -->
<g id="node14" class="node"><title>14</title>
<ellipse fill="black" stroke="black" cx="162.497" cy="5.50837" rx="3.6" ry="3.6"/>
</g>
<!-- 12&#45;&gt;14 -->
<g id="edge18" class="edge"><title>12&#45;&gt;14</title>
<path fill="none" stroke="black" d="M157.806,86.8882C158.468,75.4104 160.529,39.6501 161.687,19.5634"/>
<polygon fill="black" stroke="black" points="158.2,19.2212 162.27,9.43918 165.189,19.624 158.2,19.2212"/>
</g>
<!-- 15 -->
<g id="node15" class="node"><title>15</title>
<ellipse fill="black" stroke="black" cx="109.551" cy="-61.0212" rx="3.6" ry="3.6"/>
</g>
<!-- 14&#45;&gt;15 -->
<g id="edge20" class="edge"><title>14&#45;&gt;15</title>
<path fill="none" stroke="black" d="M160.222,2.64968C153.075,-6.33046 130.809,-34.309 118.302,-50.0247"/>
<polygon fill="black" stroke="black" points="115.487,-47.9417 111.998,-57.9457 120.964,-52.3006 115.487,-47.9417"/>
</g>
<!-- 15&#45;&gt;1 -->
<g id="edge21" class="edge"><title>15&#45;&gt;1</title>
<path fill="none" stroke="black" d="M105.949,-61.5517C94.5868,-63.2255 59.0794,-68.4563 39.332,-71.3653"/>
<polygon fill="black" stroke="black" points="38.6182,-67.9326 29.2351,-72.8528 39.6384,-74.8579 38.6182,-67.9326"/>
</g>
</g>
</svg>
