<?xml version="1.0" encoding="UTF-8" standalone="no"?>
<!DOCTYPE svg PUBLIC "-//W3C//DTD SVG 1.1//EN"
 "http://www.w3.org/Graphics/SVG/1.1/DTD/svg11.dtd">
<!-- Generated by graphviz version 2.38.0 (20140413.2041)
 -->
<!-- Title: %3 Pages: 1 -->
<svg width="960pt" height="342pt"
 viewBox="0.00 0.00 959.87 342.27" xmlns="http://www.w3.org/2000/svg" xmlns:xlink="http://www.w3.org/1999/xlink">
<g id="graph0" class="graph" transform="scale(1 1) rotate(0) translate(498.286 222.746)">
<title>%3</title>
<polygon fill="white" stroke="none" points="-498.286,119.52 -498.286,-222.746 461.586,-222.746 461.586,119.52 -498.286,119.52"/>
<!-- 1 -->
<g id="node1" class="node"><title>1</title>
<ellipse fill="none" stroke="black" cx="-487.286" cy="108.52" rx="7" ry="7"/>
</g>
<!-- 2 -->
<g id="node2" class="node"><title>2</title>
<ellipse fill="black" stroke="black" cx="-415.248" cy="104.776" rx="7.2" ry="7.2"/>
</g>
<!-- 1&#45;&gt;2 -->
<g id="edge1" class="edge"><title>1&#45;&gt;2</title>
<path fill="none" stroke="black" d="M-480.115,108.147C-469.225,107.582 -448.182,106.488 -433.012,105.7"/>
<polygon fill="black" stroke="black" points="-432.989,102.194 -422.821,105.17 -432.626,109.184 -432.989,102.194"/>
</g>
<!-- 3 -->
<g id="node3" class="node"><title>3</title>
<ellipse fill="black" stroke="black" cx="-342.967" cy="103.192" rx="7.2" ry="7.2"/>
</g>
<!-- 2&#45;&gt;3 -->
<g id="edge2" class="edge"><title>2&#45;&gt;3</title>
<path fill="none" stroke="black" d="M-407.785,104.613C-396.748,104.371 -375.751,103.911 -360.641,103.58"/>
<polygon fill="black" stroke="black" points="-360.572,100.077 -350.497,103.357 -360.418,107.076 -360.572,100.077"/>
</g>
<!-- 4 -->
<g id="node4" class="node"><title>4</title>
<ellipse fill="black" stroke="black" cx="-271.864" cy="90.2821" rx="7.2" ry="7.2"/>
</g>
<!-- 3&#45;&gt;4 -->
<g id="edge3" class="edge"><title>3&#45;&gt;4</title>
<path fill="none" stroke="black" d="M-335.625,101.859C-324.768,99.8879 -304.113,96.1376 -289.25,93.439"/>
<polygon fill="black" stroke="black" points="-289.736,89.97 -279.272,91.6272 -288.485,96.8574 -289.736,89.97"/>
</g>
<!-- 5 -->
<g id="node5" class="node"><title>5</title>
<ellipse fill="black" stroke="black" cx="-200.234" cy="80.7978" rx="7.2" ry="7.2"/>
</g>
<!-- 4&#45;&gt;5 -->
<g id="edge4" class="edge"><title>4&#45;&gt;5</title>
<path fill="none" stroke="black" d="M-264.468,89.3028C-253.53,87.8546 -232.722,85.0995 -217.749,83.1169"/>
<polygon fill="black" stroke="black" points="-218.07,79.6289 -207.697,81.7859 -217.151,86.5683 -218.07,79.6289"/>
</g>
<!-- 6 -->
<g id="node6" class="node"><title>6</title>
<ellipse fill="black" stroke="black" cx="-128.727" cy="70.0467" rx="7.2" ry="7.2"/>
</g>
<!-- 5&#45;&gt;6 -->
<g id="edge5" class="edge"><title>5&#45;&gt;6</title>
<path fill="none" stroke="black" d="M-192.851,79.6877C-181.932,78.046 -161.16,74.923 -146.212,72.6756"/>
<polygon fill="black" stroke="black" points="-146.586,69.1926 -136.177,71.1668 -145.546,76.1148 -146.586,69.1926"/>
</g>
<!-- 7 -->
<g id="node7" class="node"><title>7</title>
<ellipse fill="black" stroke="black" cx="-58.2691" cy="53.5352" rx="7.2" ry="7.2"/>
</g>
<!-- 6&#45;&gt;7 -->
<g id="edge6" class="edge"><title>6&#45;&gt;7</title>
<path fill="none" stroke="black" d="M-121.714,68.4031C-111.063,65.9071 -90.4809,61.0839 -75.6433,57.6067"/>
<polygon fill="black" stroke="black" points="-76.211,54.145 -65.6762,55.271 -74.6138,60.9604 -76.211,54.145"/>
</g>
<!-- 8 -->
<g id="node8" class="node"><title>8</title>
<ellipse fill="black" stroke="black" cx="11.1761" cy="33.2868" rx="7.2" ry="7.2"/>
</g>
<!-- 7&#45;&gt;8 -->
<g id="edge7" class="edge"><title>7&#45;&gt;8</title>
<path fill="none" stroke="black" d="M-51.3565,51.5196C-40.8585,48.4587 -20.5727,42.5439 -5.94838,38.2799"/>
<polygon fill="black" stroke="black" points="-6.7045,34.8546 3.87548,35.4155 -4.74503,41.5748 -6.7045,34.8546"/>
</g>
<!-- 9 -->
<g id="node9" class="node"><title>9</title>
<ellipse fill="black" stroke="black" cx="79.2595" cy="8.74716" rx="7.2" ry="7.2"/>
</g>
<!-- 8&#45;&gt;9 -->
<g id="edge8" class="edge"><title>8&#45;&gt;9</title>
<path fill="none" stroke="black" d="M17.9531,30.8442C28.2453,27.1345 48.1333,19.9661 62.4709,14.7984"/>
<polygon fill="black" stroke="black" points="61.5077,11.4252 72.1021,11.327 63.8813,18.0105 61.5077,11.4252"/>
</g>
<!-- 10 -->
<g id="node10" class="node"><title>10</title>
<ellipse fill="black" stroke="black" cx="146.283" cy="-18.5067" rx="7.2" ry="7.2"/>
</g>
<!-- 9&#45;&gt;10 -->
<g id="edge9" class="edge"><title>9&#45;&gt;10</title>
<path fill="none" stroke="black" d="M85.931,6.03432C96.0629,1.91436 115.641,-6.04683 129.755,-11.7862"/>
<polygon fill="black" stroke="black" points="128.655,-15.1169 139.237,-15.6415 131.292,-8.63245 128.655,-15.1169"/>
</g>
<!-- 11 -->
<g id="node11" class="node"><title>11</title>
<ellipse fill="black" stroke="black" cx="211.485" cy="-49.901" rx="7.2" ry="7.2"/>
</g>
<!-- 10&#45;&gt;11 -->
<g id="edge10" class="edge"><title>10&#45;&gt;11</title>
<path fill="none" stroke="black" d="M152.773,-21.6316C162.629,-26.3775 181.676,-35.5482 195.406,-42.1595"/>
<polygon fill="black" stroke="black" points="194.102,-45.4158 204.63,-46.6006 197.139,-39.1088 194.102,-45.4158"/>
</g>
<!-- 13 -->
<g id="node12" class="node"><title>13</title>
<ellipse fill="black" stroke="black" cx="274.424" cy="-85.5287" rx="7.2" ry="7.2"/>
</g>
<!-- 11&#45;&gt;13 -->
<g id="edge11" class="edge"><title>11&#45;&gt;13</title>
<path fill="none" stroke="black" d="M218.22,-53.7138C227.924,-59.2068 246.105,-69.498 259.163,-76.89"/>
<polygon fill="black" stroke="black" points="257.499,-79.9698 267.926,-81.8501 260.947,-73.878 257.499,-79.9698"/>
</g>
<!-- 14 -->
<g id="node13" class="node"><title>14</title>
<ellipse fill="black" stroke="black" cx="336.41" cy="-122.779" rx="7.2" ry="7.2"/>
</g>
<!-- 13&#45;&gt;14 -->
<g id="edge12" class="edge"><title>13&#45;&gt;14</title>
<path fill="none" stroke="black" d="M281.058,-89.5151C290.615,-95.2583 308.519,-106.018 321.38,-113.747"/>
<polygon fill="black" stroke="black" points="319.636,-116.782 330.01,-118.933 323.241,-110.782 319.636,-116.782"/>
</g>
<!-- 15 -->
<g id="node14" class="node"><title>15</title>
<ellipse fill="black" stroke="black" cx="395.171" cy="-164.923" rx="7.2" ry="7.2"/>
</g>
<!-- 14&#45;&gt;15 -->
<g id="edge13" class="edge"><title>14&#45;&gt;15</title>
<path fill="none" stroke="black" d="M342.698,-127.289C351.758,-133.787 368.732,-145.96 380.923,-154.704"/>
<polygon fill="black" stroke="black" points="378.938,-157.588 389.104,-160.572 383.018,-151.899 378.938,-157.588"/>
</g>
<!-- 16 -->
<g id="node15" class="node"><title>16</title>
<ellipse fill="black" stroke="black" cx="450.386" cy="-211.546" rx="7.2" ry="7.2"/>
</g>
<!-- 15&#45;&gt;16 -->
<g id="edge14" class="edge"><title>15&#45;&gt;16</title>
<path fill="none" stroke="black" d="M401.08,-169.913C409.593,-177.101 425.542,-190.568 436.998,-200.241"/>
<polygon fill="black" stroke="black" points="434.787,-202.955 444.685,-206.732 439.303,-197.606 434.787,-202.955"/>
</g>
</g>
</svg>
