<?xml version="1.0" encoding="UTF-8" standalone="no"?>
<!DOCTYPE svg PUBLIC "-//W3C//DTD SVG 1.1//EN"
 "http://www.w3.org/Graphics/SVG/1.1/DTD/svg11.dtd">
<!-- Generated by graphviz version 2.38.0 (20140413.2041)
 -->
<!-- Title: %3 Pages: 1 -->
<svg width="953pt" height="335pt"
 viewBox="0.00 0.00 952.77 335.17" xmlns="http://www.w3.org/2000/svg" xmlns:xlink="http://www.w3.org/1999/xlink">
<g id="graph0" class="graph" transform="scale(1 1) rotate(0) translate(494.786 219.146)">
<title>%3</title>
<polygon fill="white" stroke="none" points="-494.786,116.02 -494.786,-219.146 457.986,-219.146 457.986,116.02 -494.786,116.02"/>
<!-- 1 -->
<g id="node1" class="node"><title>1</title>
<ellipse fill="none" stroke="black" cx="-487.286" cy="108.52" rx="3.5" ry="3.5"/>
</g>
<!-- 2 -->
<g id="node2" class="node"><title>2</title>
<ellipse fill="black" stroke="black" cx="-415.248" cy="104.776" rx="3.6" ry="3.6"/>
</g>
<!-- 1&#45;&gt;2 -->
<g id="edge1" class="edge"><title>1&#45;&gt;2</title>
<path fill="none" stroke="black" d="M-483.413,108.319C-473.348,107.796 -445.98,106.374 -429.142,105.498"/>
<polygon fill="black" stroke="black" points="-429.309,102.003 -419.14,104.979 -428.945,108.993 -429.309,102.003"/>
</g>
<!-- 3 -->
<g id="node3" class="node"><title>3</title>
<ellipse fill="black" stroke="black" cx="-342.967" cy="103.192" rx="3.6" ry="3.6"/>
</g>
<!-- 2&#45;&gt;3 -->
<g id="edge2" class="edge"><title>2&#45;&gt;3</title>
<path fill="none" stroke="black" d="M-411.362,104.691C-401.263,104.47 -373.803,103.868 -356.908,103.498"/>
<polygon fill="black" stroke="black" points="-356.946,99.9979 -346.872,103.278 -356.793,106.996 -356.946,99.9979"/>
</g>
<!-- 4 -->
<g id="node4" class="node"><title>4</title>
<ellipse fill="black" stroke="black" cx="-271.864" cy="90.2821" rx="3.6" ry="3.6"/>
</g>
<!-- 3&#45;&gt;4 -->
<g id="edge3" class="edge"><title>3&#45;&gt;4</title>
<path fill="none" stroke="black" d="M-339.144,102.498C-329.209,100.694 -302.197,95.7897 -285.577,92.7721"/>
<polygon fill="black" stroke="black" points="-286.17,89.3225 -275.705,90.9796 -284.919,96.2099 -286.17,89.3225"/>
</g>
<!-- 5 -->
<g id="node5" class="node"><title>5</title>
<ellipse fill="black" stroke="black" cx="-200.234" cy="80.7978" rx="3.6" ry="3.6"/>
</g>
<!-- 4&#45;&gt;5 -->
<g id="edge4" class="edge"><title>4&#45;&gt;5</title>
<path fill="none" stroke="black" d="M-268.012,89.7722C-258.004,88.447 -230.792,84.8439 -214.049,82.627"/>
<polygon fill="black" stroke="black" points="-214.477,79.1532 -204.104,81.3102 -213.558,86.0926 -214.477,79.1532"/>
</g>
<!-- 6 -->
<g id="node6" class="node"><title>6</title>
<ellipse fill="black" stroke="black" cx="-128.727" cy="70.0467" rx="3.6" ry="3.6"/>
</g>
<!-- 5&#45;&gt;6 -->
<g id="edge5" class="edge"><title>5&#45;&gt;6</title>
<path fill="none" stroke="black" d="M-196.39,80.2197C-186.399,78.7176 -159.233,74.6332 -142.519,72.1203"/>
<polygon fill="black" stroke="black" points="-143,68.6533 -132.591,70.6276 -141.959,75.5755 -143,68.6533"/>
</g>
<!-- 7 -->
<g id="node7" class="node"><title>7</title>
<ellipse fill="black" stroke="black" cx="-58.2691" cy="53.5352" rx="3.6" ry="3.6"/>
</g>
<!-- 6&#45;&gt;7 -->
<g id="edge6" class="edge"><title>6&#45;&gt;7</title>
<path fill="none" stroke="black" d="M-124.939,69.1589C-115.094,66.852 -88.3272,60.5792 -71.8584,56.7198"/>
<polygon fill="black" stroke="black" points="-72.6108,53.3013 -62.076,54.4273 -71.0136,60.1167 -72.6108,53.3013"/>
</g>
<!-- 8 -->
<g id="node8" class="node"><title>8</title>
<ellipse fill="black" stroke="black" cx="11.1761" cy="33.2868" rx="3.6" ry="3.6"/>
</g>
<!-- 7&#45;&gt;8 -->
<g id="edge7" class="edge"><title>7&#45;&gt;8</title>
<path fill="none" stroke="black" d="M-54.5354,52.4465C-44.8325,49.6174 -18.45,41.925 -2.21791,37.1922"/>
<polygon fill="black" stroke="black" points="-3.15604,33.82 7.42394,34.3809 -1.19657,40.5402 -3.15604,33.82"/>
</g>
<!-- 9 -->
<g id="node9" class="node"><title>9</title>
<ellipse fill="black" stroke="black" cx="79.2595" cy="8.74716" rx="3.6" ry="3.6"/>
</g>
<!-- 8&#45;&gt;9 -->
<g id="edge8" class="edge"><title>8&#45;&gt;9</title>
<path fill="none" stroke="black" d="M14.8365,31.9675C24.3492,28.5388 50.2144,19.216 66.1282,13.4802"/>
<polygon fill="black" stroke="black" points="64.9866,10.1713 75.581,10.073 67.3602,16.7566 64.9866,10.1713"/>
</g>
<!-- 10 -->
<g id="node10" class="node"><title>10</title>
<ellipse fill="black" stroke="black" cx="146.283" cy="-18.5067" rx="3.6" ry="3.6"/>
</g>
<!-- 9&#45;&gt;10 -->
<g id="edge9" class="edge"><title>9&#45;&gt;10</title>
<path fill="none" stroke="black" d="M82.863,7.28188C92.2274,3.47397 117.69,-6.87989 133.356,-13.2502"/>
<polygon fill="black" stroke="black" points="132.079,-16.5094 142.661,-17.0341 134.716,-10.025 132.079,-16.5094"/>
</g>
<!-- 11 -->
<g id="node11" class="node"><title>11</title>
<ellipse fill="black" stroke="black" cx="211.485" cy="-49.901" rx="3.6" ry="3.6"/>
</g>
<!-- 10&#45;&gt;11 -->
<g id="edge10" class="edge"><title>10&#45;&gt;11</title>
<path fill="none" stroke="black" d="M149.788,-20.1946C158.898,-24.581 183.669,-36.5078 198.909,-43.8459"/>
<polygon fill="black" stroke="black" points="197.433,-47.02 207.962,-48.2048 200.47,-40.713 197.433,-47.02"/>
</g>
<!-- 13 -->
<g id="node12" class="node"><title>13</title>
<ellipse fill="black" stroke="black" cx="274.424" cy="-85.5287" rx="3.6" ry="3.6"/>
</g>
<!-- 11&#45;&gt;13 -->
<g id="edge11" class="edge"><title>11&#45;&gt;13</title>
<path fill="none" stroke="black" d="M214.869,-51.8165C223.662,-56.7944 247.573,-70.3296 262.285,-78.6572"/>
<polygon fill="black" stroke="black" points="260.597,-81.7234 271.023,-83.6037 264.045,-75.6317 260.597,-81.7234"/>
</g>
<!-- 14 -->
<g id="node13" class="node"><title>14</title>
<ellipse fill="black" stroke="black" cx="336.41" cy="-122.779" rx="3.6" ry="3.6"/>
</g>
<!-- 13&#45;&gt;14 -->
<g id="edge12" class="edge"><title>13&#45;&gt;14</title>
<path fill="none" stroke="black" d="M277.757,-87.5314C286.417,-92.736 309.966,-106.888 324.455,-115.594"/>
<polygon fill="black" stroke="black" points="322.687,-118.615 333.061,-120.766 326.292,-112.615 322.687,-118.615"/>
</g>
<!-- 15 -->
<g id="node14" class="node"><title>15</title>
<ellipse fill="black" stroke="black" cx="395.171" cy="-164.923" rx="3.6" ry="3.6"/>
</g>
<!-- 14&#45;&gt;15 -->
<g id="edge13" class="edge"><title>14&#45;&gt;15</title>
<path fill="none" stroke="black" d="M339.569,-125.045C347.779,-130.933 370.103,-146.944 383.838,-156.795"/>
<polygon fill="black" stroke="black" points="381.83,-159.662 391.996,-162.646 385.91,-153.974 381.83,-159.662"/>
</g>
<!-- 16 -->
<g id="node15" class="node"><title>16</title>
<ellipse fill="black" stroke="black" cx="450.386" cy="-211.546" rx="3.6" ry="3.6"/>
</g>
<!-- 15&#45;&gt;16 -->
<g id="edge14" class="edge"><title>15&#45;&gt;16</title>
<path fill="none" stroke="black" d="M398.14,-167.43C405.854,-173.944 426.831,-191.656 439.737,-202.554"/>
<polygon fill="black" stroke="black" points="437.504,-205.25 447.403,-209.027 442.021,-199.901 437.504,-205.25"/>
</g>
</g>
</svg>
