<?xml version="1.0" encoding="UTF-8" standalone="no"?>
<!DOCTYPE svg PUBLIC "-//W3C//DTD SVG 1.1//EN"
 "http://www.w3.org/Graphics/SVG/1.1/DTD/svg11.dtd">
<!-- Generated by graphviz version 2.38.0 (20140413.2041)
 -->
<!-- Title: %3 Pages: 1 -->
<svg width="1019pt" height="362pt"
 viewBox="0.00 0.00 1019.34 362.09" xmlns="http://www.w3.org/2000/svg" xmlns:xlink="http://www.w3.org/1999/xlink">
<g id="graph0" class="graph" transform="scale(1 1) rotate(0) translate(528.758 235.463)">
<title>%3</title>
<polygon fill="white" stroke="none" points="-528.758,126.623 -528.758,-235.463 490.581,-235.463 490.581,126.623 -528.758,126.623"/>
<!-- 1 -->
<g id="node1" class="node"><title>1</title>
<ellipse fill="none" stroke="black" cx="-521.258" cy="119.123" rx="3.5" ry="3.5"/>
</g>
<!-- 2 -->
<g id="node2" class="node"><title>2</title>
<ellipse fill="black" stroke="black" cx="-449.207" cy="115.552" rx="3.6" ry="3.6"/>
</g>
<!-- 1&#45;&gt;2 -->
<g id="edge1" class="edge"><title>1&#45;&gt;2</title>
<path fill="none" stroke="black" d="M-517.385,118.931C-507.318,118.432 -479.945,117.075 -463.104,116.241"/>
<polygon fill="black" stroke="black" points="-463.261,112.744 -453.1,115.745 -462.915,119.736 -463.261,112.744"/>
</g>
<!-- 3 -->
<g id="node3" class="node"><title>3</title>
<ellipse fill="black" stroke="black" cx="-376.927" cy="114.059" rx="3.6" ry="3.6"/>
</g>
<!-- 2&#45;&gt;3 -->
<g id="edge2" class="edge"><title>2&#45;&gt;3</title>
<path fill="none" stroke="black" d="M-445.321,115.471C-435.222,115.263 -407.763,114.696 -390.868,114.347"/>
<polygon fill="black" stroke="black" points="-390.903,110.847 -380.832,114.14 -390.758,117.846 -390.903,110.847"/>
</g>
<!-- 4 -->
<g id="node4" class="node"><title>4</title>
<ellipse fill="black" stroke="black" cx="-305.741" cy="101.584" rx="3.6" ry="3.6"/>
</g>
<!-- 3&#45;&gt;4 -->
<g id="edge3" class="edge"><title>3&#45;&gt;4</title>
<path fill="none" stroke="black" d="M-373.1,113.389C-363.154,111.646 -336.11,106.906 -319.471,103.991"/>
<polygon fill="black" stroke="black" points="-320.042,100.537 -309.587,102.259 -318.833,107.432 -320.042,100.537"/>
</g>
<!-- 5 -->
<g id="node5" class="node"><title>5</title>
<ellipse fill="black" stroke="black" cx="-234.082" cy="92.3608" rx="3.6" ry="3.6"/>
</g>
<!-- 4&#45;&gt;5 -->
<g id="edge4" class="edge"><title>4&#45;&gt;5</title>
<path fill="none" stroke="black" d="M-301.889,101.089C-291.876,99.7999 -264.653,96.2957 -247.903,94.1398"/>
<polygon fill="black" stroke="black" points="-248.319,90.6645 -237.954,92.8591 -247.425,97.6072 -248.319,90.6645"/>
</g>
<!-- 6 -->
<g id="node6" class="node"><title>6</title>
<ellipse fill="black" stroke="black" cx="-162.544" cy="81.81" rx="3.6" ry="3.6"/>
</g>
<!-- 5&#45;&gt;6 -->
<g id="edge5" class="edge"><title>5&#45;&gt;6</title>
<path fill="none" stroke="black" d="M-230.236,91.7935C-220.241,90.3194 -193.063,86.3111 -176.341,83.845"/>
<polygon fill="black" stroke="black" points="-176.813,80.3767 -166.409,82.3801 -175.791,87.3018 -176.813,80.3767"/>
</g>
<!-- 7 -->
<g id="node7" class="node"><title>7</title>
<ellipse fill="black" stroke="black" cx="-91.9839" cy="65.8519" rx="3.6" ry="3.6"/>
</g>
<!-- 6&#45;&gt;7 -->
<g id="edge6" class="edge"><title>6&#45;&gt;7</title>
<path fill="none" stroke="black" d="M-158.75,80.952C-148.891,78.7224 -122.085,72.6598 -105.593,68.9298"/>
<polygon fill="black" stroke="black" points="-106.322,65.5063 -95.7963,66.7141 -104.778,72.3339 -106.322,65.5063"/>
</g>
<!-- 8 -->
<g id="node8" class="node"><title>8</title>
<ellipse fill="black" stroke="black" cx="-22.2907" cy="46.4439" rx="3.6" ry="3.6"/>
</g>
<!-- 7&#45;&gt;8 -->
<g id="edge7" class="edge"><title>7&#45;&gt;8</title>
<path fill="none" stroke="black" d="M-88.2369,64.8084C-78.4994,62.0967 -52.0226,54.7236 -35.7325,50.1871"/>
<polygon fill="black" stroke="black" points="-36.6287,46.8036 -26.0563,47.4925 -34.7507,53.547 -36.6287,46.8036"/>
</g>
<!-- 9 -->
<g id="node9" class="node"><title>9</title>
<ellipse fill="black" stroke="black" cx="46.1492" cy="22.9677" rx="3.6" ry="3.6"/>
</g>
<!-- 8&#45;&gt;9 -->
<g id="edge8" class="edge"><title>8&#45;&gt;9</title>
<path fill="none" stroke="black" d="M-18.6111,45.1817C-9.04865,41.9016 16.952,32.9829 32.9491,27.4956"/>
<polygon fill="black" stroke="black" points="31.8568,24.1702 42.4514,24.2361 34.128,30.7915 31.8568,24.1702"/>
</g>
<!-- 10 -->
<g id="node10" class="node"><title>10</title>
<ellipse fill="black" stroke="black" cx="113.691" cy="-2.96694" rx="3.6" ry="3.6"/>
</g>
<!-- 9&#45;&gt;10 -->
<g id="edge9" class="edge"><title>9&#45;&gt;10</title>
<path fill="none" stroke="black" d="M49.7806,21.5733C59.2176,17.9498 84.8772,8.09706 100.665,2.03511"/>
<polygon fill="black" stroke="black" points="99.4521,-1.24843 110.042,-1.56568 101.961,5.28639 99.4521,-1.24843"/>
</g>
<!-- 11 -->
<g id="node11" class="node"><title>11</title>
<ellipse fill="black" stroke="black" cx="179.622" cy="-32.7811" rx="3.6" ry="3.6"/>
</g>
<!-- 10&#45;&gt;11 -->
<g id="edge10" class="edge"><title>10&#45;&gt;11</title>
<path fill="none" stroke="black" d="M117.236,-4.56987C126.448,-8.73551 151.495,-20.0621 166.906,-27.0308"/>
<polygon fill="black" stroke="black" points="165.505,-30.2389 176.059,-31.1702 168.39,-23.8607 165.505,-30.2389"/>
</g>
<!-- 12 -->
<g id="node12" class="node"><title>12</title>
<ellipse fill="black" stroke="black" cx="243.535" cy="-66.6636" rx="3.6" ry="3.6"/>
</g>
<!-- 11&#45;&gt;12 -->
<g id="edge11" class="edge"><title>11&#45;&gt;12</title>
<path fill="none" stroke="black" d="M183.058,-34.6028C191.988,-39.3368 216.269,-52.209 231.208,-60.1287"/>
<polygon fill="black" stroke="black" points="229.607,-63.2414 240.082,-64.833 232.886,-57.0567 229.607,-63.2414"/>
</g>
<!-- 13 -->
<g id="node13" class="node"><title>13</title>
<ellipse fill="black" stroke="black" cx="306.727" cy="-101.842" rx="3.6" ry="3.6"/>
</g>
<!-- 12&#45;&gt;13 -->
<g id="edge12" class="edge"><title>12&#45;&gt;13</title>
<path fill="none" stroke="black" d="M246.932,-68.555C255.762,-73.4701 279.768,-86.8346 294.539,-95.0571"/>
<polygon fill="black" stroke="black" points="292.873,-98.1354 303.313,-99.9413 296.278,-92.0192 292.873,-98.1354"/>
</g>
<!-- 14 -->
<g id="node14" class="node"><title>14</title>
<ellipse fill="black" stroke="black" cx="367.086" cy="-141.688" rx="3.6" ry="3.6"/>
</g>
<!-- 13&#45;&gt;14 -->
<g id="edge13" class="edge"><title>13&#45;&gt;14</title>
<path fill="none" stroke="black" d="M309.972,-103.984C318.405,-109.552 341.336,-124.689 355.445,-134.002"/>
<polygon fill="black" stroke="black" points="353.551,-136.946 363.825,-139.535 357.408,-131.104 353.551,-136.946"/>
</g>
<!-- 15 -->
<g id="node15" class="node"><title>15</title>
<ellipse fill="black" stroke="black" cx="424.244" cy="-185.949" rx="3.6" ry="3.6"/>
</g>
<!-- 14&#45;&gt;15 -->
<g id="edge14" class="edge"><title>14&#45;&gt;15</title>
<path fill="none" stroke="black" d="M370.159,-144.067C378.145,-150.251 399.86,-167.067 413.22,-177.412"/>
<polygon fill="black" stroke="black" points="411.106,-180.202 421.156,-183.558 415.392,-174.668 411.106,-180.202"/>
</g>
<!-- 16 -->
<g id="node16" class="node"><title>16</title>
<ellipse fill="black" stroke="black" cx="482.981" cy="-227.863" rx="3.6" ry="3.6"/>
</g>
<!-- 15&#45;&gt;16 -->
<g id="edge15" class="edge"><title>15&#45;&gt;16</title>
<path fill="none" stroke="black" d="M427.402,-188.203C435.609,-194.059 457.923,-209.982 471.652,-219.779"/>
<polygon fill="black" stroke="black" points="469.634,-222.639 479.807,-225.598 473.7,-216.941 469.634,-222.639"/>
</g>
</g>
</svg>
