<?xml version="1.0" encoding="UTF-8" standalone="no"?>
<!DOCTYPE svg PUBLIC "-//W3C//DTD SVG 1.1//EN"
 "http://www.w3.org/Graphics/SVG/1.1/DTD/svg11.dtd">
<!-- Generated by graphviz version 2.38.0 (20140413.2041)
 -->
<!-- Title: %3 Pages: 1 -->
<svg width="1026pt" height="369pt"
 viewBox="0.00 0.00 1026.44 369.19" xmlns="http://www.w3.org/2000/svg" xmlns:xlink="http://www.w3.org/1999/xlink">
<g id="graph0" class="graph" transform="scale(1 1) rotate(0) translate(532.258 239.063)">
<title>%3</title>
<polygon fill="white" stroke="none" points="-532.258,130.123 -532.258,-239.063 494.181,-239.063 494.181,130.123 -532.258,130.123"/>
<!-- 1 -->
<g id="node1" class="node"><title>1</title>
<ellipse fill="none" stroke="black" cx="-521.258" cy="119.123" rx="7" ry="7"/>
</g>
<!-- 2 -->
<g id="node2" class="node"><title>2</title>
<ellipse fill="black" stroke="black" cx="-449.207" cy="115.552" rx="7.2" ry="7.2"/>
</g>
<!-- 1&#45;&gt;2 -->
<g id="edge1" class="edge"><title>1&#45;&gt;2</title>
<path fill="none" stroke="black" d="M-514.087,118.768C-503.195,118.228 -482.148,117.185 -466.974,116.432"/>
<polygon fill="black" stroke="black" points="-466.943,112.927 -456.782,115.927 -466.596,119.918 -466.943,112.927"/>
</g>
<!-- 3 -->
<g id="node3" class="node"><title>3</title>
<ellipse fill="black" stroke="black" cx="-376.927" cy="114.059" rx="7.2" ry="7.2"/>
</g>
<!-- 2&#45;&gt;3 -->
<g id="edge2" class="edge"><title>2&#45;&gt;3</title>
<path fill="none" stroke="black" d="M-441.744,115.398C-430.707,115.17 -409.711,114.736 -394.602,114.424"/>
<polygon fill="black" stroke="black" points="-394.528,110.922 -384.458,114.215 -394.383,117.921 -394.528,110.922"/>
</g>
<!-- 4 -->
<g id="node4" class="node"><title>4</title>
<ellipse fill="black" stroke="black" cx="-305.741" cy="101.584" rx="7.2" ry="7.2"/>
</g>
<!-- 3&#45;&gt;4 -->
<g id="edge3" class="edge"><title>3&#45;&gt;4</title>
<path fill="none" stroke="black" d="M-369.577,112.771C-358.707,110.866 -338.028,107.243 -323.148,104.635"/>
<polygon fill="black" stroke="black" points="-323.612,101.163 -313.158,102.884 -322.404,108.058 -323.612,101.163"/>
</g>
<!-- 5 -->
<g id="node5" class="node"><title>5</title>
<ellipse fill="black" stroke="black" cx="-234.082" cy="92.3608" rx="7.2" ry="7.2"/>
</g>
<!-- 4&#45;&gt;5 -->
<g id="edge4" class="edge"><title>4&#45;&gt;5</title>
<path fill="none" stroke="black" d="M-298.342,100.632C-287.4,99.2237 -266.584,96.5443 -251.605,94.6162"/>
<polygon fill="black" stroke="black" points="-251.913,91.1271 -241.548,93.3218 -251.02,98.0699 -251.913,91.1271"/>
</g>
<!-- 6 -->
<g id="node6" class="node"><title>6</title>
<ellipse fill="black" stroke="black" cx="-162.544" cy="81.81" rx="7.2" ry="7.2"/>
</g>
<!-- 5&#45;&gt;6 -->
<g id="edge5" class="edge"><title>5&#45;&gt;6</title>
<path fill="none" stroke="black" d="M-226.696,91.2714C-215.772,89.6603 -194.991,86.5954 -180.037,84.39"/>
<polygon fill="black" stroke="black" points="-180.401,80.9059 -169.997,82.9093 -179.379,87.831 -180.401,80.9059"/>
</g>
<!-- 7 -->
<g id="node7" class="node"><title>7</title>
<ellipse fill="black" stroke="black" cx="-91.9839" cy="65.8519" rx="7.2" ry="7.2"/>
</g>
<!-- 6&#45;&gt;7 -->
<g id="edge6" class="edge"><title>6&#45;&gt;7</title>
<path fill="none" stroke="black" d="M-155.52,80.2216C-144.854,77.8092 -124.242,73.1476 -109.383,69.787"/>
<polygon fill="black" stroke="black" points="-109.927,66.3218 -99.4017,67.5295 -108.383,73.1493 -109.927,66.3218"/>
</g>
<!-- 8 -->
<g id="node8" class="node"><title>8</title>
<ellipse fill="black" stroke="black" cx="-22.2907" cy="46.4439" rx="7.2" ry="7.2"/>
</g>
<!-- 7&#45;&gt;8 -->
<g id="edge7" class="edge"><title>7&#45;&gt;8</title>
<path fill="none" stroke="black" d="M-85.0467,63.92C-74.5112,60.9861 -54.1529,55.3168 -39.4763,51.2297"/>
<polygon fill="black" stroke="black" points="-40.1898,47.7953 -29.6174,48.4842 -38.3119,54.5387 -40.1898,47.7953"/>
</g>
<!-- 9 -->
<g id="node9" class="node"><title>9</title>
<ellipse fill="black" stroke="black" cx="46.1492" cy="22.9677" rx="7.2" ry="7.2"/>
</g>
<!-- 8&#45;&gt;9 -->
<g id="edge8" class="edge"><title>8&#45;&gt;9</title>
<path fill="none" stroke="black" d="M-15.4782,44.1071C-5.13215,40.5582 14.86,33.7005 29.2726,28.7567"/>
<polygon fill="black" stroke="black" points="28.3597,25.3697 38.9543,25.4357 30.6309,31.991 28.3597,25.3697"/>
</g>
<!-- 10 -->
<g id="node10" class="node"><title>10</title>
<ellipse fill="black" stroke="black" cx="113.691" cy="-2.96694" rx="7.2" ry="7.2"/>
</g>
<!-- 9&#45;&gt;10 -->
<g id="edge9" class="edge"><title>9&#45;&gt;10</title>
<path fill="none" stroke="black" d="M52.8724,20.3862C63.0827,16.4656 82.8127,8.8898 97.0363,3.42828"/>
<polygon fill="black" stroke="black" points="96.0008,0.0767541 106.591,-0.240492 98.5101,6.61158 96.0008,0.0767541"/>
</g>
<!-- 11 -->
<g id="node11" class="node"><title>11</title>
<ellipse fill="black" stroke="black" cx="179.622" cy="-32.7811" rx="7.2" ry="7.2"/>
</g>
<!-- 10&#45;&gt;11 -->
<g id="edge10" class="edge"><title>10&#45;&gt;11</title>
<path fill="none" stroke="black" d="M120.254,-5.93463C130.221,-10.4416 149.48,-19.1507 163.364,-25.4292"/>
<polygon fill="black" stroke="black" points="162.137,-28.7155 172.69,-29.6468 165.021,-22.3373 162.137,-28.7155"/>
</g>
<!-- 12 -->
<g id="node12" class="node"><title>12</title>
<ellipse fill="black" stroke="black" cx="243.535" cy="-66.6636" rx="7.2" ry="7.2"/>
</g>
<!-- 11&#45;&gt;12 -->
<g id="edge11" class="edge"><title>11&#45;&gt;12</title>
<path fill="none" stroke="black" d="M185.983,-36.1538C195.645,-41.2758 214.315,-51.1733 227.775,-58.3086"/>
<polygon fill="black" stroke="black" points="226.341,-61.5101 236.816,-63.1017 229.62,-55.3254 226.341,-61.5101"/>
</g>
<!-- 13 -->
<g id="node13" class="node"><title>13</title>
<ellipse fill="black" stroke="black" cx="306.727" cy="-101.842" rx="7.2" ry="7.2"/>
</g>
<!-- 12&#45;&gt;13 -->
<g id="edge12" class="edge"><title>12&#45;&gt;13</title>
<path fill="none" stroke="black" d="M250.298,-70.4284C260.04,-75.8521 278.294,-86.0135 291.405,-93.3123"/>
<polygon fill="black" stroke="black" points="289.762,-96.4039 300.202,-98.2098 293.167,-90.2877 289.762,-96.4039"/>
</g>
<!-- 14 -->
<g id="node14" class="node"><title>14</title>
<ellipse fill="black" stroke="black" cx="367.086" cy="-141.688" rx="7.2" ry="7.2"/>
</g>
<!-- 13&#45;&gt;14 -->
<g id="edge13" class="edge"><title>13&#45;&gt;14</title>
<path fill="none" stroke="black" d="M313.186,-106.106C322.492,-112.25 339.927,-123.759 352.451,-132.026"/>
<polygon fill="black" stroke="black" points="350.58,-134.985 360.854,-137.573 354.437,-129.143 350.58,-134.985"/>
</g>
<!-- 15 -->
<g id="node15" class="node"><title>15</title>
<ellipse fill="black" stroke="black" cx="424.244" cy="-185.949" rx="7.2" ry="7.2"/>
</g>
<!-- 14&#45;&gt;15 -->
<g id="edge14" class="edge"><title>14&#45;&gt;15</title>
<path fill="none" stroke="black" d="M373.203,-146.424C382.016,-153.248 398.526,-166.034 410.385,-175.217"/>
<polygon fill="black" stroke="black" points="408.293,-178.024 418.343,-181.379 412.579,-172.489 408.293,-178.024"/>
</g>
<!-- 16 -->
<g id="node16" class="node"><title>16</title>
<ellipse fill="black" stroke="black" cx="482.981" cy="-227.863" rx="7.2" ry="7.2"/>
</g>
<!-- 15&#45;&gt;16 -->
<g id="edge15" class="edge"><title>15&#45;&gt;16</title>
<path fill="none" stroke="black" d="M430.53,-190.435C439.586,-196.897 456.552,-209.004 468.739,-217.7"/>
<polygon fill="black" stroke="black" points="466.743,-220.576 476.916,-223.535 470.809,-214.878 466.743,-220.576"/>
</g>
</g>
</svg>
