<?xml version="1.0" encoding="UTF-8" standalone="no"?>
<!DOCTYPE svg PUBLIC "-//W3C//DTD SVG 1.1//EN"
 "http://www.w3.org/Graphics/SVG/1.1/DTD/svg11.dtd">
<!-- Generated by graphviz version 2.38.0 (20140413.2041)
 -->
<!-- Title: %3 Pages: 1 -->
<svg width="328pt" height="358pt"
 viewBox="0.00 0.00 328.21 357.55" xmlns="http://www.w3.org/2000/svg" xmlns:xlink="http://www.w3.org/1999/xlink">
<g id="graph0" class="graph" transform="scale(1 1) rotate(0) translate(164.29 185.32)">
<title>%3</title>
<polygon fill="white" stroke="none" points="-164.29,172.231 -164.29,-185.32 163.922,-185.32 163.922,172.231 -164.29,172.231"/>
<!-- 1 -->
<g id="node1" class="node"><title>1</title>
<ellipse fill="none" stroke="black" cx="-46.2473" cy="-4.69595" rx="7" ry="7"/>
</g>
<!-- 6 -->
<g id="node2" class="node"><title>6</title>
<ellipse fill="black" stroke="black" cx="31.0292" cy="54.7572" rx="7.2" ry="7.2"/>
</g>
<!-- 1&#45;&gt;6 -->
<g id="edge1" class="edge"><title>1&#45;&gt;6</title>
<path fill="none" stroke="black" d="M-40.6898,-0.420221C-28.7763,8.74549 -0.461017,30.53 16.8144,43.821"/>
<polygon fill="black" stroke="black" points="19.3102,41.3251 25.1018,50.1969 15.0418,46.8732 19.3102,41.3251"/>
</g>
<!-- 2 -->
<g id="node3" class="node"><title>2</title>
<ellipse fill="black" stroke="black" cx="-6.70618" cy="45.4288" rx="7.2" ry="7.2"/>
</g>
<!-- 1&#45;&gt;2 -->
<g id="edge2" class="edge"><title>1&#45;&gt;2</title>
<path fill="none" stroke="black" d="M-41.7115,1.054C-35.8718,8.45676 -25.5326,21.5633 -17.5998,31.6194"/>
<polygon fill="black" stroke="black" points="-14.6347,29.727 -11.1892,39.746 -20.1306,34.0625 -14.6347,29.727"/>
</g>
<!-- 9 -->
<g id="node4" class="node"><title>9</title>
<ellipse fill="black" stroke="black" cx="17.6738" cy="-35.4881" rx="7.2" ry="7.2"/>
</g>
<!-- 1&#45;&gt;9 -->
<g id="edge3" class="edge"><title>1&#45;&gt;9</title>
<path fill="none" stroke="black" d="M-39.8846,-7.76099C-30.2217,-12.4158 -11.5495,-21.4106 1.91156,-27.8951"/>
<polygon fill="black" stroke="black" points="0.425806,-31.0642 10.954,-32.251 3.46378,-24.7578 0.425806,-31.0642"/>
</g>
<!-- 13 -->
<g id="node5" class="node"><title>13</title>
<ellipse fill="black" stroke="black" cx="41.6648" cy="7.31808" rx="7.2" ry="7.2"/>
</g>
<!-- 1&#45;&gt;13 -->
<g id="edge4" class="edge"><title>1&#45;&gt;13</title>
<path fill="none" stroke="black" d="M-39.0531,-3.71279C-25.3411,-1.83892 4.88777,2.29215 24.2117,4.93296"/>
<polygon fill="black" stroke="black" points="24.6879,1.46542 34.1219,6.28728 23.7401,8.40095 24.6879,1.46542"/>
</g>
<!-- 15 -->
<g id="node6" class="node"><title>15</title>
<ellipse fill="black" stroke="black" cx="-8.2765" cy="5.64893" rx="7.2" ry="7.2"/>
</g>
<!-- 1&#45;&gt;15 -->
<g id="edge5" class="edge"><title>1&#45;&gt;15</title>
<path fill="none" stroke="black" d="M-39.6941,-7.93213C-34.7975,-8.22836 -27.9739,-6.99002 -21.927,-4.95374"/>
<polygon fill="black" stroke="black" points="-20.0776,-7.95502 -12.4654,-0.585803 -23.0117,-1.59957 -20.0776,-7.95502"/>
</g>
<!-- 6&#45;&gt;2 -->
<g id="edge17" class="edge"><title>6&#45;&gt;2</title>
<path fill="none" stroke="black" d="M24.6196,58.1635C19.7868,58.5891 13.0182,57.5328 7.00079,55.6588"/>
<polygon fill="black" stroke="black" points="5.33085,58.7491 -2.43878,51.5461 8.12689,52.3317 5.33085,58.7491"/>
</g>
<!-- 6&#45;&gt;9 -->
<g id="edge18" class="edge"><title>6&#45;&gt;9</title>
<path fill="none" stroke="black" d="M26.5187,49.086C21.0184,35.7507 15.4614,2.03478 14.8029,-18.5779"/>
<polygon fill="black" stroke="black" points="11.3059,-18.7767 14.9949,-28.7085 18.3046,-18.6439 11.3059,-18.7767"/>
</g>
<!-- 6&#45;&gt;13 -->
<g id="edge19" class="edge"><title>6&#45;&gt;13</title>
<path fill="none" stroke="black" d="M27.8309,47.9308C27.3044,40.9406 29.1823,29.9254 32.0667,21.1204"/>
<polygon fill="black" stroke="black" points="28.8555,19.7279 35.9903,11.8955 35.297,22.4677 28.8555,19.7279"/>
</g>
<!-- 6&#45;&gt;15 -->
<g id="edge20" class="edge"><title>6&#45;&gt;15</title>
<path fill="none" stroke="black" d="M26.5204,49.1239C20.7772,41.9484 10.656,29.3031 2.80471,19.4937"/>
<polygon fill="black" stroke="black" points="-0.0604837,21.515 -3.57679,11.5207 5.40458,17.1408 -0.0604837,21.515"/>
</g>
<!-- 7 -->
<g id="node9" class="node"><title>7</title>
<ellipse fill="black" stroke="black" cx="-13.9075" cy="92.2802" rx="7.2" ry="7.2"/>
</g>
<!-- 6&#45;&gt;7 -->
<g id="edge16" class="edge"><title>6&#45;&gt;7</title>
<path fill="none" stroke="black" d="M25.1545,59.6627C18.7274,65.0294 8.20746,73.8138 -0.296799,80.915"/>
<polygon fill="black" stroke="black" points="1.74578,83.7692 -8.17341,87.4922 -2.74088,78.3961 1.74578,83.7692"/>
</g>
<!-- 2&#45;&gt;6 -->
<g id="edge7" class="edge"><title>2&#45;&gt;6</title>
<path fill="none" stroke="black" d="M-0.296533,42.0225C4.53622,41.5969 11.3049,42.6533 17.3223,44.5272"/>
<polygon fill="black" stroke="black" points="18.9922,41.437 26.7618,48.64 16.1962,47.8543 18.9922,41.437"/>
</g>
<!-- 2&#45;&gt;9 -->
<g id="edge8" class="edge"><title>2&#45;&gt;9</title>
<path fill="none" stroke="black" d="M-8.48668,38.2584C-7.88709,24.8933 0.191258,-3.88836 7.6771,-21.2984"/>
<polygon fill="black" stroke="black" points="4.62131,-23.015 12.1894,-30.4295 10.8969,-19.9138 4.62131,-23.015"/>
</g>
<!-- 2&#45;&gt;13 -->
<g id="edge9" class="edge"><title>2&#45;&gt;13</title>
<path fill="none" stroke="black" d="M-0.774954,40.7557C6.33681,35.1525 18.4831,25.5826 27.9639,18.1128"/>
<polygon fill="black" stroke="black" points="25.9647,15.2321 35.9857,11.7926 30.2968,20.7306 25.9647,15.2321"/>
</g>
<!-- 2&#45;&gt;15 -->
<g id="edge10" class="edge"><title>2&#45;&gt;15</title>
<path fill="none" stroke="black" d="M-6.9942,38.1326C-7.16243,33.8709 -7.38239,28.2988 -7.59252,22.9758"/>
<polygon fill="black" stroke="black" points="-11.093,23.0292 -7.99031,12.8989 -4.09849,22.7531 -11.093,23.0292"/>
</g>
<!-- 4 -->
<g id="node7" class="node"><title>4</title>
<ellipse fill="black" stroke="black" cx="79.9798" cy="26.2522" rx="7.2" ry="7.2"/>
</g>
<!-- 2&#45;&gt;4 -->
<g id="edge6" class="edge"><title>2&#45;&gt;4</title>
<path fill="none" stroke="black" d="M0.3877,43.8595C13.9084,40.8685 43.7158,34.2746 62.7702,30.0593"/>
<polygon fill="black" stroke="black" points="62.0222,26.6403 72.5422,27.8976 63.5343,33.475 62.0222,26.6403"/>
</g>
<!-- 9&#45;&gt;6 -->
<g id="edge26" class="edge"><title>9&#45;&gt;6</title>
<path fill="none" stroke="black" d="M22.1844,-29.8168C27.6847,-16.4816 33.2417,17.2344 33.9002,37.847"/>
<polygon fill="black" stroke="black" points="37.3972,38.0458 33.7082,47.9776 30.3984,37.9131 37.3972,38.0458"/>
</g>
<!-- 9&#45;&gt;2 -->
<g id="edge27" class="edge"><title>9&#45;&gt;2</title>
<path fill="none" stroke="black" d="M19.4543,-28.3176C18.8548,-14.9526 10.7764,13.8291 3.29057,31.2391"/>
<polygon fill="black" stroke="black" points="6.34636,32.9558 -1.22171,40.3703 0.0707737,29.8546 6.34636,32.9558"/>
</g>
<!-- 9&#45;&gt;13 -->
<g id="edge28" class="edge"><title>9&#45;&gt;13</title>
<path fill="none" stroke="black" d="M24.3462,-32.7748C29.4512,-28.0037 35.556,-18.3906 39.412,-9.73212"/>
<polygon fill="black" stroke="black" points="42.8057,-10.6286 42.7816,-0.033778 36.1934,-8.33117 42.8057,-10.6286"/>
</g>
<!-- 9&#45;&gt;15 -->
<g id="edge29" class="edge"><title>9&#45;&gt;15</title>
<path fill="none" stroke="black" d="M13.6191,-29.0604C10.3244,-23.8376 5.54248,-16.2572 1.2874,-9.51196"/>
<polygon fill="black" stroke="black" points="3.96045,-7.18927 -4.3352,-0.598899 -1.95999,-10.9241 3.96045,-7.18927"/>
</g>
<!-- 10 -->
<g id="node11" class="node"><title>10</title>
<ellipse fill="black" stroke="black" cx="-51.5561" cy="-66.6597" rx="7.2" ry="7.2"/>
</g>
<!-- 9&#45;&gt;10 -->
<g id="edge25" class="edge"><title>9&#45;&gt;10</title>
<path fill="none" stroke="black" d="M11.0358,-38.4769C0.469331,-43.2346 -20.4856,-52.6698 -35.2299,-59.3087"/>
<polygon fill="black" stroke="black" points="-36.9497,-56.2445 -44.631,-63.5417 -34.0757,-62.6274 -36.9497,-56.2445"/>
</g>
<!-- 13&#45;&gt;6 -->
<g id="edge34" class="edge"><title>13&#45;&gt;6</title>
<path fill="none" stroke="black" d="M44.8631,14.1445C45.3896,21.1347 43.5117,32.15 40.6273,40.9549"/>
<polygon fill="black" stroke="black" points="43.8385,42.3474 36.7037,50.1798 37.397,39.6076 43.8385,42.3474"/>
</g>
<!-- 13&#45;&gt;9 -->
<g id="edge36" class="edge"><title>13&#45;&gt;9</title>
<path fill="none" stroke="black" d="M34.9925,4.60479C29.8874,-0.16626 23.7826,-9.7794 19.9267,-18.4379"/>
<polygon fill="black" stroke="black" points="16.5329,-17.5414 16.557,-28.1362 23.1452,-19.8388 16.5329,-17.5414"/>
</g>
<!-- 13&#45;&gt;15 -->
<g id="edge37" class="edge"><title>13&#45;&gt;15</title>
<path fill="none" stroke="black" d="M34.2958,7.07179C27.7305,6.85237 17.8623,6.52255 9.27938,6.23569"/>
<polygon fill="black" stroke="black" points="9.00021,9.72841 -0.877264,5.89623 9.2341,2.73231 9.00021,9.72841"/>
</g>
<!-- 14 -->
<g id="node14" class="node"><title>14</title>
<ellipse fill="black" stroke="black" cx="110.052" cy="-51.4993" rx="7.2" ry="7.2"/>
</g>
<!-- 13&#45;&gt;14 -->
<g id="edge35" class="edge"><title>13&#45;&gt;14</title>
<path fill="none" stroke="black" d="M47.4954,2.30335C58.2959,-6.9858 81.6702,-27.0892 96.5884,-39.9199"/>
<polygon fill="black" stroke="black" points="94.3721,-42.6301 104.236,-46.4972 98.9366,-37.323 94.3721,-42.6301"/>
</g>
<!-- 15&#45;&gt;1 -->
<g id="edge38" class="edge"><title>15&#45;&gt;1</title>
<path fill="none" stroke="black" d="M-14.8297,8.88511C-19.9628,9.19565 -27.2135,7.81981 -33.4672,5.6062"/>
<polygon fill="black" stroke="black" points="-35.0204,8.74295 -42.5005,1.23974 -31.974,2.4406 -35.0204,8.74295"/>
</g>
<!-- 4&#45;&gt;6 -->
<g id="edge12" class="edge"><title>4&#45;&gt;6</title>
<path fill="none" stroke="black" d="M73.5804,29.9788C66.6529,34.0128 55.3603,40.5887 46.1489,45.9527"/>
<polygon fill="black" stroke="black" points="47.6783,49.1122 37.2755,51.1199 44.1558,43.0631 47.6783,49.1122"/>
</g>
<!-- 4&#45;&gt;9 -->
<g id="edge13" class="edge"><title>4&#45;&gt;9</title>
<path fill="none" stroke="black" d="M74.6677,20.9883C64.9195,11.3286 43.9288,-9.47147 30.3232,-22.9536"/>
<polygon fill="black" stroke="black" points="27.6123,-20.7125 22.9726,-30.2375 32.5394,-25.6848 27.6123,-20.7125"/>
</g>
<!-- 4&#45;&gt;13 -->
<g id="edge14" class="edge"><title>4&#45;&gt;13</title>
<path fill="none" stroke="black" d="M73.3059,22.9542C68.9106,20.7821 62.9625,17.8428 57.4096,15.0987"/>
<polygon fill="black" stroke="black" points="55.6767,18.1465 48.2623,10.5784 58.778,11.8709 55.6767,18.1465"/>
</g>
<!-- 4&#45;&gt;15 -->
<g id="edge15" class="edge"><title>4&#45;&gt;15</title>
<path fill="none" stroke="black" d="M72.7574,24.5662C58.8541,21.3205 28.0359,14.126 8.66622,9.60418"/>
<polygon fill="black" stroke="black" points="7.74148,12.9825 -1.20098,7.3007 9.33289,6.16577 7.74148,12.9825"/>
</g>
<!-- 5 -->
<g id="node8" class="node"><title>5</title>
<ellipse fill="black" stroke="black" cx="152.722" cy="56.1756" rx="7.2" ry="7.2"/>
</g>
<!-- 4&#45;&gt;5 -->
<g id="edge11" class="edge"><title>4&#45;&gt;5</title>
<path fill="none" stroke="black" d="M86.6928,29.0137C97.895,33.6219 120.711,43.0077 136.357,49.4439"/>
<polygon fill="black" stroke="black" points="137.896,46.2923 145.813,53.3335 135.233,52.7659 137.896,46.2923"/>
</g>
<!-- 7&#45;&gt;2 -->
<g id="edge22" class="edge"><title>7&#45;&gt;2</title>
<path fill="none" stroke="black" d="M-12.7823,84.9597C-11.8786,79.0806 -10.5718,70.5784 -9.40144,62.9641"/>
<polygon fill="black" stroke="black" points="-12.8259,62.2048 -7.84725,52.8526 -5.90716,63.2683 -12.8259,62.2048"/>
</g>
<!-- 7&#45;&gt;13 -->
<g id="edge23" class="edge"><title>7&#45;&gt;13</title>
<path fill="none" stroke="black" d="M-9.91085,86.1699C-1.17935,72.8207 19.8034,40.741 32.1474,21.8688"/>
<polygon fill="black" stroke="black" points="29.3014,19.8259 37.7044,13.373 35.1595,23.6577 29.3014,19.8259"/>
</g>
<!-- 7&#45;&gt;15 -->
<g id="edge24" class="edge"><title>7&#45;&gt;15</title>
<path fill="none" stroke="black" d="M-13.4274,84.8941C-12.5464,71.3401 -10.6493,42.1543 -9.4197,23.2367"/>
<polygon fill="black" stroke="black" points="-12.8967,22.7683 -8.75538,13.0164 -5.91146,23.2224 -12.8967,22.7683"/>
</g>
<!-- 8 -->
<g id="node10" class="node"><title>8</title>
<ellipse fill="black" stroke="black" cx="-45.2064" cy="161.031" rx="7.2" ry="7.2"/>
</g>
<!-- 7&#45;&gt;8 -->
<g id="edge21" class="edge"><title>7&#45;&gt;8</title>
<path fill="none" stroke="black" d="M-16.9085,98.8724C-21.6857,109.366 -31.1594,130.176 -37.8253,144.818"/>
<polygon fill="black" stroke="black" points="-34.7468,146.503 -42.0756,154.154 -41.1176,143.603 -34.7468,146.503"/>
</g>
<!-- 10&#45;&gt;1 -->
<g id="edge31" class="edge"><title>10&#45;&gt;1</title>
<path fill="none" stroke="black" d="M-50.9051,-59.0618C-50.1246,-49.9515 -48.7915,-34.392 -47.751,-22.2469"/>
<polygon fill="black" stroke="black" points="-44.2371,-22.2332 -46.8706,-11.9709 -51.2115,-21.6356 -44.2371,-22.2332"/>
</g>
<!-- 10&#45;&gt;15 -->
<g id="edge32" class="edge"><title>10&#45;&gt;15</title>
<path fill="none" stroke="black" d="M-47.562,-59.9867C-40.7642,-48.6295 -26.7783,-25.2627 -17.4618,-9.69728"/>
<polygon fill="black" stroke="black" points="-14.2689,-11.1778 -12.1363,-0.79977 -20.2752,-7.58271 -14.2689,-11.1778"/>
</g>
<!-- 11 -->
<g id="node12" class="node"><title>11</title>
<ellipse fill="black" stroke="black" cx="-108.131" cy="-116.429" rx="7.2" ry="7.2"/>
</g>
<!-- 10&#45;&gt;11 -->
<g id="edge30" class="edge"><title>10&#45;&gt;11</title>
<path fill="none" stroke="black" d="M-57.1876,-71.6138C-65.9139,-79.2903 -82.9415,-94.2695 -94.9011,-104.79"/>
<polygon fill="black" stroke="black" points="-97.3262,-102.262 -102.523,-111.495 -92.7027,-107.518 -97.3262,-102.262"/>
</g>
<!-- 12 -->
<g id="node13" class="node"><title>12</title>
<ellipse fill="black" stroke="black" cx="-153.09" cy="-174.12" rx="7.2" ry="7.2"/>
</g>
<!-- 11&#45;&gt;12 -->
<g id="edge33" class="edge"><title>11&#45;&gt;12</title>
<path fill="none" stroke="black" d="M-112.607,-122.172C-119.474,-130.984 -132.81,-148.097 -142.298,-160.272"/>
<polygon fill="black" stroke="black" points="-145.247,-158.362 -148.633,-168.401 -139.725,-162.665 -145.247,-158.362"/>
</g>
</g>
</svg>
