<?xml version="1.0" encoding="UTF-8" standalone="no"?>
<!DOCTYPE svg PUBLIC "-//W3C//DTD SVG 1.1//EN"
 "http://www.w3.org/Graphics/SVG/1.1/DTD/svg11.dtd">
<!-- Generated by graphviz version 2.38.0 (20140413.2041)
 -->
<!-- Title: %3 Pages: 1 -->
<svg width="321pt" height="350pt"
 viewBox="0.00 0.00 321.01 350.35" xmlns="http://www.w3.org/2000/svg" xmlns:xlink="http://www.w3.org/1999/xlink">
<g id="graph0" class="graph" transform="scale(1 1) rotate(0) translate(160.69 181.72)">
<title>%3</title>
<polygon fill="white" stroke="none" points="-160.69,168.631 -160.69,-181.72 160.322,-181.72 160.322,168.631 -160.69,168.631"/>
<!-- 1 -->
<g id="node1" class="node"><title>1</title>
<ellipse fill="none" stroke="black" cx="-46.2473" cy="-4.69595" rx="3.5" ry="3.5"/>
</g>
<!-- 6 -->
<g id="node2" class="node"><title>6</title>
<ellipse fill="black" stroke="black" cx="31.0292" cy="54.7572" rx="3.6" ry="3.6"/>
</g>
<!-- 1&#45;&gt;6 -->
<g id="edge1" class="edge"><title>1&#45;&gt;6</title>
<path fill="none" stroke="black" d="M-43.3124,-2.43791C-32.9842,5.50812 2.03016,32.4466 20.0761,46.3304"/>
<polygon fill="black" stroke="black" points="22.2998,43.6251 28.0913,52.4969 18.0313,49.1732 22.2998,43.6251"/>
</g>
<!-- 2 -->
<g id="node3" class="node"><title>2</title>
<ellipse fill="black" stroke="black" cx="-6.70618" cy="45.4288" rx="3.6" ry="3.6"/>
</g>
<!-- 1&#45;&gt;2 -->
<g id="edge2" class="edge"><title>1&#45;&gt;2</title>
<path fill="none" stroke="black" d="M-43.8923,-1.71052C-38.3849,5.27092 -24.4387,22.9501 -15.2782,34.5624"/>
<polygon fill="black" stroke="black" points="-12.4449,32.5029 -8.99937,42.5219 -17.9408,36.8384 -12.4449,32.5029"/>
</g>
<!-- 9 -->
<g id="node4" class="node"><title>9</title>
<ellipse fill="black" stroke="black" cx="17.6738" cy="-35.4881" rx="3.6" ry="3.6"/>
</g>
<!-- 1&#45;&gt;9 -->
<g id="edge3" class="edge"><title>1&#45;&gt;9</title>
<path fill="none" stroke="black" d="M-42.8106,-6.35147C-33.9663,-10.612 -10.0657,-22.1254 4.90749,-29.3383"/>
<polygon fill="black" stroke="black" points="3.69201,-32.6376 14.2202,-33.8244 6.72998,-26.3312 3.69201,-32.6376"/>
</g>
<!-- 13 -->
<g id="node5" class="node"><title>13</title>
<ellipse fill="black" stroke="black" cx="41.6648" cy="7.31808" rx="3.6" ry="3.6"/>
</g>
<!-- 1&#45;&gt;13 -->
<g id="edge4" class="edge"><title>1&#45;&gt;13</title>
<path fill="none" stroke="black" d="M-42.6873,-4.216C-35.9629,-3.3089 -20.9321,-1.27874 -8.27713,0.448926 3.91739,2.11372 17.7845,4.02228 27.807,5.40444"/>
<polygon fill="black" stroke="black" points="28.6032,1.98107 38.0306,6.81569 27.6459,8.91532 28.6032,1.98107"/>
</g>
<!-- 15 -->
<g id="node6" class="node"><title>15</title>
<ellipse fill="black" stroke="black" cx="-8.2765" cy="5.64893" rx="3.6" ry="3.6"/>
</g>
<!-- 1&#45;&gt;15 -->
<g id="edge5" class="edge"><title>1&#45;&gt;15</title>
<path fill="none" stroke="black" d="M-43.5985,-7.19732C-38.2648,-9.22929 -26.3261,-7.0474 -17.7823,-3.37605"/>
<polygon fill="black" stroke="black" points="-15.8437,-6.29057 -9.34762,2.0791 -19.6453,-0.412758 -15.8437,-6.29057"/>
</g>
<!-- 6&#45;&gt;2 -->
<g id="edge17" class="edge"><title>6&#45;&gt;2</title>
<path fill="none" stroke="black" d="M28.4629,57.3261C23.2925,59.4728 11.6563,57.6751 3.16097,54.308"/>
<polygon fill="black" stroke="black" points="1.13114,57.1693 -5.57449,48.9665 4.78286,51.1973 1.13114,57.1693"/>
</g>
<!-- 6&#45;&gt;9 -->
<g id="edge18" class="edge"><title>6&#45;&gt;9</title>
<path fill="none" stroke="black" d="M28.2068,52.5144C21.8869,42.2909 14.8023,-0.125436 14.7383,-22.1275"/>
<polygon fill="black" stroke="black" points="11.2687,-22.6432 15.5708,-32.3253 18.2455,-22.0736 11.2687,-22.6432"/>
</g>
<!-- 6&#45;&gt;13 -->
<g id="edge19" class="edge"><title>6&#45;&gt;13</title>
<path fill="none" stroke="black" d="M28.6046,52.0728C26.2704,45.5775 28.9678,28.9909 33.1975,17.922"/>
<polygon fill="black" stroke="black" points="30.1704,16.1619 38.0132,9.03868 36.3243,19.498 30.1704,16.1619"/>
</g>
<!-- 6&#45;&gt;15 -->
<g id="edge20" class="edge"><title>6&#45;&gt;15</title>
<path fill="none" stroke="black" d="M28.6882,51.8323C23.2684,45.0609 9.62683,28.0172 0.51909,16.6381"/>
<polygon fill="black" stroke="black" points="-2.48066,18.4913 -5.99696,8.49696 2.9844,14.1171 -2.48066,18.4913"/>
</g>
<!-- 7 -->
<g id="node9" class="node"><title>7</title>
<ellipse fill="black" stroke="black" cx="-13.9075" cy="92.2802" rx="3.6" ry="3.6"/>
</g>
<!-- 6&#45;&gt;7 -->
<g id="edge16" class="edge"><title>6&#45;&gt;7</title>
<path fill="none" stroke="black" d="M28.0808,57.2192C21.8618,62.4122 7.13188,74.712 -3.11364,83.2672"/>
<polygon fill="black" stroke="black" points="-0.970066,86.037 -10.8893,89.76 -5.45672,80.6639 -0.970066,86.037"/>
</g>
<!-- 2&#45;&gt;6 -->
<g id="edge7" class="edge"><title>2&#45;&gt;6</title>
<path fill="none" stroke="black" d="M-4.13986,42.86C1.03053,40.7133 12.6668,42.5109 21.1621,45.8781"/>
<polygon fill="black" stroke="black" points="23.1919,43.0168 29.8975,51.2195 19.5402,48.9888 23.1919,43.0168"/>
</g>
<!-- 2&#45;&gt;9 -->
<g id="edge8" class="edge"><title>2&#45;&gt;9</title>
<path fill="none" stroke="black" d="M-8.41332,41.9778C-9.69273,30.495 0.549566,-6.23498 9.20784,-24.7145"/>
<polygon fill="black" stroke="black" points="6.2386,-26.5715 14.277,-33.4733 12.2971,-23.0651 6.2386,-26.5715"/>
</g>
<!-- 2&#45;&gt;13 -->
<g id="edge9" class="edge"><title>2&#45;&gt;13</title>
<path fill="none" stroke="black" d="M-3.82522,43.159C2.71873,38.0031 19.0024,25.1734 30.2003,16.3507"/>
<polygon fill="black" stroke="black" points="28.3381,13.3622 38.3591,9.92259 32.6702,18.8606 28.3381,13.3622"/>
</g>
<!-- 2&#45;&gt;15 -->
<g id="edge10" class="edge"><title>2&#45;&gt;15</title>
<path fill="none" stroke="black" d="M-6.8511,41.7578C-7.04875,36.7509 -7.41387,27.5013 -7.72509,19.6175"/>
<polygon fill="black" stroke="black" points="-11.2301,19.5575 -8.12735,9.42719 -4.23554,19.2813 -11.2301,19.5575"/>
</g>
<!-- 4 -->
<g id="node7" class="node"><title>4</title>
<ellipse fill="black" stroke="black" cx="79.9798" cy="26.2522" rx="3.6" ry="3.6"/>
</g>
<!-- 2&#45;&gt;4 -->
<g id="edge6" class="edge"><title>2&#45;&gt;4</title>
<path fill="none" stroke="black" d="M-2.98139,44.6049C8.88251,41.9803 46.1954,33.726 66.4983,29.2346"/>
<polygon fill="black" stroke="black" points="65.8454,25.7945 76.3654,27.0518 67.3575,32.6292 65.8454,25.7945"/>
</g>
<!-- 9&#45;&gt;6 -->
<g id="edge26" class="edge"><title>9&#45;&gt;6</title>
<path fill="none" stroke="black" d="M20.4963,-33.2452C26.8162,-23.0218 33.9008,19.3946 33.9647,41.3966"/>
<polygon fill="black" stroke="black" points="37.4344,41.9124 33.1323,51.5944 30.4576,41.3428 37.4344,41.9124"/>
</g>
<!-- 9&#45;&gt;2 -->
<g id="edge27" class="edge"><title>9&#45;&gt;2</title>
<path fill="none" stroke="black" d="M19.381,-32.0371C20.6604,-20.5543 10.4181,16.1757 1.75982,34.6553"/>
<polygon fill="black" stroke="black" points="4.72906,36.5123 -3.30931,43.4141 -1.32945,33.0059 4.72906,36.5123"/>
</g>
<!-- 9&#45;&gt;13 -->
<g id="edge28" class="edge"><title>9&#45;&gt;13</title>
<path fill="none" stroke="black" d="M21.2808,-35.0926C27.4394,-31.7392 36.6997,-17.2217 40.9467,-6.01944"/>
<polygon fill="black" stroke="black" points="44.3854,-6.68279 43.2176,3.84748 37.5638,-5.11272 44.3854,-6.68279"/>
</g>
<!-- 9&#45;&gt;15 -->
<g id="edge29" class="edge"><title>9&#45;&gt;15</title>
<path fill="none" stroke="black" d="M15.6376,-32.2601C12.1337,-26.7058 4.79861,-15.078 -0.829583,-6.15608"/>
<polygon fill="black" stroke="black" points="1.97496,-4.04183 -6.32069,2.54854 -3.94548,-7.77663 1.97496,-4.04183"/>
</g>
<!-- 10 -->
<g id="node11" class="node"><title>10</title>
<ellipse fill="black" stroke="black" cx="-51.5561" cy="-66.6597" rx="3.6" ry="3.6"/>
</g>
<!-- 9&#45;&gt;10 -->
<g id="edge25" class="edge"><title>9&#45;&gt;10</title>
<path fill="none" stroke="black" d="M14.3347,-36.9916C4.85436,-41.2602 -22.5945,-53.6194 -38.9199,-60.9701"/>
<polygon fill="black" stroke="black" points="-40.406,-57.8008 -48.0874,-65.0979 -37.5321,-64.1836 -40.406,-57.8008"/>
</g>
<!-- 13&#45;&gt;6 -->
<g id="edge34" class="edge"><title>13&#45;&gt;6</title>
<path fill="none" stroke="black" d="M44.0894,10.0025C46.4236,16.4978 43.7262,33.0844 39.4965,44.1533"/>
<polygon fill="black" stroke="black" points="42.5236,45.9134 34.6808,53.0366 36.3697,42.5773 42.5236,45.9134"/>
</g>
<!-- 13&#45;&gt;9 -->
<g id="edge36" class="edge"><title>13&#45;&gt;9</title>
<path fill="none" stroke="black" d="M38.0578,6.92256C31.8992,3.56921 22.6389,-10.9483 18.3919,-22.1506"/>
<polygon fill="black" stroke="black" points="14.9532,-21.4872 16.1211,-32.0175 21.7748,-23.0573 14.9532,-21.4872"/>
</g>
<!-- 13&#45;&gt;15 -->
<g id="edge37" class="edge"><title>13&#45;&gt;15</title>
<path fill="none" stroke="black" d="M37.746,7.18711C30.9295,6.95929 16.5787,6.47965 5.70302,6.11616"/>
<polygon fill="black" stroke="black" points="5.36491,9.60691 -4.51256,5.77473 5.5988,2.61081 5.36491,9.60691"/>
</g>
<!-- 14 -->
<g id="node14" class="node"><title>14</title>
<ellipse fill="black" stroke="black" cx="110.052" cy="-51.4993" rx="3.6" ry="3.6"/>
</g>
<!-- 13&#45;&gt;14 -->
<g id="edge35" class="edge"><title>13&#45;&gt;14</title>
<path fill="none" stroke="black" d="M44.6033,4.79078C53.9188,-3.22121 83.1232,-28.3389 99.1897,-42.1572"/>
<polygon fill="black" stroke="black" points="97.3365,-45.1797 107.2,-49.0468 101.901,-39.8726 97.3365,-45.1797"/>
</g>
<!-- 15&#45;&gt;1 -->
<g id="edge38" class="edge"><title>15&#45;&gt;1</title>
<path fill="none" stroke="black" d="M-10.9253,8.1503C-16.259,10.1823 -28.1977,8.00038 -36.7416,4.32903"/>
<polygon fill="black" stroke="black" points="-38.6801,7.24355 -45.1762,-1.12612 -34.8786,1.36574 -38.6801,7.24355"/>
</g>
<!-- 4&#45;&gt;6 -->
<g id="edge12" class="edge"><title>4&#45;&gt;6</title>
<path fill="none" stroke="black" d="M76.768,28.1225C70.0627,32.0272 54.2744,41.2211 43.1304,47.7105"/>
<polygon fill="black" stroke="black" points="44.7199,50.835 34.317,52.8427 41.1973,44.7859 44.7199,50.835"/>
</g>
<!-- 4&#45;&gt;9 -->
<g id="edge13" class="edge"><title>4&#45;&gt;9</title>
<path fill="none" stroke="black" d="M77.3026,23.5993C68.8154,15.1892 42.208,-11.1767 27.5701,-25.6817"/>
<polygon fill="black" stroke="black" points="24.9114,-23.3889 20.2717,-32.9138 29.8386,-28.3611 24.9114,-23.3889"/>
</g>
<!-- 4&#45;&gt;13 -->
<g id="edge14" class="edge"><title>4&#45;&gt;13</title>
<path fill="none" stroke="black" d="M76.4439,24.5049C71.4512,22.0377 62.0785,17.4059 54.3201,13.572"/>
<polygon fill="black" stroke="black" points="52.7184,16.6845 45.3039,9.11643 55.8196,10.409 52.7184,16.6845"/>
</g>
<!-- 4&#45;&gt;15 -->
<g id="edge15" class="edge"><title>4&#45;&gt;15</title>
<path fill="none" stroke="black" d="M76.1876,25.3669C64.052,22.5339 25.7626,13.5953 5.15923,8.78548"/>
<polygon fill="black" stroke="black" points="4.34586,12.1898 -4.5966,6.50799 5.93727,5.37307 4.34586,12.1898"/>
</g>
<!-- 5 -->
<g id="node8" class="node"><title>5</title>
<ellipse fill="black" stroke="black" cx="152.722" cy="56.1756" rx="3.6" ry="3.6"/>
</g>
<!-- 4&#45;&gt;5 -->
<g id="edge11" class="edge"><title>4&#45;&gt;5</title>
<path fill="none" stroke="black" d="M83.4883,27.6955C93.4497,31.7932 122.291,43.6575 139.445,50.7138"/>
<polygon fill="black" stroke="black" points="141.161,47.6351 149.077,54.6763 138.498,54.1088 141.161,47.6351"/>
</g>
<!-- 7&#45;&gt;2 -->
<g id="edge22" class="edge"><title>7&#45;&gt;2</title>
<path fill="none" stroke="black" d="M-13.3424,88.6039C-12.3796,82.3399 -10.3744,69.294 -8.81879,59.1734"/>
<polygon fill="black" stroke="black" points="-12.2673,58.5704 -7.28863,49.2183 -5.34855,59.6339 -12.2673,58.5704"/>
</g>
<!-- 7&#45;&gt;13 -->
<g id="edge23" class="edge"><title>7&#45;&gt;13</title>
<path fill="none" stroke="black" d="M-11.7968,89.0533C-4.33511,77.6454 21.0441,38.8442 33.9674,19.0862"/>
<polygon fill="black" stroke="black" points="31.149,17.0011 39.552,10.5482 37.0072,20.8329 31.149,17.0011"/>
</g>
<!-- 7&#45;&gt;15 -->
<g id="edge24" class="edge"><title>7&#45;&gt;15</title>
<path fill="none" stroke="black" d="M-13.8046,88.3925C-13.5783,80.3646 -12.9706,61.3741 -11.9061,45.465 -11.3291,36.8425 -10.4549,27.1896 -9.70897,19.5479"/>
<polygon fill="black" stroke="black" points="-13.1686,18.9724 -8.67678,9.37694 -6.2044,19.6792 -13.1686,18.9724"/>
</g>
<!-- 8 -->
<g id="node10" class="node"><title>8</title>
<ellipse fill="black" stroke="black" cx="-45.2064" cy="161.031" rx="3.6" ry="3.6"/>
</g>
<!-- 7&#45;&gt;8 -->
<g id="edge21" class="edge"><title>7&#45;&gt;8</title>
<path fill="none" stroke="black" d="M-15.4171,95.5962C-19.7032,105.011 -32.1129,132.27 -39.4936,148.483"/>
<polygon fill="black" stroke="black" points="-36.3094,149.936 -43.6382,157.587 -42.6803,147.035 -36.3094,149.936"/>
</g>
<!-- 10&#45;&gt;1 -->
<g id="edge31" class="edge"><title>10&#45;&gt;1</title>
<path fill="none" stroke="black" d="M-51.2399,-62.9692C-50.5079,-54.4251 -48.6654,-32.9198 -47.4353,-18.5618"/>
<polygon fill="black" stroke="black" points="-43.9217,-18.5518 -46.5552,-8.28954 -50.8961,-17.9542 -43.9217,-18.5518"/>
</g>
<!-- 10&#45;&gt;15 -->
<g id="edge32" class="edge"><title>10&#45;&gt;15</title>
<path fill="none" stroke="black" d="M-49.6964,-63.5527C-43.8545,-53.7925 -25.6536,-23.3836 -15.4301,-6.30278"/>
<polygon fill="black" stroke="black" points="-12.4098,-8.07164 -10.2772,2.30635 -18.4161,-4.47659 -12.4098,-8.07164"/>
</g>
<!-- 11 -->
<g id="node12" class="node"><title>11</title>
<ellipse fill="black" stroke="black" cx="-108.131" cy="-116.429" rx="3.6" ry="3.6"/>
</g>
<!-- 10&#45;&gt;11 -->
<g id="edge30" class="edge"><title>10&#45;&gt;11</title>
<path fill="none" stroke="black" d="M-54.2848,-69.0602C-61.9578,-75.8101 -84.0338,-95.2304 -97.4177,-107.004"/>
<polygon fill="black" stroke="black" points="-100.1,-104.703 -105.297,-113.936 -95.4768,-109.958 -100.1,-104.703"/>
</g>
<!-- 12 -->
<g id="node13" class="node"><title>12</title>
<ellipse fill="black" stroke="black" cx="-153.09" cy="-174.12" rx="3.6" ry="3.6"/>
</g>
<!-- 11&#45;&gt;12 -->
<g id="edge33" class="edge"><title>11&#45;&gt;12</title>
<path fill="none" stroke="black" d="M-110.549,-119.531C-116.889,-127.667 -134.23,-149.92 -144.712,-163.369"/>
<polygon fill="black" stroke="black" points="-147.49,-161.24 -150.876,-171.279 -141.968,-165.543 -147.49,-161.24"/>
</g>
</g>
</svg>
