<?xml version="1.0" encoding="UTF-8" standalone="no"?>
<!DOCTYPE svg PUBLIC "-//W3C//DTD SVG 1.1//EN"
 "http://www.w3.org/Graphics/SVG/1.1/DTD/svg11.dtd">
<!-- Generated by graphviz version 2.38.0 (20140413.2041)
 -->
<!-- Title: %3 Pages: 1 -->
<svg width="102pt" height="112pt"
 viewBox="0.00 0.00 101.52 112.05" xmlns="http://www.w3.org/2000/svg" xmlns:xlink="http://www.w3.org/1999/xlink">
<g id="graph0" class="graph" transform="scale(1 1) rotate(0) translate(50.5458 56.2162)">
<title>%3</title>
<polygon fill="white" stroke="none" points="-50.5458,55.831 -50.5458,-56.2162 50.9704,-56.2162 50.9704,55.831 -50.5458,55.831"/>
<!-- 1 -->
<g id="node1" class="node"><title>1</title>
<ellipse fill="none" stroke="black" cx="-38.0662" cy="24.0994" rx="7" ry="7"/>
</g>
<!-- 5 -->
<g id="node2" class="node"><title>5</title>
<ellipse fill="black" stroke="black" cx="39.7704" cy="20.7688" rx="7.2" ry="7.2"/>
</g>
<!-- 1&#45;&gt;5 -->
<g id="edge1" class="edge"><title>1&#45;&gt;5</title>
<path fill="none" stroke="black" d="M-32.1228,19.9985C-20.4929,16.3623 5.64386,14.6445 22.9902,15.8421"/>
<polygon fill="black" stroke="black" points="23.8276,12.4201 33.3085,17.1492 22.9478,19.3646 23.8276,12.4201"/>
</g>
<!-- 3 -->
<g id="node3" class="node"><title>3</title>
<ellipse fill="black" stroke="black" cx="1.90325" cy="44.631" rx="7.2" ry="7.2"/>
</g>
<!-- 1&#45;&gt;3 -->
<g id="edge2" class="edge"><title>1&#45;&gt;3</title>
<path fill="none" stroke="black" d="M-31.0568,22.5125C-24.8899,23.4833 -15.9851,27.3683 -8.9417,31.805"/>
<polygon fill="black" stroke="black" points="-6.71375,29.1031 -0.922752,37.9753 -10.9825,34.6509 -6.71375,29.1031"/>
</g>
<!-- 4 -->
<g id="node4" class="node"><title>4</title>
<ellipse fill="black" stroke="black" cx="-1.97035" cy="-45.0162" rx="7.2" ry="7.2"/>
</g>
<!-- 1&#45;&gt;4 -->
<g id="edge3" class="edge"><title>1&#45;&gt;4</title>
<path fill="none" stroke="black" d="M-38.6403,16.897C-35.9644,4.99945 -24.3627,-18.5088 -14.6391,-32.9409"/>
<polygon fill="black" stroke="black" points="-17.1779,-35.3847 -8.34019,-41.228 -11.605,-31.1487 -17.1779,-35.3847"/>
</g>
<!-- 2 -->
<g id="node5" class="node"><title>2</title>
<ellipse fill="black" stroke="black" cx="37.7087" cy="-23.9342" rx="7.2" ry="7.2"/>
</g>
<!-- 1&#45;&gt;2 -->
<g id="edge4" class="edge"><title>1&#45;&gt;2</title>
<path fill="none" stroke="black" d="M-34.5992,17.5174C-24.7324,7.23702 2.75573,-10.8442 20.92,-19.6457"/>
<polygon fill="black" stroke="black" points="19.7602,-22.9552 30.3337,-23.6264 22.4865,-16.508 19.7602,-22.9552"/>
</g>
<!-- 6 -->
<g id="node6" class="node"><title>6</title>
<ellipse fill="black" stroke="black" cx="-39.3458" cy="-20.5488" rx="7.2" ry="7.2"/>
</g>
<!-- 1&#45;&gt;6 -->
<g id="edge5" class="edge"><title>1&#45;&gt;6</title>
<path fill="none" stroke="black" d="M-42.8355,18.7568C-44.9579,12.9215 -45.8468,3.30484 -45.355,-4.95557"/>
<polygon fill="black" stroke="black" points="-48.8047,-5.55048 -43.8147,-14.8966 -41.8872,-4.47863 -48.8047,-5.55048"/>
</g>
<!-- 5&#45;&gt;1 -->
<g id="edge25" class="edge"><title>5&#45;&gt;1</title>
<path fill="none" stroke="black" d="M33.827,24.8697C22.1971,28.5059 -3.93969,30.2237 -21.286,29.0261"/>
<polygon fill="black" stroke="black" points="-22.1235,32.4481 -31.6043,27.719 -21.2437,25.5036 -22.1235,32.4481"/>
</g>
<!-- 5&#45;&gt;3 -->
<g id="edge21" class="edge"><title>5&#45;&gt;3</title>
<path fill="none" stroke="black" d="M37.3423,27.8912C33.4089,32.5191 25.9941,37.8889 18.9167,41.5942"/>
<polygon fill="black" stroke="black" points="19.8148,45.0081 9.23392,45.5514 17.1666,38.5283 19.8148,45.0081"/>
</g>
<!-- 5&#45;&gt;4 -->
<g id="edge22" class="edge"><title>5&#45;&gt;4</title>
<path fill="none" stroke="black" d="M33.2501,17.6657C24.2938,9.40318 9.75832,-12.3876 2.13704,-28.0164"/>
<polygon fill="black" stroke="black" points="-1.24611,-27.0342 -1.88106,-37.61 5.21046,-29.7384 -1.24611,-27.0342"/>
</g>
<!-- 5&#45;&gt;2 -->
<g id="edge23" class="edge"><title>5&#45;&gt;2</title>
<path fill="none" stroke="black" d="M34.7746,15.1427C32.6671,9.37214 31.6578,0.128978 31.962,-7.91955"/>
<polygon fill="black" stroke="black" points="28.5155,-8.55596 33.2899,-18.014 35.4557,-7.64296 28.5155,-8.55596"/>
</g>
<!-- 5&#45;&gt;6 -->
<g id="edge24" class="edge"><title>5&#45;&gt;6</title>
<path fill="none" stroke="black" d="M32.3664,21.0797C18.5898,17.7209 -10.677,3.06219 -27.3008,-8.20426"/>
<polygon fill="black" stroke="black" points="-29.546,-5.51391 -35.4149,-14.3347 -25.3263,-11.0991 -29.546,-5.51391"/>
</g>
<!-- 3&#45;&gt;1 -->
<g id="edge15" class="edge"><title>3&#45;&gt;1</title>
<path fill="none" stroke="black" d="M-5.48389,46.1554C-11.5558,45.103 -20.1034,41.3675 -26.9613,37.0883"/>
<polygon fill="black" stroke="black" points="-29.5116,39.5432 -35.315,30.6792 -25.2506,33.9895 -29.5116,39.5432"/>
</g>
<!-- 3&#45;&gt;5 -->
<g id="edge11" class="edge"><title>3&#45;&gt;5</title>
<path fill="none" stroke="black" d="M4.33133,37.5087C8.26479,32.8807 15.6796,27.5109 22.7569,23.8057"/>
<polygon fill="black" stroke="black" points="21.8588,20.3918 32.4397,19.8485 24.507,26.8715 21.8588,20.3918"/>
</g>
<!-- 3&#45;&gt;4 -->
<g id="edge12" class="edge"><title>3&#45;&gt;4</title>
<path fill="none" stroke="black" d="M-2.07482,38.3437C-6.06931,24.6635 -8.04365,-8.18417 -6.6204,-28.3214"/>
<polygon fill="black" stroke="black" points="-10.0676,-28.9671 -5.37939,-38.4682 -3.11938,-28.1172 -10.0676,-28.9671"/>
</g>
<!-- 3&#45;&gt;2 -->
<g id="edge13" class="edge"><title>3&#45;&gt;2</title>
<path fill="none" stroke="black" d="M1.36587,37.2093C4.11474,25.2833 15.5741,2.10622 25.178,-12.0888"/>
<polygon fill="black" stroke="black" points="22.548,-14.4116 31.4006,-20.2325 28.1102,-10.1615 22.548,-14.4116"/>
</g>
<!-- 3&#45;&gt;6 -->
<g id="edge14" class="edge"><title>3&#45;&gt;6</title>
<path fill="none" stroke="black" d="M-4.97656,41.2021C-13.934,32.7182 -28.0968,11.3541 -35.4648,-3.92813"/>
<polygon fill="black" stroke="black" points="-38.7543,-2.72439 -39.3328,-13.3034 -32.2834,-5.39411 -38.7543,-2.72439"/>
</g>
<!-- 4&#45;&gt;1 -->
<g id="edge19" class="edge"><title>4&#45;&gt;1</title>
<path fill="none" stroke="black" d="M-1.39629,-37.8138C-4.07217,-25.9163 -15.6739,-2.40803 -25.3975,12.024"/>
<polygon fill="black" stroke="black" points="-22.8586,14.4678 -31.6964,20.3111 -28.4316,10.2319 -22.8586,14.4678"/>
</g>
<!-- 4&#45;&gt;5 -->
<g id="edge16" class="edge"><title>4&#45;&gt;5</title>
<path fill="none" stroke="black" d="M4.54992,-41.9131C13.5062,-33.6506 28.0417,-11.8598 35.663,3.76902"/>
<polygon fill="black" stroke="black" points="39.0462,2.78677 39.6811,13.3626 32.5896,5.49103 39.0462,2.78677"/>
</g>
<!-- 4&#45;&gt;3 -->
<g id="edge17" class="edge"><title>4&#45;&gt;3</title>
<path fill="none" stroke="black" d="M2.00772,-38.7289C6.00221,-25.0488 7.97655,7.79896 6.5533,27.9362"/>
<polygon fill="black" stroke="black" points="10.0005,28.5819 5.31228,38.083 3.05227,27.732 10.0005,28.5819"/>
</g>
<!-- 4&#45;&gt;2 -->
<g id="edge18" class="edge"><title>4&#45;&gt;2</title>
<path fill="none" stroke="black" d="M5.4369,-46.4383C11.3617,-45.3268 19.6197,-41.615 26.3399,-37.3598"/>
<polygon fill="black" stroke="black" points="28.8444,-39.8488 34.6344,-30.976 24.575,-34.3015 28.8444,-39.8488"/>
</g>
<!-- 4&#45;&gt;6 -->
<g id="edge20" class="edge"><title>4&#45;&gt;6</title>
<path fill="none" stroke="black" d="M-4.26515,-37.8591C-8.10842,-33.1698 -15.4142,-27.6819 -22.4134,-23.8631"/>
<polygon fill="black" stroke="black" points="-21.4393,-20.4726 -32.0095,-19.7496 -24.1973,-26.9064 -21.4393,-20.4726"/>
</g>
<!-- 2&#45;&gt;1 -->
<g id="edge10" class="edge"><title>2&#45;&gt;1</title>
<path fill="none" stroke="black" d="M34.2417,-17.3522C24.3748,-7.07186 -3.11327,11.0093 -21.2775,19.8108"/>
<polygon fill="black" stroke="black" points="-20.1177,23.1204 -30.6913,23.7916 -22.8441,16.6731 -20.1177,23.1204"/>
</g>
<!-- 2&#45;&gt;5 -->
<g id="edge6" class="edge"><title>2&#45;&gt;5</title>
<path fill="none" stroke="black" d="M42.7045,-18.308C44.812,-12.5375 45.8213,-3.29437 45.5171,4.75416"/>
<polygon fill="black" stroke="black" points="48.9636,5.39057 44.1892,14.8487 42.0234,4.47757 48.9636,5.39057"/>
</g>
<!-- 2&#45;&gt;3 -->
<g id="edge7" class="edge"><title>2&#45;&gt;3</title>
<path fill="none" stroke="black" d="M38.2461,-16.5125C35.4972,-4.58652 24.0378,18.5906 14.4339,32.7856"/>
<polygon fill="black" stroke="black" points="17.0639,35.1084 8.21134,40.9293 11.5018,30.8583 17.0639,35.1084"/>
</g>
<!-- 2&#45;&gt;4 -->
<g id="edge8" class="edge"><title>2&#45;&gt;4</title>
<path fill="none" stroke="black" d="M30.3014,-22.5122C24.3766,-23.6237 16.1186,-27.3354 9.3985,-31.5907"/>
<polygon fill="black" stroke="black" points="6.89397,-29.1016 1.10398,-37.9745 11.1634,-34.6489 6.89397,-29.1016"/>
</g>
<!-- 2&#45;&gt;6 -->
<g id="edge9" class="edge"><title>2&#45;&gt;6</title>
<path fill="none" stroke="black" d="M31.5747,-19.7491C19.9118,-16.1499 -5.81299,-14.4483 -22.8611,-15.6434"/>
<polygon fill="black" stroke="black" points="-23.5257,-12.1999 -32.9981,-16.9459 -22.6335,-19.1429 -23.5257,-12.1999"/>
</g>
<!-- 6&#45;&gt;1 -->
<g id="edge30" class="edge"><title>6&#45;&gt;1</title>
<path fill="none" stroke="black" d="M-34.4492,-14.8473C-32.4208,-8.98828 -31.5769,0.3935 -32.0555,8.48106"/>
<polygon fill="black" stroke="black" points="-28.6266,9.20858 -33.6277,18.5488 -35.5428,8.12844 -28.6266,9.20858"/>
</g>
<!-- 6&#45;&gt;5 -->
<g id="edge26" class="edge"><title>6&#45;&gt;5</title>
<path fill="none" stroke="black" d="M-31.9418,-20.8596C-18.1651,-17.5009 11.1017,-2.84213 27.7254,8.42431"/>
<polygon fill="black" stroke="black" points="29.9707,5.73397 35.8396,14.5548 25.7509,11.3191 29.9707,5.73397"/>
</g>
<!-- 6&#45;&gt;3 -->
<g id="edge27" class="edge"><title>6&#45;&gt;3</title>
<path fill="none" stroke="black" d="M-32.4659,-17.1198C-23.5085,-8.6359 -9.3457,12.7282 -1.97767,28.0104"/>
<polygon fill="black" stroke="black" points="1.31183,26.8067 1.89024,37.3857 -5.1591,29.4764 1.31183,26.8067"/>
</g>
<!-- 6&#45;&gt;4 -->
<g id="edge28" class="edge"><title>6&#45;&gt;4</title>
<path fill="none" stroke="black" d="M-37.051,-27.7059C-33.2077,-32.3952 -25.9019,-37.8831 -18.9027,-41.7019"/>
<polygon fill="black" stroke="black" points="-19.8768,-45.0924 -9.30662,-45.8154 -17.1188,-38.6586 -19.8768,-45.0924"/>
</g>
<!-- 6&#45;&gt;2 -->
<g id="edge29" class="edge"><title>6&#45;&gt;2</title>
<path fill="none" stroke="black" d="M-33.2118,-24.7339C-21.5488,-28.3331 4.17593,-30.0346 21.2241,-28.8396"/>
<polygon fill="black" stroke="black" points="21.8886,-32.283 31.361,-27.5371 20.9965,-25.3401 21.8886,-32.283"/>
</g>
</g>
</svg>
