<?xml version="1.0" encoding="UTF-8" standalone="no"?>
<!DOCTYPE svg PUBLIC "-//W3C//DTD SVG 1.1//EN"
 "http://www.w3.org/Graphics/SVG/1.1/DTD/svg11.dtd">
<!-- Generated by graphviz version 2.38.0 (20140413.2041)
 -->
<!-- Title: %3 Pages: 1 -->
<svg width="101pt" height="105pt"
 viewBox="0.00 0.00 100.59 104.85" xmlns="http://www.w3.org/2000/svg" xmlns:xlink="http://www.w3.org/1999/xlink">
<g id="graph0" class="graph" transform="scale(1 1) rotate(0) translate(50.2995 52.6162)">
<title>%3</title>
<polygon fill="white" stroke="none" points="-50.2995,52.231 -50.2995,-52.6162 50.2906,-52.6162 50.2906,52.231 -50.2995,52.231"/>
<!-- 1 -->
<g id="node1" class="node"><title>1</title>
<ellipse fill="none" stroke="black" cx="-38.0662" cy="24.0994" rx="3.5" ry="3.5"/>
</g>
<!-- 5 -->
<g id="node2" class="node"><title>5</title>
<ellipse fill="black" stroke="black" cx="39.7704" cy="20.7688" rx="3.6" ry="3.6"/>
</g>
<!-- 1&#45;&gt;5 -->
<g id="edge1" class="edge"><title>1&#45;&gt;5</title>
<path fill="none" stroke="black" d="M-35.5889,21.3608C-26.1322,16.4787 8.0949,14.1829 27.0018,16.1891"/>
<polygon fill="black" stroke="black" points="27.8734,12.7946 36.9769,18.2147 26.4804,19.6546 27.8734,12.7946"/>
</g>
<!-- 3 -->
<g id="node3" class="node"><title>3</title>
<ellipse fill="black" stroke="black" cx="1.90325" cy="44.631" rx="3.6" ry="3.6"/>
</g>
<!-- 1&#45;&gt;3 -->
<g id="edge2" class="edge"><title>1&#45;&gt;3</title>
<path fill="none" stroke="black" d="M-34.9994,22.3548C-28.655,21.5433 -14.8685,27.4659 -5.97775,33.785"/>
<polygon fill="black" stroke="black" points="-3.49677,31.3146 1.3223,40.75 -8.32897,36.3792 -3.49677,31.3146"/>
</g>
<!-- 4 -->
<g id="node4" class="node"><title>4</title>
<ellipse fill="black" stroke="black" cx="-1.97035" cy="-45.0162" rx="3.6" ry="3.6"/>
</g>
<!-- 1&#45;&gt;4 -->
<g id="edge3" class="edge"><title>1&#45;&gt;4</title>
<path fill="none" stroke="black" d="M-39.1966,20.5822C-38.6901,9.99526 -23.6796,-20.5694 -12.4908,-36.0216"/>
<polygon fill="black" stroke="black" points="-14.8146,-38.679 -5.58062,-43.8737 -9.55972,-34.0544 -14.8146,-38.679"/>
</g>
<!-- 2 -->
<g id="node5" class="node"><title>2</title>
<ellipse fill="black" stroke="black" cx="37.7087" cy="-23.9342" rx="3.6" ry="3.6"/>
</g>
<!-- 1&#45;&gt;2 -->
<g id="edge4" class="edge"><title>1&#45;&gt;2</title>
<path fill="none" stroke="black" d="M-37.1992,20.6328C-30.5764,10.8046 4.70928,-12.5086 24.4859,-21.3062"/>
<polygon fill="black" stroke="black" points="23.4092,-24.6372 34.0039,-24.5971 25.6966,-18.0215 23.4092,-24.6372"/>
</g>
<!-- 6 -->
<g id="node6" class="node"><title>6</title>
<ellipse fill="black" stroke="black" cx="-39.3458" cy="-20.5488" rx="3.6" ry="3.6"/>
</g>
<!-- 1&#45;&gt;6 -->
<g id="edge5" class="edge"><title>1&#45;&gt;6</title>
<path fill="none" stroke="black" d="M-41.0731,22.2655C-44.8425,17.1302 -46.2995,2.28574 -45.0491,-8.48581"/>
<polygon fill="black" stroke="black" points="-48.4224,-9.42006 -42.466,-18.182 -41.6583,-7.61799 -48.4224,-9.42006"/>
</g>
<!-- 5&#45;&gt;1 -->
<g id="edge25" class="edge"><title>5&#45;&gt;1</title>
<path fill="none" stroke="black" d="M37.2931,23.5074C27.8363,28.3895 -6.39073,30.6853 -25.2976,28.6791"/>
<polygon fill="black" stroke="black" points="-26.1693,32.0736 -35.2727,26.6535 -24.7762,25.2136 -26.1693,32.0736"/>
</g>
<!-- 5&#45;&gt;3 -->
<g id="edge21" class="edge"><title>5&#45;&gt;3</title>
<path fill="none" stroke="black" d="M39.6019,24.5506C36.8677,30.382 25.1155,38.9541 15.3606,43.3253"/>
<polygon fill="black" stroke="black" points="16.0614,46.7642 5.48669,46.1112 14.1605,40.0272 16.0614,46.7642"/>
</g>
<!-- 5&#45;&gt;4 -->
<g id="edge22" class="edge"><title>5&#45;&gt;4</title>
<path fill="none" stroke="black" d="M36.1608,19.9891C27.2525,14.2592 8.31715,-14.0087 0.546493,-31.4155"/>
<polygon fill="black" stroke="black" points="-2.91457,-30.7265 -2.78905,-41.3206 3.71939,-32.9606 -2.91457,-30.7265"/>
</g>
<!-- 5&#45;&gt;2 -->
<g id="edge23" class="edge"><title>5&#45;&gt;2</title>
<path fill="none" stroke="black" d="M36.5646,18.756C32.8426,13.5008 31.1885,-0.94861 32.2018,-11.5881"/>
<polygon fill="black" stroke="black" points="28.8646,-12.6746 34.6526,-21.5487 35.6619,-11.0021 28.8646,-12.6746"/>
</g>
<!-- 5&#45;&gt;6 -->
<g id="edge24" class="edge"><title>5&#45;&gt;6</title>
<path fill="none" stroke="black" d="M35.9205,21.7255C23.7651,20.5423 -12.8285,2.29201 -30.181,-10.2145"/>
<polygon fill="black" stroke="black" points="-32.8242,-7.87233 -38.1085,-17.0553 -28.251,-13.172 -32.8242,-7.87233"/>
</g>
<!-- 3&#45;&gt;1 -->
<g id="edge15" class="edge"><title>3&#45;&gt;1</title>
<path fill="none" stroke="black" d="M-1.44545,46.4068C-7.87556,47.0114 -21.2864,41.2318 -30.051,35.0405"/>
<polygon fill="black" stroke="black" points="-32.6788,37.3712 -37.5087,27.9413 -27.8525,32.3011 -32.6788,37.3712"/>
</g>
<!-- 3&#45;&gt;5 -->
<g id="edge11" class="edge"><title>3&#45;&gt;5</title>
<path fill="none" stroke="black" d="M2.07179,40.8492C4.8059,35.0178 16.5582,26.4458 26.3131,22.0745"/>
<polygon fill="black" stroke="black" points="25.6123,18.6357 36.187,19.2886 27.5131,25.3727 25.6123,18.6357"/>
</g>
<!-- 3&#45;&gt;4 -->
<g id="edge12" class="edge"><title>3&#45;&gt;4</title>
<path fill="none" stroke="black" d="M-0.85331,41.7618C-5.94248,30.5347 -8.4787,-10.8319 -6.293,-32.1412"/>
<polygon fill="black" stroke="black" points="-9.68917,-33.0163 -4.3741,-42.1815 -2.81361,-31.7022 -9.68917,-33.0163"/>
</g>
<!-- 3&#45;&gt;2 -->
<g id="edge13" class="edge"><title>3&#45;&gt;2</title>
<path fill="none" stroke="black" d="M0.763178,41.1323C1.23374,30.6133 16.1175,0.288975 27.236,-15.0301"/>
<polygon fill="black" stroke="black" points="24.8649,-17.6327 34.1084,-22.8105 30.1114,-12.9986 24.8649,-17.6327"/>
</g>
<!-- 3&#45;&gt;6 -->
<g id="edge14" class="edge"><title>3&#45;&gt;6</title>
<path fill="none" stroke="black" d="M-1.69165,43.8689C-10.5421,38.2092 -29.2633,10.2046 -36.9132,-7.05286"/>
<polygon fill="black" stroke="black" points="-40.3457,-6.28308 -40.1831,-16.8767 -33.7039,-8.49386 -40.3457,-6.28308"/>
</g>
<!-- 4&#45;&gt;1 -->
<g id="edge19" class="edge"><title>4&#45;&gt;1</title>
<path fill="none" stroke="black" d="M-0.839985,-41.4991C-1.34644,-30.9121 -16.357,-0.347465 -27.5457,15.1048"/>
<polygon fill="black" stroke="black" points="-25.222,17.7622 -34.456,22.9568 -30.4769,13.1376 -25.222,17.7622"/>
</g>
<!-- 4&#45;&gt;5 -->
<g id="edge16" class="edge"><title>4&#45;&gt;5</title>
<path fill="none" stroke="black" d="M1.63925,-44.2366C10.5475,-38.5066 29.4829,-10.2387 37.2536,7.16808"/>
<polygon fill="black" stroke="black" points="40.7146,6.47913 40.5891,17.0732 34.0807,8.71315 40.7146,6.47913"/>
</g>
<!-- 4&#45;&gt;3 -->
<g id="edge17" class="edge"><title>4&#45;&gt;3</title>
<path fill="none" stroke="black" d="M0.786208,-42.1471C5.87538,-30.9199 8.4116,10.4467 6.2259,31.756"/>
<polygon fill="black" stroke="black" points="9.62207,32.6311 4.30699,41.7963 2.74651,31.317 9.62207,32.6311"/>
</g>
<!-- 4&#45;&gt;2 -->
<g id="edge18" class="edge"><title>4&#45;&gt;2</title>
<path fill="none" stroke="black" d="M1.40251,-46.7455C7.8401,-47.2612 21.1689,-41.2968 29.8463,-34.985"/>
<polygon fill="black" stroke="black" points="32.5059,-37.2794 37.2046,-27.7835 27.6097,-32.2767 32.5059,-37.2794"/>
</g>
<!-- 4&#45;&gt;6 -->
<g id="edge20" class="edge"><title>4&#45;&gt;6</title>
<path fill="none" stroke="black" d="M-2.06982,-41.2344C-4.69368,-35.3622 -16.2721,-26.6031 -25.9327,-22.0747"/>
<polygon fill="black" stroke="black" points="-25.1567,-18.6534 -35.7408,-19.1285 -27.1705,-25.3575 -25.1567,-18.6534"/>
</g>
<!-- 2&#45;&gt;1 -->
<g id="edge10" class="edge"><title>2&#45;&gt;1</title>
<path fill="none" stroke="black" d="M36.5957,-20.1146C29.4007,-10.1077 -5.19145,12.7059 -24.7516,21.4305"/>
<polygon fill="black" stroke="black" points="-23.8162,24.8104 -34.411,24.7706 -26.1038,18.1947 -23.8162,24.8104"/>
</g>
<!-- 2&#45;&gt;5 -->
<g id="edge6" class="edge"><title>2&#45;&gt;5</title>
<path fill="none" stroke="black" d="M40.9145,-21.9214C44.6365,-16.6662 46.2906,-2.21678 45.2773,8.42273"/>
<polygon fill="black" stroke="black" points="48.6145,9.50921 42.8265,18.3833 41.8172,7.83667 48.6145,9.50921"/>
</g>
<!-- 2&#45;&gt;3 -->
<g id="edge7" class="edge"><title>2&#45;&gt;3</title>
<path fill="none" stroke="black" d="M38.8488,-20.4355C38.3782,-9.91652 23.4944,20.4078 12.376,35.7269"/>
<polygon fill="black" stroke="black" points="14.747,38.3295 5.50356,43.5073 9.50058,33.6954 14.747,38.3295"/>
</g>
<!-- 2&#45;&gt;4 -->
<g id="edge8" class="edge"><title>2&#45;&gt;4</title>
<path fill="none" stroke="black" d="M34.3358,-22.2049C27.8982,-21.6893 14.5694,-27.6537 5.89203,-33.9654"/>
<polygon fill="black" stroke="black" points="3.23246,-31.671 -1.46623,-41.167 8.12867,-36.6738 3.23246,-31.671"/>
</g>
<!-- 2&#45;&gt;6 -->
<g id="edge9" class="edge"><title>2&#45;&gt;6</title>
<path fill="none" stroke="black" d="M35.2604,-21.194C25.9057,-16.3052 -7.97608,-13.9854 -26.6974,-15.9781"/>
<polygon fill="black" stroke="black" points="-27.4793,-12.5655 -36.5761,-17.9967 -26.0778,-19.4238 -27.4793,-12.5655"/>
</g>
<!-- 6&#45;&gt;1 -->
<g id="edge30" class="edge"><title>6&#45;&gt;1</title>
<path fill="none" stroke="black" d="M-36.1756,-18.4844C-32.5462,-13.1753 -31.145,1.27351 -32.3442,11.8739"/>
<polygon fill="black" stroke="black" points="-29.0226,13.0029 -34.9689,21.7717 -35.7887,11.2087 -29.0226,13.0029"/>
</g>
<!-- 6&#45;&gt;5 -->
<g id="edge26" class="edge"><title>6&#45;&gt;5</title>
<path fill="none" stroke="black" d="M-35.4959,-21.5054C-23.3404,-20.3222 13.2531,-2.07195 30.6057,10.4345"/>
<polygon fill="black" stroke="black" points="33.2489,8.09239 38.5332,17.2754 28.6757,13.392 33.2489,8.09239"/>
</g>
<!-- 6&#45;&gt;3 -->
<g id="edge27" class="edge"><title>6&#45;&gt;3</title>
<path fill="none" stroke="black" d="M-35.7509,-19.7866C-26.9005,-14.1269 -8.17921,13.8777 -0.529342,31.1351"/>
<polygon fill="black" stroke="black" points="2.90317,30.3653 2.74056,40.9589 -3.73857,32.5761 2.90317,30.3653"/>
</g>
<!-- 6&#45;&gt;4 -->
<g id="edge28" class="edge"><title>6&#45;&gt;4</title>
<path fill="none" stroke="black" d="M-39.2463,-24.3306C-36.6224,-30.2028 -25.044,-38.9619 -15.3834,-43.4903"/>
<polygon fill="black" stroke="black" points="-16.1594,-46.9116 -5.57527,-46.4365 -14.1456,-40.2076 -16.1594,-46.9116"/>
</g>
<!-- 6&#45;&gt;2 -->
<g id="edge29" class="edge"><title>6&#45;&gt;2</title>
<path fill="none" stroke="black" d="M-36.8975,-23.289C-27.5428,-28.1778 6.33902,-30.4976 25.0603,-28.5048"/>
<polygon fill="black" stroke="black" points="25.8422,-31.9175 34.9391,-26.4863 24.4408,-25.0592 25.8422,-31.9175"/>
</g>
</g>
</svg>
