<?xml version="1.0" encoding="UTF-8" standalone="no"?>
<!DOCTYPE svg PUBLIC "-//W3C//DTD SVG 1.1//EN"
 "http://www.w3.org/Graphics/SVG/1.1/DTD/svg11.dtd">
<!-- Generated by graphviz version 2.38.0 (20140413.2041)
 -->
<!-- Title: %3 Pages: 1 -->
<svg width="807pt" height="339pt"
 viewBox="0.00 0.00 806.69 338.52" xmlns="http://www.w3.org/2000/svg" xmlns:xlink="http://www.w3.org/1999/xlink">
<g id="graph0" class="graph" transform="scale(1 1) rotate(0) translate(392.663 199.119)">
<title>%3</title>
<polygon fill="white" stroke="none" points="-392.663,139.404 -392.663,-199.119 414.025,-199.119 414.025,139.404 -392.663,139.404"/>
<!-- 1 -->
<g id="node1" class="node"><title>1</title>
<ellipse fill="none" stroke="black" cx="-385.163" cy="-191.619" rx="3.5" ry="3.5"/>
</g>
<!-- 2 -->
<g id="node2" class="node"><title>2</title>
<ellipse fill="black" stroke="black" cx="-318.861" cy="-163.091" rx="3.6" ry="3.6"/>
</g>
<!-- 1&#45;&gt;2 -->
<g id="edge1" class="edge"><title>1&#45;&gt;2</title>
<path fill="none" stroke="black" d="M-381.598,-190.085C-372.334,-186.099 -347.146,-175.261 -331.649,-168.593"/>
<polygon fill="black" stroke="black" points="-330.246,-171.8 -322.443,-164.632 -333.013,-165.37 -330.246,-171.8"/>
</g>
<!-- 3 -->
<g id="node3" class="node"><title>3</title>
<ellipse fill="black" stroke="black" cx="-259.077" cy="-122.5" rx="3.6" ry="3.6"/>
</g>
<!-- 2&#45;&gt;3 -->
<g id="edge2" class="edge"><title>2&#45;&gt;3</title>
<path fill="none" stroke="black" d="M-315.647,-160.908C-307.294,-155.237 -284.582,-139.816 -270.608,-130.329"/>
<polygon fill="black" stroke="black" points="-268.615,-133.206 -262.308,-124.693 -272.547,-127.415 -268.615,-133.206"/>
</g>
<!-- 4 -->
<g id="node4" class="node"><title>4</title>
<ellipse fill="black" stroke="black" cx="-193.54" cy="-92.1271" rx="3.6" ry="3.6"/>
</g>
<!-- 3&#45;&gt;4 -->
<g id="edge3" class="edge"><title>3&#45;&gt;4</title>
<path fill="none" stroke="black" d="M-255.554,-120.867C-246.397,-116.623 -221.499,-105.084 -206.18,-97.9851"/>
<polygon fill="black" stroke="black" points="-204.682,-101.149 -197.081,-93.7681 -207.625,-94.7974 -204.682,-101.149"/>
</g>
<!-- 5 -->
<g id="node5" class="node"><title>5</title>
<ellipse fill="black" stroke="black" cx="-132.561" cy="-53.4418" rx="3.6" ry="3.6"/>
</g>
<!-- 4&#45;&gt;5 -->
<g id="edge4" class="edge"><title>4&#45;&gt;5</title>
<path fill="none" stroke="black" d="M-190.261,-90.0472C-181.741,-84.6421 -158.575,-69.9454 -144.322,-60.9031"/>
<polygon fill="black" stroke="black" points="-142.425,-63.8445 -135.856,-55.532 -146.175,-57.9336 -142.425,-63.8445"/>
</g>
<!-- 6 -->
<g id="node6" class="node"><title>6</title>
<ellipse fill="black" stroke="black" cx="-73.3197" cy="-12" rx="3.6" ry="3.6"/>
</g>
<!-- 5&#45;&gt;6 -->
<g id="edge5" class="edge"><title>5&#45;&gt;6</title>
<path fill="none" stroke="black" d="M-129.376,-51.2137C-121.099,-45.4235 -98.5928,-29.6795 -84.7457,-19.9929"/>
<polygon fill="black" stroke="black" points="-82.7084,-22.8392 -76.5205,-14.2391 -86.7209,-17.1033 -82.7084,-22.8392"/>
</g>
<!-- 7 -->
<g id="node7" class="node"><title>7</title>
<ellipse fill="black" stroke="black" cx="-10.7437" cy="24.2983" rx="3.6" ry="3.6"/>
</g>
<!-- 6&#45;&gt;7 -->
<g id="edge6" class="edge"><title>6&#45;&gt;7</title>
<path fill="none" stroke="black" d="M-69.9554,-10.0484C-61.2122,-4.97685 -37.4393,8.81304 -22.8128,17.2974"/>
<polygon fill="black" stroke="black" points="-21.0186,14.2919 -14.1247,22.3371 -24.531,20.3469 -21.0186,14.2919"/>
</g>
<!-- 8 -->
<g id="node8" class="node"><title>8</title>
<ellipse fill="black" stroke="black" cx="55.2285" cy="53.9982" rx="3.6" ry="3.6"/>
</g>
<!-- 7&#45;&gt;8 -->
<g id="edge7" class="edge"><title>7&#45;&gt;8</title>
<path fill="none" stroke="black" d="M-7.19675,25.8951C2.02089,30.0447 27.0841,41.3279 42.5043,48.2699"/>
<polygon fill="black" stroke="black" points="43.9822,45.0968 51.664,52.3935 41.1086,51.4798 43.9822,45.0968"/>
</g>
<!-- 9 -->
<g id="node9" class="node"><title>9</title>
<ellipse fill="black" stroke="black" cx="122.604" cy="80.4602" rx="3.6" ry="3.6"/>
</g>
<!-- 8&#45;&gt;9 -->
<g id="edge8" class="edge"><title>8&#45;&gt;9</title>
<path fill="none" stroke="black" d="M58.8509,55.4209C68.2646,59.1182 93.8609,69.1712 109.609,75.3565"/>
<polygon fill="black" stroke="black" points="110.935,72.117 118.964,79.0305 108.376,78.6325 110.935,72.117"/>
</g>
<!-- 10 -->
<g id="node10" class="node"><title>10</title>
<ellipse fill="black" stroke="black" cx="191.999" cy="101.013" rx="3.6" ry="3.6"/>
</g>
<!-- 9&#45;&gt;10 -->
<g id="edge9" class="edge"><title>9&#45;&gt;10</title>
<path fill="none" stroke="black" d="M126.335,81.5652C136.031,84.4368 162.395,92.2448 178.615,97.0487"/>
<polygon fill="black" stroke="black" points="179.655,93.7065 188.25,99.9022 177.668,100.418 179.655,93.7065"/>
</g>
<!-- 11 -->
<g id="node11" class="node"><title>11</title>
<ellipse fill="black" stroke="black" cx="262.651" cy="116.804" rx="3.6" ry="3.6"/>
</g>
<!-- 10&#45;&gt;11 -->
<g id="edge10" class="edge"><title>10&#45;&gt;11</title>
<path fill="none" stroke="black" d="M195.798,101.862C205.669,104.068 232.51,110.067 249.024,113.758"/>
<polygon fill="black" stroke="black" points="249.837,110.353 258.833,115.951 248.311,117.185 249.837,110.353"/>
</g>
<!-- 12 -->
<g id="node12" class="node"><title>12</title>
<ellipse fill="black" stroke="black" cx="334.358" cy="126.402" rx="3.6" ry="3.6"/>
</g>
<!-- 11&#45;&gt;12 -->
<g id="edge11" class="edge"><title>11&#45;&gt;12</title>
<path fill="none" stroke="black" d="M266.506,117.32C276.525,118.661 303.767,122.307 320.527,124.55"/>
<polygon fill="black" stroke="black" points="321.036,121.087 330.483,125.883 320.107,128.025 321.036,121.087"/>
</g>
<!-- 13 -->
<g id="node13" class="node"><title>13</title>
<ellipse fill="black" stroke="black" cx="406.425" cy="131.804" rx="3.6" ry="3.6"/>
</g>
<!-- 12&#45;&gt;13 -->
<g id="edge12" class="edge"><title>12&#45;&gt;13</title>
<path fill="none" stroke="black" d="M338.232,126.692C348.302,127.447 375.681,129.499 392.526,130.762"/>
<polygon fill="black" stroke="black" points="392.821,127.274 402.532,131.512 392.298,134.255 392.821,127.274"/>
</g>
</g>
</svg>
