<?xml version="1.0" encoding="UTF-8" standalone="no"?>
<!DOCTYPE svg PUBLIC "-//W3C//DTD SVG 1.1//EN"
 "http://www.w3.org/Graphics/SVG/1.1/DTD/svg11.dtd">
<!-- Generated by graphviz version 2.38.0 (20140413.2041)
 -->
<!-- Title: %3 Pages: 1 -->
<svg width="814pt" height="346pt"
 viewBox="0.00 0.00 813.79 345.62" xmlns="http://www.w3.org/2000/svg" xmlns:xlink="http://www.w3.org/1999/xlink">
<g id="graph0" class="graph" transform="scale(1 1) rotate(0) translate(396.163 202.619)">
<title>%3</title>
<polygon fill="white" stroke="none" points="-396.163,143.004 -396.163,-202.619 417.625,-202.619 417.625,143.004 -396.163,143.004"/>
<!-- 1 -->
<g id="node1" class="node"><title>1</title>
<ellipse fill="none" stroke="black" cx="-385.163" cy="-191.619" rx="7" ry="7"/>
</g>
<!-- 2 -->
<g id="node2" class="node"><title>2</title>
<ellipse fill="black" stroke="black" cx="-318.861" cy="-163.091" rx="7.2" ry="7.2"/>
</g>
<!-- 1&#45;&gt;2 -->
<g id="edge1" class="edge"><title>1&#45;&gt;2</title>
<path fill="none" stroke="black" d="M-378.563,-188.779C-368.54,-184.467 -349.173,-176.133 -335.21,-170.126"/>
<polygon fill="black" stroke="black" points="-333.634,-173.257 -325.831,-166.09 -336.4,-166.827 -333.634,-173.257"/>
</g>
<!-- 3 -->
<g id="node3" class="node"><title>3</title>
<ellipse fill="black" stroke="black" cx="-259.077" cy="-122.5" rx="7.2" ry="7.2"/>
</g>
<!-- 2&#45;&gt;3 -->
<g id="edge2" class="edge"><title>2&#45;&gt;3</title>
<path fill="none" stroke="black" d="M-312.463,-158.747C-303.246,-152.489 -285.977,-140.764 -273.573,-132.342"/>
<polygon fill="black" stroke="black" points="-271.557,-135.204 -265.25,-126.691 -275.489,-129.413 -271.557,-135.204"/>
</g>
<!-- 4 -->
<g id="node4" class="node"><title>4</title>
<ellipse fill="black" stroke="black" cx="-193.54" cy="-92.1271" rx="7.2" ry="7.2"/>
</g>
<!-- 3&#45;&gt;4 -->
<g id="edge3" class="edge"><title>3&#45;&gt;4</title>
<path fill="none" stroke="black" d="M-252.064,-119.249C-241.959,-114.567 -223.028,-105.793 -209.431,-99.4916"/>
<polygon fill="black" stroke="black" points="-207.908,-102.643 -200.306,-95.2631 -210.851,-96.2924 -207.908,-102.643"/>
</g>
<!-- 5 -->
<g id="node5" class="node"><title>5</title>
<ellipse fill="black" stroke="black" cx="-132.561" cy="-53.4418" rx="7.2" ry="7.2"/>
</g>
<!-- 4&#45;&gt;5 -->
<g id="edge4" class="edge"><title>4&#45;&gt;5</title>
<path fill="none" stroke="black" d="M-187.014,-87.9871C-177.612,-82.0226 -159.998,-70.8482 -147.347,-62.8219"/>
<polygon fill="black" stroke="black" points="-145.426,-65.7486 -138.857,-57.4361 -149.176,-59.8377 -145.426,-65.7486"/>
</g>
<!-- 6 -->
<g id="node6" class="node"><title>6</title>
<ellipse fill="black" stroke="black" cx="-73.3197" cy="-12" rx="7.2" ry="7.2"/>
</g>
<!-- 5&#45;&gt;6 -->
<g id="edge5" class="edge"><title>5&#45;&gt;6</title>
<path fill="none" stroke="black" d="M-126.221,-49.0068C-117.088,-42.6174 -99.9754,-30.6467 -87.6841,-22.0484"/>
<polygon fill="black" stroke="black" points="-85.6243,-24.879 -79.4365,-16.2789 -89.6368,-19.1431 -85.6243,-24.879"/>
</g>
<!-- 7 -->
<g id="node7" class="node"><title>7</title>
<ellipse fill="black" stroke="black" cx="-10.7437" cy="24.2983" rx="7.2" ry="7.2"/>
</g>
<!-- 6&#45;&gt;7 -->
<g id="edge6" class="edge"><title>6&#45;&gt;7</title>
<path fill="none" stroke="black" d="M-67.0909,-8.38688C-57.6313,-2.89967 -39.352,7.70352 -26.1743,15.3475"/>
<polygon fill="black" stroke="black" points="-24.2161,12.4371 -17.3222,20.4823 -27.7284,18.4922 -24.2161,12.4371"/>
</g>
<!-- 8 -->
<g id="node8" class="node"><title>8</title>
<ellipse fill="black" stroke="black" cx="55.2285" cy="53.9982" rx="7.2" ry="7.2"/>
</g>
<!-- 7&#45;&gt;8 -->
<g id="edge7" class="edge"><title>7&#45;&gt;8</title>
<path fill="none" stroke="black" d="M-4.17685,27.2546C5.79618,31.7443 25.0675,40.42 38.9604,46.6745"/>
<polygon fill="black" stroke="black" points="40.6112,43.5793 48.293,50.8759 37.7376,49.9623 40.6112,43.5793"/>
</g>
<!-- 9 -->
<g id="node9" class="node"><title>9</title>
<ellipse fill="black" stroke="black" cx="122.604" cy="80.4602" rx="7.2" ry="7.2"/>
</g>
<!-- 8&#45;&gt;9 -->
<g id="edge8" class="edge"><title>8&#45;&gt;9</title>
<path fill="none" stroke="black" d="M61.935,56.6322C72.1202,60.6325 91.8015,68.3624 105.99,73.935"/>
<polygon fill="black" stroke="black" points="107.493,70.7648 115.521,77.6783 104.934,77.2803 107.493,70.7648"/>
</g>
<!-- 10 -->
<g id="node10" class="node"><title>10</title>
<ellipse fill="black" stroke="black" cx="191.999" cy="101.013" rx="7.2" ry="7.2"/>
</g>
<!-- 9&#45;&gt;10 -->
<g id="edge9" class="edge"><title>9&#45;&gt;10</title>
<path fill="none" stroke="black" d="M129.512,82.506C140.002,85.6129 160.273,91.6165 174.887,95.9446"/>
<polygon fill="black" stroke="black" points="176.11,92.6563 184.704,98.852 174.122,99.3681 176.11,92.6563"/>
</g>
<!-- 11 -->
<g id="node11" class="node"><title>11</title>
<ellipse fill="black" stroke="black" cx="262.651" cy="116.804" rx="7.2" ry="7.2"/>
</g>
<!-- 10&#45;&gt;11 -->
<g id="edge10" class="edge"><title>10&#45;&gt;11</title>
<path fill="none" stroke="black" d="M199.032,102.584C209.712,104.972 230.35,109.584 245.229,112.91"/>
<polygon fill="black" stroke="black" points="246.227,109.547 255.223,115.144 244.7,116.378 246.227,109.547"/>
</g>
<!-- 12 -->
<g id="node12" class="node"><title>12</title>
<ellipse fill="black" stroke="black" cx="334.358" cy="126.402" rx="7.2" ry="7.2"/>
</g>
<!-- 11&#45;&gt;12 -->
<g id="edge11" class="edge"><title>11&#45;&gt;12</title>
<path fill="none" stroke="black" d="M269.788,117.759C280.628,119.21 301.575,122.014 316.675,124.035"/>
<polygon fill="black" stroke="black" points="317.372,120.597 326.819,125.393 316.443,127.535 317.372,120.597"/>
</g>
<!-- 13 -->
<g id="node13" class="node"><title>13</title>
<ellipse fill="black" stroke="black" cx="406.425" cy="131.804" rx="7.2" ry="7.2"/>
</g>
<!-- 12&#45;&gt;13 -->
<g id="edge12" class="edge"><title>12&#45;&gt;13</title>
<path fill="none" stroke="black" d="M341.799,126.959C352.804,127.784 373.738,129.354 388.803,130.483"/>
<polygon fill="black" stroke="black" points="389.206,127.003 398.917,131.241 388.683,133.984 389.206,127.003"/>
</g>
</g>
</svg>
