<?xml version="1.0" encoding="UTF-8" standalone="no"?>
<!DOCTYPE svg PUBLIC "-//W3C//DTD SVG 1.1//EN"
 "http://www.w3.org/Graphics/SVG/1.1/DTD/svg11.dtd">
<!-- Generated by graphviz version 2.38.0 (20140413.2041)
 -->
<!-- Title: %3 Pages: 1 -->
<svg width="747pt" height="521pt"
 viewBox="0.00 0.00 746.98 521.46" xmlns="http://www.w3.org/2000/svg" xmlns:xlink="http://www.w3.org/1999/xlink">
<g id="graph0" class="graph" transform="scale(1 1) rotate(0) translate(416.609 277.717)">
<title>%3</title>
<polygon fill="white" stroke="none" points="-416.609,243.745 -416.609,-277.717 330.376,-277.717 330.376,243.745 -416.609,243.745"/>
<!-- 1 -->
<g id="node1" class="node"><title>1</title>
<ellipse fill="none" stroke="black" cx="-335.409" cy="172.255" rx="3.5" ry="3.5"/>
</g>
<!-- 5 -->
<g id="node2" class="node"><title>5</title>
<ellipse fill="black" stroke="black" cx="-372.359" cy="236.145" rx="3.6" ry="3.6"/>
</g>
<!-- 1&#45;&gt;5 -->
<g id="edge1" class="edge"><title>1&#45;&gt;5</title>
<path fill="none" stroke="black" d="M-334.362,175.698C-335.059,185.711 -350.172,213.58 -361.477,227.795"/>
<polygon fill="black" stroke="black" points="-359.288,230.565 -368.775,235.283 -364.301,225.679 -359.288,230.565"/>
</g>
<!-- 2 -->
<g id="node3" class="node"><title>2</title>
<ellipse fill="black" stroke="black" cx="-273.667" cy="131.814" rx="3.6" ry="3.6"/>
</g>
<!-- 1&#45;&gt;2 -->
<g id="edge2" class="edge"><title>1&#45;&gt;2</title>
<path fill="none" stroke="black" d="M-332.431,170.304C-324.057,164.82 -299.965,149.039 -285.359,139.472"/>
<polygon fill="black" stroke="black" points="-287.043,136.391 -276.76,133.84 -283.208,142.247 -287.043,136.391"/>
</g>
<!-- 5&#45;&gt;1 -->
<g id="edge7" class="edge"><title>5&#45;&gt;1</title>
<path fill="none" stroke="black" d="M-373.373,232.32C-372.329,221.958 -357.344,194.438 -346.166,180.448"/>
<polygon fill="black" stroke="black" points="-348.454,177.781 -338.954,173.09 -343.455,182.682 -348.454,177.781"/>
</g>
<!-- 6 -->
<g id="node7" class="node"><title>6</title>
<ellipse fill="black" stroke="black" cx="-409.009" cy="174.989" rx="3.6" ry="3.6"/>
</g>
<!-- 5&#45;&gt;6 -->
<g id="edge8" class="edge"><title>5&#45;&gt;6</title>
<path fill="none" stroke="black" d="M-374.329,232.857C-379.4,224.395 -393.104,201.529 -401.689,187.203"/>
<polygon fill="black" stroke="black" points="-404.89,188.67 -407.029,178.294 -398.886,185.072 -404.89,188.67"/>
</g>
<!-- 3 -->
<g id="node4" class="node"><title>3</title>
<ellipse fill="black" stroke="black" cx="-211.775" cy="93.4079" rx="3.6" ry="3.6"/>
</g>
<!-- 2&#45;&gt;3 -->
<g id="edge3" class="edge"><title>2&#45;&gt;3</title>
<path fill="none" stroke="black" d="M-272.789,127.981C-267.087,119.403 -241.243,102.417 -224.986,95.4734"/>
<polygon fill="black" stroke="black" points="-225.855,92.0786 -215.267,92.4554 -223.779,98.7637 -225.855,92.0786"/>
</g>
<!-- 3&#45;&gt;2 -->
<g id="edge4" class="edge"><title>3&#45;&gt;2</title>
<path fill="none" stroke="black" d="M-212.653,97.24C-218.354,105.819 -244.198,122.804 -260.456,129.748"/>
<polygon fill="black" stroke="black" points="-259.586,133.143 -270.174,132.766 -261.662,126.458 -259.586,133.143"/>
</g>
<!-- 4 -->
<g id="node5" class="node"><title>4</title>
<ellipse fill="black" stroke="black" cx="-145.254" cy="64.1578" rx="3.6" ry="3.6"/>
</g>
<!-- 3&#45;&gt;4 -->
<g id="edge5" class="edge"><title>3&#45;&gt;4</title>
<path fill="none" stroke="black" d="M-208.199,91.8353C-198.904,87.7484 -173.633,76.6362 -158.084,69.7993"/>
<polygon fill="black" stroke="black" points="-159.411,66.5595 -148.848,65.7382 -156.594,72.9674 -159.411,66.5595"/>
</g>
<!-- 7 -->
<g id="node6" class="node"><title>7</title>
<ellipse fill="black" stroke="black" cx="-75.9039" cy="42.4261" rx="3.6" ry="3.6"/>
</g>
<!-- 4&#45;&gt;7 -->
<g id="edge6" class="edge"><title>4&#45;&gt;7</title>
<path fill="none" stroke="black" d="M-141.526,62.9894C-131.836,59.953 -105.489,51.6971 -89.2795,46.6176"/>
<polygon fill="black" stroke="black" points="-90.2399,43.2507 -79.6509,43.6003 -88.1467,49.9305 -90.2399,43.2507"/>
</g>
<!-- 8 -->
<g id="node8" class="node"><title>8</title>
<ellipse fill="black" stroke="black" cx="-7.72559" cy="17.2697" rx="3.6" ry="3.6"/>
</g>
<!-- 7&#45;&gt;8 -->
<g id="edge10" class="edge"><title>7&#45;&gt;8</title>
<path fill="none" stroke="black" d="M-72.2383,41.0736C-62.7124,37.5587 -36.8112,28.0017 -20.8752,22.1216"/>
<polygon fill="black" stroke="black" points="-22.0026,18.807 -11.4093,18.6289 -19.5794,25.3742 -22.0026,18.807"/>
</g>
<!-- 6&#45;&gt;1 -->
<g id="edge9" class="edge"><title>6&#45;&gt;1</title>
<path fill="none" stroke="black" d="M-405.052,174.842C-394.672,174.457 -366.283,173.402 -349.125,172.765"/>
<polygon fill="black" stroke="black" points="-349.157,169.263 -339.034,172.39 -348.897,176.259 -349.157,169.263"/>
</g>
<!-- 9 -->
<g id="node9" class="node"><title>9</title>
<ellipse fill="black" stroke="black" cx="58.5718" cy="-12.962" rx="3.6" ry="3.6"/>
</g>
<!-- 8&#45;&gt;9 -->
<g id="edge11" class="edge"><title>8&#45;&gt;9</title>
<path fill="none" stroke="black" d="M-4.16115,15.6443C5.10192,11.4203 30.2886,-0.0648525 45.7849,-7.13117"/>
<polygon fill="black" stroke="black" points="44.4389,-10.3641 54.9897,-11.3286 47.3432,-3.99498 44.4389,-10.3641"/>
</g>
<!-- 10 -->
<g id="node10" class="node"><title>10</title>
<ellipse fill="black" stroke="black" cx="122.331" cy="-49.2228" rx="3.6" ry="3.6"/>
</g>
<!-- 9&#45;&gt;10 -->
<g id="edge12" class="edge"><title>9&#45;&gt;10</title>
<path fill="none" stroke="black" d="M61.9997,-14.9115C70.9915,-20.0252 95.5848,-34.0118 110.449,-42.4653"/>
<polygon fill="black" stroke="black" points="108.768,-45.5357 119.191,-47.437 112.229,-39.4509 108.768,-45.5357"/>
</g>
<!-- 11 -->
<g id="node11" class="node"><title>11</title>
<ellipse fill="black" stroke="black" cx="188.391" cy="-83.8143" rx="3.6" ry="3.6"/>
</g>
<!-- 10&#45;&gt;11 -->
<g id="edge13" class="edge"><title>10&#45;&gt;11</title>
<path fill="none" stroke="black" d="M125.883,-51.0826C135.199,-55.9609 160.679,-69.3036 176.08,-77.368"/>
<polygon fill="black" stroke="black" points="174.655,-80.5724 185.137,-82.1107 177.902,-74.3712 174.655,-80.5724"/>
</g>
<!-- 12 -->
<g id="node12" class="node"><title>12</title>
<ellipse fill="black" stroke="black" cx="260.987" cy="-114.076" rx="3.6" ry="3.6"/>
</g>
<!-- 11&#45;&gt;12 -->
<g id="edge14" class="edge"><title>11&#45;&gt;12</title>
<path fill="none" stroke="black" d="M191.892,-85.2739C201.833,-89.418 230.617,-101.417 247.736,-108.553"/>
<polygon fill="black" stroke="black" points="246.773,-111.943 257.349,-112.56 249.466,-105.482 246.773,-111.943"/>
</g>
<!-- 13 -->
<g id="node13" class="node"><title>13</title>
<ellipse fill="black" stroke="black" cx="319.861" cy="-53.9011" rx="3.6" ry="3.6"/>
</g>
<!-- 12&#45;&gt;13 -->
<g id="edge15" class="edge"><title>12&#45;&gt;13</title>
<path fill="none" stroke="black" d="M264.826,-113.914C275.471,-109.521 302.594,-82.9274 314.545,-66.4806"/>
<polygon fill="black" stroke="black" points="317.587,-68.2137 319.743,-57.8405 311.589,-64.6051 317.587,-68.2137"/>
</g>
<!-- 14 -->
<g id="node14" class="node"><title>14</title>
<ellipse fill="black" stroke="black" cx="322.776" cy="-153.175" rx="3.6" ry="3.6"/>
</g>
<!-- 12&#45;&gt;14 -->
<g id="edge16" class="edge"><title>12&#45;&gt;14</title>
<path fill="none" stroke="black" d="M261.84,-117.922C267.496,-126.57 293.291,-143.845 309.543,-150.968"/>
<polygon fill="black" stroke="black" points="308.676,-154.366 319.267,-154.092 310.817,-147.701 308.676,-154.366"/>
</g>
<!-- 13&#45;&gt;12 -->
<g id="edge17" class="edge"><title>13&#45;&gt;12</title>
<path fill="none" stroke="black" d="M316.022,-54.0639C305.376,-58.4564 278.253,-85.05 266.302,-101.497"/>
<polygon fill="black" stroke="black" points="263.26,-99.7637 261.104,-110.137 269.258,-103.372 263.26,-99.7637"/>
</g>
<!-- 14&#45;&gt;12 -->
<g id="edge19" class="edge"><title>14&#45;&gt;12</title>
<path fill="none" stroke="black" d="M321.923,-149.33C316.266,-140.682 290.472,-123.406 274.219,-116.283"/>
<polygon fill="black" stroke="black" points="275.087,-112.886 264.495,-113.16 272.946,-119.55 275.087,-112.886"/>
</g>
<!-- 15 -->
<g id="node15" class="node"><title>15</title>
<ellipse fill="black" stroke="black" cx="270.385" cy="-195.195" rx="3.6" ry="3.6"/>
</g>
<!-- 14&#45;&gt;15 -->
<g id="edge18" class="edge"><title>14&#45;&gt;15</title>
<path fill="none" stroke="black" d="M319.959,-155.434C312.781,-161.191 293.504,-176.653 281.212,-186.512"/>
<polygon fill="black" stroke="black" points="278.827,-183.938 273.216,-192.925 283.207,-189.398 278.827,-183.938"/>
</g>
<!-- 15&#45;&gt;12 -->
<g id="edge21" class="edge"><title>15&#45;&gt;12</title>
<path fill="none" stroke="black" d="M269.932,-191.282C268.621,-179.963 264.776,-146.784 262.578,-127.809"/>
<polygon fill="black" stroke="black" points="266.042,-127.293 261.414,-117.763 259.088,-128.099 266.042,-127.293"/>
</g>
<!-- 16 -->
<g id="node16" class="node"><title>16</title>
<ellipse fill="black" stroke="black" cx="287.8" cy="-270.117" rx="3.6" ry="3.6"/>
</g>
<!-- 15&#45;&gt;16 -->
<g id="edge20" class="edge"><title>15&#45;&gt;16</title>
<path fill="none" stroke="black" d="M271.225,-198.809C273.61,-209.068 280.515,-238.774 284.622,-256.442"/>
<polygon fill="black" stroke="black" points="281.254,-257.416 286.928,-266.363 288.073,-255.831 281.254,-257.416"/>
</g>
</g>
</svg>
