<?xml version="1.0" encoding="UTF-8" standalone="no"?>
<!DOCTYPE svg PUBLIC "-//W3C//DTD SVG 1.1//EN"
 "http://www.w3.org/Graphics/SVG/1.1/DTD/svg11.dtd">
<!-- Generated by graphviz version 2.38.0 (20140413.2041)
 -->
<!-- Title: %3 Pages: 1 -->
<svg width="754pt" height="529pt"
 viewBox="0.00 0.00 754.18 528.66" xmlns="http://www.w3.org/2000/svg" xmlns:xlink="http://www.w3.org/1999/xlink">
<g id="graph0" class="graph" transform="scale(1 1) rotate(0) translate(420.209 281.317)">
<title>%3</title>
<polygon fill="white" stroke="none" points="-420.209,247.345 -420.209,-281.317 333.976,-281.317 333.976,247.345 -420.209,247.345"/>
<!-- 1 -->
<g id="node1" class="node"><title>1</title>
<ellipse fill="none" stroke="black" cx="-335.409" cy="172.255" rx="7" ry="7"/>
</g>
<!-- 5 -->
<g id="node2" class="node"><title>5</title>
<ellipse fill="black" stroke="black" cx="-372.359" cy="236.145" rx="7.2" ry="7.2"/>
</g>
<!-- 1&#45;&gt;5 -->
<g id="edge1" class="edge"><title>1&#45;&gt;5</title>
<path fill="none" stroke="black" d="M-335.046,179.442C-337.977,190.548 -349.431,211.568 -359.13,224.724"/>
<polygon fill="black" stroke="black" points="-356.647,227.213 -365.734,232.661 -362.028,222.735 -356.647,227.213"/>
</g>
<!-- 2 -->
<g id="node3" class="node"><title>2</title>
<ellipse fill="black" stroke="black" cx="-273.667" cy="131.814" rx="7.2" ry="7.2"/>
</g>
<!-- 1&#45;&gt;2 -->
<g id="edge2" class="edge"><title>1&#45;&gt;2</title>
<path fill="none" stroke="black" d="M-329.263,168.23C-319.832,162.052 -301.517,150.056 -288.487,141.521"/>
<polygon fill="black" stroke="black" points="-290.071,138.374 -279.787,135.823 -286.235,144.23 -290.071,138.374"/>
</g>
<!-- 5&#45;&gt;1 -->
<g id="edge7" class="edge"><title>5&#45;&gt;1</title>
<path fill="none" stroke="black" d="M-372.654,228.705C-369.58,217.391 -357.97,196.196 -348.268,183.176"/>
<polygon fill="black" stroke="black" points="-350.82,180.773 -341.69,175.398 -345.475,185.293 -350.82,180.773"/>
</g>
<!-- 6 -->
<g id="node7" class="node"><title>6</title>
<ellipse fill="black" stroke="black" cx="-409.009" cy="174.989" rx="7.2" ry="7.2"/>
</g>
<!-- 5&#45;&gt;6 -->
<g id="edge8" class="edge"><title>5&#45;&gt;6</title>
<path fill="none" stroke="black" d="M-376.281,229.6C-381.876,220.264 -392.311,202.852 -399.898,190.192"/>
<polygon fill="black" stroke="black" points="-403.086,191.681 -405.225,181.304 -397.082,188.082 -403.086,191.681"/>
</g>
<!-- 3 -->
<g id="node4" class="node"><title>3</title>
<ellipse fill="black" stroke="black" cx="-211.775" cy="93.4079" rx="7.2" ry="7.2"/>
</g>
<!-- 2&#45;&gt;3 -->
<g id="edge3" class="edge"><title>2&#45;&gt;3</title>
<path fill="none" stroke="black" d="M-270.488,125.157C-262.647,116.792 -242.998,103.918 -228.52,97.0681"/>
<polygon fill="black" stroke="black" points="-229.719,93.7775 -219.135,93.296 -227.108,100.273 -229.719,93.7775"/>
</g>
<!-- 3&#45;&gt;2 -->
<g id="edge4" class="edge"><title>3&#45;&gt;2</title>
<path fill="none" stroke="black" d="M-214.953,100.064C-222.795,108.429 -242.443,121.304 -256.921,128.153"/>
<polygon fill="black" stroke="black" points="-255.723,131.444 -266.307,131.925 -258.333,124.949 -255.723,131.444"/>
</g>
<!-- 4 -->
<g id="node5" class="node"><title>4</title>
<ellipse fill="black" stroke="black" cx="-145.254" cy="64.1578" rx="7.2" ry="7.2"/>
</g>
<!-- 3&#45;&gt;4 -->
<g id="edge5" class="edge"><title>3&#45;&gt;4</title>
<path fill="none" stroke="black" d="M-205.153,90.4963C-194.993,86.0285 -175.26,77.3518 -161.221,71.1788"/>
<polygon fill="black" stroke="black" points="-162.412,67.8789 -151.849,67.0576 -159.594,74.2867 -162.412,67.8789"/>
</g>
<!-- 7 -->
<g id="node6" class="node"><title>7</title>
<ellipse fill="black" stroke="black" cx="-75.9039" cy="42.4261" rx="7.2" ry="7.2"/>
</g>
<!-- 4&#45;&gt;7 -->
<g id="edge6" class="edge"><title>4&#45;&gt;7</title>
<path fill="none" stroke="black" d="M-138.351,61.9946C-127.758,58.6752 -107.186,52.2288 -92.5504,47.6425"/>
<polygon fill="black" stroke="black" points="-93.3681,44.231 -82.7791,44.5806 -91.2749,50.9107 -93.3681,44.231"/>
</g>
<!-- 8 -->
<g id="node8" class="node"><title>8</title>
<ellipse fill="black" stroke="black" cx="-7.72559" cy="17.2697" rx="7.2" ry="7.2"/>
</g>
<!-- 7&#45;&gt;8 -->
<g id="edge10" class="edge"><title>7&#45;&gt;8</title>
<path fill="none" stroke="black" d="M-69.1174,39.9221C-58.7035,36.0795 -38.4792,28.6172 -24.0908,23.3081"/>
<polygon fill="black" stroke="black" points="-25.0779,19.9417 -14.4846,19.7636 -22.6547,26.5089 -25.0779,19.9417"/>
</g>
<!-- 6&#45;&gt;1 -->
<g id="edge9" class="edge"><title>6&#45;&gt;1</title>
<path fill="none" stroke="black" d="M-401.683,174.717C-390.441,174.3 -368.608,173.488 -353.076,172.911"/>
<polygon fill="black" stroke="black" points="-352.829,169.4 -342.705,172.526 -352.569,176.395 -352.829,169.4"/>
</g>
<!-- 9 -->
<g id="node9" class="node"><title>9</title>
<ellipse fill="black" stroke="black" cx="58.5718" cy="-12.962" rx="7.2" ry="7.2"/>
</g>
<!-- 8&#45;&gt;9 -->
<g id="edge11" class="edge"><title>8&#45;&gt;9</title>
<path fill="none" stroke="black" d="M-1.12636,14.2604C9.00021,9.64267 28.6666,0.67479 42.6581,-5.70533"/>
<polygon fill="black" stroke="black" points="41.4484,-9.00039 51.9992,-9.96491 44.3527,-2.63132 41.4484,-9.00039"/>
</g>
<!-- 10 -->
<g id="node10" class="node"><title>10</title>
<ellipse fill="black" stroke="black" cx="122.331" cy="-49.2228" rx="7.2" ry="7.2"/>
</g>
<!-- 9&#45;&gt;10 -->
<g id="edge12" class="edge"><title>9&#45;&gt;10</title>
<path fill="none" stroke="black" d="M64.9184,-16.5714C74.6573,-22.11 93.5708,-32.8664 107.027,-40.5189"/>
<polygon fill="black" stroke="black" points="105.587,-43.7268 116.01,-45.628 109.048,-37.642 105.587,-43.7268"/>
</g>
<!-- 11 -->
<g id="node11" class="node"><title>11</title>
<ellipse fill="black" stroke="black" cx="188.391" cy="-83.8143" rx="7.2" ry="7.2"/>
</g>
<!-- 10&#45;&gt;11 -->
<g id="edge13" class="edge"><title>10&#45;&gt;11</title>
<path fill="none" stroke="black" d="M128.907,-52.666C139.096,-58.0015 158.978,-68.4126 172.942,-75.725"/>
<polygon fill="black" stroke="black" points="171.359,-78.8467 181.842,-80.385 174.606,-72.6454 171.359,-78.8467"/>
</g>
<!-- 12 -->
<g id="node12" class="node"><title>12</title>
<ellipse fill="black" stroke="black" cx="260.987" cy="-114.076" rx="7.2" ry="7.2"/>
</g>
<!-- 11&#45;&gt;12 -->
<g id="edge14" class="edge"><title>11&#45;&gt;12</title>
<path fill="none" stroke="black" d="M195.09,-86.6071C206.27,-91.2674 229.041,-100.759 244.655,-107.268"/>
<polygon fill="black" stroke="black" points="243.515,-110.585 254.092,-111.202 246.208,-104.124 243.515,-110.585"/>
</g>
<!-- 13 -->
<g id="node13" class="node"><title>13</title>
<ellipse fill="black" stroke="black" cx="319.861" cy="-53.9011" rx="7.2" ry="7.2"/>
</g>
<!-- 12&#45;&gt;13 -->
<g id="edge15" class="edge"><title>12&#45;&gt;13</title>
<path fill="none" stroke="black" d="M268.353,-112.042C279.819,-104.938 300.903,-84.1604 312.386,-69.3518"/>
<polygon fill="black" stroke="black" points="315.301,-71.2902 318.124,-61.0783 309.549,-67.3011 315.301,-71.2902"/>
</g>
<!-- 14 -->
<g id="node14" class="node"><title>14</title>
<ellipse fill="black" stroke="black" cx="322.776" cy="-153.175" rx="7.2" ry="7.2"/>
</g>
<!-- 12&#45;&gt;14 -->
<g id="edge16" class="edge"><title>12&#45;&gt;14</title>
<path fill="none" stroke="black" d="M264.127,-120.773C271.931,-129.23 291.541,-142.325 306.01,-149.335"/>
<polygon fill="black" stroke="black" points="304.816,-152.628 315.395,-153.21 307.488,-146.158 304.816,-152.628"/>
</g>
<!-- 13&#45;&gt;12 -->
<g id="edge17" class="edge"><title>13&#45;&gt;12</title>
<path fill="none" stroke="black" d="M312.494,-55.9354C301.028,-63.0395 279.944,-83.817 268.461,-98.6256"/>
<polygon fill="black" stroke="black" points="265.546,-96.6872 262.724,-106.899 271.298,-100.676 265.546,-96.6872"/>
</g>
<!-- 14&#45;&gt;12 -->
<g id="edge19" class="edge"><title>14&#45;&gt;12</title>
<path fill="none" stroke="black" d="M319.636,-146.479C311.832,-138.022 292.221,-124.927 277.752,-117.917"/>
<polygon fill="black" stroke="black" points="278.946,-114.623 268.367,-114.042 276.275,-121.094 278.946,-114.623"/>
</g>
<!-- 15 -->
<g id="node15" class="node"><title>15</title>
<ellipse fill="black" stroke="black" cx="270.385" cy="-195.195" rx="7.2" ry="7.2"/>
</g>
<!-- 14&#45;&gt;15 -->
<g id="edge18" class="edge"><title>14&#45;&gt;15</title>
<path fill="none" stroke="black" d="M316.766,-157.995C308.787,-164.395 294.467,-175.88 283.843,-184.401"/>
<polygon fill="black" stroke="black" points="281.619,-181.699 276.008,-190.686 285.998,-187.159 281.619,-181.699"/>
</g>
<!-- 15&#45;&gt;12 -->
<g id="edge21" class="edge"><title>15&#45;&gt;12</title>
<path fill="none" stroke="black" d="M269.551,-187.996C268.092,-175.4 265.037,-149.032 262.998,-131.438"/>
<polygon fill="black" stroke="black" points="266.46,-130.906 261.832,-121.376 259.507,-131.712 266.46,-130.906"/>
</g>
<!-- 16 -->
<g id="node16" class="node"><title>16</title>
<ellipse fill="black" stroke="black" cx="287.8" cy="-270.117" rx="7.2" ry="7.2"/>
</g>
<!-- 15&#45;&gt;16 -->
<g id="edge20" class="edge"><title>15&#45;&gt;16</title>
<path fill="none" stroke="black" d="M272.055,-202.379C274.741,-213.932 280.093,-236.961 283.808,-252.94"/>
<polygon fill="black" stroke="black" points="280.488,-254.117 286.161,-263.065 287.306,-252.532 280.488,-254.117"/>
</g>
</g>
</svg>
