<?xml version="1.0" encoding="UTF-8" standalone="no"?>
<!DOCTYPE svg PUBLIC "-//W3C//DTD SVG 1.1//EN"
 "http://www.w3.org/Graphics/SVG/1.1/DTD/svg11.dtd">
<!-- Generated by graphviz version 2.38.0 (20140413.2041)
 -->
<!-- Title: %3 Pages: 1 -->
<svg width="368pt" height="326pt"
 viewBox="0.00 0.00 367.99 326.31" xmlns="http://www.w3.org/2000/svg" xmlns:xlink="http://www.w3.org/1999/xlink">
<g id="graph0" class="graph" transform="scale(1 1) rotate(0) translate(184.393 171.097)">
<title>%3</title>
<polygon fill="white" stroke="none" points="-184.393,155.21 -184.393,-171.097 183.601,-171.097 183.601,155.21 -184.393,155.21"/>
<!-- 1 -->
<g id="node1" class="node"><title>1</title>
<ellipse fill="none" stroke="black" cx="-48.0526" cy="-138.379" rx="7" ry="7"/>
</g>
<!-- 2 -->
<g id="node2" class="node"><title>2</title>
<ellipse fill="black" stroke="black" cx="-120.139" cy="-90.7284" rx="7.2" ry="7.2"/>
</g>
<!-- 1&#45;&gt;2 -->
<g id="edge1" class="edge"><title>1&#45;&gt;2</title>
<path fill="none" stroke="black" d="M-54.1987,-134.317C-65.4771,-126.861 -89.7629,-110.808 -105.504,-100.402"/>
<polygon fill="black" stroke="black" points="-103.737,-97.3754 -114.009,-94.7808 -107.597,-103.215 -103.737,-97.3754"/>
</g>
<!-- 3 -->
<g id="node3" class="node"><title>3</title>
<ellipse fill="black" stroke="black" cx="-125.383" cy="-15.467" rx="7.2" ry="7.2"/>
</g>
<!-- 2&#45;&gt;3 -->
<g id="edge2" class="edge"><title>2&#45;&gt;3</title>
<path fill="none" stroke="black" d="M-120.642,-83.512C-121.442,-72.025 -123.03,-49.2444 -124.146,-33.2156"/>
<polygon fill="black" stroke="black" points="-120.672,-32.7279 -124.858,-22.9954 -127.655,-33.2145 -120.672,-32.7279"/>
</g>
<!-- 4 -->
<g id="node4" class="node"><title>4</title>
<ellipse fill="black" stroke="black" cx="-173.193" cy="-19.5571" rx="7.2" ry="7.2"/>
</g>
<!-- 2&#45;&gt;4 -->
<g id="edge3" class="edge"><title>2&#45;&gt;4</title>
<path fill="none" stroke="black" d="M-124.663,-84.6604C-132.963,-73.5252 -150.837,-49.5478 -162.422,-34.0063"/>
<polygon fill="black" stroke="black" points="-159.898,-31.5356 -168.681,-25.6098 -165.51,-35.7192 -159.898,-31.5356"/>
</g>
<!-- 5 -->
<g id="node5" class="node"><title>5</title>
<ellipse fill="black" stroke="black" cx="-142.456" cy="61.5889" rx="7.2" ry="7.2"/>
</g>
<!-- 3&#45;&gt;5 -->
<g id="edge4" class="edge"><title>3&#45;&gt;5</title>
<path fill="none" stroke="black" d="M-126.958,-8.35588C-129.588,3.51064 -134.943,27.6802 -138.615,44.254"/>
<polygon fill="black" stroke="black" points="-135.254,45.2641 -140.834,54.2702 -142.088,43.7498 -135.254,45.2641"/>
</g>
<!-- 4&#45;&gt;5 -->
<g id="edge5" class="edge"><title>4&#45;&gt;5</title>
<path fill="none" stroke="black" d="M-170.572,-12.6387C-165.763,0.0571133 -155.408,27.3949 -148.696,45.1147"/>
<polygon fill="black" stroke="black" points="-145.339,44.0965 -145.07,54.6879 -151.885,46.5762 -145.339,44.0965"/>
</g>
<!-- 6 -->
<g id="node6" class="node"><title>6</title>
<ellipse fill="black" stroke="black" cx="-76.3847" cy="100.953" rx="7.2" ry="7.2"/>
</g>
<!-- 5&#45;&gt;6 -->
<g id="edge6" class="edge"><title>5&#45;&gt;6</title>
<path fill="none" stroke="black" d="M-135.879,65.5072C-125.688,71.5788 -105.802,83.4262 -91.8356,91.7475"/>
<polygon fill="black" stroke="black" points="-89.7342,88.9253 -82.9348,97.0505 -93.3171,94.9389 -89.7342,88.9253"/>
</g>
<!-- 7 -->
<g id="node7" class="node"><title>7</title>
<ellipse fill="black" stroke="black" cx="-100.02" cy="139.475" rx="7.2" ry="7.2"/>
</g>
<!-- 5&#45;&gt;7 -->
<g id="edge7" class="edge"><title>5&#45;&gt;7</title>
<path fill="none" stroke="black" d="M-138.983,67.9626C-132.426,79.9972 -118.045,106.393 -108.708,123.53"/>
<polygon fill="black" stroke="black" points="-105.372,122.336 -103.661,132.792 -111.519,125.685 -105.372,122.336"/>
</g>
<!-- 8 -->
<g id="node8" class="node"><title>8</title>
<ellipse fill="black" stroke="black" cx="-12.0046" cy="144.01" rx="7.2" ry="7.2"/>
</g>
<!-- 6&#45;&gt;8 -->
<g id="edge8" class="edge"><title>6&#45;&gt;8</title>
<path fill="none" stroke="black" d="M-69.9763,105.239C-59.9438,111.948 -40.2691,125.107 -26.641,134.221"/>
<polygon fill="black" stroke="black" points="-24.3773,131.524 -18.0107,139.993 -28.2688,137.343 -24.3773,131.524"/>
</g>
<!-- 7&#45;&gt;8 -->
<g id="edge9" class="edge"><title>7&#45;&gt;8</title>
<path fill="none" stroke="black" d="M-92.8177,139.846C-79.1537,140.55 -49.1075,142.098 -29.7502,143.095"/>
<polygon fill="black" stroke="black" points="-29.3629,139.611 -19.5563,143.621 -29.7232,146.601 -29.3629,139.611"/>
</g>
<!-- 9 -->
<g id="node9" class="node"><title>9</title>
<ellipse fill="black" stroke="black" cx="51.7371" cy="98.1993" rx="7.2" ry="7.2"/>
</g>
<!-- 8&#45;&gt;9 -->
<g id="edge10" class="edge"><title>8&#45;&gt;9</title>
<path fill="none" stroke="black" d="M-6.12216,139.782C3.69398,132.727 23.6873,118.358 37.3975,108.505"/>
<polygon fill="black" stroke="black" points="35.5199,105.544 45.6829,102.55 39.6052,111.229 35.5199,105.544"/>
</g>
<!-- 10 -->
<g id="node10" class="node"><title>10</title>
<ellipse fill="black" stroke="black" cx="75.0505" cy="141.154" rx="7.2" ry="7.2"/>
</g>
<!-- 8&#45;&gt;10 -->
<g id="edge11" class="edge"><title>8&#45;&gt;10</title>
<path fill="none" stroke="black" d="M-4.5823,143.766C9.10224,143.318 38.6436,142.349 57.645,141.725"/>
<polygon fill="black" stroke="black" points="57.5376,138.227 67.647,141.397 57.7672,145.223 57.5376,138.227"/>
</g>
<!-- 11 -->
<g id="node11" class="node"><title>11</title>
<ellipse fill="black" stroke="black" cx="121.01" cy="66.2646" rx="7.2" ry="7.2"/>
</g>
<!-- 9&#45;&gt;11 -->
<g id="edge12" class="edge"><title>9&#45;&gt;11</title>
<path fill="none" stroke="black" d="M58.3792,95.1372C68.9523,90.2631 89.9201,80.5969 104.674,73.7956"/>
<polygon fill="black" stroke="black" points="103.534,70.4671 114.081,69.459 106.464,76.8241 103.534,70.4671"/>
</g>
<!-- 10&#45;&gt;11 -->
<g id="edge13" class="edge"><title>10&#45;&gt;11</title>
<path fill="none" stroke="black" d="M78.969,134.769C86.1596,123.052 101.643,97.8222 111.679,81.4686"/>
<polygon fill="black" stroke="black" points="108.888,79.3258 117.101,72.6335 114.854,82.9872 108.888,79.3258"/>
</g>
<!-- 12 -->
<g id="node12" class="node"><title>12</title>
<ellipse fill="black" stroke="black" cx="139.055" cy="-17.4117" rx="7.2" ry="7.2"/>
</g>
<!-- 11&#45;&gt;12 -->
<g id="edge14" class="edge"><title>11&#45;&gt;12</title>
<path fill="none" stroke="black" d="M122.548,59.1304C125.372,46.0387 131.451,17.8485 135.392,-0.423826"/>
<polygon fill="black" stroke="black" points="131.991,-1.25815 137.52,-10.2956 138.834,0.217559 131.991,-1.25815"/>
</g>
<!-- 13 -->
<g id="node13" class="node"><title>13</title>
<ellipse fill="black" stroke="black" cx="172.401" cy="-90.9344" rx="7.2" ry="7.2"/>
</g>
<!-- 12&#45;&gt;13 -->
<g id="edge15" class="edge"><title>12&#45;&gt;13</title>
<path fill="none" stroke="black" d="M142.132,-24.1968C147.268,-35.5192 157.727,-58.5805 164.9,-74.3944"/>
<polygon fill="black" stroke="black" points="161.916,-76.2899 169.234,-83.9513 168.291,-73.3985 161.916,-76.2899"/>
</g>
<!-- 14 -->
<g id="node14" class="node"><title>14</title>
<ellipse fill="black" stroke="black" cx="84.2833" cy="-77.2365" rx="7.2" ry="7.2"/>
</g>
<!-- 12&#45;&gt;14 -->
<g id="edge16" class="edge"><title>12&#45;&gt;14</title>
<path fill="none" stroke="black" d="M134,-22.9327C125.48,-32.2396 108.034,-51.2944 96.2461,-64.1701"/>
<polygon fill="black" stroke="black" points="93.3393,-62.162 89.168,-71.9012 98.5023,-66.8889 93.3393,-62.162"/>
</g>
<!-- 15 -->
<g id="node15" class="node"><title>15</title>
<ellipse fill="black" stroke="black" cx="116.776" cy="-159.897" rx="7.2" ry="7.2"/>
</g>
<!-- 13&#45;&gt;15 -->
<g id="edge17" class="edge"><title>13&#45;&gt;15</title>
<path fill="none" stroke="black" d="M167.659,-96.8141C158.956,-107.604 140.216,-130.837 128.069,-145.896"/>
<polygon fill="black" stroke="black" points="125.061,-144.051 121.507,-154.032 130.509,-148.446 125.061,-144.051"/>
</g>
<!-- 16 -->
<g id="node16" class="node"><title>16</title>
<ellipse fill="black" stroke="black" cx="37.3193" cy="-142.033" rx="7.2" ry="7.2"/>
</g>
<!-- 14&#45;&gt;16 -->
<g id="edge18" class="edge"><title>14&#45;&gt;16</title>
<path fill="none" stroke="black" d="M79.9493,-83.2163C72.7169,-93.195 57.986,-113.519 47.8846,-127.456"/>
<polygon fill="black" stroke="black" points="44.8146,-125.728 41.7799,-135.879 50.4824,-129.836 44.8146,-125.728"/>
</g>
<!-- 15&#45;&gt;16 -->
<g id="edge19" class="edge"><title>15&#45;&gt;16</title>
<path fill="none" stroke="black" d="M109.725,-158.311C97.3871,-155.538 71.5588,-149.731 54.3249,-145.857"/>
<polygon fill="black" stroke="black" points="54.9932,-142.42 44.469,-143.641 53.4577,-149.249 54.9932,-142.42"/>
</g>
<!-- 16&#45;&gt;1 -->
<g id="edge20" class="edge"><title>16&#45;&gt;1</title>
<path fill="none" stroke="black" d="M30.0406,-141.722C16.6836,-141.15 -12.0779,-139.919 -30.7205,-139.121"/>
<polygon fill="black" stroke="black" points="-30.6517,-135.621 -40.7923,-138.69 -30.9511,-142.615 -30.6517,-135.621"/>
</g>
</g>
</svg>
