<?xml version="1.0" encoding="UTF-8" standalone="no"?>
<!DOCTYPE svg PUBLIC "-//W3C//DTD SVG 1.1//EN"
 "http://www.w3.org/Graphics/SVG/1.1/DTD/svg11.dtd">
<!-- Generated by graphviz version 2.38.0 (20140413.2041)
 -->
<!-- Title: %3 Pages: 1 -->
<svg width="361pt" height="319pt"
 viewBox="0.00 0.00 360.79 319.11" xmlns="http://www.w3.org/2000/svg" xmlns:xlink="http://www.w3.org/1999/xlink">
<g id="graph0" class="graph" transform="scale(1 1) rotate(0) translate(180.793 167.497)">
<title>%3</title>
<polygon fill="white" stroke="none" points="-180.793,151.61 -180.793,-167.497 180.001,-167.497 180.001,151.61 -180.793,151.61"/>
<!-- 1 -->
<g id="node1" class="node"><title>1</title>
<ellipse fill="none" stroke="black" cx="-48.0526" cy="-138.379" rx="3.5" ry="3.5"/>
</g>
<!-- 2 -->
<g id="node2" class="node"><title>2</title>
<ellipse fill="black" stroke="black" cx="-120.139" cy="-90.7284" rx="3.6" ry="3.6"/>
</g>
<!-- 1&#45;&gt;2 -->
<g id="edge1" class="edge"><title>1&#45;&gt;2</title>
<path fill="none" stroke="black" d="M-51.1501,-136.332C-60.9696,-129.841 -91.7539,-109.492 -108.69,-98.2969"/>
<polygon fill="black" stroke="black" points="-106.861,-95.3099 -117.134,-92.7152 -110.721,-101.149 -106.861,-95.3099"/>
</g>
<!-- 3 -->
<g id="node3" class="node"><title>3</title>
<ellipse fill="black" stroke="black" cx="-125.383" cy="-15.467" rx="3.6" ry="3.6"/>
</g>
<!-- 2&#45;&gt;3 -->
<g id="edge2" class="edge"><title>2&#45;&gt;3</title>
<path fill="none" stroke="black" d="M-120.392,-87.0984C-121.107,-76.8416 -123.169,-47.2382 -124.408,-29.4609"/>
<polygon fill="black" stroke="black" points="-120.933,-28.9704 -125.12,-19.2379 -127.917,-29.457 -120.933,-28.9704"/>
</g>
<!-- 4 -->
<g id="node4" class="node"><title>4</title>
<ellipse fill="black" stroke="black" cx="-173.193" cy="-19.5571" rx="3.6" ry="3.6"/>
</g>
<!-- 2&#45;&gt;4 -->
<g id="edge3" class="edge"><title>2&#45;&gt;4</title>
<path fill="none" stroke="black" d="M-122.419,-87.6703C-129.646,-77.9755 -152.302,-47.5821 -164.766,-30.8615"/>
<polygon fill="black" stroke="black" points="-162.198,-28.4504 -170.981,-22.5247 -167.81,-32.634 -162.198,-28.4504"/>
</g>
<!-- 5 -->
<g id="node5" class="node"><title>5</title>
<ellipse fill="black" stroke="black" cx="-142.456" cy="61.5889" rx="3.6" ry="3.6"/>
</g>
<!-- 3&#45;&gt;5 -->
<g id="edge4" class="edge"><title>3&#45;&gt;5</title>
<path fill="none" stroke="black" d="M-126.206,-11.7504C-128.555,-1.14762 -135.379,29.6477 -139.397,47.7855"/>
<polygon fill="black" stroke="black" points="-136.02,48.722 -141.6,57.7281 -142.854,47.2077 -136.02,48.722"/>
</g>
<!-- 4&#45;&gt;5 -->
<g id="edge5" class="edge"><title>4&#45;&gt;5</title>
<path fill="none" stroke="black" d="M-171.872,-16.0704C-167.685,-5.01684 -154.559,29.6362 -147.338,48.7002"/>
<polygon fill="black" stroke="black" points="-144.006,47.614 -143.737,58.2055 -150.553,50.0937 -144.006,47.614"/>
</g>
<!-- 6 -->
<g id="node6" class="node"><title>6</title>
<ellipse fill="black" stroke="black" cx="-76.3847" cy="100.953" rx="3.6" ry="3.6"/>
</g>
<!-- 5&#45;&gt;6 -->
<g id="edge6" class="edge"><title>5&#45;&gt;6</title>
<path fill="none" stroke="black" d="M-139.269,63.4875C-130.221,68.878 -104.025,84.4854 -88.4443,93.768"/>
<polygon fill="black" stroke="black" points="-86.4946,90.8555 -79.6951,98.9807 -90.0774,96.8691 -86.4946,90.8555"/>
</g>
<!-- 7 -->
<g id="node7" class="node"><title>7</title>
<ellipse fill="black" stroke="black" cx="-100.02" cy="139.475" rx="3.6" ry="3.6"/>
</g>
<!-- 5&#45;&gt;7 -->
<g id="edge7" class="edge"><title>5&#45;&gt;7</title>
<path fill="none" stroke="black" d="M-140.632,64.9355C-134.824,75.595 -116.559,109.12 -106.62,127.362"/>
<polygon fill="black" stroke="black" points="-103.501,125.771 -101.79,136.227 -109.648,129.12 -103.501,125.771"/>
</g>
<!-- 8 -->
<g id="node8" class="node"><title>8</title>
<ellipse fill="black" stroke="black" cx="-12.0046" cy="144.01" rx="3.6" ry="3.6"/>
</g>
<!-- 6&#45;&gt;8 -->
<g id="edge8" class="edge"><title>6&#45;&gt;8</title>
<path fill="none" stroke="black" d="M-73.2795,103.03C-64.4633,108.926 -38.9373,125.997 -23.7555,136.151"/>
<polygon fill="black" stroke="black" points="-21.5969,133.384 -15.2303,141.853 -25.4884,139.203 -21.5969,133.384"/>
</g>
<!-- 7&#45;&gt;8 -->
<g id="edge9" class="edge"><title>7&#45;&gt;8</title>
<path fill="none" stroke="black" d="M-96.2385,139.67C-84.1926,140.29 -46.3073,142.242 -25.6929,143.305"/>
<polygon fill="black" stroke="black" points="-25.4811,139.811 -15.6744,143.821 -25.8413,146.801 -25.4811,139.811"/>
</g>
<!-- 9 -->
<g id="node9" class="node"><title>9</title>
<ellipse fill="black" stroke="black" cx="51.7371" cy="98.1993" rx="3.6" ry="3.6"/>
</g>
<!-- 8&#45;&gt;9 -->
<g id="edge10" class="edge"><title>8&#45;&gt;9</title>
<path fill="none" stroke="black" d="M-8.93017,141.8C-0.201357,135.527 25.0715,117.364 40.1026,106.561"/>
<polygon fill="black" stroke="black" points="38.3804,103.489 48.5434,100.495 42.4656,109.173 38.3804,103.489"/>
</g>
<!-- 10 -->
<g id="node10" class="node"><title>10</title>
<ellipse fill="black" stroke="black" cx="75.0505" cy="141.154" rx="3.6" ry="3.6"/>
</g>
<!-- 8&#45;&gt;10 -->
<g id="edge11" class="edge"><title>8&#45;&gt;10</title>
<path fill="none" stroke="black" d="M-8.26392,143.887C3.59456,143.498 40.771,142.279 61.2233,141.608"/>
<polygon fill="black" stroke="black" points="61.3113,138.103 71.4207,141.273 61.5408,145.099 61.3113,138.103"/>
</g>
<!-- 11 -->
<g id="node11" class="node"><title>11</title>
<ellipse fill="black" stroke="black" cx="121.01" cy="66.2646" rx="3.6" ry="3.6"/>
</g>
<!-- 9&#45;&gt;11 -->
<g id="edge12" class="edge"><title>9&#45;&gt;11</title>
<path fill="none" stroke="black" d="M55.0782,96.659C64.5645,92.2858 92.0304,79.6241 108.366,72.0935"/>
<polygon fill="black" stroke="black" points="106.992,68.8727 117.539,67.8646 109.923,75.2297 106.992,68.8727"/>
</g>
<!-- 10&#45;&gt;11 -->
<g id="edge13" class="edge"><title>10&#45;&gt;11</title>
<path fill="none" stroke="black" d="M77.0253,137.936C83.2858,127.735 102.913,95.7538 113.71,78.1595"/>
<polygon fill="black" stroke="black" points="110.88,76.0795 119.094,69.3872 116.846,79.7409 110.88,76.0795"/>
</g>
<!-- 12 -->
<g id="node12" class="node"><title>12</title>
<ellipse fill="black" stroke="black" cx="139.055" cy="-17.4117" rx="3.6" ry="3.6"/>
</g>
<!-- 11&#45;&gt;12 -->
<g id="edge14" class="edge"><title>11&#45;&gt;12</title>
<path fill="none" stroke="black" d="M121.785,62.6691C124.221,51.3745 131.81,16.185 136.072,-3.58108"/>
<polygon fill="black" stroke="black" points="132.691,-4.50623 138.221,-13.5436 139.534,-3.03051 132.691,-4.50623"/>
</g>
<!-- 13 -->
<g id="node13" class="node"><title>13</title>
<ellipse fill="black" stroke="black" cx="172.401" cy="-90.9344" rx="3.6" ry="3.6"/>
</g>
<!-- 12&#45;&gt;13 -->
<g id="edge15" class="edge"><title>12&#45;&gt;13</title>
<path fill="none" stroke="black" d="M140.663,-20.9579C145.272,-31.1193 158.697,-60.7185 166.532,-77.9932"/>
<polygon fill="black" stroke="black" points="163.568,-79.9319 170.886,-87.5933 169.943,-77.0405 163.568,-79.9319"/>
</g>
<!-- 14 -->
<g id="node14" class="node"><title>14</title>
<ellipse fill="black" stroke="black" cx="84.2833" cy="-77.2365" rx="3.6" ry="3.6"/>
</g>
<!-- 12&#45;&gt;14 -->
<g id="edge16" class="edge"><title>12&#45;&gt;14</title>
<path fill="none" stroke="black" d="M136.413,-20.2972C128.771,-28.645 106.368,-53.1147 93.5554,-67.1091"/>
<polygon fill="black" stroke="black" points="90.9436,-64.7787 86.7723,-74.5179 96.1066,-69.5056 90.9436,-64.7787"/>
</g>
<!-- 15 -->
<g id="node15" class="node"><title>15</title>
<ellipse fill="black" stroke="black" cx="116.776" cy="-159.897" rx="3.6" ry="3.6"/>
</g>
<!-- 13&#45;&gt;15 -->
<g id="edge17" class="edge"><title>13&#45;&gt;15</title>
<path fill="none" stroke="black" d="M170.011,-93.8976C162.434,-103.292 138.68,-132.742 125.611,-148.943"/>
<polygon fill="black" stroke="black" points="122.649,-147.04 119.095,-157.021 128.098,-151.435 122.649,-147.04"/>
</g>
<!-- 16 -->
<g id="node16" class="node"><title>16</title>
<ellipse fill="black" stroke="black" cx="37.3193" cy="-142.033" rx="3.6" ry="3.6"/>
</g>
<!-- 14&#45;&gt;16 -->
<g id="edge18" class="edge"><title>14&#45;&gt;16</title>
<path fill="none" stroke="black" d="M82.0182,-80.3618C75.5273,-89.3173 56.6203,-115.404 45.5857,-130.628"/>
<polygon fill="black" stroke="black" points="42.4882,-128.938 39.4535,-139.089 48.156,-133.046 42.4882,-128.938"/>
</g>
<!-- 15&#45;&gt;16 -->
<g id="edge19" class="edge"><title>15&#45;&gt;16</title>
<path fill="none" stroke="black" d="M112.944,-159.035C101.857,-156.543 69.3569,-149.236 50.7702,-145.057"/>
<polygon fill="black" stroke="black" points="51.4543,-141.624 40.9301,-142.845 49.9188,-148.453 51.4543,-141.624"/>
</g>
<!-- 16&#45;&gt;1 -->
<g id="edge20" class="edge"><title>16&#45;&gt;1</title>
<path fill="none" stroke="black" d="M33.651,-141.876C22.0218,-141.379 -14.4359,-139.818 -34.4928,-138.96"/>
<polygon fill="black" stroke="black" points="-34.3524,-135.463 -44.493,-138.532 -34.6518,-142.456 -34.3524,-135.463"/>
</g>
</g>
</svg>
